<?xml version="1.0" encoding="UTF-8"?><svg id="Capa_2" xmlns="http://www.w3.org/2000/svg" viewBox="0 0 138.62 26.1"><defs><style>.cls-1{fill:#df3629;}</style></defs><g id="Capa_5_copia_2"><g><path class="cls-1" d="M7.31,24.08l-.32-1.69s-.04-.05-.06-.1c-.02-.05-.04-.08-.04-.1s0-.05,.02-.11c.02-.06,.02-.09,.02-.11l-.02-.14s-.01-.08-.02-.13c0-.04,0-.08,0-.1l-.06-.4s-.09-.03-.11-.08-.04-.1-.04-.16c0-.06,0-.11,.01-.16,.01-.05,.04-.07,.07-.08,0-.03-.01-.09-.02-.18,0-.09-.01-.18-.02-.28,0-.1-.01-.19-.02-.28,0-.09,0-.15,0-.19v-.02s-.15-1.02-.15-1.02c-.06-.39-.13-.77-.22-1.14-.09-.37-.15-.76-.19-1.14-.02-.01-.05-.06-.1-.13-.05-.07-.08-.12-.1-.14v-.02s0-.02,0-.03c0,0,0-.02,0-.03,0-.04,0-.07,0-.1,0-.03,.02-.06,.06-.11,0-.03-.02-.09-.03-.18-.02-.09-.04-.18-.05-.28-.02-.1-.04-.19-.05-.27-.02-.08-.03-.15-.03-.19-.08-.58-.18-1.15-.29-1.72-.12-.57-.24-1.14-.37-1.71-.02-.05-.04-.17-.09-.36-.04-.19-.08-.39-.13-.61-.04-.22-.09-.42-.13-.61-.04-.19-.07-.31-.08-.36,0,0,0-.04-.03-.09s-.04-.11-.06-.17c-.03-.06-.05-.13-.08-.19-.03-.07-.05-.12-.07-.16-.04-.11-.1-.22-.17-.33-.07-.11-.16-.19-.27-.24-.23-.02-.45-.02-.65,0-.2,.03-.42,.05-.66,.07-.04,0-.1,.01-.17,.03s-.14,.02-.21,.03c-.06,0-.12,.01-.18,.01-.05,0-.08,0-.09,0-.02,0-.05,0-.1,.02-.05,.01-.1,.03-.16,.04-.06,.02-.12,.03-.17,.04-.06,.01-.1,.03-.13,.04-.02,0-.06,.02-.14,.04s-.12,.04-.13,.06h-.02c-.14,.02-.25,.01-.34-.01-.09-.02-.16-.09-.22-.21-.16-.43-.27-.85-.34-1.27-.07-.42-.13-.85-.2-1.29,0-.06-.02-.15-.04-.28-.02-.13-.03-.26-.04-.4-.01-.14-.03-.27-.04-.4-.02-.13-.03-.22-.04-.27,.03-.09,.09-.16,.2-.2,.11-.04,.2-.06,.27-.06,.08-.01,.22-.03,.42-.06s.42-.06,.65-.09c.23-.03,.44-.07,.65-.1,.2-.03,.35-.05,.43-.07,.28-.05,.56-.11,.83-.18,.27-.07,.55-.12,.84-.15,.07-.01,.19-.03,.36-.06,.16-.03,.35-.06,.55-.1,.2-.04,.42-.07,.64-.11s.44-.07,.65-.11c.21-.03,.39-.06,.56-.08,.16-.02,.28-.04,.36-.04,.51-.14,1.03-.24,1.53-.3,.51-.07,1.03-.13,1.57-.21,.02,0,.08-.02,.18-.05,.1-.03,.18-.05,.22-.08,0,0,.04,0,.08-.01s.1-.02,.16-.03c.06-.01,.11-.02,.16-.03s.08-.01,.08-.01c.11,0,.19,0,.25,.04,.06,.04,.1,.09,.13,.15,.03,.07,.05,.14,.07,.22,.01,.08,.03,.17,.06,.24,.02,.08,.05,.22,.09,.42,.04,.2,.09,.41,.13,.63,.05,.22,.09,.43,.13,.62,.04,.2,.07,.33,.09,.4,0,.02,.01,.09,.02,.19,.01,.1,.02,.17,.03,.21,.05,.33,.06,.57,.04,.74-.02,.16-.09,.27-.19,.34-.1,.06-.25,.11-.43,.13-.19,.02-.42,.06-.7,.11-.03,0-.1,.02-.2,.04-.1,.02-.22,.05-.34,.08-.12,.03-.24,.06-.36,.09-.12,.03-.21,.05-.27,.07-.03,0-.09,.02-.16,.04-.08,.02-.16,.04-.24,.07-.09,.03-.17,.06-.24,.09-.07,.03-.13,.05-.16,.06-.02,.13-.03,.23-.02,.32s.02,.19,.04,.3c.01,.1,.03,.18,.04,.25,.01,.07,.05,.16,.11,.29l.36,2.5c.09,.18,.13,.37,.13,.54,0,.18,.03,.36,.07,.56,.01,.01,.02,.05,.04,.11,.02,.06,.03,.12,.05,.18,.01,.06,.03,.13,.04,.19,.01,.06,.02,.11,.03,.14,.08,.28,.16,.56,.22,.84,.06,.27,.12,.55,.17,.82s.11,.55,.17,.83c.06,.28,.14,.56,.22,.86l.27,1.38c.03,.26,.06,.49,.1,.69,.03,.2,.09,.43,.17,.68,0,.02,.01,.04,.04,.07,.02,.03,.03,.06,.04,.07v.02s.01,.05,.01,.05l-.02,.05s-.02,.06-.01,.08l.3,1.83,.03,.04s.03,.05,.04,.07,0,.06,0,.12c0,.06,0,.1,0,.12,0,.26,0,.55,.03,.87s.06,.61,.12,.86l-.12,.15-4.27,.75-.22-.16Z"/><path class="cls-1" d="M17.47,22.86l-.71,.02c-.06,.02-.1,.02-.11,0,0-.01-.02-.04-.03-.08-.02-.1-.03-.18-.03-.25s-.02-.15-.05-.25c-.02-.09-.05-.16-.08-.21-.04-.05-.07-.11-.08-.18-.01-.05-.02-.09-.03-.13,0-.04,.01-.08,.05-.13,0-.11-.02-.37-.06-.77-.05-.4-.11-.87-.19-1.43-.08-.56-.17-1.17-.27-1.84-.1-.66-.2-1.33-.3-1.99-.1-.66-.19-1.28-.28-1.87-.08-.59-.15-1.09-.2-1.5,0-.08-.02-.19-.05-.32-.03-.13-.07-.27-.1-.42-.04-.15-.07-.29-.1-.42-.03-.14-.04-.25-.04-.34,0-.02,0-.05-.02-.11-.01-.06-.02-.1-.03-.13-.04,0-.06-.01-.07-.05s-.02-.08-.03-.12l-.02-.1,.06-.13c0-.21-.02-.39-.05-.54s-.06-.32-.1-.52c0-.03-.01-.07-.02-.12,0-.05-.02-.1-.04-.16-.01-.06-.03-.12-.03-.19,0-.02-.02-.05-.06-.1-.03-.05-.05-.09-.06-.1,0-.02,0-.05,0-.11,0-.05,.01-.09,.02-.11,0,0,0-.04-.01-.09,0-.05-.01-.11-.01-.16s0-.11,0-.16c0-.05,0-.08,0-.1l.02-.03s0-.03,0-.05c.27-.06,.53-.14,.78-.23,.25-.09,.51-.16,.79-.2,.33-.05,.65-.08,.96-.09,.31,0,.63,0,.96,0,.04,0,.1,0,.18,0,.08,0,.15,0,.23,0,.08,0,.15,.02,.22,.05,.07,.03,.11,.09,.13,.17,.03,.14,.04,.25,.02,.34-.02,.09-.01,.21,.02,.35v.04s0,.03,.01,.04c0,0,0,.02,0,.02,.05-.03,.12-.07,.21-.13,.08-.05,.17-.11,.26-.17s.18-.12,.27-.17,.15-.1,.2-.13c.02-.01,.06-.04,.13-.09,.07-.05,.12-.08,.14-.1,.02,0,.06-.02,.14-.05,.07-.03,.11-.05,.12-.07,.07-.06,.15-.12,.26-.18s.21-.12,.32-.18c.11-.06,.21-.11,.3-.15,.09-.04,.15-.07,.17-.09,.19-.1,.39-.18,.6-.22,.21-.04,.43-.08,.65-.11,.36-.07,.74-.08,1.13-.04,.39,.04,.77,.11,1.14,.21,.37,.1,.71,.23,1.01,.38,.31,.15,.56,.3,.76,.46,.06,.06,.14,.13,.22,.21,.08,.09,.16,.17,.23,.27,.07,.09,.14,.19,.19,.28,.06,.09,.09,.18,.11,.26,0,.05-.01,.11-.05,.2-.04,.08-.09,.17-.15,.26-.06,.09-.12,.17-.18,.24-.06,.07-.11,.12-.14,.14,0,0-.03,.03-.06,.06-.03,.03-.06,.06-.09,.08-.03,.03-.07,.06-.1,.09-.03,.03-.05,.05-.06,.06-.03,.03-.07,.07-.13,.12-.06,.05-.11,.1-.17,.16-.06,.06-.11,.11-.15,.15-.05,.05-.08,.07-.08,.08-.13,.12-.24,.25-.36,.38s-.23,.26-.36,.39c-.13,.12-.27,.23-.42,.32-.15,.09-.32,.15-.51,.18l-.24,.03s-.05-.01-.06-.02c-.02,0-.05-.01-.09-.03-.35-.13-.72-.25-1.11-.35-.39-.1-.77-.13-1.14-.08-.27,.05-.49,.17-.64,.38-.16,.21-.3,.42-.43,.64-.01,.03-.05,.1-.11,.19s-.1,.16-.11,.2c-.01,.03-.04,.09-.08,.17-.04,.08-.08,.17-.12,.27-.04,.09-.08,.19-.13,.29-.04,.1-.07,.18-.08,.24-.06,.2-.08,.41-.07,.64s.02,.44,.03,.65c-.02,.83,.02,1.58,.1,2.24,.09,.67,.2,1.29,.34,1.87,.09,.43,.19,.85,.29,1.27,.1,.41,.2,.84,.29,1.27,.01,.05,.03,.13,.05,.26,.02,.12,.05,.25,.08,.38,.03,.13,.05,.26,.08,.38,.03,.12,.04,.21,.05,.26-.02,.01-.03,.02-.04,.03-.01,0-.02,.02-.04,.03l-.05,.03h-.05s-.02,0-.02,0c-.02,0-.04,0-.07,0-.03,0-.06-.02-.08-.03l-3.29,.49Z"/><path class="cls-1" d="M34.64,24.87c.11-.38,.23-.74,.35-1.08,.12-.34,.24-.68,.35-1.01,.11-.33,.21-.65,.3-.96,.09-.31,.17-.63,.22-.94v-.02s-.02-.02-.02-.02l.09-.56s.04-.04,.09-.08,.07-.07,.07-.09c0-.02,0-.05,.02-.11,.02-.05,.03-.11,.05-.16,.02-.05,.03-.11,.05-.16,.02-.05,.03-.09,.03-.11,.02-.1,.03-.19,.05-.28s0-.17-.01-.26l-.29-.54c-.07-.27-.19-.53-.35-.78s-.33-.49-.48-.72l-.31-.38s-.03-.03-.03-.06v-.04c-.16-.18-.29-.38-.41-.58s-.24-.4-.35-.6c-.11-.2-.23-.4-.34-.6-.12-.2-.24-.4-.38-.59-.04-.05-.12-.14-.23-.29-.11-.15-.23-.31-.36-.49-.13-.17-.26-.34-.37-.5-.12-.16-.2-.28-.26-.36-.32-.42-.62-.84-.92-1.27-.3-.43-.59-.86-.89-1.29s-.59-.86-.9-1.28-.62-.84-.94-1.25c0,0-.01-.02-.01-.02v-.05c-.04-.1,0-.2,.13-.3,.02,0,.04,0,.07-.02s.06-.02,.07-.03c.02,0,.04-.03,.07-.09,.03-.06,.06-.1,.07-.12,.02,0,.06,0,.12-.02,.06-.01,.13-.03,.2-.05,.07-.02,.13-.03,.2-.05s.1-.03,.12-.04c.04-.01,.15-.05,.32-.11,.17-.06,.36-.13,.57-.21,.2-.08,.39-.15,.57-.21,.17-.07,.29-.11,.33-.13,.02,0,.03,0,.05-.02,.02,0,.03,0,.04,0,.01,0,.02,0,.03,0,.03,0,.06,0,.08-.02,.02,0,.04,0,.06-.02,.04-.01,.1-.02,.18-.04,.08-.01,.16-.03,.24-.04,.08-.01,.15-.02,.22-.03s.11,0,.13,0c.02,0,.06,0,.1,.01,.05,.02,.09,.04,.13,.06,.03,.04,.07,.1,.14,.2,.06,.09,.13,.19,.2,.3,.07,.1,.14,.2,.21,.3,.07,.09,.12,.16,.14,.2,.29,.44,.61,.87,.94,1.27s.65,.83,.96,1.27c0,.02,.03,.05,.06,.11,.03,.06,.07,.12,.11,.18,.04,.06,.08,.12,.11,.18s.05,.09,.06,.09,.02,.03,.05,.06c.02,.03,.05,.06,.07,.1s.05,.07,.07,.1,.04,.06,.05,.08c.02,.02,.07,.09,.17,.21,.09,.12,.2,.24,.3,.38,.11,.13,.21,.26,.31,.38,.1,.12,.16,.19,.19,.22,.02,.03,.07,.11,.15,.25,.08,.13,.17,.27,.27,.43s.19,.3,.27,.43c.08,.14,.14,.22,.17,.25,0,.02,.02,.04,.05,.06,.03,.03,.05,.05,.07,.06,0-.08,.02-.18,.02-.3,0-.12,.01-.21,.02-.28,.04-.39,.08-.76,.14-1.12,.06-.36,.14-.73,.24-1.11,.05-.23,.12-.46,.21-.69,.09-.23,.16-.46,.21-.69,.09-.35,.19-.73,.29-1.14,.11-.41,.21-.78,.31-1.11,0-.03,.02-.08,.05-.16,.03-.08,.06-.18,.09-.28,.03-.1,.06-.19,.09-.28,.03-.08,.04-.14,.05-.16,.03-.1,.05-.19,.06-.26,.01-.07,.03-.15,.05-.21,.02-.07,.05-.13,.08-.2,.04-.06,.08-.13,.14-.21,0,0,.03,0,.08-.02s.09-.03,.14-.04,.09-.03,.14-.05c.04-.02,.07-.03,.09-.04,.21-.05,.41-.08,.61-.1,.2-.02,.4-.04,.61-.05,.04,0,.13-.01,.25-.03,.13-.02,.27-.03,.42-.05,.15-.02,.3-.03,.43-.04s.21-.02,.26-.02c.06-.01,.18-.03,.34-.04,.16-.02,.33-.03,.51-.04,.18-.01,.35-.03,.51-.04,.16-.01,.27-.02,.34-.01,.04,.01,.1,.04,.19,.08,.08,.04,.14,.08,.16,.13,.01,.07,.02,.16,.02,.25,0,.09-.01,.19-.03,.28-.02,.1-.03,.19-.05,.27-.02,.09-.03,.16-.04,.22-.08,.41-.15,.8-.24,1.17-.08,.38-.17,.75-.27,1.12-.09,.37-.2,.73-.31,1.1s-.23,.74-.37,1.12c-.23,.64-.44,1.32-.62,2.04-.19,.72-.37,1.4-.54,2.04-.07,.27-.16,.57-.28,.89-.12,.32-.23,.61-.35,.87-.08,.17-.14,.34-.2,.51-.06,.17-.1,.34-.13,.51-.02,.15-.04,.28-.06,.38-.02,.11-.04,.21-.06,.31-.03,.1-.06,.2-.09,.31-.04,.11-.08,.24-.12,.39-.02,.05-.03,.14-.03,.27,0,.13,0,.23,.02,.29,0,.02-.01,.07-.04,.15-.03,.08-.05,.13-.07,.15,0,0-.01,.03-.03,.06-.02,.03-.05,.06-.08,.1-.03,.04-.06,.07-.09,.1-.03,.03-.04,.05-.05,.06,0,.02,0,.06-.02,.12-.01,.06-.03,.13-.04,.2-.02,.07-.03,.14-.03,.2,0,.06-.01,.1,0,.12-.02,.04-.05,.12-.09,.23-.04,.11-.07,.23-.11,.36-.04,.13-.08,.24-.11,.36-.03,.11-.06,.19-.08,.23,.03,.19,.04,.33,.04,.44,0,.11-.06,.24-.17,.4l-.86,3.41s-.02,.06-.05,.12-.06,.11-.09,.17-.07,.11-.11,.15-.07,.07-.1,.08c-.07,.02-.16,.04-.27,.06-.11,.02-.2,.02-.26,0-.02,0-.05,0-.1,0-.05,.01-.11,.03-.18,.04-.07,.02-.13,.03-.2,.05s-.12,.01-.17,0c-.03,0-.07-.01-.12-.02-.05,0-.09,0-.11,0-.04,0-.12-.01-.25-.02-.12-.01-.26-.02-.4-.04-.14-.01-.28-.03-.41-.04s-.22-.01-.26-.01c-.04,.01-.11,.02-.2,.03-.09,0-.15,.01-.16,.01-.02,0-.06,0-.14,0-.07,0-.16-.01-.25-.01-.09,0-.17,0-.25,0-.08,0-.12,0-.13,0-.05,0-.11,0-.19-.02-.07-.02-.14-.07-.19-.15-.05-.08-.08-.19-.09-.34,0-.15,.03-.35,.12-.61Z"/><path class="cls-1" d="M66.01,19.52c-.1-.06-.14-.14-.13-.24,.01-.11,.01-.21,0-.31,0-.02-.01-.04-.04-.07-.02-.03-.04-.06-.04-.07v-.11c0-.11,.02-.22,.07-.31s.07-.19,.07-.29v-.07s-.06,0-.12,.03c-.05,.02-.09,.03-.1,.05-.06,.04-.15,.1-.27,.19-.12,.08-.26,.17-.4,.26-.15,.09-.29,.18-.42,.25-.14,.08-.24,.12-.32,.13l-.95,.41h-.07s-.04,0-.09,.01c-.04,0-.08,.02-.13,.03s-.09,.02-.13,.03-.07,.01-.08,.01h-.74c-.15,.01-.29,.02-.42,.02s-.24,0-.35,0c-.11,0-.22-.01-.34-.02-.12,0-.25-.02-.4-.04-.02,0-.06-.02-.13-.03-.07-.02-.14-.03-.22-.05-.08-.01-.15-.03-.22-.04-.07-.01-.11-.02-.13-.02h-.63s-.41-.14-.41-.14c-.06-.02-.15-.07-.26-.13-.12-.06-.25-.13-.38-.2-.14-.07-.26-.14-.39-.2-.12-.06-.21-.11-.27-.13-.05-.02-.12-.06-.22-.1-.1-.04-.2-.09-.3-.14-.1-.05-.2-.1-.29-.14-.09-.04-.15-.07-.17-.08,0,0-.03-.03-.06-.05-.03-.03-.07-.06-.12-.1-.05-.04-.09-.08-.14-.11-.05-.04-.08-.06-.1-.08-.21-.2-.41-.42-.6-.66-.19-.24-.38-.47-.57-.69-.17-.2-.32-.47-.44-.8s-.22-.68-.3-1.05c-.08-.37-.14-.73-.18-1.09-.04-.36-.06-.67-.06-.93,0-.33,0-.64,0-.93,0-.28,.01-.56,.04-.84,.02-.27,.06-.55,.12-.83,.05-.28,.13-.58,.23-.89,0-.05,.04-.15,.09-.31,.05-.16,.1-.32,.16-.48,.05-.16,.1-.29,.14-.39,.04-.1,.06-.1,.05-.01,.12-.38,.29-.73,.5-1.05,.21-.32,.44-.63,.71-.91s.55-.54,.86-.78c.31-.24,.63-.47,.96-.67,.03-.02,.11-.07,.22-.13,.12-.06,.24-.13,.38-.2,.13-.07,.26-.13,.39-.2,.12-.06,.21-.1,.26-.12,0,0,.03-.02,.08-.03,.04-.01,.1-.03,.16-.05,.06-.02,.12-.03,.18-.05,.06-.01,.11-.02,.15-.03,.05-.02,.11-.03,.19-.05,.08-.02,.13-.03,.15-.03l2.4-.04c.29,.08,.56,.15,.83,.21,.27,.06,.53,.15,.78,.24s.49,.22,.73,.35,.46,.32,.69,.54h.05s0-.06,0-.1c0-.04,0-.09,0-.14,0-.05,0-.1,0-.14,0-.04,0-.08,0-.09,0,0,0-.04,.01-.09,0-.05,.02-.1,.03-.16,.01-.06,.02-.11,.03-.15,.01-.04,.02-.07,.02-.08-.04-.06-.05-.12-.02-.18s.08-.11,.14-.16c.06-.04,.13-.07,.2-.08,.07-.01,.13,0,.18,.03,.41,0,.77-.01,1.07-.01,.31,0,.61,0,.9,0s.6,.03,.91,.05c.31,.03,.67,.06,1.08,.1,.02,.02,.07,.04,.12,.07,.06,.03,.09,.06,.09,.1,0,.07,0,.16,.02,.27,0,.11,.02,.22,.03,.34,.01,.12,.02,.23,.03,.34,0,.11,.01,.21,0,.29,0,.02,0,.07,0,.15,0,.08-.01,.17-.02,.27,0,.1-.01,.19-.02,.27,0,.08-.01,.13,0,.15,0,.02-.01,.08-.03,.18-.02,.09-.03,.15-.03,.17,0,.02,0,.08,0,.15,0,.08,0,.16,0,.24,0,.09,0,.17,0,.24,0,.08,0,.12,0,.14,0,.02,0,.06-.02,.11-.02,.05-.03,.09-.05,.11l.02,2.88v.2s0,.23,.01,.54,.01,.69,.02,1.15c.01,.46,.03,.97,.04,1.53,.02,.56,.03,1.12,.05,1.68,.02,.56,.03,1.08,.05,1.58,.02,.5,.03,.91,.06,1.24,0,.02,0,.09-.02,.19-.01,.1-.02,.21-.03,.34s-.02,.23-.03,.34c-.01,.1-.01,.17,0,.19v.1s0,.1,0,.1c-.02,.02-.07,.05-.16,.09-.09,.03-.15,.06-.16,.08-.22,0-.41,.01-.57,.03-.16,.02-.31,.04-.45,.06-.14,.02-.29,.04-.44,.06-.15,.02-.34,.03-.56,.02h-.57c-.06,.01-.15,.01-.29,0-.13,0-.28,0-.43-.01s-.29-.01-.43-.02c-.13,0-.23-.01-.29-.02Zm-7.34-7.91c0,.43,.08,.83,.23,1.19,.15,.36,.34,.72,.57,1.08,.02,.02,.04,.06,.08,.11,.03,.05,.06,.08,.07,.08,.2,.21,.4,.41,.61,.6,.21,.19,.43,.36,.67,.51,.23,.15,.48,.26,.74,.35,.26,.09,.55,.13,.86,.12,.26,0,.52-.05,.79-.15,.27-.09,.52-.19,.75-.29,.03-.02,.08-.04,.14-.07s.12-.06,.18-.09c.06-.03,.11-.06,.16-.08s.07-.04,.09-.05c.3-.23,.54-.51,.73-.82,.19-.32,.34-.65,.45-1.01,.11-.36,.19-.72,.23-1.1s.06-.74,.07-1.09c0-.04,0-.11,0-.21,0-.1-.01-.2-.02-.3,0-.11-.02-.21-.03-.3,0-.09-.02-.16-.03-.19l-.11-.22c-.03-.06-.07-.12-.1-.18-.03-.06-.06-.1-.08-.15-.17-.31-.34-.6-.51-.89s-.4-.51-.68-.68c-.07-.05-.14-.1-.22-.16s-.17-.12-.27-.18c-.09-.06-.19-.11-.28-.17-.09-.05-.17-.08-.25-.1-.03,0-.09-.02-.18-.05-.09-.02-.18-.05-.28-.07-.1-.02-.19-.04-.28-.06-.09-.01-.15-.03-.18-.03-.05-.07-.12-.11-.22-.12-.1-.01-.21,0-.32,0-.12,.01-.23,.03-.35,.06-.11,.03-.21,.04-.28,.04-.12,0-.25,.03-.39,.07-.14,.05-.27,.11-.39,.18-.12,.08-.25,.16-.36,.25-.12,.09-.22,.19-.31,.29-.02,.02-.05,.06-.1,.12-.05,.07-.11,.13-.17,.2-.06,.07-.12,.14-.17,.2-.06,.07-.09,.11-.1,.12-.3,.35-.51,.75-.63,1.22-.07,.33-.11,.65-.14,.98-.02,.33-.03,.67-.03,1.01Z"/><path class="cls-1" d="M72.4,19.64s.02-.11,.07-.19c.05-.09,.09-.13,.13-.13l2.23,.06s.07,.03,.14,.05c.07,.02,.11,.03,.13,.03h.09s.07,0,.07,0c.03,0,.1,0,.2,0,.1,0,.21,0,.33,0,.12,0,.23,0,.33,0,.1,0,.17,0,.2-.01h.02s.05,0,.05,0c.04,.03,.1,.06,.19,.1,.09,.04,.14,.06,.16,.06,.1,.07,.17,.13,.22,.18,.05,.05,.11,.13,.17,.23,0,.02,.02,.05,.03,.1,.01,.05,.04,.11,.06,.18s.05,.14,.08,.2c.03,.07,.06,.12,.09,.15,.08,.25,.25,.46,.5,.65,.25,.19,.58,.31,.99,.37h.07c.45,.08,.79,.12,1,.12,.22,0,.39-.01,.51-.05,.41-.05,.82-.15,1.23-.28s.78-.34,1.11-.61c.16-.13,.3-.29,.42-.48,.12-.18,.22-.38,.3-.6s.14-.44,.18-.67,.07-.46,.07-.68v-.22c-.28,.2-.6,.35-.96,.43-.36,.08-.7,.16-1.03,.21-.49,.09-.95,.15-1.39,.19-.44,.04-.91,.05-1.41,.04-.04,0-.11,0-.21-.02-.1-.01-.2-.02-.31-.04s-.21-.03-.31-.04c-.1-.01-.16-.02-.19-.02-.48-.09-.95-.24-1.42-.45-.47-.22-.89-.48-1.27-.79-.03-.03-.09-.06-.17-.11-.08-.05-.17-.09-.26-.14s-.18-.09-.27-.14c-.08-.05-.14-.09-.17-.13-.05-.04-.12-.11-.21-.2s-.18-.19-.28-.29-.18-.19-.26-.28c-.08-.08-.13-.14-.15-.16-.18-.23-.32-.46-.42-.69s-.2-.47-.31-.72c-.28-.67-.46-1.34-.53-2-.07-.66-.09-1.35-.08-2.07-.01-.23-.01-.43,0-.6,0-.17,.03-.33,.06-.49,.03-.15,.08-.31,.13-.45,.06-.15,.13-.32,.21-.5,0,0,.02-.06,.05-.16,.03-.1,.07-.21,.11-.33,.04-.12,.09-.24,.13-.37,.04-.12,.08-.23,.12-.31,.11-.28,.21-.51,.3-.68,.09-.17,.17-.33,.27-.46s.2-.26,.31-.39,.26-.29,.44-.48c.02-.02,.06-.06,.12-.12,.05-.06,.11-.11,.18-.17,.06-.06,.12-.11,.17-.17,.05-.05,.09-.08,.12-.1,0,0,.07-.04,.18-.1,.11-.06,.24-.13,.39-.21,.15-.08,.3-.17,.45-.25,.15-.09,.26-.15,.33-.2,.12-.06,.26-.11,.43-.15,.17-.04,.31-.07,.43-.09,.45-.08,.87-.14,1.26-.19,.39-.05,.81-.07,1.27-.05,.28,0,.56,.03,.86,.08s.59,.11,.89,.17c.3,.07,.59,.14,.88,.22,.29,.08,.56,.16,.83,.23,.14,.09,.27,.16,.41,.19,.14,.04,.27,.08,.41,.13,.02,0,.03,0,.05,.03l.02,.03c.07,.1,.15,.21,.24,.33,.09,.12,.19,.21,.32,.26v-.05c0-.26,.02-.48,.03-.65,.01-.17,.02-.39,.03-.65v-.12s.15-.08,.15-.08c0,0,.04,0,.11,0,.06,0,.14,0,.23,0,.09,0,.18,0,.27,0,.09,0,.16,0,.21,0,.07,0,.18,0,.32,.01,.14,0,.27,.01,.41,.02,.13,0,.26,0,.37,.02s.17,.01,.19,.01,.06,0,.15,.02c.08,.01,.17,.02,.26,.03s.18,.02,.27,.03c.09,.01,.14,.02,.16,.03h.13c.11,0,.21,.02,.29,.06,.08,.03,.13,.05,.16,.05,.16,.03,.29,.06,.37,.11,.08,.04,.12,.14,.12,.3,0,.16-.02,.32-.05,.48-.03,.15-.04,.31-.05,.48v.02s.01,.04,.03,.07c.02,.03,.04,.06,.03,.07v.02c0,.11-.02,.22-.04,.32-.03,.1-.04,.21-.05,.35-.01,.54,0,1.07,.02,1.59,.02,.53,.05,1.05,.09,1.58,.04,.53,.07,1.05,.09,1.58s.03,1.05,.02,1.58c-.01,.48-.05,.95-.11,1.41-.06,.46-.12,.93-.18,1.41v.43c-.13,1.04-.32,2.05-.59,3.04-.27,.99-.66,1.94-1.17,2.86l-.05,.05s-.02,.03-.03,.04c-.24,.32-.5,.64-.77,.96s-.57,.59-.9,.81c-.07,.04-.17,.1-.31,.19-.14,.09-.29,.18-.43,.28s-.29,.18-.42,.26c-.13,.08-.22,.14-.26,.16,0,0-.03,.02-.07,.03s-.09,.02-.15,.04c-.06,.01-.12,.03-.18,.05-.06,.02-.11,.04-.14,.05-.02,.02-.07,.03-.12,.03-.06,0-.09,.02-.11,.03-.02,0-.05,0-.09,0-.05,0-.09,.01-.15,.02s-.1,.01-.15,.02c-.04,0-.08,.01-.09,.02,0,0-.04,0-.09,.02-.02,0-.04,.02-.06,.02h-.02s-.05,0-.05,0c-.02,0-.1,0-.24,0-.13,0-.28,.01-.43,.02s-.29,.02-.43,.03c-.13,0-.21,.02-.24,.02-.02,0-.06,0-.14,0-.08,0-.16-.01-.24-.02-.09,0-.17-.01-.24-.02-.08,0-.12,0-.14,0-.23,.01-.43,0-.59-.04-.17-.04-.36-.07-.59-.1-.17,0-.36-.03-.56-.06s-.41-.08-.62-.14c-.21-.05-.42-.11-.62-.17s-.38-.12-.54-.17c-.28-.09-.53-.18-.74-.28-.21-.1-.42-.21-.61-.33-.19-.12-.38-.25-.57-.4-.19-.15-.4-.32-.63-.51l-.05-.05c-.21-.27-.41-.5-.6-.71-.2-.21-.35-.47-.47-.78-.02-.02-.04-.09-.07-.2-.03-.11-.05-.18-.07-.23-.06-.21-.11-.4-.16-.58-.05-.18-.1-.36-.16-.55v-.02Zm4.4-7.41s0,.05,.02,.1c.02,.05,.03,.09,.05,.1,.02,.04,.02,.11,.01,.21,0,.1,0,.19,.05,.25,.05,.12,.13,.27,.23,.43,.1,.17,.22,.33,.34,.49s.26,.31,.4,.45,.28,.23,.42,.29c0,0,.03,0,.08,.02,.04,.01,.1,.03,.16,.04,.06,.01,.12,.03,.18,.04,.06,.01,.1,.03,.13,.03,.25,.07,.5,.12,.74,.14s.49,.04,.74,.04c.26,0,.54,0,.85-.03,.31-.02,.6-.08,.88-.16,.28-.08,.54-.2,.78-.36,.24-.16,.42-.36,.55-.62,0-.03,.03-.09,.06-.17,.03-.08,.07-.17,.11-.25s.08-.17,.11-.25c.03-.08,.06-.14,.08-.17,.2-.56,.29-1.11,.25-1.64-.03-.53-.11-1.06-.23-1.61,0-.1-.02-.19-.06-.28s-.09-.18-.13-.27c-.02-.03-.05-.09-.09-.17-.05-.08-.1-.17-.15-.26-.05-.09-.1-.18-.15-.27-.05-.08-.08-.14-.09-.17-.21-.2-.41-.36-.6-.47-.19-.11-.39-.2-.59-.25s-.42-.09-.65-.1-.48,0-.75,.01c-.53-.01-1.02,.12-1.46,.39-.45,.27-.84,.62-1.17,1.04-.33,.42-.59,.88-.79,1.38-.19,.5-.29,.98-.3,1.43l-.02,.6Z"/><path class="cls-1" d="M101.81,20.73c-.09-.06-.13-.15-.11-.25,.02-.1,.03-.21,.03-.3,0-.02,0-.04-.03-.08-.02-.03-.03-.06-.03-.08v-.11c.02-.11,.05-.21,.1-.3,.06-.09,.09-.18,.09-.29v-.07s-.06,0-.11,.02c-.05,.01-.09,.03-.11,.04-.06,.04-.16,.09-.29,.16s-.27,.15-.43,.23c-.15,.08-.3,.15-.44,.21s-.25,.1-.32,.1l-.98,.33h-.07s-.04,0-.09,0c-.04,0-.08,.01-.13,.02-.05,0-.09,.02-.14,.02-.05,0-.07,0-.08,0l-.74-.05c-.15-.01-.29-.02-.41-.03-.12,0-.24-.02-.35-.04-.11-.02-.22-.03-.34-.05s-.25-.04-.39-.08c-.02,0-.06-.02-.13-.05-.07-.02-.14-.04-.22-.06s-.15-.04-.22-.06c-.07-.02-.11-.03-.13-.03l-.63-.04-.39-.19c-.06-.03-.14-.08-.25-.15-.11-.07-.23-.15-.36-.23-.13-.08-.25-.16-.37-.23-.12-.07-.2-.12-.26-.15-.05-.03-.12-.07-.21-.12-.09-.05-.19-.11-.29-.17-.1-.06-.19-.11-.28-.16-.09-.05-.14-.08-.17-.1,0,0-.03-.03-.06-.06-.03-.03-.07-.07-.11-.11-.04-.04-.08-.09-.13-.12s-.07-.07-.1-.09c-.19-.22-.37-.45-.54-.71-.17-.26-.34-.5-.51-.73-.16-.21-.28-.49-.37-.83-.09-.34-.16-.7-.21-1.07-.05-.37-.08-.74-.08-1.1,0-.36,0-.67,.01-.93,.02-.33,.05-.64,.07-.93,.02-.28,.06-.56,.1-.83,.05-.27,.11-.54,.18-.81,.08-.27,.18-.56,.3-.87,.01-.05,.05-.15,.11-.3s.13-.31,.2-.46,.12-.28,.17-.37c.05-.09,.06-.1,.05,0,.16-.36,.35-.7,.58-1.01,.23-.31,.49-.59,.78-.85,.29-.26,.59-.49,.92-.71s.67-.41,1.01-.59c.03-.02,.11-.06,.23-.11,.12-.05,.25-.11,.39-.16,.14-.06,.27-.11,.4-.16,.13-.05,.22-.08,.27-.1,0,0,.04-.02,.08-.02,.05,0,.1-.02,.16-.03s.12-.02,.19-.03,.11-.01,.15-.02c.05-.01,.12-.02,.2-.04,.08-.01,.13-.02,.15-.01l2.4,.16c.28,.1,.55,.19,.81,.28,.26,.09,.52,.19,.76,.31,.24,.12,.47,.26,.69,.41s.43,.36,.64,.6h.05s0-.06,.01-.1c0-.04,.01-.09,.02-.14,0-.05,0-.1,.02-.14,0-.04,.01-.07,.01-.09,0,0,0-.04,.02-.08,.01-.05,.02-.1,.04-.16,.02-.06,.03-.11,.05-.15,.02-.04,.02-.07,.02-.08-.04-.06-.04-.12,0-.18,.04-.06,.09-.11,.15-.14,.06-.04,.13-.06,.21-.07,.07,0,.13,0,.18,.04,.41,.03,.76,.05,1.07,.08s.61,.05,.9,.09,.59,.07,.9,.13c.31,.05,.67,.12,1.07,.19,.02,.02,.06,.04,.12,.08,.05,.03,.08,.07,.08,.11,0,.07,0,.16,0,.27,0,.11,0,.22,0,.34,0,.12,0,.23,0,.34,0,.11,0,.21-.02,.29,0,.02,0,.06-.02,.15-.01,.08-.03,.17-.04,.27s-.03,.19-.04,.27c-.01,.08-.02,.13-.02,.15,0,.02-.02,.08-.05,.17-.03,.09-.05,.15-.05,.16,0,.02,0,.08,0,.15,0,.08,0,.16-.01,.24,0,.09-.01,.17-.02,.24,0,.08-.01,.12-.02,.14,0,.02-.01,.06-.03,.11-.02,.05-.04,.08-.06,.11l-.22,2.87v.19s-.03,.23-.05,.54c-.02,.31-.04,.69-.07,1.15-.03,.46-.06,.97-.09,1.53s-.06,1.12-.09,1.68c-.03,.56-.06,1.08-.08,1.58s-.04,.91-.05,1.24c0,.02-.01,.09-.03,.19-.02,.1-.04,.21-.06,.33-.02,.12-.04,.23-.06,.33-.02,.1-.03,.16-.02,.19v.1s-.01,.1-.01,.1c-.02,.02-.07,.05-.17,.07-.1,.03-.15,.05-.17,.06-.22-.01-.41-.02-.57-.01-.16,0-.31,.01-.45,.02-.14,.01-.29,.02-.44,.03-.15,0-.34,0-.56-.03l-.57-.04c-.06,0-.15-.01-.29-.03-.13-.01-.28-.03-.42-.05-.15-.02-.29-.04-.42-.05-.13-.02-.23-.03-.28-.04Zm-6.66-8.5c-.03,.43,.02,.83,.13,1.21s.28,.75,.48,1.12c.01,.03,.04,.07,.06,.12,.03,.06,.05,.08,.07,.08,.18,.22,.37,.44,.56,.65,.19,.21,.4,.4,.62,.56,.22,.17,.46,.3,.71,.41s.53,.17,.84,.19c.26,.02,.53,0,.8-.08,.27-.07,.53-.15,.77-.23,.03-.01,.08-.03,.14-.06,.06-.02,.13-.05,.19-.07,.06-.02,.12-.05,.16-.07,.05-.02,.08-.04,.09-.04,.32-.21,.58-.46,.8-.76,.22-.3,.4-.62,.54-.97s.25-.71,.32-1.08c.07-.37,.12-.74,.17-1.08,0-.04,0-.11,0-.21s0-.2,0-.31c0-.11,0-.21,0-.3,0-.09,0-.16-.01-.19l-.09-.23c-.03-.07-.06-.13-.08-.19-.03-.06-.05-.11-.06-.15-.14-.32-.29-.63-.43-.93-.15-.3-.35-.54-.62-.73-.06-.05-.13-.11-.21-.18s-.16-.13-.25-.2-.18-.13-.26-.19c-.09-.06-.16-.1-.24-.12-.03-.01-.09-.03-.17-.06-.08-.03-.17-.06-.27-.09-.1-.03-.19-.06-.27-.08-.08-.02-.14-.04-.17-.05-.04-.08-.11-.12-.21-.14s-.2-.03-.32-.02c-.12,0-.24,.01-.35,.03-.12,.02-.21,.02-.28,.02-.12,0-.25,0-.39,.04-.14,.04-.28,.09-.41,.15-.13,.06-.26,.14-.38,.22-.12,.08-.23,.17-.33,.26-.02,.02-.05,.05-.11,.11-.06,.06-.12,.12-.18,.19-.07,.06-.13,.13-.19,.19-.06,.06-.1,.1-.11,.11-.33,.32-.57,.71-.73,1.16-.1,.32-.17,.64-.22,.97s-.09,.66-.11,1Z"/><path class="cls-1" d="M109.23,11.53c0-.06,.02-.2,.03-.44,.02-.24,.04-.51,.06-.81,.03-.3,.05-.6,.07-.91,.02-.3,.04-.55,.06-.74,.01-.02,.02-.07,.04-.13,.01-.06,.03-.13,.05-.21,.02-.08,.03-.15,.04-.21,.01-.06,.02-.11,.02-.13l.15-1.47c.06-.07,.15-.11,.28-.14,.13-.02,.24-.03,.31-.02l3.47,.35c.06,.03,.12,.05,.17,.07,.05,.01,.1,.04,.13,.09,.04,.05,.06,.13,.07,.25,.01,.12,0,.3-.02,.54,0,.02,.01,.05,.01,.11s0,.11,0,.17c0,.06,0,.12,0,.17,0,.05,0,.09,0,.1-.01,.11-.03,.32-.04,.62-.02,.3-.04,.62-.06,.96-.02,.34-.04,.66-.06,.96s-.03,.51-.04,.62c0,.06-.01,.21-.02,.44,0,.23-.01,.47-.01,.73,0,.26,0,.51-.01,.74s-.01,.38-.02,.43c0,.07-.02,.21-.03,.42s-.02,.45-.03,.72c-.01,.27-.02,.56-.04,.87-.01,.31-.03,.6-.04,.88-.01,.28-.02,.52-.04,.73-.01,.21-.02,.34-.02,.41,0,.12-.02,.31-.04,.57-.03,.26-.05,.53-.08,.82-.02,.29-.05,.56-.06,.82-.02,.26-.02,.45-.02,.57l-.02,.17c0,.32-.04,.56-.14,.72-.1,.16-.27,.21-.51,.13l-3.85-.41c-.19-.02-.31-.09-.37-.2-.06-.12-.09-.26-.09-.44,0-.18,0-.38,.03-.61,.02-.23,.03-.47,.02-.72,0-.18,.01-.38,.03-.59s.04-.43,.07-.64c.02-.21,.05-.43,.08-.64,.02-.21,.04-.4,.05-.58,.02-.47,.05-.92,.07-1.34,.02-.42,.05-.83,.09-1.24,.03-.41,.07-.83,.11-1.25,.04-.42,.08-.86,.13-1.32Zm.6-9.35c.01-.11,.02-.22,.03-.35,.01-.13,.05-.24,.12-.35,.11-.16,.2-.32,.29-.47,.08-.15,.2-.29,.35-.41,.04-.03,.09-.07,.16-.11,.07-.05,.15-.09,.22-.14,.07-.05,.14-.09,.21-.13,.07-.04,.11-.06,.12-.08,.1-.06,.2-.1,.3-.12,.1-.02,.21-.02,.32-.02,.11,0,.22,.02,.33,.04,.11,.02,.22,.03,.33,.04,.14,.01,.25,.04,.34,.09,.09,.05,.2,.1,.33,.17,.06,.02,.15,.07,.25,.14,.1,.07,.19,.14,.25,.19,.3,.26,.55,.56,.75,.9s.3,.73,.29,1.17c-.03,.26-.06,.48-.09,.65-.03,.18-.09,.34-.16,.48-.07,.14-.17,.28-.3,.4-.13,.12-.29,.25-.51,.4-.19,.14-.43,.25-.7,.34-.27,.09-.52,.12-.76,.1-.02,0-.07,0-.13-.02-.06-.01-.12-.02-.19-.04-.07-.01-.13-.03-.19-.04-.06-.01-.09-.03-.11-.04-.04-.01-.09-.03-.15-.05-.06-.02-.13-.05-.19-.08-.06-.03-.12-.06-.18-.08-.06-.02-.09-.04-.11-.05-.02,0-.05-.03-.1-.07-.05-.03-.12-.07-.19-.1-.07-.04-.14-.07-.2-.1s-.1-.05-.12-.07c-.17-.16-.31-.33-.41-.49-.1-.16-.17-.33-.21-.5-.04-.17-.07-.36-.07-.55,0-.2,0-.42,.03-.66Z"/><path class="cls-1" d="M115.86,22.04c-.1-.04-.18-.08-.24-.13-.07-.06-.11-.12-.14-.2s-.04-.15-.04-.22c0-.07,0-.14,.02-.21,.01-.06,.02-.12,.03-.17,.08-.61,.15-1.23,.22-1.84s.13-1.22,.2-1.84c.07-.61,.15-1.23,.24-1.84,.09-.61,.2-1.22,.33-1.83l.03-.58c.02-.06,.03-.12,.05-.18,.01-.05,.02-.1,.03-.15s.02-.1,.03-.14l.09-.71s.02-.16,.04-.33c.02-.17,.05-.36,.07-.56,.03-.2,.05-.39,.08-.57,.03-.18,.04-.3,.05-.34,0-.04,.03-.15,.06-.32,.04-.18,.07-.36,.11-.56,.04-.2,.07-.39,.1-.57,.03-.18,.04-.29,.05-.34,.03-.18,.05-.38,.06-.61,0-.23,.02-.44,.04-.62l.08-.42c.01-.1,.05-.16,.1-.19,.06-.03,.12-.04,.18-.04,.06,0,.12,0,.17,.02,.05,.02,.08,.02,.09,.01,.02,0,.07,0,.14,.01,.07,0,.14,0,.22,.01,.08,0,.15,0,.21,0,.07,0,.11,0,.12,0,.16,.02,.31,.04,.45,.06,.14,.02,.27,.04,.41,.05,.13,.02,.27,.04,.4,.06,.14,.02,.29,.05,.46,.08l.13,.03s.03,0,.08,.02c.04,.01,.09,.03,.14,.04s.1,.03,.15,.05c.05,.02,.08,.03,.1,.04,.17,.05,.28,.11,.34,.16,.06,.05,.1,.12,.11,.2,.01,.08,0,.18,0,.29-.01,.11-.01,.25,0,.42,.39-.27,.78-.48,1.19-.62s.81-.24,1.23-.29c.42-.05,.84-.06,1.27-.03s.86,.09,1.31,.17c.12,.02,.25,.05,.38,.09,.13,.05,.27,.1,.4,.16,.14,.06,.27,.13,.39,.2,.13,.07,.24,.15,.33,.22,.07,.06,.15,.14,.26,.24,.1,.1,.21,.21,.31,.32,.1,.11,.19,.2,.27,.28,.08,.08,.12,.12,.13,.12,.2,.2,.38,.42,.52,.67,.14,.24,.26,.5,.36,.77,.09,.27,.16,.54,.21,.83,.05,.29,.08,.57,.11,.84,.02,.04,.04,.12,.05,.26,.01,.14,.03,.29,.03,.46,0,.17,0,.34,0,.51s0,.31-.02,.4l-.03,.21s-.01,.11-.03,.24c-.02,.13-.03,.27-.05,.42s-.03,.3-.04,.43c-.01,.13-.02,.21-.03,.24l-.25,2.01-.08,.42s-.03,.07-.04,.14c-.02,.07-.04,.15-.06,.23s-.04,.15-.06,.23c-.02,.07-.03,.12-.03,.16l-.05,.26c-.03,.15-.06,.35-.09,.59-.03,.24-.07,.49-.11,.76-.04,.27-.08,.54-.11,.82-.04,.28-.07,.53-.1,.77-.03,.23-.05,.43-.07,.59-.02,.16-.03,.26-.03,.3,0,.02,0,.07-.02,.15-.01,.08-.02,.16-.03,.25s-.02,.17-.03,.25c0,.08,0,.12-.01,.14l-.03,.12c-.01,.09-.07,.14-.17,.14-.1,0-.19,.01-.25,.01-.02,0-.06,0-.1,0-.04,0-.09,0-.14,0-.05,0-.09,0-.13,0-.04,0-.06,0-.07,0-.02,0-.08-.01-.18-.02-.1-.01-.2-.03-.31-.04-.11-.01-.22-.03-.32-.04-.1,0-.16-.01-.18,0-.38-.03-.74-.06-1.07-.07-.33-.01-.69-.06-1.09-.12-.14-.03-.24-.08-.29-.15-.05-.08-.07-.16-.08-.26s0-.2,.03-.31,.04-.21,.05-.31c0-.04,.02-.14,.04-.28,.02-.15,.04-.32,.07-.51,.03-.19,.06-.4,.09-.63,.03-.23,.06-.44,.09-.63,.03-.19,.05-.36,.07-.51s.03-.24,.04-.29l.38-2.81c.05-.28,.1-.61,.13-.98s.04-.76,.04-1.17c0-.4-.04-.8-.1-1.19-.06-.39-.14-.75-.26-1.06-.11-.31-.26-.57-.44-.77-.18-.2-.4-.3-.65-.31l-.42-.08c-.28-.04-.52-.04-.71,0-.19,.05-.42,.13-.69,.24-.02,0-.03,0-.05,.02-.02,.02-.03,.04-.03,.05-.25,.14-.47,.35-.67,.65s-.38,.62-.54,1c-.16,.38-.31,.78-.44,1.21-.13,.43-.25,.86-.35,1.28-.01,.04-.04,.14-.08,.3-.04,.16-.08,.34-.12,.53-.05,.2-.09,.39-.13,.59-.04,.2-.07,.35-.09,.45,0,0,0,.05-.02,.12-.01,.07-.03,.16-.05,.26-.02,.1-.04,.2-.06,.29-.02,.1-.03,.17-.04,.23,0,.04-.02,.1-.03,.19-.02,.09-.03,.18-.04,.28s-.03,.2-.04,.28c-.02,.09-.03,.15-.03,.18l-.23,1.82s-.01,.07,0,.15c0,.07,0,.12,0,.15,0,0,0,.03,0,.07,0,.04,0,.08,0,.12,0,.04-.01,.08-.02,.12,0,.04,0,.06,0,.07,0,.06-.01,.14-.02,.23,0,.09-.02,.18-.05,.26-.03,.08-.07,.15-.13,.2-.06,.05-.15,.06-.28,.04-.19-.03-.39-.06-.61-.09-.22-.02-.46-.05-.7-.07-.24-.02-.49-.05-.74-.08-.25-.03-.49-.07-.71-.12Z"/><path class="cls-1" d="M136.22,23.13c-.02,.1-.04,.22-.06,.34-.02,.12-.07,.24-.14,.34-.12,.15-.22,.3-.31,.45-.09,.15-.22,.28-.38,.39-.05,.03-.11,.07-.18,.11-.07,.04-.15,.08-.22,.12-.08,.04-.15,.08-.22,.11-.07,.03-.11,.06-.13,.07-.1,.06-.2,.09-.31,.1-.1,.01-.21,.01-.32,0-.11-.01-.22-.03-.33-.06-.11-.03-.22-.05-.32-.06-.14-.02-.25-.06-.33-.11-.09-.05-.19-.12-.32-.19-.06-.03-.14-.08-.24-.16s-.18-.15-.23-.2c-.28-.28-.52-.59-.69-.94-.18-.35-.25-.75-.22-1.19,.04-.25,.08-.46,.13-.64,.05-.18,.11-.34,.19-.48,.08-.14,.19-.27,.32-.38,.13-.11,.31-.24,.53-.37,.2-.12,.44-.22,.72-.29,.27-.07,.53-.09,.76-.05,.02,0,.07,.01,.13,.03,.06,.01,.12,.03,.18,.05,.06,.02,.12,.04,.18,.05s.1,.03,.11,.04c.03,.01,.08,.03,.14,.06,.06,.03,.12,.06,.19,.09,.06,.04,.12,.07,.18,.09,.05,.03,.09,.04,.1,.05,0,.02,.04,.04,.09,.08s.12,.07,.19,.11c.07,.04,.13,.08,.19,.12,.06,.04,.1,.06,.11,.07,.15,.17,.28,.34,.37,.51,.09,.17,.15,.34,.19,.51,.03,.17,.05,.36,.04,.56s-.03,.42-.07,.66Zm1.18-9.29c-.02,.1-.04,.29-.08,.57-.04,.27-.08,.56-.12,.87-.05,.31-.09,.6-.12,.87-.04,.27-.06,.46-.08,.57-.01,.02-.03,.07-.05,.13s-.04,.13-.06,.21c-.02,.08-.04,.14-.05,.21-.01,.06-.02,.11-.03,.13l-.24,1.46c-.06,.06-.16,.1-.29,.12-.13,.02-.24,.02-.31,0l-3.45-.56c-.06-.03-.12-.06-.17-.08-.05-.02-.09-.05-.13-.1-.03-.05-.05-.13-.06-.25,0-.12,.01-.29,.05-.54,0-.02,0-.05,0-.11,0-.05,0-.11,0-.17,0-.06,0-.12,0-.17,0-.05,0-.09,.01-.1,.02-.11,.05-.32,.08-.62s.08-.62,.12-.95c.04-.34,.08-.65,.12-.95,.04-.3,.06-.5,.08-.62,0-.06,.02-.2,.05-.43,.02-.23,.04-.48,.06-.74,.02-.26,.04-.51,.06-.73s.04-.37,.05-.44c.01-.07,.03-.21,.06-.42,.03-.21,.05-.44,.08-.72,.03-.27,.06-.56,.09-.87,.03-.31,.06-.6,.09-.88,.03-.28,.05-.51,.07-.72,.02-.2,.04-.34,.05-.41,.01-.12,.04-.31,.08-.57,.04-.26,.08-.53,.13-.81,.04-.29,.08-.56,.11-.82,.03-.26,.05-.45,.06-.57l.03-.17c.01-.32,.07-.56,.18-.71,.11-.16,.28-.19,.52-.1l3.82,.64c.18,.03,.29,.1,.35,.22s.08,.27,.07,.44c0,.18-.03,.38-.07,.61-.04,.23-.06,.47-.06,.71-.01,.19-.04,.39-.07,.59-.03,.21-.07,.42-.11,.63-.04,.21-.08,.42-.12,.63s-.06,.4-.08,.58c-.05,.47-.1,.91-.15,1.33s-.11,.83-.16,1.23-.12,.82-.18,1.24c-.06,.42-.13,.86-.21,1.31Z"/></g></g></svg>