<?xml version="1.0" encoding="UTF-8"?><svg xmlns="http://www.w3.org/2000/svg" viewBox="0 0 702.737 342.957"><defs><style>.d{fill:#009bdc;}.e{opacity:.08;}.f{fill:none;}.g{fill:#1a1a1a;}</style></defs><g id="a"/><g id="b"><g id="c"><g><rect class="d" x=".701" width="702.037" height="342.957" rx="10.987" ry="10.987"/><g class="e"><rect class="g" x="279.867" y="320.942" width="94.406" height="8.573" transform="translate(-33.693 37.829) rotate(-6.296)"/><polygon class="g" points="409.457 327.822 409.788 342.957 418.364 342.957 418.027 327.632 409.457 327.822"/><polygon class="g" points="359.509 342.012 359.53 342.957 360.627 342.957 359.509 342.012"/><polygon class="g" points="229.832 316.595 246.053 342.957 247.183 342.957 253.667 338.967 237.137 312.099 229.832 316.595"/><polygon class="g" points="637.058 328.481 655.745 316.335 625.086 307.857 622.802 316.126 635.102 319.528 616.412 331.67 637.89 337.606 629.651 342.957 645.392 342.957 658.539 334.416 637.058 328.481"/><polygon class="g" points="508.073 167.065 514.27 172.989 527.824 158.826 530.227 187.86 550.359 166.812 552.757 195.838 572.888 174.798 574.497 194.324 583.041 193.62 579.869 155.097 559.735 176.145 557.336 147.119 537.2 168.167 534.798 139.14 508.073 167.065"/><rect class="g" x="581.166" y="28.079" width="8.574" height="76.738" transform="translate(58.084 329.226) rotate(-32.961)"/><polygon class="g" points="405.836 237.547 416.646 297.185 448.22 257.032 455.64 297.925 464.076 296.395 453.255 236.758 421.685 276.907 414.272 236.017 405.836 237.547"/><polygon class="g" points="384.654 342.957 399.478 342.957 384.369 330.159 384.654 342.957"/><polygon class="g" points="491.821 342.957 512.87 342.957 509.441 335.183 491.821 342.957"/><rect class="g" x="213.942" y="62.358" width="26.674" height="8.574"/><polygon class="g" points="447.063 105.027 482.194 74.144 445.235 69.514 466.058 51.206 460.398 44.767 425.267 75.655 462.225 80.284 441.402 98.589 447.063 105.027"/><rect class="g" x="353.73" y="75.462" width="54.128" height="8.575" transform="translate(9.001 194.355) rotate(-28.96)"/><polygon class="g" points="402.167 168.003 370.136 157.296 383.366 188.366 360.374 180.678 357.654 188.805 398.721 202.544 385.49 171.467 417.521 182.173 404.289 151.1 436.323 161.803 419.37 121.959 411.481 125.315 420.976 147.636 388.935 136.93 402.167 168.003"/><polygon class="g" points="577.439 342.957 589.349 335.856 584.961 328.496 560.689 342.957 577.439 342.957"/><path class="g" d="M26.074,4.842L.704,15.902v-4.92c0-1.78,.42-3.47,1.18-4.95L15.724,.002h8.24l2.11,4.84Z"/><rect class="g" x="449.442" y="190.555" width="8.574" height="31.2" transform="translate(-6.079 398.372) rotate(-47.122)"/><polygon class="g" points="345.216 271.314 336.087 288.283 326.149 261.255 312.513 286.609 302.584 259.584 288.949 284.934 282.31 266.863 274.261 269.818 287.472 305.781 301.107 280.431 311.039 307.448 324.676 282.095 334.61 309.115 352.766 275.378 345.216 271.314"/><rect class="g" x="444.868" y="316.719" width="49.788" height="8.571" transform="translate(-81.818 181.435) rotate(-20.146)"/><polygon class="g" points="175.483 100.818 177.879 129.844 198.011 108.804 199.619 128.33 208.163 127.627 204.989 89.103 184.857 110.151 182.456 81.125 162.322 102.173 159.92 73.146 133.197 101.071 139.389 106.995 152.946 92.832 155.348 121.866 175.483 100.818"/><polygon class="g" points="160.195 272.349 156.642 288.093 165.007 289.98 172.759 255.643 150.267 268.032 155.912 242.987 133.424 255.372 139.066 230.328 108.233 247.3 112.367 254.81 126.517 247.021 120.872 272.073 143.356 259.688 137.711 284.733 160.195 272.349"/><polygon class="g" points="275.197 80.857 286.77 70.575 286.81 95.578 305.494 78.974 305.53 103.974 324.214 87.369 324.233 102.843 332.807 102.828 332.766 68.301 314.077 84.913 314.042 59.914 295.353 76.518 295.315 51.518 269.504 74.442 275.197 80.857"/><polygon class="g" points="368.154 0 353.782 0 357.29 6.174 368.154 0"/><polygon class="g" points="687.134 175.349 679.52 179.293 686.138 192.08 662.942 186.23 673.94 207.464 650.745 201.614 661.745 222.848 647.798 219.324 645.699 227.637 678.127 235.831 667.123 214.586 690.314 220.444 679.316 199.202 702.509 205.052 687.134 175.349"/><polygon class="g" points="32.982 311.713 19.288 297.103 48.829 296.284 28.617 274.715 58.16 273.885 31.442 245.369 25.182 251.234 38.881 265.851 9.333 266.685 29.542 288.238 0 289.065 26.727 317.577 32.982 311.713"/><polygon class="g" points="157.315 341.833 157.283 342.957 197.241 342.957 180.235 322.594 208.74 323.427 208.993 314.861 161.438 313.465 185.828 342.666 157.315 341.833"/><polygon class="g" points="657.122 26.849 676.53 5.366 638.055 4.979 637.97 13.553 657.403 13.75 637.987 35.237 666.935 35.52 647.522 57 676.469 57.282 663.444 71.688 669.804 77.433 695.611 48.895 666.657 48.612 686.069 27.132 657.122 26.849"/><polygon class="g" points="309.428 7.826 317.674 10.178 320.577 0 311.66 0 309.428 7.826"/><rect class="g" x="591.591" y="1.906" width="8.574" height="51.931" transform="translate(84.135 334.411) rotate(-33.6)"/><polygon class="g" points="60.394 120.842 46.004 157.482 38.014 154.342 45.444 135.442 17.424 145.702 28.333 117.922 .704 128.042 .314 128.182 .704 127.192 11.213 100.402 .704 104.242 .704 95.112 26.153 85.802 15.254 113.582 43.273 103.322 32.374 131.102 60.394 120.842"/><polygon class="g" points="391.505 16.054 394.895 0 385.276 0 376.423 5.035 377.485 0 368.721 0 364.101 21.907 383.882 10.658 379.18 32.926 398.961 21.673 396.227 34.616 404.615 36.387 411.29 4.801 391.505 16.054"/><rect class="g" x="187.274" y="6.494" width="8.573" height="36.401" transform="translate(29.134 129.207) rotate(-40.105)"/><polygon class="g" points="222.76 21.443 225.101 29.689 268.088 17.487 240.747 0 224.837 0 247.416 14.442 222.76 21.443"/><rect class="g" x="302.881" y="128.236" width="8.575" height="37.26" transform="translate(80.161 400.617) rotate(-73.738)"/><rect class="g" x="131.131" y="-5.432" width="8.575" height="59.844" transform="translate(44.4 127.707) rotate(-58.844)"/><polygon class="g" points="436.018 0 491.547 21.115 494.595 13.099 460.145 0 436.018 0"/><rect class="g" x="44.174" y="17.656" width="8.574" height="32.483" transform="translate(2.13 70.654) rotate(-73.398)"/><rect class="g" x="637.398" y="247.347" width="8.575" height="27.28" transform="translate(135.716 734.136) rotate(-65.213)"/><rect class="g" x="601.411" y="181.039" width="64.684" height="8.573" transform="translate(135.643 618.771) rotate(-57.329)"/><polygon class="g" points="702.734 246.152 702.734 266.182 697.164 264.492 702.734 246.152"/><polygon class="g" points="702.734 126.122 702.734 136.492 679.484 120.662 684.303 113.572 702.734 126.122"/><rect class="g" x="608.859" y="134.783" width="25.968" height="8.573" transform="translate(105.281 512.156) rotate(-48.445)"/><rect class="g" x="593.49" y="245.14" width="8.573" height="31.695" transform="translate(-31.214 433.677) rotate(-38.938)"/><polygon class="g" points="512.595 266.194 532.387 238.354 488.953 243.002 489.865 251.531 514.364 248.908 494.565 276.747 528.526 273.104 508.729 300.939 542.685 297.296 528.409 317.358 535.393 322.329 560.723 286.735 526.758 290.382 546.555 262.546 512.595 266.194"/><polygon class="g" points="126.583 342.957 125.58 339.466 113.437 342.957 126.583 342.957"/><polygon class="g" points="702.734 287.132 686.704 296.642 702.734 301.792 702.734 315.752 681.533 328.312 677.154 320.942 697.244 309.022 665.944 298.982 702.424 277.352 702.734 277.872 702.734 287.132"/><rect class="g" x="227.857" y="121.423" width="30.174" height="8.575" transform="translate(101.175 359.646) rotate(-86.143)"/><polygon class="g" points="519.23 5.247 523.696 12.563 544.28 0 527.824 0 519.23 5.247"/><rect class="g" x="637.398" y="61.516" width="8.576" height="35.029" transform="translate(132.188 477.048) rotate(-45.018)"/><rect class="g" x="251.224" y="227.168" width="28.325" height="8.575" transform="translate(-62.386 102.743) rotate(-19.654)"/><rect class="g" x="157.598" y="201.87" width="31.993" height="8.575" transform="translate(-39.959 370.569) rotate(-87.493)"/><rect class="g" x="281.592" y="199.013" width="74.278" height="8.574" transform="translate(-19.806 371.564) rotate(-58.96)"/><rect class="g" x="227.003" y="245.048" width="8.572" height="31.881" transform="translate(-90.562 126.745) rotate(-25.812)"/><rect class="g" x="188.31" y="240.3" width="31.557" height="8.575" transform="translate(-90.817 365.027) rotate(-72.373)"/><rect class="g" x="134.967" y="154.615" width="8.573" height="27.479" transform="translate(-75.699 129.236) rotate(-40.09)"/><polygon class="g" points="220.068 200.378 225.391 186.862 236.3 208.297 245.108 185.925 256.01 207.359 264.817 184.983 271.396 197.922 279.039 194.037 263.823 164.106 255.013 186.483 244.111 165.056 235.303 187.428 224.394 166.001 212.089 197.238 220.068 200.378"/><rect class="g" x="178.218" y="126.416" width="8.573" height="44.316" transform="translate(-30.102 249.473) rotate(-64.537)"/><rect class="g" x="82.554" y="129.283" width="45.571" height="8.573" transform="translate(-61.893 102.415) rotate(-41.186)"/><rect class="g" x="79.821" y="277.856" width="8.575" height="29.744" transform="translate(-159.374 109.752) rotate(-37.045)"/><rect class="g" x="50.562" y="197.312" width="8.573" height="47.327" transform="translate(-149.508 120.592) rotate(-49.899)"/><polygon class="g" points="105.745 79.428 90.451 95.392 96.643 101.324 125.114 71.598 93.502 70.374 108.795 54.398 102.602 48.47 74.132 78.204 105.745 79.428"/><polygon class="g" points="64.446 203.66 65.082 212.212 109.749 208.878 84.463 184.302 110.133 182.382 109.492 173.83 64.826 177.172 90.112 201.748 64.446 203.66"/><rect class="g" x="340.548" y="34.263" width="8.575" height="30.894" transform="translate(256.974 386.849) rotate(-83.596)"/><polygon class="g" points="26.074 174.172 22.653 182.042 .704 172.502 .704 163.152 26.074 174.172"/><rect class="g" x="352.449" y="105.229" width="58.323" height="8.573" transform="translate(14.434 260.517) rotate(-38.367)"/><rect class="g" x="442.18" y="140.735" width="64.69" height="8.574" transform="translate(82.928 449.746) rotate(-54.882)"/><rect class="g" x="524.569" y="169.285" width="8.572" height="76.379" transform="translate(147.737 628.76) rotate(-69.286)"/><polygon class="g" points="542.652 88.608 559.549 69.03 533.685 69.373 550.576 49.788 515.194 50.245 515.306 58.819 531.646 58.607 514.751 78.2 540.607 77.857 523.71 97.435 549.568 97.093 538.897 109.459 545.387 115.056 568.513 88.266 542.652 88.608"/><rect class="g" x="356.541" y="197.287" width="8.574" height="70.785" transform="translate(-64.744 289.468) rotate(-40.417)"/></g><path class="f" d="M702.734,10.982V331.972c0,6.07-4.92,10.98-10.98,10.98H11.684c-6.06,0-10.98-4.91-10.98-10.98V10.982c0-1.78,.42-3.47,1.18-4.95C3.694,2.452,7.403,.002,11.684,.002H691.754c6.06,0,10.98,4.92,10.98,10.98Z"/></g></g></g></svg>