<?xml version="1.0" encoding="UTF-8"?><svg xmlns="http://www.w3.org/2000/svg" xmlns:xlink="http://www.w3.org/1999/xlink" viewBox="0 0 279.818 227.726"><defs><style>.v{filter:url(#k);}.w{fill:#fff;}.x{fill:url(#u);}.x,.y{mix-blend-mode:screen;}.a`{mask:url(#f);}.aa{mask:url(#n);}.ab{isolation:isolate;}.ac{fill:url(#l);}.ac,.ad{mix-blend-mode:multiply;}.ae{filter:url(#s);}.af{filter:url(#p);}.ad{fill:url(#t);}.ag{filter:url(#h);}.y{fill:url(#m);}.ah{mask:url(#i);}.ai{fill:url(#d);}.aj{fill:url(#e);}.ak{mask:url(#q);}</style><linearGradient id="d" x1="141.805" y1="-302.809" x2="141.805" y2="368.38" gradientTransform="matrix(1, 0, 0, 1, 0, 0)" gradientUnits="userSpaceOnUse"><stop offset="0" stop-color="#fecc00"/><stop offset="1" stop-color="#c76b43"/></linearGradient><linearGradient id="e" x1="136.784" y1="-143.5" x2="136.784" y2="316.987" gradientTransform="matrix(1, 0, 0, 1, 0, 0)" gradientUnits="userSpaceOnUse"><stop offset="0" stop-color="#ffeba9"/><stop offset=".5" stop-color="#fecc00"/><stop offset="1" stop-color="#f8ae00"/></linearGradient><filter id="h" x="110.902" y="45.892" width="25.881" height="20.561" color-interpolation-filters="sRGB" filterUnits="userSpaceOnUse"><feFlood flood-color="#fff" result="bg"/><feBlend in="SourceGraphic" in2="bg"/></filter><filter id="k" x="110.902" y="-13281.143" width="25.881" height="32766" color-interpolation-filters="sRGB" filterUnits="userSpaceOnUse"><feFlood flood-color="#fff" result="bg"/><feBlend in="SourceGraphic" in2="bg"/></filter><mask id="i" x="110.902" y="-13281.143" width="25.881" height="32766" maskUnits="userSpaceOnUse"><g class="v"/></mask><linearGradient id="l" x1="110.902" y1="56.173" x2="136.783" y2="56.173" gradientTransform="matrix(1, 0, 0, 1, 0, 0)" gradientUnits="userSpaceOnUse"><stop offset=".001" stop-color="#fff"/><stop offset="1" stop-color="#000"/></linearGradient><mask id="f" x="110.902" y="45.892" width="25.881" height="20.561" maskUnits="userSpaceOnUse"><g class="ag"><g class="ah"><path class="ac" d="M110.902,66.454s.084-.57,.362-1.51c.272-.945,.743-2.256,1.448-3.762,1.405-3.006,3.896-6.728,7.245-9.763,.852-.736,1.718-1.469,2.654-2.096,.913-.65,1.878-1.214,2.853-1.69,1.94-.963,3.946-1.536,5.696-1.69,.878-.073,1.681-.067,2.386,.023,.701,.031,1.304,.226,1.782,.336,.481,.12,.841,.315,1.088,.402,.239,.108,.366,.166,.366,.166,0,0-.531,.147-1.457,.404-.446,.156-.977,.309-1.555,.549-.584,.211-1.21,.531-1.872,.853-2.656,1.335-5.733,3.691-8.708,6.384-2.973,2.683-5.886,5.608-8.218,7.783-1.168,1.083-2.174,1.992-2.901,2.623-.722,.634-1.17,.988-1.17,.988Z"/></g></g></mask><linearGradient id="m" x1="110.902" y1="56.173" x2="136.783" y2="56.173" gradientTransform="matrix(1, 0, 0, 1, 0, 0)" gradientUnits="userSpaceOnUse"><stop offset=".001" stop-color="#fff"/><stop offset="1" stop-color="#fff"/></linearGradient><filter id="p" x="123.753" y="82.288" width="4.849" height="76.541" color-interpolation-filters="sRGB" filterUnits="userSpaceOnUse"><feFlood flood-color="#fff" result="bg"/><feBlend in="SourceGraphic" in2="bg"/></filter><filter id="s" x="123.753" y="-13281.143" width="4.849" height="32766" color-interpolation-filters="sRGB" filterUnits="userSpaceOnUse"><feFlood flood-color="#fff" result="bg"/><feBlend in="SourceGraphic" in2="bg"/></filter><mask id="q" x="123.753" y="-13281.143" width="4.849" height="32766" maskUnits="userSpaceOnUse"><g class="ae"/></mask><linearGradient id="t" x1="123.753" y1="120.558" x2="128.602" y2="120.558" xlink:href="#l"/><mask id="n" x="123.753" y="82.288" width="4.849" height="76.541" maskUnits="userSpaceOnUse"><g class="af"><g class="ak"><path class="ad" d="M126.176,82.288s.21,1.197,.479,3.289c.272,2.093,.623,5.083,.907,8.671,.152,1.794,.315,3.737,.418,5.792,.119,2.056,.27,4.224,.327,6.467,.062,2.241,.199,4.559,.21,6.912,.029,2.355,.056,4.747,.084,7.138-.025,2.393-.047,4.785-.072,7.139-.023,2.354-.15,4.672-.218,6.913-.167,4.485-.428,8.671-.743,12.259-.284,3.588-.638,6.578-.909,8.671-.272,2.092-.483,3.288-.483,3.288,0,0-.212-1.196-.481-3.288-.274-2.093-.627-5.083-.911-8.671-.313-3.588-.574-7.774-.743-12.259-.068-2.241-.195-4.559-.218-6.913-.023-2.354-.047-4.747-.07-7.139,.029-2.391,.056-4.783,.082-7.138,.01-2.353,.148-4.671,.21-6.912,.06-2.243,.21-4.411,.327-6.467,.103-2.055,.265-3.998,.418-5.792,.284-3.588,.636-6.578,.907-8.671,.269-2.092,.479-3.289,.479-3.289Z"/></g></g></mask><linearGradient id="u" x1="123.753" y1="120.558" x2="128.602" y2="120.558" xlink:href="#m"/></defs><g class="ab"><g id="a"/><g id="b"><g id="c"><rect class="w" width="279.818" height="227.726" rx="12" ry="12"/><g><g><path class="ai" d="M167.717,159.725c2.187,2.496,3.68,5.101,4.485,7.818,.798,2.718,.656,5.286-.438,7.708-1.092,2.423-6.826,7.629-10.467,8.217-7.001,1.174-10.858-1.978-18.294-2.051-7.437-.077-14.435-.184-20.998-.331-4.522,0-7.62-1.396-9.294-4.182-1.681-2.788-2.189-5.838-1.531-9.141,.652-3.304,2.438-6.312,5.357-9.029,2.915-2.716,6.634-4.075,11.156-4.075V74.492c-1.897,.442-3.795,.33-5.688-.33-1.897-.661-3.575-1.651-5.032-2.975-1.459-1.319-2.588-2.896-3.39-4.733-.802-1.834-1.057-3.706-.763-5.617,.436-3.227,2.078-6.53,4.921-9.911,2.843-3.374,6.157-6.167,9.953-8.369,3.787-2.202,7.69-3.525,11.699-3.965,4.009-.441,7.472,.588,10.391,3.084,1.166,.88,2.222,2.129,3.172,3.743,.946,1.618,1.421,3.084,1.421,4.406,.142,17.618,.179,35.128,.109,52.526-.074,17.398-.109,34.835-.109,52.306h5.686c2.915,.88,5.466,2.571,7.655,5.067Z"/><path class="aj" d="M162.695,163.795c2.187,2.498,3.68,5.102,4.487,7.819,.798,2.718,.652,5.286-.44,7.709-1.092,2.422-3.464,3.925-7.107,4.515-6.999,1.173-14.217,1.723-21.654,1.65-7.437-.076-14.435-.184-20.995-.33-4.524,0-7.622-1.396-9.296-4.182-1.679-2.787-2.189-5.838-1.531-9.141,.656-3.303,2.44-6.311,5.357-9.031,2.915-2.715,6.634-4.074,11.156-4.074V78.563c-1.899,.441-3.793,.329-5.686-.33-1.899-.66-3.577-1.652-5.032-2.974-1.461-1.322-2.59-2.897-3.39-4.735-.804-1.833-1.061-3.706-.765-5.616,.438-3.227,2.076-6.531,4.921-9.911,2.843-3.375,6.159-6.168,9.953-8.369,3.789-2.203,7.688-3.525,11.699-3.966,4.009-.439,7.472,.588,10.391,3.084,1.164,.881,2.222,2.13,3.17,3.743,.948,1.62,1.421,3.084,1.421,4.406,.146,17.619,.183,35.128,.111,52.528-.076,17.398-.111,34.833-.111,52.304h5.69c2.913,.88,5.468,2.573,7.653,5.067Z"/></g><g class="a`"><path class="y" d="M110.902,66.454s.084-.57,.362-1.51c.272-.945,.743-2.256,1.448-3.762,1.405-3.006,3.896-6.728,7.245-9.763,.852-.736,1.718-1.469,2.654-2.096,.913-.65,1.878-1.214,2.853-1.69,1.94-.963,3.946-1.536,5.696-1.69,.878-.073,1.681-.067,2.386,.023,.701,.031,1.304,.226,1.782,.336,.481,.12,.841,.315,1.088,.402,.239,.108,.366,.166,.366,.166,0,0-.531,.147-1.457,.404-.446,.156-.977,.309-1.555,.549-.584,.211-1.21,.531-1.872,.853-2.656,1.335-5.733,3.691-8.708,6.384-2.973,2.683-5.886,5.608-8.218,7.783-1.168,1.083-2.174,1.992-2.901,2.623-.722,.634-1.17,.988-1.17,.988Z"/></g><g class="aa"><path class="x" d="M126.176,82.288s.21,1.197,.479,3.289c.272,2.093,.623,5.083,.907,8.671,.152,1.794,.315,3.737,.418,5.792,.119,2.056,.27,4.224,.327,6.467,.062,2.241,.199,4.559,.21,6.912,.029,2.355,.056,4.747,.084,7.138-.025,2.393-.047,4.785-.072,7.139-.023,2.354-.15,4.672-.218,6.913-.167,4.485-.428,8.671-.743,12.259-.284,3.588-.638,6.578-.909,8.671-.272,2.092-.483,3.288-.483,3.288,0,0-.212-1.196-.481-3.288-.274-2.093-.627-5.083-.911-8.671-.313-3.588-.574-7.774-.743-12.259-.068-2.241-.195-4.559-.218-6.913-.023-2.354-.047-4.747-.07-7.139,.029-2.391,.056-4.783,.082-7.138,.01-2.353,.148-4.671,.21-6.912,.06-2.243,.21-4.411,.327-6.467,.103-2.055,.265-3.998,.418-5.792,.284-3.588,.636-6.578,.907-8.671,.269-2.092,.479-3.289,.479-3.289Z"/></g></g></g></g></g></svg>