<?xml version="1.0" encoding="UTF-8"?><svg xmlns="http://www.w3.org/2000/svg" xmlns:xlink="http://www.w3.org/1999/xlink" viewBox="0 0 173.394 147"><defs><style>.an{filter:url(#k);}.ao{fill:url(#u);}.ao,.ap,.aq,.ar{mix-blend-mode:screen;}.as{mask:url(#af);}.at{filter:url(#ah);}.au{filter:url(#ac);}.av{mask:url(#f);}.aw{mask:url(#n);}.ax{isolation:isolate;}.ay{fill:url(#v);}.b`{fill:url(#l);}.b`,.ba,.bb,.bc{mix-blend-mode:multiply;}.ap{fill:url(#ae);}.bd{mask:url(#ai);}.be{filter:url(#s);}.bf{filter:url(#p);}.ba{fill:url(#t);}.bg{filter:url(#ak);}.bh{filter:url(#a`);}.bb{fill:url(#ad);}.bi{filter:url(#h);}.bj{mask:url(#x);}.aq{fill:url(#m);}.bk{mask:url(#i);}.bc{fill:url(#al);}.bl{fill:url(#d);}.bm{fill:url(#e);}.bn{mask:url(#q);}.bo{mask:url(#aa);}.ar{fill:url(#am);}.bp{fill:url(#w);}</style><linearGradient id="d" x1="71.273" y1="73.442" x2="173.394" y2="73.442" gradientTransform="matrix(1, 0, 0, 1, 0, 0)" gradientUnits="userSpaceOnUse"><stop offset="0" stop-color="#fecc00"/><stop offset="1" stop-color="#c76b43"/></linearGradient><linearGradient id="e" x1="-3134.509" y1="6008.293" x2="-3134.509" y2="6439.43" gradientTransform="translate(2444.058 -6515.441) rotate(-7.205)" gradientUnits="userSpaceOnUse"><stop offset="0" stop-color="#ffeba9"/><stop offset=".5" stop-color="#fecc00"/><stop offset="1" stop-color="#f8ae00"/></linearGradient><filter id="h" x="71.667" y="20.964" width="23.575" height="51.328" color-interpolation-filters="sRGB" filterUnits="userSpaceOnUse"><feFlood flood-color="#fff" result="bg"/><feBlend in="SourceGraphic" in2="bg"/></filter><filter id="k" x="71.667" y="-12994.368" width="23.575" height="32766" color-interpolation-filters="sRGB" filterUnits="userSpaceOnUse"><feFlood flood-color="#fff" result="bg"/><feBlend in="SourceGraphic" in2="bg"/></filter><mask id="i" x="71.667" y="-12994.368" width="23.575" height="32766" maskUnits="userSpaceOnUse"><g class="an"/></mask><linearGradient id="l" x1="-3179.528" y1="6214.351" x2="-3150.172" y2="6214.351" gradientTransform="translate(2444.058 -6515.441) rotate(-7.205)" gradientUnits="userSpaceOnUse"><stop offset=".001" stop-color="#fff"/><stop offset="1" stop-color="#000"/></linearGradient><mask id="f" x="71.667" y="20.964" width="23.575" height="51.328" maskUnits="userSpaceOnUse"><g class="bi"><g class="bk"><path class="b`" d="M95.242,20.964s-.151,.174-.447,.482c-.313,.306-.699,.816-1.24,1.391-.495,.623-1.125,1.352-1.789,2.21-.693,.848-1.387,1.879-2.181,2.936-.401,.53-.766,1.131-1.163,1.719-.392,.599-.831,1.199-1.212,1.853-.403,.642-.816,1.306-1.229,1.978-.388,.7-.776,1.408-1.183,2.124-.858,1.409-1.527,2.986-2.342,4.504-.737,1.565-1.442,3.155-2.151,4.758-.614,1.658-1.307,3.269-1.883,4.899-.518,1.65-1.144,3.251-1.633,4.834-.438,1.598-.921,3.141-1.366,4.607-.392,1.483-.711,2.903-1.077,4.196-.331,1.306-.686,2.507-.887,3.585-.223,1.079-.47,2.017-.652,2.802-.391,1.554-.665,2.448-.665,2.448,0,0-.125-.901-.245-2.519-.057-.805-.139-1.779-.178-2.912-.089-1.127-.056-2.395,.028-3.782,.081-1.375,.121-2.886,.323-4.473,.234-1.576,.473-3.247,.787-4.959,.357-1.709,.87-3.454,1.349-5.226,.508-1.762,1.237-3.494,1.882-5.254,.768-1.709,1.555-3.415,2.424-5.044,.941-1.587,1.8-3.194,2.856-4.608,.523-.714,.993-1.429,1.516-2.094,.537-.648,1.08-1.287,1.599-1.903,1.012-1.256,2.142-2.301,3.138-3.269,1.036-.951,2.01-1.784,2.937-2.445,.879-.718,1.744-1.218,2.424-1.669,1.4-.824,2.261-1.171,2.261-1.171Z"/></g></g></mask><linearGradient id="m" x1="-3179.528" y1="6214.351" x2="-3150.172" y2="6214.351" gradientTransform="translate(2444.058 -6515.441) rotate(-7.205)" gradientUnits="userSpaceOnUse"><stop offset=".001" stop-color="#fff"/><stop offset="1" stop-color="#fff"/></linearGradient><filter id="p" x="128.721" y="83.776" width="20.743" height="39.384" color-interpolation-filters="sRGB" filterUnits="userSpaceOnUse"><feFlood flood-color="#fff" result="bg"/><feBlend in="SourceGraphic" in2="bg"/></filter><filter id="s" x="128.721" y="-12994.368" width="20.743" height="32766" color-interpolation-filters="sRGB" filterUnits="userSpaceOnUse"><feFlood flood-color="#fff" result="bg"/><feBlend in="SourceGraphic" in2="bg"/></filter><mask id="q" x="128.721" y="-12994.368" width="20.743" height="32766" maskUnits="userSpaceOnUse"><g class="be"/></mask><linearGradient id="t" x1="-3129.775" y1="6277.66" x2="-3104.994" y2="6277.66" xlink:href="#l"/><mask id="n" x="128.721" y="83.776" width="20.743" height="39.384" maskUnits="userSpaceOnUse"><g class="bf"><g class="bn"><path class="ba" d="M148.517,83.776s.212,.732,.435,2.036c.216,1.314,.445,3.188,.493,5.452,.145,4.52-.512,10.658-2.756,16.465-.575,1.433-1.198,2.866-1.972,4.204-.723,1.361-1.618,2.621-2.512,3.79-.942,1.148-1.935,2.195-2.973,3.089-1.033,.897-2.114,1.61-3.136,2.209-.535,.268-1.026,.54-1.518,.777-.488,.182-.968,.362-1.414,.533-.887,.338-1.719,.454-2.356,.619-1.337,.182-2.086,.211-2.086,.211,0,0,.652-.426,1.764-1.065,.523-.381,1.181-.775,1.856-1.315,.341-.282,.702-.559,1.086-.873,.344-.316,.719-.656,1.112-1.02,.746-.732,1.487-1.566,2.228-2.484,.739-.92,1.443-1.945,2.123-3.019,.667-1.118,1.305-2.273,1.9-3.503,.589-1.226,1.145-2.501,1.645-3.8,2.03-5.224,3.37-10.816,4.407-15.084,1.003-4.331,1.675-7.221,1.675-7.221Z"/></g></g></mask><linearGradient id="u" x1="-3129.775" y1="6277.66" x2="-3104.994" y2="6277.66" xlink:href="#m"/><linearGradient id="v" x1="36.174" y1="-341.302" x2="36.174" y2="329.887" xlink:href="#d"/><linearGradient id="w" x1="31.118" y1="-181.994" x2="31.118" y2="278.493" gradientTransform="matrix(1, 0, 0, 1, 0, 0)" xlink:href="#e"/><filter id="a`" x="5.057" y="7.399" width="26.061" height="20.561" color-interpolation-filters="sRGB" filterUnits="userSpaceOnUse"><feFlood flood-color="#fff" result="bg"/><feBlend in="SourceGraphic" in2="bg"/></filter><filter id="ac" x="5.057" y="-12994.368" width="26.061" height="32766" color-interpolation-filters="sRGB" filterUnits="userSpaceOnUse"><feFlood flood-color="#fff" result="bg"/><feBlend in="SourceGraphic" in2="bg"/></filter><mask id="aa" x="5.057" y="-12994.368" width="26.061" height="32766" maskUnits="userSpaceOnUse"><g class="au"/></mask><linearGradient id="ad" x1="5.057" y1="17.679" x2="31.118" y2="17.679" gradientTransform="matrix(1, 0, 0, 1, 0, 0)" xlink:href="#l"/><mask id="x" x="5.057" y="7.399" width="26.061" height="20.561" maskUnits="userSpaceOnUse"><g class="bh"><g class="bo"><path class="bb" d="M5.057,27.96s.085-.57,.365-1.51c.274-.945,.748-2.256,1.458-3.762,1.415-3.006,3.923-6.728,7.296-9.763,.858-.736,1.73-1.469,2.672-2.096,.92-.65,1.891-1.214,2.873-1.69,1.953-.963,3.973-1.536,5.736-1.69,.884-.073,1.692-.067,2.403,.023,.706,.031,1.313,.226,1.794,.336,.485,.12,.847,.315,1.096,.402,.24,.108,.369,.166,.369,.166,0,0-.535,.147-1.467,.404-.449,.156-.984,.309-1.566,.549-.588,.211-1.218,.531-1.885,.853-2.674,1.335-5.773,3.691-8.768,6.384-2.993,2.683-5.926,5.608-8.275,7.783-1.177,1.083-2.189,1.992-2.921,2.623-.727,.634-1.179,.988-1.179,.988Z"/></g></g></mask><linearGradient id="ae" x1="5.057" y1="17.679" x2="31.118" y2="17.679" gradientTransform="matrix(1, 0, 0, 1, 0, 0)" xlink:href="#m"/><filter id="ah" x="17.997" y="43.794" width="4.882" height="76.541" color-interpolation-filters="sRGB" filterUnits="userSpaceOnUse"><feFlood flood-color="#fff" result="bg"/><feBlend in="SourceGraphic" in2="bg"/></filter><filter id="ak" x="17.997" y="-12994.368" width="4.882" height="32766" color-interpolation-filters="sRGB" filterUnits="userSpaceOnUse"><feFlood flood-color="#fff" result="bg"/><feBlend in="SourceGraphic" in2="bg"/></filter><mask id="ai" x="17.997" y="-12994.368" width="4.882" height="32766" maskUnits="userSpaceOnUse"><g class="bg"/></mask><linearGradient id="al" x1="17.997" y1="82.065" x2="22.88" y2="82.065" gradientTransform="matrix(1, 0, 0, 1, 0, 0)" xlink:href="#l"/><mask id="af" x="17.997" y="43.794" width="4.882" height="76.541" maskUnits="userSpaceOnUse"><g class="at"><g class="bd"><path class="bc" d="M20.437,43.794s.211,1.197,.483,3.289c.273,2.093,.628,5.083,.913,8.671,.153,1.794,.317,3.737,.421,5.792,.12,2.056,.271,4.224,.329,6.467,.062,2.241,.201,4.559,.211,6.912,.029,2.355,.056,4.747,.085,7.138-.025,2.393-.048,4.785-.073,7.139-.023,2.354-.151,4.672-.22,6.913-.168,4.485-.431,8.671-.748,12.259-.286,3.588-.642,6.578-.916,8.671-.273,2.092-.487,3.288-.487,3.288,0,0-.213-1.196-.485-3.288-.276-2.093-.632-5.083-.918-8.671-.315-3.588-.578-7.774-.748-12.259-.068-2.241-.197-4.559-.22-6.913-.023-2.354-.048-4.747-.07-7.139,.029-2.391,.056-4.783,.083-7.138,.01-2.353,.149-4.671,.211-6.912,.06-2.243,.211-4.411,.329-6.467,.104-2.055,.267-3.998,.42-5.792,.286-3.588,.64-6.578,.914-8.671,.271-2.092,.483-3.289,.483-3.289Z"/></g></g></mask><linearGradient id="am" x1="17.997" y1="82.065" x2="22.88" y2="82.065" gradientTransform="matrix(1, 0, 0, 1, 0, 0)" xlink:href="#m"/></defs><g class="ax"><g id="a"/><g id="b"><g id="c"><g><g><g><path class="bl" d="M173.195,78.648c-.523,10.185-2.727,20.125-6.632,29.829-3.903,9.712-9.991,17.93-18.295,24.656-4.22,2.758-8.811,4.789-13.768,6.112-4.961,1.313-9.948,1.876-14.959,1.675-5.019-.199-9.867-1.281-14.544-3.247-4.694-1.969-8.859-4.874-12.542-8.707-7.989-8.412-13.604-17.475-16.833-27.177-3.235-9.705-4.664-20.194-4.29-31.471,.242-7.93,1.426-15.897,3.529-23.929,2.096-8.022,5.587-15.251,10.45-21.693,3.909-5.188,8.452-9.342,13.604-12.419,5.157-3.067,10.552-5.032,16.193-5.885,5.644-.859,11.361-.535,17.157,.952,5.813,1.476,11.299,4.105,16.489,7.89,5.185,3.769,9.449,8.118,12.763,13.038,3.324,4.911,5.893,10.096,7.681,15.553,1.805,5.446,3.007,11.156,3.623,17.104,.608,5.95,.733,11.852,.375,17.719Zm-24.046-1.111c.3-4.204,.024-9.083-.82-14.661-.839-5.569-2.441-10.84-4.802-15.812-2.359-4.963-5.506-9-9.434-12.106-3.916-3.113-8.884-4.28-14.888-3.525-6.54,.831-11.524,3.602-14.944,8.34-3.424,4.722-5.737,10.254-6.953,16.562-1.206,6.321-1.605,12.744-1.196,19.271,.418,6.532,1.235,12.003,2.482,16.424,.801,2.943,1.909,5.995,3.343,9.131,1.44,3.139,3.145,5.974,5.134,8.499,1.981,2.514,4.326,4.442,7.066,5.758,2.729,1.317,5.852,1.682,9.386,1.099,4.871-.892,8.855-2.542,11.945-4.941,3.096-2.402,5.601-5.283,7.536-8.639,1.926-3.361,3.357-7.145,4.278-11.354,.924-4.2,1.524-8.533,1.786-12.999l.082-1.049Z"/><path class="bm" d="M168.968,83.029c-.516,10.168-2.723,20.12-6.621,29.828-3.906,9.703-9.996,17.92-18.292,24.657-4.227,2.739-8.818,4.77-13.778,6.099-4.964,1.318-9.945,1.878-14.962,1.687-5.011-.208-9.858-1.283-14.541-3.259-4.691-1.967-8.862-4.868-12.532-8.701-7.992-8.407-13.607-17.47-16.839-27.18-3.24-9.708-4.664-20.187-4.285-31.461,.243-7.936,1.422-15.914,3.512-23.932,2.102-8.025,5.587-15.251,10.461-21.687,3.918-5.198,8.441-9.348,13.602-12.427,5.155-3.075,10.555-5.037,16.193-5.892,5.646-.843,11.37-.537,17.168,.952,5.799,1.481,11.285,4.104,16.478,7.891,5.187,3.784,9.45,8.126,12.766,13.039,3.324,4.911,5.884,10.105,7.688,15.558,1.791,5.452,2.996,11.15,3.611,17.096,.611,5.952,.735,11.867,.371,17.731Zm-24.04-1.121c.302-4.202,.018-9.079-.823-14.649-.838-5.575-2.447-10.843-4.802-15.818-2.359-4.963-5.493-8.999-9.428-12.11-3.92-3.101-8.878-4.283-14.88-3.521-6.55,.824-11.533,3.604-14.955,8.334-3.43,4.732-5.734,10.249-6.94,16.569-1.217,6.314-1.614,12.746-1.204,19.273,.41,6.521,1.232,12.002,2.496,16.418,.781,2.939,1.887,5.989,3.324,9.127,1.442,3.147,3.142,5.979,5.128,8.503,1.983,2.523,4.334,4.433,7.068,5.766,2.733,1.305,5.849,1.674,9.386,1.085,4.87-.885,8.865-2.53,11.948-4.939,3.1-2.385,5.606-5.266,7.536-8.639,1.929-3.359,3.356-7.138,4.277-11.347,.935-4.208,1.525-8.54,1.784-13.007l.084-1.047Z"/></g><g class="av"><path class="aq" d="M95.242,20.964s-.151,.174-.447,.482c-.313,.306-.699,.816-1.24,1.391-.495,.623-1.125,1.352-1.789,2.21-.693,.848-1.387,1.879-2.181,2.936-.401,.53-.766,1.131-1.163,1.719-.392,.599-.831,1.199-1.212,1.853-.403,.642-.816,1.306-1.229,1.978-.388,.7-.776,1.408-1.183,2.124-.858,1.409-1.527,2.986-2.342,4.504-.737,1.565-1.442,3.155-2.151,4.758-.614,1.658-1.307,3.269-1.883,4.899-.518,1.65-1.144,3.251-1.633,4.834-.438,1.598-.921,3.141-1.366,4.607-.392,1.483-.711,2.903-1.077,4.196-.331,1.306-.686,2.507-.887,3.585-.223,1.079-.47,2.017-.652,2.802-.391,1.554-.665,2.448-.665,2.448,0,0-.125-.901-.245-2.519-.057-.805-.139-1.779-.178-2.912-.089-1.127-.056-2.395,.028-3.782,.081-1.375,.121-2.886,.323-4.473,.234-1.576,.473-3.247,.787-4.959,.357-1.709,.87-3.454,1.349-5.226,.508-1.762,1.237-3.494,1.882-5.254,.768-1.709,1.555-3.415,2.424-5.044,.941-1.587,1.8-3.194,2.856-4.608,.523-.714,.993-1.429,1.516-2.094,.537-.648,1.08-1.287,1.599-1.903,1.012-1.256,2.142-2.301,3.138-3.269,1.036-.951,2.01-1.784,2.937-2.445,.879-.718,1.744-1.218,2.424-1.669,1.4-.824,2.261-1.171,2.261-1.171Z"/></g><g class="aw"><path class="ao" d="M148.517,83.776s.212,.732,.435,2.036c.216,1.314,.445,3.188,.493,5.452,.145,4.52-.512,10.658-2.756,16.465-.575,1.433-1.198,2.866-1.972,4.204-.723,1.361-1.618,2.621-2.512,3.79-.942,1.148-1.935,2.195-2.973,3.089-1.033,.897-2.114,1.61-3.136,2.209-.535,.268-1.026,.54-1.518,.777-.488,.182-.968,.362-1.414,.533-.887,.338-1.719,.454-2.356,.619-1.337,.182-2.086,.211-2.086,.211,0,0,.652-.426,1.764-1.065,.523-.381,1.181-.775,1.856-1.315,.341-.282,.702-.559,1.086-.873,.344-.316,.719-.656,1.112-1.02,.746-.732,1.487-1.566,2.228-2.484,.739-.92,1.443-1.945,2.123-3.019,.667-1.118,1.305-2.273,1.9-3.503,.589-1.226,1.145-2.501,1.645-3.8,2.03-5.224,3.37-10.816,4.407-15.084,1.003-4.331,1.675-7.221,1.675-7.221Z"/></g></g><g><g><path class="ay" d="M62.266,121.231c2.202,2.496,3.706,5.101,4.516,7.818,.804,2.718,.661,5.286-.441,7.708-1.1,2.423-6.873,7.629-10.539,8.217-7.049,1.174-10.933-1.978-18.421-2.051-7.488-.077-14.535-.184-21.143-.331-4.553,0-7.673-1.396-9.359-4.182-1.692-2.788-2.204-5.838-1.541-9.141,.657-3.304,2.455-6.312,5.394-9.029,2.935-2.716,6.68-4.075,11.233-4.075V35.998c-1.91,.442-3.822,.33-5.728-.33-1.91-.661-3.6-1.651-5.067-2.975-1.469-1.319-2.606-2.896-3.414-4.733-.808-1.834-1.065-3.706-.768-5.617,.439-3.227,2.092-6.53,4.955-9.911,2.863-3.374,6.2-6.167,10.022-8.369C25.777,1.862,29.707,.54,33.744,.099c4.037-.441,7.524,.588,10.463,3.084,1.174,.88,2.237,2.129,3.194,3.743,.953,1.618,1.431,3.084,1.431,4.406,.143,17.618,.18,35.128,.11,52.526-.075,17.398-.11,34.835-.11,52.306h5.725c2.935,.88,5.504,2.571,7.708,5.067Z"/><path class="bp" d="M57.209,125.301c2.202,2.498,3.706,5.102,4.518,7.819,.804,2.718,.657,5.286-.443,7.709-1.1,2.422-3.488,3.925-7.157,4.515-7.047,1.173-14.316,1.723-21.804,1.65-7.488-.076-14.535-.184-21.141-.33-4.555,0-7.675-1.396-9.361-4.182-1.69-2.787-2.204-5.838-1.541-9.141,.661-3.303,2.457-6.311,5.394-9.031,2.935-2.715,6.68-4.074,11.233-4.074V40.07c-1.912,.441-3.82,.329-5.725-.33-1.912-.66-3.602-1.652-5.067-2.974-1.471-1.322-2.608-2.897-3.414-4.735-.81-1.833-1.069-3.706-.771-5.616,.441-3.227,2.09-6.531,4.955-9.911,2.863-3.375,6.202-6.168,10.022-8.369,3.816-2.203,7.741-3.525,11.78-3.966,4.037-.439,7.524,.588,10.463,3.084,1.172,.881,2.237,2.13,3.192,3.743,.955,1.62,1.431,3.084,1.431,4.406,.147,17.619,.184,35.128,.112,52.528-.077,17.398-.112,34.833-.112,52.304h5.73c2.933,.88,5.506,2.573,7.706,5.067Z"/></g><g class="bj"><path class="ap" d="M5.057,27.96s.085-.57,.365-1.51c.274-.945,.748-2.256,1.458-3.762,1.415-3.006,3.923-6.728,7.296-9.763,.858-.736,1.73-1.469,2.672-2.096,.92-.65,1.891-1.214,2.873-1.69,1.953-.963,3.973-1.536,5.736-1.69,.884-.073,1.692-.067,2.403,.023,.706,.031,1.313,.226,1.794,.336,.485,.12,.847,.315,1.096,.402,.24,.108,.369,.166,.369,.166,0,0-.535,.147-1.467,.404-.449,.156-.984,.309-1.566,.549-.588,.211-1.218,.531-1.885,.853-2.674,1.335-5.773,3.691-8.768,6.384-2.993,2.683-5.926,5.608-8.275,7.783-1.177,1.083-2.189,1.992-2.921,2.623-.727,.634-1.179,.988-1.179,.988Z"/></g><g class="as"><path class="ar" d="M20.437,43.794s.211,1.197,.483,3.289c.273,2.093,.628,5.083,.913,8.671,.153,1.794,.317,3.737,.421,5.792,.12,2.056,.271,4.224,.329,6.467,.062,2.241,.201,4.559,.211,6.912,.029,2.355,.056,4.747,.085,7.138-.025,2.393-.048,4.785-.073,7.139-.023,2.354-.151,4.672-.22,6.913-.168,4.485-.431,8.671-.748,12.259-.286,3.588-.642,6.578-.916,8.671-.273,2.092-.487,3.288-.487,3.288,0,0-.213-1.196-.485-3.288-.276-2.093-.632-5.083-.918-8.671-.315-3.588-.578-7.774-.748-12.259-.068-2.241-.197-4.559-.22-6.913-.023-2.354-.048-4.747-.07-7.139,.029-2.391,.056-4.783,.083-7.138,.01-2.353,.149-4.671,.211-6.912,.06-2.243,.211-4.411,.329-6.467,.104-2.055,.267-3.998,.42-5.792,.286-3.588,.64-6.578,.914-8.671,.271-2.092,.483-3.289,.483-3.289Z"/></g></g></g></g></g></g></svg>