<?xml version="1.0" encoding="UTF-8"?><svg xmlns="http://www.w3.org/2000/svg" xmlns:xlink="http://www.w3.org/1999/xlink" viewBox="0 0 279.818 227.726"><defs><style>.al{mask:url(#ag);}.am{mask:url(#h);}.an{fill:#fff;}.ao{fill:#720936;}.ap{mask:url(#e);}.aq{fill:url(#k);}.aq,.ar,.as,.at{mix-blend-mode:multiply;}.au{fill:url(#u);}.av{filter:url(#af);}.aw{isolation:isolate;}.ax{fill:url(#t);}.ax,.ay,.b`,.ba{mix-blend-mode:screen;}.bb{filter:url(#j);}.bc{filter:url(#x);}.ay{fill:url(#l);}.bd{filter:url(#ai);}.be{mask:url(#y);}.bf{filter:url(#aa);}.ar{fill:url(#ab);}.b`{fill:url(#ac);}.bg{fill:url(#d);}.bh{filter:url(#r);}.as{fill:url(#aj);}.bi{mask:url(#p);}.at{fill:url(#s);}.bj{mask:url(#v);}.bk{filter:url(#o);}.bl{mask:url(#m);}.ba{fill:url(#ak);}.bm{filter:url(#g);}.bn{mask:url(#ad);}</style><linearGradient id="d" x1="100.91" y1="-134.985" x2="100.91" y2="325.502" gradientTransform="matrix(1, 0, 0, 1, 0, 0)" gradientUnits="userSpaceOnUse"><stop offset="0" stop-color="#e30613"/><stop offset="1" stop-color="#ff001a"/></linearGradient><filter id="g" x="74.849" y="54.407" width="26.061" height="20.561" color-interpolation-filters="sRGB" filterUnits="userSpaceOnUse"><feFlood flood-color="#fff" result="bg"/><feBlend in="SourceGraphic" in2="bg"/></filter><filter id="j" x="74.849" y="-13030.143" width="26.061" height="32766" color-interpolation-filters="sRGB" filterUnits="userSpaceOnUse"><feFlood flood-color="#fff" result="bg"/><feBlend in="SourceGraphic" in2="bg"/></filter><mask id="h" x="74.849" y="-13030.143" width="26.061" height="32766" maskUnits="userSpaceOnUse"><g class="bb"/></mask><linearGradient id="k" x1="74.849" y1="64.688" x2="100.91" y2="64.688" gradientTransform="matrix(1, 0, 0, 1, 0, 0)" gradientUnits="userSpaceOnUse"><stop offset=".001" stop-color="#fff"/><stop offset="1" stop-color="#000"/></linearGradient><mask id="e" x="74.849" y="54.407" width="26.061" height="20.561" maskUnits="userSpaceOnUse"><g class="bm"><g class="am"><path class="aq" d="M74.849,74.969s.085-.57,.365-1.51c.274-.945,.748-2.256,1.458-3.762,1.415-3.006,3.923-6.728,7.296-9.763,.858-.736,1.73-1.469,2.672-2.096,.92-.65,1.891-1.214,2.873-1.69,1.953-.963,3.973-1.536,5.736-1.69,.884-.073,1.692-.067,2.403,.023,.706,.031,1.313,.226,1.794,.336,.485,.12,.847,.315,1.096,.402,.24,.108,.369,.166,.369,.166,0,0-.535,.147-1.467,.404-.449,.156-.984,.309-1.566,.549-.588,.211-1.218,.531-1.885,.853-2.674,1.335-5.773,3.691-8.768,6.384-2.993,2.683-5.926,5.608-8.275,7.783-1.177,1.083-2.189,1.992-2.921,2.623-.727,.634-1.179,.988-1.179,.988Z"/></g></g></mask><linearGradient id="l" x1="74.849" y1="64.688" x2="100.91" y2="64.688" gradientTransform="matrix(1, 0, 0, 1, 0, 0)" gradientUnits="userSpaceOnUse"><stop offset=".001" stop-color="#fff"/><stop offset="1" stop-color="#fff"/></linearGradient><filter id="o" x="87.789" y="90.803" width="4.882" height="76.541" color-interpolation-filters="sRGB" filterUnits="userSpaceOnUse"><feFlood flood-color="#fff" result="bg"/><feBlend in="SourceGraphic" in2="bg"/></filter><filter id="r" x="87.789" y="-13030.143" width="4.882" height="32766" color-interpolation-filters="sRGB" filterUnits="userSpaceOnUse"><feFlood flood-color="#fff" result="bg"/><feBlend in="SourceGraphic" in2="bg"/></filter><mask id="p" x="87.789" y="-13030.143" width="4.882" height="32766" maskUnits="userSpaceOnUse"><g class="bh"/></mask><linearGradient id="s" x1="87.789" y1="129.073" x2="92.672" y2="129.073" xlink:href="#k"/><mask id="m" x="87.789" y="90.803" width="4.882" height="76.541" maskUnits="userSpaceOnUse"><g class="bk"><g class="bi"><path class="at" d="M90.229,90.803s.211,1.197,.483,3.289c.273,2.093,.628,5.083,.913,8.671,.153,1.794,.317,3.737,.421,5.792,.12,2.056,.271,4.224,.329,6.467,.062,2.241,.201,4.559,.211,6.912,.029,2.355,.056,4.747,.085,7.138-.025,2.393-.048,4.785-.073,7.139-.023,2.354-.151,4.672-.22,6.913-.168,4.485-.431,8.671-.748,12.259-.286,3.588-.642,6.578-.916,8.671-.273,2.092-.487,3.288-.487,3.288,0,0-.213-1.196-.485-3.288-.276-2.093-.632-5.083-.918-8.671-.315-3.588-.578-7.774-.748-12.259-.068-2.241-.197-4.559-.22-6.913-.023-2.354-.048-4.747-.07-7.139,.029-2.391,.056-4.783,.083-7.138,.01-2.353,.149-4.671,.211-6.912,.06-2.243,.211-4.411,.329-6.467,.104-2.055,.267-3.998,.42-5.792,.286-3.588,.64-6.578,.914-8.671,.271-2.092,.483-3.289,.483-3.289Z"/></g></g></mask><linearGradient id="t" x1="87.789" y1="129.073" x2="92.672" y2="129.073" xlink:href="#l"/><linearGradient id="u" x1="170.791" x2="170.791" xlink:href="#d"/><filter id="x" x="144.73" y="54.407" width="26.061" height="20.561" color-interpolation-filters="sRGB" filterUnits="userSpaceOnUse"><feFlood flood-color="#fff" result="bg"/><feBlend in="SourceGraphic" in2="bg"/></filter><filter id="aa" x="144.73" y="-13030.143" width="26.061" height="32766" color-interpolation-filters="sRGB" filterUnits="userSpaceOnUse"><feFlood flood-color="#fff" result="bg"/><feBlend in="SourceGraphic" in2="bg"/></filter><mask id="y" x="144.73" y="-13030.143" width="26.061" height="32766" maskUnits="userSpaceOnUse"><g class="bf"/></mask><linearGradient id="ab" x1="144.73" x2="170.79" xlink:href="#k"/><mask id="v" x="144.73" y="54.407" width="26.061" height="20.561" maskUnits="userSpaceOnUse"><g class="bc"><g class="be"><path class="ar" d="M144.73,74.969s.085-.57,.365-1.51c.274-.945,.748-2.256,1.458-3.762,1.415-3.006,3.923-6.728,7.296-9.763,.858-.736,1.73-1.469,2.672-2.096,.92-.65,1.891-1.214,2.873-1.69,1.953-.963,3.973-1.536,5.736-1.69,.884-.073,1.692-.067,2.403,.023,.706,.031,1.313,.226,1.794,.336,.485,.12,.847,.315,1.096,.402,.24,.108,.369,.166,.369,.166,0,0-.535,.147-1.467,.404-.449,.156-.984,.309-1.566,.549-.588,.211-1.218,.531-1.885,.853-2.674,1.335-5.773,3.691-8.768,6.384-2.993,2.683-5.926,5.608-8.275,7.783-1.177,1.083-2.189,1.992-2.921,2.623-.727,.634-1.179,.988-1.179,.988Z"/></g></g></mask><linearGradient id="ac" x1="144.73" x2="170.79" xlink:href="#l"/><filter id="af" x="157.67" y="90.803" width="4.882" height="76.541" color-interpolation-filters="sRGB" filterUnits="userSpaceOnUse"><feFlood flood-color="#fff" result="bg"/><feBlend in="SourceGraphic" in2="bg"/></filter><filter id="ai" x="157.67" y="-13030.143" width="4.882" height="32766" color-interpolation-filters="sRGB" filterUnits="userSpaceOnUse"><feFlood flood-color="#fff" result="bg"/><feBlend in="SourceGraphic" in2="bg"/></filter><mask id="ag" x="157.67" y="-13030.143" width="4.882" height="32766" maskUnits="userSpaceOnUse"><g class="bd"/></mask><linearGradient id="aj" x1="157.67" y1="129.073" x2="162.552" y2="129.073" xlink:href="#k"/><mask id="ad" x="157.67" y="90.803" width="4.882" height="76.541" maskUnits="userSpaceOnUse"><g class="av"><g class="al"><path class="as" d="M160.11,90.803s.211,1.197,.483,3.289c.273,2.093,.628,5.083,.913,8.671,.153,1.794,.317,3.737,.421,5.792,.12,2.056,.271,4.224,.329,6.467,.062,2.241,.201,4.559,.211,6.912,.029,2.355,.056,4.747,.085,7.138-.025,2.393-.048,4.785-.073,7.139-.023,2.354-.151,4.672-.22,6.913-.168,4.485-.431,8.671-.748,12.259-.286,3.588-.642,6.578-.916,8.671-.273,2.092-.487,3.288-.487,3.288,0,0-.213-1.196-.485-3.288-.276-2.093-.632-5.083-.918-8.671-.315-3.588-.578-7.774-.748-12.259-.068-2.241-.197-4.559-.22-6.913-.023-2.354-.048-4.747-.07-7.139,.029-2.391,.056-4.783,.083-7.138,.01-2.353,.149-4.671,.211-6.912,.06-2.243,.211-4.411,.329-6.467,.104-2.055,.267-3.998,.42-5.792,.286-3.588,.64-6.578,.914-8.671,.271-2.092,.483-3.289,.483-3.289Z"/></g></g></mask><linearGradient id="ak" x1="157.67" y1="129.073" x2="162.552" y2="129.073" xlink:href="#l"/></defs><g class="aw"><g id="a"/><g id="b"><g id="c"><rect class="an" x="0" width="279.818" height="227.726" rx="12" ry="12"/><g><g><g><path class="ao" d="M132.058,168.24c2.202,2.496,3.706,5.101,4.516,7.818,.804,2.718,.661,5.286-.441,7.708-1.1,2.423-6.873,7.629-10.539,8.217-7.049,1.174-10.933-1.978-18.421-2.051-7.488-.077-14.535-.184-21.143-.331-4.553,0-7.673-1.396-9.359-4.182-1.692-2.788-2.204-5.838-1.541-9.141,.657-3.304,2.455-6.312,5.394-9.029,2.935-2.716,6.68-4.075,11.233-4.075V83.007c-1.91,.442-3.822,.33-5.728-.33-1.91-.661-3.6-1.651-5.067-2.975-1.469-1.319-2.606-2.896-3.414-4.733-.808-1.834-1.065-3.706-.768-5.617,.439-3.227,2.092-6.53,4.955-9.911,2.863-3.374,6.2-6.167,10.022-8.369,3.814-2.202,7.743-3.525,11.78-3.965,4.037-.441,7.524,.588,10.463,3.084,1.174,.88,2.237,2.129,3.194,3.743,.953,1.618,1.431,3.084,1.431,4.406,.143,17.618,.18,35.128,.11,52.526-.075,17.398-.11,34.835-.11,52.306h5.725c2.935,.88,5.504,2.571,7.708,5.067Z"/><path class="bg" d="M127.002,172.31c2.202,2.498,3.706,5.102,4.518,7.819,.804,2.718,.657,5.286-.443,7.709-1.1,2.422-3.488,3.925-7.157,4.515-7.047,1.173-14.316,1.723-21.804,1.65-7.488-.076-14.535-.184-21.141-.33-4.555,0-7.675-1.396-9.361-4.182-1.69-2.787-2.204-5.838-1.541-9.141,.661-3.303,2.457-6.311,5.394-9.031,2.935-2.715,6.68-4.074,11.233-4.074V87.078c-1.912,.441-3.82,.329-5.725-.33-1.912-.66-3.602-1.652-5.067-2.974-1.471-1.322-2.608-2.897-3.414-4.735-.81-1.833-1.069-3.706-.771-5.616,.441-3.227,2.09-6.531,4.955-9.911,2.863-3.375,6.202-6.168,10.022-8.369,3.816-2.203,7.741-3.525,11.78-3.966,4.037-.439,7.524,.588,10.463,3.084,1.172,.881,2.237,2.13,3.192,3.743,.955,1.62,1.431,3.084,1.431,4.406,.147,17.619,.184,35.128,.112,52.528-.077,17.398-.112,34.833-.112,52.304h5.73c2.933,.88,5.506,2.573,7.706,5.067Z"/></g><g class="ap"><path class="ay" d="M74.849,74.969s.085-.57,.365-1.51c.274-.945,.748-2.256,1.458-3.762,1.415-3.006,3.923-6.728,7.296-9.763,.858-.736,1.73-1.469,2.672-2.096,.92-.65,1.891-1.214,2.873-1.69,1.953-.963,3.973-1.536,5.736-1.69,.884-.073,1.692-.067,2.403,.023,.706,.031,1.313,.226,1.794,.336,.485,.12,.847,.315,1.096,.402,.24,.108,.369,.166,.369,.166,0,0-.535,.147-1.467,.404-.449,.156-.984,.309-1.566,.549-.588,.211-1.218,.531-1.885,.853-2.674,1.335-5.773,3.691-8.768,6.384-2.993,2.683-5.926,5.608-8.275,7.783-1.177,1.083-2.189,1.992-2.921,2.623-.727,.634-1.179,.988-1.179,.988Z"/></g><g class="bl"><path class="ax" d="M90.229,90.803s.211,1.197,.483,3.289c.273,2.093,.628,5.083,.913,8.671,.153,1.794,.317,3.737,.421,5.792,.12,2.056,.271,4.224,.329,6.467,.062,2.241,.201,4.559,.211,6.912,.029,2.355,.056,4.747,.085,7.138-.025,2.393-.048,4.785-.073,7.139-.023,2.354-.151,4.672-.22,6.913-.168,4.485-.431,8.671-.748,12.259-.286,3.588-.642,6.578-.916,8.671-.273,2.092-.487,3.288-.487,3.288,0,0-.213-1.196-.485-3.288-.276-2.093-.632-5.083-.918-8.671-.315-3.588-.578-7.774-.748-12.259-.068-2.241-.197-4.559-.22-6.913-.023-2.354-.048-4.747-.07-7.139,.029-2.391,.056-4.783,.083-7.138,.01-2.353,.149-4.671,.211-6.912,.06-2.243,.211-4.411,.329-6.467,.104-2.055,.267-3.998,.42-5.792,.286-3.588,.64-6.578,.914-8.671,.271-2.092,.483-3.289,.483-3.289Z"/></g></g><g><g><path class="ao" d="M201.939,168.24c2.202,2.496,3.706,5.101,4.516,7.818,.804,2.718,.661,5.286-.441,7.708-1.1,2.423-6.873,7.629-10.539,8.217-7.049,1.174-10.933-1.978-18.421-2.051-7.488-.077-14.535-.184-21.143-.331-4.553,0-7.673-1.396-9.359-4.182-1.692-2.788-2.204-5.838-1.541-9.141,.657-3.304,2.455-6.312,5.394-9.029,2.935-2.716,6.68-4.075,11.233-4.075V83.007c-1.91,.442-3.822,.33-5.728-.33-1.91-.661-3.6-1.651-5.067-2.975-1.469-1.319-2.606-2.896-3.414-4.733-.808-1.834-1.065-3.706-.768-5.617,.439-3.227,2.092-6.53,4.955-9.911,2.863-3.374,6.2-6.167,10.022-8.369,3.814-2.202,7.743-3.525,11.78-3.965,4.037-.441,7.524,.588,10.463,3.084,1.174,.88,2.237,2.129,3.194,3.743,.953,1.618,1.431,3.084,1.431,4.406,.143,17.618,.18,35.128,.11,52.526-.075,17.398-.11,34.835-.11,52.306h5.725c2.935,.88,5.504,2.571,7.708,5.067Z"/><path class="au" d="M196.882,172.31c2.202,2.498,3.706,5.102,4.518,7.819,.804,2.718,.657,5.286-.443,7.709-1.1,2.422-3.488,3.925-7.157,4.515-7.047,1.173-14.316,1.723-21.804,1.65-7.488-.076-14.535-.184-21.141-.33-4.555,0-7.675-1.396-9.361-4.182-1.69-2.787-2.204-5.838-1.541-9.141,.661-3.303,2.457-6.311,5.394-9.031,2.935-2.715,6.68-4.074,11.233-4.074V87.078c-1.912,.441-3.82,.329-5.725-.33-1.912-.66-3.602-1.652-5.067-2.974-1.471-1.322-2.608-2.897-3.414-4.735-.81-1.833-1.069-3.706-.771-5.616,.441-3.227,2.09-6.531,4.955-9.911,2.863-3.375,6.202-6.168,10.022-8.369,3.816-2.203,7.741-3.525,11.78-3.966,4.037-.439,7.524,.588,10.463,3.084,1.172,.881,2.237,2.13,3.192,3.743,.955,1.62,1.431,3.084,1.431,4.406,.147,17.619,.184,35.128,.112,52.528-.077,17.398-.112,34.833-.112,52.304h5.73c2.933,.88,5.506,2.573,7.706,5.067Z"/></g><g class="bj"><path class="b`" d="M144.73,74.969s.085-.57,.365-1.51c.274-.945,.748-2.256,1.458-3.762,1.415-3.006,3.923-6.728,7.296-9.763,.858-.736,1.73-1.469,2.672-2.096,.92-.65,1.891-1.214,2.873-1.69,1.953-.963,3.973-1.536,5.736-1.69,.884-.073,1.692-.067,2.403,.023,.706,.031,1.313,.226,1.794,.336,.485,.12,.847,.315,1.096,.402,.24,.108,.369,.166,.369,.166,0,0-.535,.147-1.467,.404-.449,.156-.984,.309-1.566,.549-.588,.211-1.218,.531-1.885,.853-2.674,1.335-5.773,3.691-8.768,6.384-2.993,2.683-5.926,5.608-8.275,7.783-1.177,1.083-2.189,1.992-2.921,2.623-.727,.634-1.179,.988-1.179,.988Z"/></g><g class="bn"><path class="ba" d="M160.11,90.803s.211,1.197,.483,3.289c.273,2.093,.628,5.083,.913,8.671,.153,1.794,.317,3.737,.421,5.792,.12,2.056,.271,4.224,.329,6.467,.062,2.241,.201,4.559,.211,6.912,.029,2.355,.056,4.747,.085,7.138-.025,2.393-.048,4.785-.073,7.139-.023,2.354-.151,4.672-.22,6.913-.168,4.485-.431,8.671-.748,12.259-.286,3.588-.642,6.578-.916,8.671-.273,2.092-.487,3.288-.487,3.288,0,0-.213-1.196-.485-3.288-.276-2.093-.632-5.083-.918-8.671-.315-3.588-.578-7.774-.748-12.259-.068-2.241-.197-4.559-.22-6.913-.023-2.354-.048-4.747-.07-7.139,.029-2.391,.056-4.783,.083-7.138,.01-2.353,.149-4.671,.211-6.912,.06-2.243,.211-4.411,.329-6.467,.104-2.055,.267-3.998,.42-5.792,.286-3.588,.64-6.578,.914-8.671,.271-2.092,.483-3.289,.483-3.289Z"/></g></g></g></g></g></g></svg>