<?xml version="1.0" encoding="UTF-8"?><svg xmlns="http://www.w3.org/2000/svg" xmlns:xlink="http://www.w3.org/1999/xlink" viewBox="0 0 168.923 147"><defs><style>.al{mask:url(#ag);}.am{mask:url(#h);}.an{mask:url(#e);}.ao{fill:url(#k);}.ao,.ap,.aq,.ar{mix-blend-mode:multiply;}.as{fill:url(#u);}.at{fill:#2d853e;}.au{filter:url(#af);}.av{isolation:isolate;}.aw{fill:url(#t);}.aw,.ax,.ay,.b`{mix-blend-mode:screen;}.ba{filter:url(#j);}.bb{filter:url(#x);}.ax{fill:url(#l);}.bc{filter:url(#ai);}.bd{mask:url(#y);}.be{filter:url(#aa);}.ap{fill:url(#ab);}.ay{fill:url(#ac);}.bf{fill:url(#d);}.bg{filter:url(#r);}.aq{fill:url(#aj);}.bh{mask:url(#p);}.ar{fill:url(#s);}.bi{mask:url(#v);}.bj{filter:url(#o);}.bk{mask:url(#m);}.b`{fill:url(#ak);}.bl{filter:url(#g);}.bm{mask:url(#ad);}</style><linearGradient id="d" x1="118.457" y1="-171.431" x2="118.457" y2="268.351" gradientTransform="matrix(1, 0, 0, 1, 0, 0)" gradientUnits="userSpaceOnUse"><stop offset="0" stop-color="#dae5a7"/><stop offset=".295" stop-color="#b8d26e"/><stop offset="1" stop-color="#58ab32"/></linearGradient><filter id="g" x="77.645" y="9.863" width="40.812" height="25.788" color-interpolation-filters="sRGB" filterUnits="userSpaceOnUse"><feFlood flood-color="#fff" result="bg"/><feBlend in="SourceGraphic" in2="bg"/></filter><filter id="j" x="77.645" y="-12991.48" width="40.812" height="32766" color-interpolation-filters="sRGB" filterUnits="userSpaceOnUse"><feFlood flood-color="#fff" result="bg"/><feBlend in="SourceGraphic" in2="bg"/></filter><mask id="h" x="77.645" y="-12991.48" width="40.812" height="32766" maskUnits="userSpaceOnUse"><g class="ba"/></mask><linearGradient id="k" x1="77.645" y1="22.757" x2="118.458" y2="22.757" gradientTransform="matrix(1, 0, 0, 1, 0, 0)" gradientUnits="userSpaceOnUse"><stop offset=".001" stop-color="#fff"/><stop offset="1" stop-color="#000"/></linearGradient><mask id="e" x="77.645" y="9.863" width="40.812" height="25.788" maskUnits="userSpaceOnUse"><g class="bl"><g class="am"><path class="ao" d="M77.645,35.651s.145-.8,.635-2.131c.244-.662,.555-1.469,.986-2.355,.433-.883,.921-1.898,1.581-2.918,.608-1.064,1.375-2.135,2.208-3.268,.875-1.09,1.812-2.25,2.893-3.338,1.089-1.083,2.22-2.211,3.513-3.184,.643-.491,1.249-1.048,1.936-1.494l2.069-1.346c1.358-.934,2.887-1.581,4.323-2.321,.713-.389,1.482-.635,2.224-.912,.749-.266,1.482-.53,2.206-.791,1.453-.496,2.931-.739,4.291-1.063,1.352-.354,2.7-.369,3.906-.493,1.213-.09,2.309-.239,3.303-.143,.986,.034,1.844,.109,2.546,.164,1.402,.114,2.191,.236,2.191,.236,0,0-.774,.286-2.103,.687-.666,.198-1.467,.45-2.386,.681-.923,.2-1.915,.671-3.017,.999-1.087,.402-2.292,.698-3.488,1.251-1.203,.525-2.508,.946-3.782,1.552-1.257,.648-2.609,1.184-3.9,1.899-1.257,.767-2.647,1.347-3.864,2.222-1.272,.781-2.536,1.579-3.715,2.466-1.228,.824-2.34,1.756-3.457,2.624-1.102,.882-2.119,1.804-3.108,2.663-.936,.905-1.892,1.715-2.685,2.549-1.646,1.623-2.952,3.072-3.877,4.102-.917,1.033-1.43,1.662-1.43,1.662Z"/></g></g></mask><linearGradient id="l" x1="77.645" y1="22.757" x2="118.458" y2="22.757" gradientTransform="matrix(1, 0, 0, 1, 0, 0)" gradientUnits="userSpaceOnUse"><stop offset=".001" stop-color="#fff"/><stop offset="1" stop-color="#fff"/></linearGradient><filter id="o" x="79.153" y="54.703" width="56.569" height="79.707" color-interpolation-filters="sRGB" filterUnits="userSpaceOnUse"><feFlood flood-color="#fff" result="bg"/><feBlend in="SourceGraphic" in2="bg"/></filter><filter id="r" x="79.153" y="-12991.48" width="56.569" height="32766" color-interpolation-filters="sRGB" filterUnits="userSpaceOnUse"><feFlood flood-color="#fff" result="bg"/><feBlend in="SourceGraphic" in2="bg"/></filter><mask id="p" x="79.153" y="-12991.48" width="56.569" height="32766" maskUnits="userSpaceOnUse"><g class="bg"/></mask><linearGradient id="s" x1="79.153" y1="94.557" x2="135.722" y2="94.557" xlink:href="#k"/><mask id="m" x="79.153" y="54.703" width="56.569" height="79.707" maskUnits="userSpaceOnUse"><g class="bj"><g class="bh"><path class="ar" d="M135.722,54.703s-.065,.399-.358,1.116c-.122,.372-.307,.82-.584,1.302-.265,.492-.547,1.088-.94,1.694-.852,1.15-1.779,2.702-3.198,4.127-.681,.746-1.407,1.543-2.172,2.381-.841,.754-1.724,1.546-2.649,2.373-1.804,1.73-3.976,3.286-6.272,4.953-2.25,1.752-4.811,3.261-7.449,4.862-.66,.4-1.327,.804-1.995,1.211-.633,.391-1.274,.784-1.915,1.182-1.322,.842-2.664,1.686-4.033,2.508-1.259,.881-2.405,1.821-3.625,2.725-.62,.425-1.173,.973-1.737,1.503l-1.69,1.585c-2.231,2.137-4.243,4.494-5.977,6.997-.475,.597-.87,1.245-1.241,1.902-.397,.644-.793,1.281-1.186,1.92-.797,1.267-1.36,2.646-2.042,3.937-.639,1.316-1.079,2.691-1.657,3.982-.494,1.325-.889,2.656-1.327,3.937-.343,1.315-.675,2.592-.997,3.828-.261,1.258-.515,2.474-.757,3.642-.376,2.357-.698,4.537-.883,6.488-.164,1.949-.33,3.665-.372,5.08-.063,1.416-.124,2.536-.126,3.298-.021,.766-.029,1.174-.029,1.174,0,0-.078-.402-.223-1.152-.149-.751-.376-1.857-.549-3.278-.215-1.421-.381-3.158-.488-5.162-.027-1.002-.097-2.071-.099-3.201,.019-1.128,.05-2.318,.109-3.561,.107-1.24,.223-2.534,.341-3.873,.208-1.331,.427-2.708,.692-4.121,.343-1.394,.648-2.845,1.058-4.304,.473-1.441,.929-2.93,1.526-4.393,1.215-2.919,2.632-5.905,4.52-8.671,1.859-2.781,4.031-5.423,6.448-7.808l1.89-1.711c.629-.571,1.238-1.152,1.96-1.64,1.388-1.003,2.769-2.067,4.146-2.984,1.373-.817,2.752-1.599,4.119-2.364,1.392-.757,2.765-1.503,4.115-2.239,2.62-1.462,5.277-2.691,7.565-4.197,2.33-1.451,4.626-2.71,6.531-4.15,.984-.686,1.928-1.342,2.828-1.968,.843-.689,1.644-1.341,2.395-1.953,1.564-1.192,2.676-2.452,3.711-3.424,.875-1.067,1.676-1.887,2.029-2.539,.431-.627,.587-1.013,.587-1.013Z"/></g></g></mask><linearGradient id="t" x1="79.153" y1="94.557" x2="135.722" y2="94.557" xlink:href="#l"/><linearGradient id="u" x1="31.118" y1="-181.994" x2="31.118" y2="278.493" xlink:href="#d"/><filter id="x" x="5.057" y="7.399" width="26.061" height="20.561" color-interpolation-filters="sRGB" filterUnits="userSpaceOnUse"><feFlood flood-color="#fff" result="bg"/><feBlend in="SourceGraphic" in2="bg"/></filter><filter id="aa" x="5.057" y="-12991.48" width="26.061" height="32766" color-interpolation-filters="sRGB" filterUnits="userSpaceOnUse"><feFlood flood-color="#fff" result="bg"/><feBlend in="SourceGraphic" in2="bg"/></filter><mask id="y" x="5.057" y="-12991.48" width="26.061" height="32766" maskUnits="userSpaceOnUse"><g class="be"/></mask><linearGradient id="ab" x1="5.057" y1="17.679" x2="31.118" y2="17.679" xlink:href="#k"/><mask id="v" x="5.057" y="7.399" width="26.061" height="20.561" maskUnits="userSpaceOnUse"><g class="bb"><g class="bd"><path class="ap" d="M5.057,27.96s.085-.57,.365-1.51c.274-.945,.748-2.256,1.458-3.762,1.415-3.006,3.923-6.728,7.296-9.763,.858-.736,1.73-1.469,2.672-2.096,.92-.65,1.891-1.214,2.873-1.69,1.953-.963,3.973-1.536,5.736-1.69,.884-.073,1.692-.067,2.403,.023,.706,.031,1.313,.226,1.794,.336,.485,.12,.847,.315,1.096,.402,.24,.108,.369,.166,.369,.166,0,0-.535,.147-1.467,.404-.449,.156-.984,.309-1.566,.549-.588,.211-1.218,.531-1.885,.853-2.674,1.335-5.773,3.691-8.768,6.384-2.993,2.683-5.926,5.608-8.275,7.783-1.177,1.083-2.189,1.992-2.921,2.623-.727,.634-1.179,.988-1.179,.988Z"/></g></g></mask><linearGradient id="ac" x1="5.057" y1="17.679" x2="31.118" y2="17.679" xlink:href="#l"/><filter id="af" x="17.997" y="43.794" width="4.882" height="76.541" color-interpolation-filters="sRGB" filterUnits="userSpaceOnUse"><feFlood flood-color="#fff" result="bg"/><feBlend in="SourceGraphic" in2="bg"/></filter><filter id="ai" x="17.997" y="-12991.48" width="4.882" height="32766" color-interpolation-filters="sRGB" filterUnits="userSpaceOnUse"><feFlood flood-color="#fff" result="bg"/><feBlend in="SourceGraphic" in2="bg"/></filter><mask id="ag" x="17.997" y="-12991.48" width="4.882" height="32766" maskUnits="userSpaceOnUse"><g class="bc"/></mask><linearGradient id="aj" x1="17.997" y1="82.065" x2="22.88" y2="82.065" xlink:href="#k"/><mask id="ad" x="17.997" y="43.794" width="4.882" height="76.541" maskUnits="userSpaceOnUse"><g class="au"><g class="al"><path class="aq" d="M20.437,43.794s.211,1.197,.483,3.289c.273,2.093,.628,5.083,.913,8.671,.153,1.794,.317,3.737,.421,5.792,.12,2.056,.271,4.224,.329,6.467,.062,2.241,.201,4.559,.211,6.912,.029,2.355,.056,4.747,.085,7.138-.025,2.393-.048,4.785-.073,7.139-.023,2.354-.151,4.672-.22,6.913-.168,4.485-.431,8.671-.748,12.259-.286,3.588-.642,6.578-.916,8.671-.273,2.092-.487,3.288-.487,3.288,0,0-.213-1.196-.485-3.288-.276-2.093-.632-5.083-.918-8.671-.315-3.588-.578-7.774-.748-12.259-.068-2.241-.197-4.559-.22-6.913-.023-2.354-.048-4.747-.07-7.139,.029-2.391,.056-4.783,.083-7.138,.01-2.353,.149-4.671,.211-6.912,.06-2.243,.211-4.411,.329-6.467,.104-2.055,.267-3.998,.42-5.792,.286-3.588,.64-6.578,.914-8.671,.271-2.092,.483-3.289,.483-3.289Z"/></g></g></mask><linearGradient id="ak" x1="17.997" y1="82.065" x2="22.88" y2="82.065" xlink:href="#l"/></defs><g class="av"><g id="a"/><g id="b"><g id="c"><g><g><g><path class="at" d="M134.317,34.657c-2.384-4.907-5.399-7.467-9.041-7.677-3.648-.211-7.783,1.228-12.411,4.311-2.245,1.403-4.663,3.366-7.256,5.89-2.597,2.524-5.294,4.626-8.097,6.31-2.807,1.682-5.647,2.523-8.519,2.523s-5.715-1.752-8.519-5.257c-2.384-2.945-3.259-5.958-2.628-9.046,.631-3.082,1.997-5.994,4.102-8.728,2.103-2.733,4.59-5.221,7.466-7.466,2.874-2.241,5.292-4.066,7.258-5.469,4.626-3.364,9.674-5.922,15.142-7.678C117.282,.619,122.715-.118,128.113,.162c5.397,.282,10.443,1.789,15.145,4.523,4.697,2.734,8.589,6.978,11.675,12.725,2.943,5.469,4.836,11.011,5.677,16.616,.841,5.611,.631,11.078-.631,16.406-1.264,5.331-3.471,10.378-6.625,15.142-3.156,4.769-7.256,8.977-12.304,12.621-3.087,2.244-6.488,4.416-10.202,6.52-3.717,2.104-7.292,4.416-10.727,6.939-3.438,2.524-6.451,5.331-9.043,8.413-2.599,3.087-4.312,6.804-5.155,11.15,1.543,0,3.82,.139,6.837,.418,3.013,.282,6.31,.494,9.884,.632,3.578,.142,7.292,.073,11.15-.209,3.854-.28,7.323-.911,10.41-1.894-.561,.563-.982,.912-1.262,1.053,2.105-2.106,4.1-4.032,5.994-5.784,1.894-1.754,4.522-2.487,7.889-2.21,2.38,.141,4.523,.946,6.415,2.418,1.892,1.473,3.328,3.261,4.31,5.365,.98,2.104,1.436,4.384,1.367,6.834-.071,2.456-.944,4.663-2.626,6.626-3.229,3.929-6.806,7.223-10.729,9.885-3.928,2.664-8.553,3.997-13.881,3.997h-50.059c-3.225,0-6.03-1.051-8.414-3.156-2.384-2.103-3.925-4.695-4.626-7.783-.561-2.381-.599-4.763-.105-7.15,.49-2.382,.875-4.766,1.156-7.151,.841-5.748,2.105-10.939,3.787-15.565,1.682-4.627,3.856-8.834,6.52-12.619,2.66-3.787,5.853-7.256,9.571-10.412,3.713-3.155,8.025-6.205,12.935-9.15,2.241-1.259,4.977-2.944,8.202-5.048,3.225-2.102,6.169-4.485,8.835-7.151,2.662-2.66,4.59-5.574,5.784-8.728,1.188-3.155,.875-6.415-.948-9.78Z"/><path class="bf" d="M129.49,38.544c-2.386-4.907-5.399-7.466-9.045-7.677-3.648-.211-7.782,1.228-12.407,4.312-2.246,1.404-4.663,3.365-7.258,5.89-2.597,2.524-5.294,4.627-8.099,6.309-2.805,1.682-5.643,2.524-8.515,2.524s-5.715-1.752-8.519-5.257c-2.386-2.946-3.261-5.959-2.63-9.047,.631-3.081,1.999-5.992,4.102-8.727,2.105-2.734,4.592-5.222,7.466-7.466,2.872-2.242,5.292-4.066,7.258-5.47,4.628-3.364,9.674-5.921,15.143-7.677,5.469-1.751,10.9-2.488,16.301-2.209,5.397,.283,10.443,1.789,15.142,4.524,4.699,2.734,8.589,6.977,11.673,12.725,2.948,5.47,4.84,11.01,5.681,16.615,.841,5.611,.629,11.078-.633,16.406-1.261,5.332-3.469,10.378-6.625,15.142-3.156,4.77-7.256,8.977-12.302,12.622-3.089,2.245-6.488,4.417-10.204,6.52-3.715,2.105-7.292,4.417-10.725,6.94-3.438,2.524-6.451,5.33-9.045,8.414-2.595,3.085-4.312,6.802-5.153,11.148,1.543,0,3.818,.139,6.835,.418,3.013,.283,6.312,.494,9.886,.633,3.576,.141,7.289,.073,11.148-.21,3.856-.28,7.325-.91,10.412-1.894-.561,.564-.982,.914-1.264,1.053,2.105-2.105,4.104-4.031,5.996-5.784,1.892-1.752,4.523-2.487,7.887-2.21,2.384,.141,4.522,.946,6.415,2.42,1.892,1.472,3.328,3.259,4.312,5.362,.978,2.104,1.436,4.385,1.367,6.836-.071,2.454-.946,4.663-2.63,6.625-3.225,3.928-6.802,7.223-10.725,9.884-3.928,2.664-8.555,3.998-13.881,3.998h-50.059c-3.227,0-6.032-1.051-8.414-3.157-2.386-2.101-3.925-4.694-4.626-7.781-.561-2.382-.597-4.763-.107-7.151,.49-2.382,.877-4.766,1.159-7.151,.841-5.747,2.103-10.938,3.785-15.565,1.682-4.626,3.856-8.833,6.522-12.619,2.662-3.787,5.851-7.256,9.569-10.412,3.715-3.154,8.025-6.204,12.935-9.148,2.241-1.262,4.977-2.944,8.204-5.05,3.223-2.102,6.169-4.485,8.835-7.15,2.66-2.661,4.588-5.574,5.782-8.729,1.192-3.154,.875-6.414-.946-9.78Z"/></g><g class="an"><path class="ax" d="M77.645,35.651s.145-.8,.635-2.131c.244-.662,.555-1.469,.986-2.355,.433-.883,.921-1.898,1.581-2.918,.608-1.064,1.375-2.135,2.208-3.268,.875-1.09,1.812-2.25,2.893-3.338,1.089-1.083,2.22-2.211,3.513-3.184,.643-.491,1.249-1.048,1.936-1.494l2.069-1.346c1.358-.934,2.887-1.581,4.323-2.321,.713-.389,1.482-.635,2.224-.912,.749-.266,1.482-.53,2.206-.791,1.453-.496,2.931-.739,4.291-1.063,1.352-.354,2.7-.369,3.906-.493,1.213-.09,2.309-.239,3.303-.143,.986,.034,1.844,.109,2.546,.164,1.402,.114,2.191,.236,2.191,.236,0,0-.774,.286-2.103,.687-.666,.198-1.467,.45-2.386,.681-.923,.2-1.915,.671-3.017,.999-1.087,.402-2.292,.698-3.488,1.251-1.203,.525-2.508,.946-3.782,1.552-1.257,.648-2.609,1.184-3.9,1.899-1.257,.767-2.647,1.347-3.864,2.222-1.272,.781-2.536,1.579-3.715,2.466-1.228,.824-2.34,1.756-3.457,2.624-1.102,.882-2.119,1.804-3.108,2.663-.936,.905-1.892,1.715-2.685,2.549-1.646,1.623-2.952,3.072-3.877,4.102-.917,1.033-1.43,1.662-1.43,1.662Z"/></g><g class="bk"><path class="aw" d="M135.722,54.703s-.065,.399-.358,1.116c-.122,.372-.307,.82-.584,1.302-.265,.492-.547,1.088-.94,1.694-.852,1.15-1.779,2.702-3.198,4.127-.681,.746-1.407,1.543-2.172,2.381-.841,.754-1.724,1.546-2.649,2.373-1.804,1.73-3.976,3.286-6.272,4.953-2.25,1.752-4.811,3.261-7.449,4.862-.66,.4-1.327,.804-1.995,1.211-.633,.391-1.274,.784-1.915,1.182-1.322,.842-2.664,1.686-4.033,2.508-1.259,.881-2.405,1.821-3.625,2.725-.62,.425-1.173,.973-1.737,1.503l-1.69,1.585c-2.231,2.137-4.243,4.494-5.977,6.997-.475,.597-.87,1.245-1.241,1.902-.397,.644-.793,1.281-1.186,1.92-.797,1.267-1.36,2.646-2.042,3.937-.639,1.316-1.079,2.691-1.657,3.982-.494,1.325-.889,2.656-1.327,3.937-.343,1.315-.675,2.592-.997,3.828-.261,1.258-.515,2.474-.757,3.642-.376,2.357-.698,4.537-.883,6.488-.164,1.949-.33,3.665-.372,5.08-.063,1.416-.124,2.536-.126,3.298-.021,.766-.029,1.174-.029,1.174,0,0-.078-.402-.223-1.152-.149-.751-.376-1.857-.549-3.278-.215-1.421-.381-3.158-.488-5.162-.027-1.002-.097-2.071-.099-3.201,.019-1.128,.05-2.318,.109-3.561,.107-1.24,.223-2.534,.341-3.873,.208-1.331,.427-2.708,.692-4.121,.343-1.394,.648-2.845,1.058-4.304,.473-1.441,.929-2.93,1.526-4.393,1.215-2.919,2.632-5.905,4.52-8.671,1.859-2.781,4.031-5.423,6.448-7.808l1.89-1.711c.629-.571,1.238-1.152,1.96-1.64,1.388-1.003,2.769-2.067,4.146-2.984,1.373-.817,2.752-1.599,4.119-2.364,1.392-.757,2.765-1.503,4.115-2.239,2.62-1.462,5.277-2.691,7.565-4.197,2.33-1.451,4.626-2.71,6.531-4.15,.984-.686,1.928-1.342,2.828-1.968,.843-.689,1.644-1.341,2.395-1.953,1.564-1.192,2.676-2.452,3.711-3.424,.875-1.067,1.676-1.887,2.029-2.539,.431-.627,.587-1.013,.587-1.013Z"/></g></g><g><g><path class="at" d="M62.266,121.231c2.202,2.496,3.706,5.101,4.516,7.818,.804,2.718,.661,5.286-.441,7.708-1.1,2.423-6.873,7.629-10.539,8.217-7.049,1.174-10.933-1.978-18.421-2.051-7.488-.077-14.535-.184-21.143-.331-4.553,0-7.673-1.396-9.359-4.182-1.692-2.788-2.204-5.838-1.541-9.141,.657-3.304,2.455-6.312,5.394-9.029,2.935-2.716,6.68-4.075,11.233-4.075V35.998c-1.91,.442-3.822,.33-5.728-.33-1.91-.661-3.6-1.651-5.067-2.975-1.469-1.319-2.606-2.896-3.414-4.733-.808-1.834-1.065-3.706-.768-5.617,.439-3.227,2.092-6.53,4.955-9.911,2.863-3.374,6.2-6.167,10.022-8.369C25.777,1.862,29.707,.54,33.744,.099c4.037-.441,7.524,.588,10.463,3.084,1.174,.88,2.237,2.129,3.194,3.743,.953,1.618,1.431,3.084,1.431,4.406,.143,17.618,.18,35.128,.11,52.526-.075,17.398-.11,34.835-.11,52.306h5.725c2.935,.88,5.504,2.571,7.708,5.067Z"/><path class="as" d="M57.209,125.301c2.202,2.498,3.706,5.102,4.518,7.819,.804,2.718,.657,5.286-.443,7.709-1.1,2.422-3.488,3.925-7.157,4.515-7.047,1.173-14.316,1.723-21.804,1.65-7.488-.076-14.535-.184-21.141-.33-4.555,0-7.675-1.396-9.361-4.182-1.69-2.787-2.204-5.838-1.541-9.141,.661-3.303,2.457-6.311,5.394-9.031,2.935-2.715,6.68-4.074,11.233-4.074V40.07c-1.912,.441-3.82,.329-5.725-.33-1.912-.66-3.602-1.652-5.067-2.974-1.471-1.322-2.608-2.897-3.414-4.735-.81-1.833-1.069-3.706-.771-5.616,.441-3.227,2.09-6.531,4.955-9.911,2.863-3.375,6.202-6.168,10.022-8.369,3.816-2.203,7.741-3.525,11.78-3.966,4.037-.439,7.524,.588,10.463,3.084,1.172,.881,2.237,2.13,3.192,3.743,.955,1.62,1.431,3.084,1.431,4.406,.147,17.619,.184,35.128,.112,52.528-.077,17.398-.112,34.833-.112,52.304h5.73c2.933,.88,5.506,2.573,7.706,5.067Z"/></g><g class="bi"><path class="ay" d="M5.057,27.96s.085-.57,.365-1.51c.274-.945,.748-2.256,1.458-3.762,1.415-3.006,3.923-6.728,7.296-9.763,.858-.736,1.73-1.469,2.672-2.096,.92-.65,1.891-1.214,2.873-1.69,1.953-.963,3.973-1.536,5.736-1.69,.884-.073,1.692-.067,2.403,.023,.706,.031,1.313,.226,1.794,.336,.485,.12,.847,.315,1.096,.402,.24,.108,.369,.166,.369,.166,0,0-.535,.147-1.467,.404-.449,.156-.984,.309-1.566,.549-.588,.211-1.218,.531-1.885,.853-2.674,1.335-5.773,3.691-8.768,6.384-2.993,2.683-5.926,5.608-8.275,7.783-1.177,1.083-2.189,1.992-2.921,2.623-.727,.634-1.179,.988-1.179,.988Z"/></g><g class="bm"><path class="b`" d="M20.437,43.794s.211,1.197,.483,3.289c.273,2.093,.628,5.083,.913,8.671,.153,1.794,.317,3.737,.421,5.792,.12,2.056,.271,4.224,.329,6.467,.062,2.241,.201,4.559,.211,6.912,.029,2.355,.056,4.747,.085,7.138-.025,2.393-.048,4.785-.073,7.139-.023,2.354-.151,4.672-.22,6.913-.168,4.485-.431,8.671-.748,12.259-.286,3.588-.642,6.578-.916,8.671-.273,2.092-.487,3.288-.487,3.288,0,0-.213-1.196-.485-3.288-.276-2.093-.632-5.083-.918-8.671-.315-3.588-.578-7.774-.748-12.259-.068-2.241-.197-4.559-.22-6.913-.023-2.354-.048-4.747-.07-7.139,.029-2.391,.056-4.783,.083-7.138,.01-2.353,.149-4.671,.211-6.912,.06-2.243,.211-4.411,.329-6.467,.104-2.055,.267-3.998,.42-5.792,.286-3.588,.64-6.578,.914-8.671,.271-2.092,.483-3.289,.483-3.289Z"/></g></g></g></g></g></g></svg>