<?xml version="1.0" encoding="UTF-8"?><svg xmlns="http://www.w3.org/2000/svg" xmlns:xlink="http://www.w3.org/1999/xlink" viewBox="0 0 163.747 147"><defs><style>.av{filter:url(#k);}.aw{fill:url(#u);}.aw,.ax,.ay,.b`,.ba{mix-blend-mode:screen;}.bb{mask:url(#af);}.bc{filter:url(#ah);}.bd{mask:url(#f);}.be{mask:url(#n);}.ax{fill:url(#au);}.bf{isolation:isolate;}.bg{fill:url(#l);}.bg,.bh,.bi,.bj,.bk{mix-blend-mode:multiply;}.bl{mask:url(#ai);}.bm{filter:url(#s);}.bn{filter:url(#p);}.bh{fill:url(#t);}.bo{filter:url(#x);}.bp{filter:url(#ak);}.bq{fill:url(#ae);}.br{mask:url(#y);}.bs{fill:url(#ad);}.bt{filter:url(#h);}.bu{filter:url(#as);}.bv{filter:url(#aa);}.bi{fill:url(#ab);}.ay{fill:url(#m);}.b`{fill:url(#ac);}.bw{mask:url(#i);}.bj{fill:url(#al);}.bx{fill:url(#d);}.by{fill:url(#e);}.c`{mask:url(#q);}.ca{mask:url(#aq);}.ba{fill:url(#am);}.cb{filter:url(#ap);}.bk{fill:url(#at);}.cc{mask:url(#v);}.cd{mask:url(#an);}</style><linearGradient id="d" x1="5863.663" y1="-634.015" x2="6092.139" y2="-607.919" gradientTransform="translate(-5900.81 594.455) rotate(.915)" gradientUnits="userSpaceOnUse"><stop offset="0" stop-color="#8477b5"/><stop offset="1" stop-color="#150025"/></linearGradient><linearGradient id="e" x1="6007.687" y1="-868.014" x2="6007.687" y2="-416.253" gradientTransform="translate(-5900.81 594.455) rotate(.915)" gradientUnits="userSpaceOnUse"><stop offset="0" stop-color="#8477b5"/><stop offset=".5" stop-color="#6a5ba4"/><stop offset="1" stop-color="#49358b"/></linearGradient><filter id="h" x="79" y="6.863" width="57.957" height="11.716" color-interpolation-filters="sRGB" filterUnits="userSpaceOnUse"><feFlood flood-color="#fff" result="bg"/><feBlend in="SourceGraphic" in2="bg"/></filter><filter id="k" x="79" y="-12733.134" width="57.957" height="32766" color-interpolation-filters="sRGB" filterUnits="userSpaceOnUse"><feFlood flood-color="#fff" result="bg"/><feBlend in="SourceGraphic" in2="bg"/></filter><mask id="i" x="79" y="-12733.134" width="57.957" height="32766" maskUnits="userSpaceOnUse"><g class="av"/></mask><linearGradient id="l" x1="5969.879" y1="-677.374" x2="6027.786" y2="-677.374" gradientTransform="translate(-5900.81 594.455) rotate(.915)" gradientUnits="userSpaceOnUse"><stop offset=".001" stop-color="#fff"/><stop offset="1" stop-color="#000"/></linearGradient><mask id="f" x="79" y="6.863" width="57.957" height="11.716" maskUnits="userSpaceOnUse"><g class="bt"><g class="bw"><path class="bg" d="M79,18.579s.676-.709,2.018-1.743c.662-.534,1.502-1.127,2.492-1.796,1.004-.614,2.111-1.383,3.417-2.029,.647-.344,1.325-.694,2.022-1.068,.713-.337,1.475-.639,2.24-.985,1.529-.706,3.223-1.248,4.966-1.843,.877-.286,1.794-.488,2.711-.732,.919-.221,1.846-.505,2.815-.625,1.914-.313,3.867-.672,5.852-.738l2.957-.156c.994,.047,1.973,.091,2.952,.134,1.955,.015,3.852,.37,5.683,.703,1.841,.236,3.549,.845,5.161,1.342,.812,.264,1.605,.477,2.344,.758,.725,.34,1.418,.673,2.087,.983,1.333,.642,2.555,1.173,3.564,1.815,1.002,.647,1.851,1.251,2.549,1.735,1.386,.976,2.127,1.573,2.127,1.573,0,0-.956-.233-2.557-.722-.8-.249-1.766-.531-2.843-.899-1.093-.346-2.396-.537-3.733-.897-.675-.167-1.379-.335-2.099-.508-.741-.115-1.503-.238-2.286-.361-1.568-.237-3.189-.546-4.91-.614-.848-.064-1.713-.14-2.591-.212-.873-.102-1.772-.011-2.66-.044-.896-.01-1.798-.024-2.702-.035l-2.716,.188c-1.833,.02-3.63,.348-5.424,.533-1.783,.235-3.527,.594-5.229,.88-1.669,.423-3.336,.665-4.866,1.119-1.551,.396-3.007,.793-4.353,1.2-1.356,.383-2.566,.823-3.677,1.144-1.075,.408-2.06,.681-2.83,.988-1.578,.549-2.481,.912-2.481,.912Z"/></g></g></mask><linearGradient id="m" x1="5969.879" y1="-677.374" x2="6027.786" y2="-677.374" gradientTransform="translate(-5900.81 594.455) rotate(.915)" gradientUnits="userSpaceOnUse"><stop offset=".001" stop-color="#fff"/><stop offset="1" stop-color="#fff"/></linearGradient><filter id="p" x="94.143" y="56.576" width="16.194" height="12.53" color-interpolation-filters="sRGB" filterUnits="userSpaceOnUse"><feFlood flood-color="#fff" result="bg"/><feBlend in="SourceGraphic" in2="bg"/></filter><filter id="s" x="94.143" y="-12733.134" width="16.194" height="32766" color-interpolation-filters="sRGB" filterUnits="userSpaceOnUse"><feFlood flood-color="#fff" result="bg"/><feBlend in="SourceGraphic" in2="bg"/></filter><mask id="q" x="94.143" y="-12733.134" width="16.194" height="32766" maskUnits="userSpaceOnUse"><g class="bm"/></mask><linearGradient id="t" x1="5985.775" y1="-627.358" x2="6001.831" y2="-627.358" xlink:href="#l"/><mask id="n" x="94.143" y="56.576" width="16.194" height="12.53" maskUnits="userSpaceOnUse"><g class="bn"><g class="c`"><path class="bh" d="M95.112,69.106s-.273-.285-.546-.922c-.269-.615-.49-1.587-.402-2.801,.032-.304,.08-.619,.136-.949,.084-.311,.192-.633,.299-.971,.248-.644,.583-1.324,1.028-1.942,.44-.614,.942-1.221,1.536-1.71,.555-.566,1.219-.955,1.864-1.37,.651-.428,1.342-.683,2.024-.972,.678-.31,1.371-.427,2.031-.592,1.333-.34,2.608-.3,3.672-.298,.54,.011,1.038,.119,1.475,.186,.43,.064,.813,.165,1.131,.243,.616,.155,.977,.307,.977,.307,0,0-.299,.266-.822,.627-.52,.391-1.266,.828-2.132,1.342-.434,.266-.897,.531-1.383,.788-.495,.24-.992,.531-1.492,.816-.501,.286-1.051,.512-1.535,.818-.486,.315-1.061,.52-1.503,.85-.482,.288-.986,.559-1.403,.878-.212,.158-.459,.286-.669,.442-.194,.16-.392,.315-.602,.464-.397,.303-.761,.62-1.1,.951-.34,.323-.651,.657-.926,.995-1.136,1.339-1.66,2.822-1.66,2.822Z"/></g></g></mask><linearGradient id="u" x1="5985.775" y1="-627.358" x2="6001.831" y2="-627.358" xlink:href="#m"/><filter id="x" x="74.713" y="110.484" width="9.214" height="16.369" color-interpolation-filters="sRGB" filterUnits="userSpaceOnUse"><feFlood flood-color="#fff" result="bg"/><feBlend in="SourceGraphic" in2="bg"/></filter><filter id="aa" x="74.713" y="-12733.134" width="9.214" height="32766" color-interpolation-filters="sRGB" filterUnits="userSpaceOnUse"><feFlood flood-color="#fff" result="bg"/><feBlend in="SourceGraphic" in2="bg"/></filter><mask id="y" x="74.713" y="-12733.134" width="9.214" height="32766" maskUnits="userSpaceOnUse"><g class="bv"/></mask><linearGradient id="ab" x1="5967.19" y1="-571.235" x2="5976.274" y2="-571.235" xlink:href="#l"/><mask id="v" x="74.713" y="110.484" width="9.214" height="16.369" maskUnits="userSpaceOnUse"><g class="bo"><g class="br"><path class="bi" d="M83.927,110.535s-.765,1.081-1.912,2.708c-.235,.389-.537,.756-.771,1.184-.275,.395-.495,.83-.73,1.251-.218,.416-.416,.842-.579,1.255-.143,.423-.309,.823-.364,1.243-.171,.404-.085,.843-.199,1.26,.01,.442,.018,.886,.004,1.347,.09,.47,.138,.939,.167,1.415,.11,.47,.218,.926,.293,1.382,.06,.452,.147,.883,.256,1.256,.115,.376,.17,.734,.231,1.038,.111,.592,.149,.979,.149,.979,0,0-.345-.106-.902-.39-.273-.155-.62-.332-.98-.566-.178-.123-.38-.25-.586-.384-.188-.156-.36-.34-.562-.525-.375-.385-.794-.81-1.185-1.305-.335-.548-.674-1.158-.985-1.806-.231-.702-.453-1.461-.544-2.257-.011-.818-.067-1.674,.17-2.489,.115-.401,.197-.825,.355-1.202,.161-.379,.358-.739,.547-1.099,.163-.372,.431-.656,.663-.961,.238-.301,.453-.617,.735-.837,.52-.506,1.06-.928,1.61-1.245,.523-.361,1.084-.563,1.574-.774,1.027-.354,1.905-.502,2.545-.521,.631-.036,1.002,.042,1.002,.042Z"/></g></g></mask><linearGradient id="ac" x1="5967.19" y1="-571.235" x2="5976.274" y2="-571.235" xlink:href="#m"/><linearGradient id="ad" x1="5.056" y1="72.618" x2="67.292" y2="72.618" gradientTransform="matrix(1, 0, 0, 1, 0, 0)" xlink:href="#d"/><linearGradient id="ae" x1="31.118" y1="-181.994" x2="31.118" y2="278.493" gradientTransform="matrix(1, 0, 0, 1, 0, 0)" xlink:href="#e"/><filter id="ah" x="5.057" y="7.399" width="26.061" height="20.561" color-interpolation-filters="sRGB" filterUnits="userSpaceOnUse"><feFlood flood-color="#fff" result="bg"/><feBlend in="SourceGraphic" in2="bg"/></filter><filter id="ak" x="5.057" y="-12733.134" width="26.061" height="32766" color-interpolation-filters="sRGB" filterUnits="userSpaceOnUse"><feFlood flood-color="#fff" result="bg"/><feBlend in="SourceGraphic" in2="bg"/></filter><mask id="ai" x="5.057" y="-12733.134" width="26.061" height="32766" maskUnits="userSpaceOnUse"><g class="bp"/></mask><linearGradient id="al" x1="5.057" y1="17.679" x2="31.118" y2="17.679" gradientTransform="matrix(1, 0, 0, 1, 0, 0)" xlink:href="#l"/><mask id="af" x="5.057" y="7.399" width="26.061" height="20.561" maskUnits="userSpaceOnUse"><g class="bc"><g class="bl"><path class="bj" d="M5.057,27.96s.085-.57,.365-1.51c.274-.945,.748-2.256,1.458-3.762,1.415-3.006,3.923-6.728,7.296-9.763,.858-.736,1.73-1.469,2.672-2.096,.92-.65,1.891-1.214,2.873-1.69,1.953-.963,3.973-1.536,5.736-1.69,.884-.073,1.692-.067,2.403,.023,.706,.031,1.313,.226,1.794,.336,.485,.12,.847,.315,1.096,.402,.24,.108,.369,.166,.369,.166,0,0-.535,.147-1.467,.404-.449,.156-.984,.309-1.566,.549-.588,.211-1.218,.531-1.885,.853-2.674,1.335-5.773,3.691-8.768,6.384-2.993,2.683-5.926,5.608-8.275,7.783-1.177,1.083-2.189,1.992-2.921,2.623-.727,.634-1.179,.988-1.179,.988Z"/></g></g></mask><linearGradient id="am" x1="5.057" y1="17.679" x2="31.118" y2="17.679" gradientTransform="matrix(1, 0, 0, 1, 0, 0)" xlink:href="#m"/><filter id="ap" x="17.997" y="43.794" width="4.882" height="76.541" color-interpolation-filters="sRGB" filterUnits="userSpaceOnUse"><feFlood flood-color="#fff" result="bg"/><feBlend in="SourceGraphic" in2="bg"/></filter><filter id="as" x="17.997" y="-12733.134" width="4.882" height="32766" color-interpolation-filters="sRGB" filterUnits="userSpaceOnUse"><feFlood flood-color="#fff" result="bg"/><feBlend in="SourceGraphic" in2="bg"/></filter><mask id="aq" x="17.997" y="-12733.134" width="4.882" height="32766" maskUnits="userSpaceOnUse"><g class="bu"/></mask><linearGradient id="at" x1="17.997" y1="82.065" x2="22.88" y2="82.065" gradientTransform="matrix(1, 0, 0, 1, 0, 0)" xlink:href="#l"/><mask id="an" x="17.997" y="43.794" width="4.882" height="76.541" maskUnits="userSpaceOnUse"><g class="cb"><g class="ca"><path class="bk" d="M20.437,43.794s.211,1.197,.483,3.289c.273,2.093,.628,5.083,.913,8.671,.153,1.794,.317,3.737,.421,5.792,.12,2.056,.271,4.224,.329,6.467,.062,2.241,.201,4.559,.211,6.912,.029,2.355,.056,4.747,.085,7.138-.025,2.393-.048,4.785-.073,7.139-.023,2.354-.151,4.672-.22,6.913-.168,4.485-.431,8.671-.748,12.259-.286,3.588-.642,6.578-.916,8.671-.273,2.092-.487,3.288-.487,3.288,0,0-.213-1.196-.485-3.288-.276-2.093-.632-5.083-.918-8.671-.315-3.588-.578-7.774-.748-12.259-.068-2.241-.197-4.559-.22-6.913-.023-2.354-.048-4.747-.07-7.139,.029-2.391,.056-4.783,.083-7.138,.01-2.353,.149-4.671,.211-6.912,.06-2.243,.211-4.411,.329-6.467,.104-2.055,.267-3.998,.42-5.792,.286-3.588,.64-6.578,.914-8.671,.271-2.092,.483-3.289,.483-3.289Z"/></g></g></mask><linearGradient id="au" x1="17.997" y1="82.065" x2="22.88" y2="82.065" gradientTransform="matrix(1, 0, 0, 1, 0, 0)" xlink:href="#m"/></defs><g class="bf"><g id="a"/><g id="b"><g id="c"><g><g><g><path class="bx" d="M79.86,124.526c-1.548-2.478-2.446-5.046-2.687-7.72-.248-2.661,.147-5.114,1.195-7.333,1.041-2.206,2.692-3.948,4.945-5.213,2.25-1.263,4.96-1.716,8.126-1.381,3.45,.342,6.388,1.582,8.799,3.711,2.414,2.126,4.868,4.106,7.367,5.945,2.483,1.843,5.168,3.111,8.036,3.802,2.872,.696,6.416-.222,10.634-2.748,1.017-.707,1.896-1.444,2.625-2.227,.735-.78,1.469-1.592,2.205-2.455,.883-1.133,1.544-2.092,1.992-2.877,.44-.786,.889-1.826,1.345-3.115,.897-2.437,1.512-4.734,1.835-6.885,.32-2.156,.357-4.459,.114-6.912-2.097-4.068-4.759-6.777-7.978-8.125-3.218-1.341-6.59-2.227-10.115-2.649-3.519-.41-7.008-.869-10.456-1.35-3.45-.489-6.384-1.832-8.797-4.032-2.127-1.901-3.423-4.085-3.891-6.541-.47-2.454-4.164-3.234-3.33-5.45,.823-2.224,6.098-5.741,8.071-7.441,1.973-1.701,4.33-2.744,7.077-3.128,2.164-.402,4.504-.762,7.038-1.077,2.525-.317,4.945-.862,7.261-1.612,2.313-.755,4.493-1.768,6.528-3.034,2.039-1.261,3.724-2.965,5.059-5.098,.163-1.584,.226-3.138,.178-4.647-.052-1.513-.424-2.997-1.119-4.448-1.42-1.318-3.458-2.249-6.112-2.797-2.659-.544-5.467-.807-8.415-.781-2.951,.028-5.728,.305-8.334,.832-2.598,.537-4.701,1.153-6.293,1.851-3.512,3.396-7.07,4.964-10.666,4.687-3.596-.268-6.602-1.579-9.01-3.923-2.417-2.345-3.883-5.246-4.402-8.709-.521-3.47,.535-6.546,3.173-9.241,2.05-2.276,4.35-4.077,6.892-5.405,2.54-1.326,5.332-2.4,8.374-3.211,7.372-1.904,15.063-2.822,23.056-2.773,7.992,.057,15.417,1.94,22.277,5.649,5.563,2.973,9.722,6.858,12.451,11.649,2.733,4.797,4.238,9.868,4.514,15.198,.271,5.334-.64,10.612-2.737,15.836-2.102,5.229-5.267,9.826-9.511,13.787,5.13,3.689,8.984,7.895,11.577,12.612,2.59,4.729,4.17,9.578,4.735,14.551,.575,4.981,.203,10.017-1.103,15.113-1.308,5.089-3.433,9.854-6.383,14.267-2.954,4.423-16.484,15.951-20.789,19.558-4.305,3.6-9.134,4.355-14.491,6.43-4.641,1.793,.695-2.843-3.766-3.055-4.465-.218-8.808-1.079-13.032-2.582-4.231-1.513-8.299-3.563-12.222-6.144-3.919-2.576-7.582-5.409-10.986-8.494l-.853-.87Z"/><path class="by" d="M74.835,128.436c-1.543-2.473-2.439-5.043-2.688-7.711-.246-2.67,.154-5.11,1.199-7.328,1.043-2.215,2.689-3.962,4.945-5.213,2.255-1.267,4.963-1.727,8.124-1.388,3.451,.349,6.379,1.582,8.798,3.704,2.416,2.124,4.872,4.112,7.362,5.949,2.495,1.85,5.171,3.109,8.045,3.803,2.87,.698,6.413-.22,10.632-2.746,1.017-.707,1.896-1.444,2.627-2.229,.732-.778,1.468-1.599,2.197-2.449,.886-1.135,1.551-2.098,1.994-2.886,.446-.783,.894-1.82,1.347-3.116,.906-2.427,1.511-4.725,1.841-6.873,.318-2.164,.353-4.464,.106-6.922-2.093-4.063-4.749-6.776-7.971-8.122-3.222-1.346-6.593-2.225-10.113-2.641-3.53-.418-7.014-.872-10.461-1.355-3.45-.489-6.381-1.834-8.795-4.034-2.133-1.905-3.432-4.086-3.897-6.544-.461-2.453-.281-4.794,.546-7.012,.827-2.218,2.227-4.182,4.2-5.882,1.97-1.689,4.326-2.733,7.072-3.124,2.166-.404,4.515-.754,7.036-1.075,2.528-.319,4.953-.852,7.266-1.616,2.323-.747,4.494-1.761,6.535-3.031,2.028-1.261,3.721-2.963,5.049-5.107,.167-1.578,.234-3.128,.184-4.643-.048-1.508-.423-2.99-1.118-4.442-1.42-1.317-3.461-2.247-6.117-2.802-2.656-.546-5.465-.801-8.414-.774-2.952,.022-5.728,.305-8.334,.833-2.601,.539-4.703,1.155-6.294,1.844-3.513,3.406-7.064,4.967-10.662,4.692-3.6-.273-6.601-1.572-9.015-3.919-2.413-2.34-3.878-5.25-4.399-8.72-.523-3.468,.539-6.541,3.172-9.232,2.053-2.278,4.35-4.077,6.898-5.409,2.535-1.323,5.329-2.398,8.367-3.214,7.377-1.899,15.061-2.819,23.057-2.766,7.994,.055,15.42,1.938,22.277,5.649,5.568,2.969,9.721,6.851,12.454,11.647,2.735,4.804,4.236,9.87,4.511,15.2,.275,5.339-.636,10.617-2.74,15.839-2.099,5.227-5.269,9.819-9.507,13.792,5.127,3.675,8.99,7.881,11.572,12.6,2.59,4.729,4.173,9.575,4.742,14.554,.57,4.985,.201,10.019-1.1,15.111-1.306,5.097-3.442,9.853-6.389,14.271-2.953,4.414-6.584,8.427-10.892,12.029-4.304,3.608-9.144,6.448-14.503,8.525-4.637,1.799-9.192,2.584-13.649,2.377-4.463-.211-8.808-1.079-13.036-2.586-4.228-1.508-8.298-3.556-12.221-6.137-3.92-2.583-7.583-5.417-10.986-8.494l-.854-.877Z"/></g><g class="bd"><path class="ay" d="M79,18.579s.676-.709,2.018-1.743c.662-.534,1.502-1.127,2.492-1.796,1.004-.614,2.111-1.383,3.417-2.029,.647-.344,1.325-.694,2.022-1.068,.713-.337,1.475-.639,2.24-.985,1.529-.706,3.223-1.248,4.966-1.843,.877-.286,1.794-.488,2.711-.732,.919-.221,1.846-.505,2.815-.625,1.914-.313,3.867-.672,5.852-.738l2.957-.156c.994,.047,1.973,.091,2.952,.134,1.955,.015,3.852,.37,5.683,.703,1.841,.236,3.549,.845,5.161,1.342,.812,.264,1.605,.477,2.344,.758,.725,.34,1.418,.673,2.087,.983,1.333,.642,2.555,1.173,3.564,1.815,1.002,.647,1.851,1.251,2.549,1.735,1.386,.976,2.127,1.573,2.127,1.573,0,0-.956-.233-2.557-.722-.8-.249-1.766-.531-2.843-.899-1.093-.346-2.396-.537-3.733-.897-.675-.167-1.379-.335-2.099-.508-.741-.115-1.503-.238-2.286-.361-1.568-.237-3.189-.546-4.91-.614-.848-.064-1.713-.14-2.591-.212-.873-.102-1.772-.011-2.66-.044-.896-.01-1.798-.024-2.702-.035l-2.716,.188c-1.833,.02-3.63,.348-5.424,.533-1.783,.235-3.527,.594-5.229,.88-1.669,.423-3.336,.665-4.866,1.119-1.551,.396-3.007,.793-4.353,1.2-1.356,.383-2.566,.823-3.677,1.144-1.075,.408-2.06,.681-2.83,.988-1.578,.549-2.481,.912-2.481,.912Z"/></g><g class="be"><path class="aw" d="M95.112,69.106s-.273-.285-.546-.922c-.269-.615-.49-1.587-.402-2.801,.032-.304,.08-.619,.136-.949,.084-.311,.192-.633,.299-.971,.248-.644,.583-1.324,1.028-1.942,.44-.614,.942-1.221,1.536-1.71,.555-.566,1.219-.955,1.864-1.37,.651-.428,1.342-.683,2.024-.972,.678-.31,1.371-.427,2.031-.592,1.333-.34,2.608-.3,3.672-.298,.54,.011,1.038,.119,1.475,.186,.43,.064,.813,.165,1.131,.243,.616,.155,.977,.307,.977,.307,0,0-.299,.266-.822,.627-.52,.391-1.266,.828-2.132,1.342-.434,.266-.897,.531-1.383,.788-.495,.24-.992,.531-1.492,.816-.501,.286-1.051,.512-1.535,.818-.486,.315-1.061,.52-1.503,.85-.482,.288-.986,.559-1.403,.878-.212,.158-.459,.286-.669,.442-.194,.16-.392,.315-.602,.464-.397,.303-.761,.62-1.1,.951-.34,.323-.651,.657-.926,.995-1.136,1.339-1.66,2.822-1.66,2.822Z"/></g><g class="cc"><path class="b`" d="M83.927,110.535s-.765,1.081-1.912,2.708c-.235,.389-.537,.756-.771,1.184-.275,.395-.495,.83-.73,1.251-.218,.416-.416,.842-.579,1.255-.143,.423-.309,.823-.364,1.243-.171,.404-.085,.843-.199,1.26,.01,.442,.018,.886,.004,1.347,.09,.47,.138,.939,.167,1.415,.11,.47,.218,.926,.293,1.382,.06,.452,.147,.883,.256,1.256,.115,.376,.17,.734,.231,1.038,.111,.592,.149,.979,.149,.979,0,0-.345-.106-.902-.39-.273-.155-.62-.332-.98-.566-.178-.123-.38-.25-.586-.384-.188-.156-.36-.34-.562-.525-.375-.385-.794-.81-1.185-1.305-.335-.548-.674-1.158-.985-1.806-.231-.702-.453-1.461-.544-2.257-.011-.818-.067-1.674,.17-2.489,.115-.401,.197-.825,.355-1.202,.161-.379,.358-.739,.547-1.099,.163-.372,.431-.656,.663-.961,.238-.301,.453-.617,.735-.837,.52-.506,1.06-.928,1.61-1.245,.523-.361,1.084-.563,1.574-.774,1.027-.354,1.905-.502,2.545-.521,.631-.036,1.002,.042,1.002,.042Z"/></g></g><g><g><path class="bs" d="M62.266,121.231c2.202,2.496,3.706,5.101,4.516,7.818,.804,2.718,.661,5.286-.441,7.708-1.1,2.423-6.873,7.629-10.539,8.217-7.049,1.174-10.933-1.978-18.421-2.051-7.488-.077-14.535-.184-21.143-.331-4.553,0-7.673-1.396-9.359-4.182-1.692-2.788-2.204-5.838-1.541-9.141,.657-3.304,2.455-6.312,5.394-9.029,2.935-2.716,6.68-4.075,11.233-4.075V35.998c-1.91,.442-3.822,.33-5.728-.33-1.91-.661-3.6-1.651-5.067-2.975-1.469-1.319-2.606-2.896-3.414-4.733-.808-1.834-1.065-3.706-.768-5.617,.439-3.227,2.092-6.53,4.955-9.911,2.863-3.374,6.2-6.167,10.022-8.369C25.777,1.862,29.707,.54,33.744,.099c4.037-.441,7.524,.588,10.463,3.084,1.174,.88,2.237,2.129,3.194,3.743,.953,1.618,1.431,3.084,1.431,4.406,.143,17.618,.18,35.128,.11,52.526-.075,17.398-.11,34.835-.11,52.306h5.725c2.935,.88,5.504,2.571,7.708,5.067Z"/><path class="bq" d="M57.209,125.301c2.202,2.498,3.706,5.102,4.518,7.819,.804,2.718,.657,5.286-.443,7.709-1.1,2.422-3.488,3.925-7.157,4.515-7.047,1.173-14.316,1.723-21.804,1.65-7.488-.076-14.535-.184-21.141-.33-4.555,0-7.675-1.396-9.361-4.182-1.69-2.787-2.204-5.838-1.541-9.141,.661-3.303,2.457-6.311,5.394-9.031,2.935-2.715,6.68-4.074,11.233-4.074V40.07c-1.912,.441-3.82,.329-5.725-.33-1.912-.66-3.602-1.652-5.067-2.974-1.471-1.322-2.608-2.897-3.414-4.735-.81-1.833-1.069-3.706-.771-5.616,.441-3.227,2.09-6.531,4.955-9.911,2.863-3.375,6.202-6.168,10.022-8.369,3.816-2.203,7.741-3.525,11.78-3.966,4.037-.439,7.524,.588,10.463,3.084,1.172,.881,2.237,2.13,3.192,3.743,.955,1.62,1.431,3.084,1.431,4.406,.147,17.619,.184,35.128,.112,52.528-.077,17.398-.112,34.833-.112,52.304h5.73c2.933,.88,5.506,2.573,7.706,5.067Z"/></g><g class="bb"><path class="ba" d="M5.057,27.96s.085-.57,.365-1.51c.274-.945,.748-2.256,1.458-3.762,1.415-3.006,3.923-6.728,7.296-9.763,.858-.736,1.73-1.469,2.672-2.096,.92-.65,1.891-1.214,2.873-1.69,1.953-.963,3.973-1.536,5.736-1.69,.884-.073,1.692-.067,2.403,.023,.706,.031,1.313,.226,1.794,.336,.485,.12,.847,.315,1.096,.402,.24,.108,.369,.166,.369,.166,0,0-.535,.147-1.467,.404-.449,.156-.984,.309-1.566,.549-.588,.211-1.218,.531-1.885,.853-2.674,1.335-5.773,3.691-8.768,6.384-2.993,2.683-5.926,5.608-8.275,7.783-1.177,1.083-2.189,1.992-2.921,2.623-.727,.634-1.179,.988-1.179,.988Z"/></g><g class="cd"><path class="ax" d="M20.437,43.794s.211,1.197,.483,3.289c.273,2.093,.628,5.083,.913,8.671,.153,1.794,.317,3.737,.421,5.792,.12,2.056,.271,4.224,.329,6.467,.062,2.241,.201,4.559,.211,6.912,.029,2.355,.056,4.747,.085,7.138-.025,2.393-.048,4.785-.073,7.139-.023,2.354-.151,4.672-.22,6.913-.168,4.485-.431,8.671-.748,12.259-.286,3.588-.642,6.578-.916,8.671-.273,2.092-.487,3.288-.487,3.288,0,0-.213-1.196-.485-3.288-.276-2.093-.632-5.083-.918-8.671-.315-3.588-.578-7.774-.748-12.259-.068-2.241-.197-4.559-.22-6.913-.023-2.354-.048-4.747-.07-7.139,.029-2.391,.056-4.783,.083-7.138,.01-2.353,.149-4.671,.211-6.912,.06-2.243,.211-4.411,.329-6.467,.104-2.055,.267-3.998,.42-5.792,.286-3.588,.64-6.578,.914-8.671,.271-2.092,.483-3.289,.483-3.289Z"/></g></g></g></g></g></g></svg>