<?xml version="1.0" encoding="UTF-8"?><svg xmlns="http://www.w3.org/2000/svg" xmlns:xlink="http://www.w3.org/1999/xlink" viewBox="0 0 175.224 147"><defs><style>.al{mask:url(#ag);}.am{mask:url(#h);}.an{fill:#720936;}.ao{mask:url(#e);}.ap{fill:url(#k);}.ap,.aq,.ar,.as{mix-blend-mode:multiply;}.at{fill:url(#u);}.au{filter:url(#af);}.av{isolation:isolate;}.aw{fill:url(#t);}.aw,.ax,.ay,.b`{mix-blend-mode:screen;}.ba{filter:url(#j);}.bb{filter:url(#x);}.ax{fill:url(#l);}.bc{filter:url(#ai);}.bd{mask:url(#y);}.be{filter:url(#aa);}.aq{fill:url(#ab);}.ay{fill:url(#ac);}.bf{fill:url(#d);}.bg{filter:url(#r);}.ar{fill:url(#aj);}.bh{mask:url(#p);}.as{fill:url(#s);}.bi{mask:url(#v);}.bj{filter:url(#o);}.bk{mask:url(#m);}.b`{fill:url(#ak);}.bl{filter:url(#g);}.bm{mask:url(#ad);}</style><linearGradient id="d" x1="119.874" y1="-172.537" x2="119.874" y2="267.453" gradientTransform="matrix(1, 0, 0, 1, 0, 0)" gradientUnits="userSpaceOnUse"><stop offset="0" stop-color="#ea4b94"/><stop offset=".194" stop-color="#e23a8f"/><stop offset=".727" stop-color="#cf1083"/><stop offset="1" stop-color="#c8007f"/></linearGradient><filter id="g" x="76.614" y="17.522" width="43.258" height="76.053" color-interpolation-filters="sRGB" filterUnits="userSpaceOnUse"><feFlood flood-color="#fff" result="bg"/><feBlend in="SourceGraphic" in2="bg"/></filter><filter id="j" x="76.614" y="-12738.96" width="43.258" height="32766" color-interpolation-filters="sRGB" filterUnits="userSpaceOnUse"><feFlood flood-color="#fff" result="bg"/><feBlend in="SourceGraphic" in2="bg"/></filter><mask id="h" x="76.614" y="-12738.96" width="43.258" height="32766" maskUnits="userSpaceOnUse"><g class="ba"/></mask><linearGradient id="k" x1="76.614" y1="55.548" x2="119.872" y2="55.548" gradientTransform="matrix(1, 0, 0, 1, 0, 0)" gradientUnits="userSpaceOnUse"><stop offset=".001" stop-color="#fff"/><stop offset="1" stop-color="#000"/></linearGradient><mask id="e" x="76.614" y="17.522" width="43.258" height="76.053" maskUnits="userSpaceOnUse"><g class="bl"><g class="am"><path class="ap" d="M119.872,17.522s-2.026,5.14-5.599,12.541c-.886,1.861-1.852,3.869-2.924,5.954-1.066,2.095-2.157,4.324-3.379,6.578-1.21,2.269-2.419,4.632-3.735,6.973-1.303,2.348-2.637,4.742-3.972,7.13-1.365,2.366-2.737,4.733-4.09,7.058-1.341,2.332-2.762,4.579-4.084,6.765-2.675,4.386-5.262,8.417-7.557,11.828-4.539,6.858-7.918,11.226-7.918,11.226,0,0,2.02-5.147,5.599-12.545,1.758-3.707,3.916-8.009,6.297-12.535,1.216-2.257,2.407-4.629,3.735-6.967,1.316-2.354,2.644-4.738,3.971-7.136,1.378-2.363,2.75-4.72,4.103-7.046,1.334-2.335,2.756-4.573,4.084-6.78,1.322-2.191,2.668-4.271,3.934-6.26,1.241-1.995,2.475-3.853,3.616-5.562,4.539-6.846,7.918-11.223,7.918-11.223Z"/></g></g></mask><linearGradient id="l" x1="76.614" y1="55.548" x2="119.872" y2="55.548" gradientTransform="matrix(1, 0, 0, 1, 0, 0)" gradientUnits="userSpaceOnUse"><stop offset=".001" stop-color="#fff"/><stop offset="1" stop-color="#fff"/></linearGradient><filter id="o" x="126.524" y="61.928" width="8.33" height="24.922" color-interpolation-filters="sRGB" filterUnits="userSpaceOnUse"><feFlood flood-color="#fff" result="bg"/><feBlend in="SourceGraphic" in2="bg"/></filter><filter id="r" x="126.524" y="-12738.96" width="8.33" height="32766" color-interpolation-filters="sRGB" filterUnits="userSpaceOnUse"><feFlood flood-color="#fff" result="bg"/><feBlend in="SourceGraphic" in2="bg"/></filter><mask id="p" x="126.524" y="-12738.96" width="8.33" height="32766" maskUnits="userSpaceOnUse"><g class="bg"/></mask><linearGradient id="s" x1="126.524" y1="74.389" x2="134.854" y2="74.389" xlink:href="#k"/><mask id="m" x="126.524" y="61.928" width="8.33" height="24.922" maskUnits="userSpaceOnUse"><g class="bj"><g class="bh"><path class="as" d="M134.854,61.954s-.374,.299-.773,.895c-.212,.287-.424,.658-.63,1.094-.218,.408-.38,.932-.58,1.462-.169,.555-.349,1.122-.486,1.777-.175,.602-.249,1.322-.418,2.008-.106,.717-.212,1.453-.337,2.207-.069,.767-.218,1.531-.293,2.313-.094,.786-.175,1.584-.299,2.357-.062,.795-.162,1.571-.268,2.326-.231,1.512-.399,2.959-.686,4.202-.218,1.256-.468,2.319-.686,3.065-.212,.754-.381,1.191-.381,1.191,0,0-.23-.396-.548-1.122-.318-.717-.705-1.752-1.091-3.008-.299-1.275-.636-2.774-.755-4.417-.05-.814-.1-1.668-.1-2.531,.025-.864,.106-1.752,.175-2.634,.118-.885,.305-1.77,.505-2.634,.224-.867,.505-1.712,.817-2.516,.374-.795,.698-1.562,1.172-2.245,.424-.683,.935-1.294,1.428-1.808,.524-.508,1.029-.935,1.559-1.231,.474-.33,.985-.511,1.384-.627,.811-.231,1.291-.122,1.291-.122Z"/></g></g></mask><linearGradient id="t" x1="126.524" y1="74.389" x2="134.854" y2="74.389" xlink:href="#l"/><linearGradient id="u" x1="31.027" y1="-181.457" x2="31.027" y2="277.672" xlink:href="#d"/><filter id="x" x="5.042" y="7.377" width="25.984" height="20.501" color-interpolation-filters="sRGB" filterUnits="userSpaceOnUse"><feFlood flood-color="#fff" result="bg"/><feBlend in="SourceGraphic" in2="bg"/></filter><filter id="aa" x="5.042" y="-12738.96" width="25.984" height="32766" color-interpolation-filters="sRGB" filterUnits="userSpaceOnUse"><feFlood flood-color="#fff" result="bg"/><feBlend in="SourceGraphic" in2="bg"/></filter><mask id="y" x="5.042" y="-12738.96" width="25.984" height="32766" maskUnits="userSpaceOnUse"><g class="be"/></mask><linearGradient id="ab" x1="5.042" y1="17.627" x2="31.026" y2="17.627" xlink:href="#k"/><mask id="v" x="5.042" y="7.377" width="25.984" height="20.501" maskUnits="userSpaceOnUse"><g class="bb"><g class="bd"><path class="aq" d="M5.042,27.878s.085-.568,.363-1.506c.273-.942,.746-2.249,1.454-3.751,1.411-2.997,3.912-6.708,7.274-9.734,.855-.734,1.725-1.464,2.664-2.09,.917-.649,1.886-1.21,2.865-1.685,1.948-.96,3.961-1.532,5.719-1.685,.882-.072,1.687-.067,2.396,.023,.704,.031,1.309,.225,1.789,.335,.483,.12,.845,.314,1.093,.401,.24,.107,.368,.165,.368,.165,0,0-.533,.147-1.462,.403-.448,.156-.981,.308-1.561,.547-.587,.211-1.214,.53-1.88,.851-2.666,1.331-5.756,3.68-8.742,6.365-2.984,2.675-5.909,5.592-8.251,7.761-1.173,1.08-2.183,1.986-2.912,2.616-.725,.632-1.175,.985-1.175,.985Z"/></g></g></mask><linearGradient id="ac" x1="5.042" y1="17.627" x2="31.026" y2="17.627" xlink:href="#l"/><filter id="af" x="17.944" y="43.665" width="4.868" height="76.315" color-interpolation-filters="sRGB" filterUnits="userSpaceOnUse"><feFlood flood-color="#fff" result="bg"/><feBlend in="SourceGraphic" in2="bg"/></filter><filter id="ai" x="17.944" y="-12738.96" width="4.868" height="32766" color-interpolation-filters="sRGB" filterUnits="userSpaceOnUse"><feFlood flood-color="#fff" result="bg"/><feBlend in="SourceGraphic" in2="bg"/></filter><mask id="ag" x="17.944" y="-12738.96" width="4.868" height="32766" maskUnits="userSpaceOnUse"><g class="bc"/></mask><linearGradient id="aj" x1="17.944" y1="81.823" x2="22.812" y2="81.823" xlink:href="#k"/><mask id="ad" x="17.944" y="43.665" width="4.868" height="76.315" maskUnits="userSpaceOnUse"><g class="au"><g class="al"><path class="ar" d="M20.377,43.665s.211,1.194,.481,3.28c.273,2.087,.626,5.068,.911,8.645,.153,1.789,.316,3.726,.419,5.775,.12,2.05,.271,4.211,.328,6.448,.062,2.235,.2,4.546,.211,6.892,.029,2.348,.056,4.733,.085,7.117-.025,2.385-.047,4.771-.072,7.118-.023,2.347-.151,4.658-.219,6.893-.167,4.471-.43,8.645-.746,12.223-.285,3.577-.64,6.559-.913,8.645-.273,2.086-.485,3.279-.485,3.279,0,0-.213-1.193-.483-3.279-.275-2.087-.63-5.068-.915-8.645-.314-3.577-.576-7.751-.746-12.223-.068-2.235-.196-4.546-.219-6.893-.023-2.347-.048-4.733-.07-7.118,.029-2.384,.056-4.769,.083-7.117,.01-2.346,.149-4.657,.211-6.892,.06-2.237,.211-4.398,.328-6.448,.103-2.049,.266-3.986,.419-5.775,.285-3.577,.638-6.559,.911-8.645,.27-2.086,.481-3.28,.481-3.28Z"/></g></g></mask><linearGradient id="ak" x1="17.944" y1="81.823" x2="22.812" y2="81.823" xlink:href="#l"/></defs><g class="av"><g id="a"/><g id="b"><g id="c"><g><g><g><path class="an" d="M151.495,137.181c-1.746,2.242-8.617,7.778-10.93,8.832-2.319,1.054,.131-2.628-2.319-3.261-2.463-.627-4.602-2.344-6.428-5.159-1.122-1.824-1.889-3.922-2.301-6.31-.43-2.385-.68-4.873-.748-7.463-.062-2.606-.031-5.088,.112-7.476,.137-2.382,.137-4.492,0-6.31-5.337,0-10.805-.037-16.423-.109-5.611-.069-11.073-.169-16.404-.315h-5.268c-1.821,0-3.604-.171-5.368-.53-1.746-.346-3.398-.916-4.938-1.68-1.553-.76-2.881-1.923-3.997-3.466-1.827-2.675-2.562-5.44-2.214-8.317,.349-2.871,1.191-5.717,2.525-8.52,1.334-2.812,2.912-5.474,4.738-7.996,1.821-2.525,3.224-4.701,4.202-6.531,3.647-6.59,7.401-13.078,11.266-19.456,3.853-6.381,7.6-12.803,11.254-19.266,1.122-1.951,2.313-4.199,3.579-6.727,1.259-2.525,2.55-5.05,3.891-7.569,1.34-2.522,2.768-4.951,4.314-7.267,1.54-2.313-1.677-.427,.012-2.107,2.101-1.967,9.172-7.042,11.559-7.463,2.388-.424,4.633-.221,6.74,.623,2.101,.845,3.922,2.207,5.468,4.109,1.546,1.896,2.45,4.243,2.737,7.042,.143,1.693-.218,3.582-1.054,5.689-.842,2.104-1.827,4.174-2.949,6.207-1.122,2.042-2.245,3.863-3.361,5.468-1.122,1.621-1.895,2.778-2.313,3.479-1.97,3.498-3.941,6.936-5.892,10.306-1.97,3.37-3.941,6.74-5.898,10.094-2.662,4.776-5.331,9.477-7.999,14.103-2.656,4.629-5.393,9.265-8.205,13.891,3.504,.281,6.84,.421,9.994,.421h9.571c.15-3.788,.15-7.544,0-11.26-.143-3.716-3.797-5.827-2.949-9.334,.692-2.94,6.222-6.724,8.535-8.336,2.313-1.612,4.801-2.497,7.469-2.631,2.669-.143,5.15,.455,7.47,1.786,2.313,1.328,3.89,3.548,4.739,6.628,.555,2.107,.904,4.318,1.053,6.628,.125,2.313,.169,4.595,.094,6.837-.062,2.248-.137,4.246-.206,5.995-.063,1.761-.112,3.065-.112,3.894,1.833,0,3.548-.094,5.163-.321,1.615-.202,3.261,.044,4.951,.748,2.095,.845,4.022,2.07,5.786,3.676,1.746,1.624,3.043,3.413,3.89,5.368,.836,1.97,1.085,4,.742,6.104-.349,2.108-1.59,4.143-3.691,6.101-2.525,2.388-7.501,7.051-10.181,7.326-2.656,.281-3.292-2.902-6.659-2.902v18.945c-.274,2.94-1.284,5.53-3.049,7.784Z"/><path class="bf" d="M146.669,141.072c-1.758,2.235-3.791,3.888-6.104,4.941-2.319,1.054-4.701,1.263-7.151,.633-2.456-.633-4.595-2.354-6.409-5.156-1.135-1.83-1.902-3.928-2.332-6.31-.411-2.385-.667-4.882-.729-7.479-.075-2.587-.031-5.087,.106-7.469,.137-2.385,.137-4.48,0-6.31-5.337,0-10.805-.028-16.416-.109-5.605-.072-11.079-.175-16.41-.312h-5.262c-1.827,0-3.61-.178-5.374-.527-1.746-.346-3.398-.91-4.932-1.683-1.552-.767-2.887-1.93-4.009-3.47-1.821-2.666-2.556-5.44-2.207-8.321,.349-2.874,1.191-5.714,2.525-8.514,1.334-2.802,2.912-5.48,4.745-8.006,1.814-2.522,3.211-4.698,4.202-6.519,3.641-6.599,7.407-13.077,11.254-19.465,3.859-6.378,7.619-12.803,11.266-19.25,1.116-1.97,2.313-4.212,3.572-6.737,1.266-2.522,2.556-5.05,3.897-7.572,1.322-2.525,2.768-4.954,4.302-7.258,1.552-2.326,3.161-4.324,4.851-6.004,2.101-1.967,4.346-3.161,6.728-3.576,2.382-.418,4.632-.209,6.733,.639,2.114,.832,3.934,2.201,5.468,4.09,1.553,1.898,2.463,4.252,2.75,7.058,.124,1.677-.225,3.579-1.054,5.674-.848,2.114-1.833,4.181-2.955,6.216-1.122,2.033-2.244,3.85-3.367,5.462-1.122,1.615-1.889,2.781-2.307,3.479-1.964,3.507-3.934,6.946-5.892,10.313-1.97,3.364-3.934,6.731-5.892,10.097-2.674,4.773-5.343,9.471-8.006,14.1-2.662,4.623-5.393,9.252-8.205,13.885,3.51,.287,6.846,.43,10.001,.43h9.577c.137-3.8,.137-7.544,0-11.264-.149-3.713,.206-7.332,1.041-10.836,.705-2.946,2.22-5.231,4.533-6.84,2.307-1.615,4.801-2.497,7.47-2.637,2.656-.14,5.156,.458,7.469,1.789,2.313,1.331,3.891,3.551,4.745,6.631,.555,2.107,.898,4.314,1.035,6.627,.143,2.316,.181,4.601,.112,6.837-.069,2.257-.137,4.258-.212,6.001-.069,1.758-.106,3.052-.106,3.897,1.833,0,3.541-.109,5.156-.315,1.609-.212,3.267,.037,4.957,.733,2.089,.845,4.021,2.067,5.78,3.685,1.752,1.615,3.049,3.404,3.891,5.374,.841,1.951,1.091,3.993,.735,6.101-.349,2.092-1.577,4.13-3.678,6.098-2.525,2.388-5.125,3.713-7.788,3.996-2.668,.287-5.686,.421-9.053,.421v18.939c-.274,2.94-1.291,5.549-3.049,7.79Z"/></g><g class="ao"><path class="ax" d="M119.872,17.522s-2.026,5.14-5.599,12.541c-.886,1.861-1.852,3.869-2.924,5.954-1.066,2.095-2.157,4.324-3.379,6.578-1.21,2.269-2.419,4.632-3.735,6.973-1.303,2.348-2.637,4.742-3.972,7.13-1.365,2.366-2.737,4.733-4.09,7.058-1.341,2.332-2.762,4.579-4.084,6.765-2.675,4.386-5.262,8.417-7.557,11.828-4.539,6.858-7.918,11.226-7.918,11.226,0,0,2.02-5.147,5.599-12.545,1.758-3.707,3.916-8.009,6.297-12.535,1.216-2.257,2.407-4.629,3.735-6.967,1.316-2.354,2.644-4.738,3.971-7.136,1.378-2.363,2.75-4.72,4.103-7.046,1.334-2.335,2.756-4.573,4.084-6.78,1.322-2.191,2.668-4.271,3.934-6.26,1.241-1.995,2.475-3.853,3.616-5.562,4.539-6.846,7.918-11.223,7.918-11.223Z"/></g><g class="bk"><path class="aw" d="M134.854,61.954s-.374,.299-.773,.895c-.212,.287-.424,.658-.63,1.094-.218,.408-.38,.932-.58,1.462-.169,.555-.349,1.122-.486,1.777-.175,.602-.249,1.322-.418,2.008-.106,.717-.212,1.453-.337,2.207-.069,.767-.218,1.531-.293,2.313-.094,.786-.175,1.584-.299,2.357-.062,.795-.162,1.571-.268,2.326-.231,1.512-.399,2.959-.686,4.202-.218,1.256-.468,2.319-.686,3.065-.212,.754-.381,1.191-.381,1.191,0,0-.23-.396-.548-1.122-.318-.717-.705-1.752-1.091-3.008-.299-1.275-.636-2.774-.755-4.417-.05-.814-.1-1.668-.1-2.531,.025-.864,.106-1.752,.175-2.634,.118-.885,.305-1.77,.505-2.634,.224-.867,.505-1.712,.817-2.516,.374-.795,.698-1.562,1.172-2.245,.424-.683,.935-1.294,1.428-1.808,.524-.508,1.029-.935,1.559-1.231,.474-.33,.985-.511,1.384-.627,.811-.231,1.291-.122,1.291-.122Z"/></g></g><g><g><path class="an" d="M62.082,120.873c2.195,2.489,3.695,5.086,4.502,7.795,.801,2.71,.659,5.271-.44,7.685-1.097,2.415-6.853,7.607-10.508,8.193-7.028,1.171-10.901-1.972-18.367-2.045-7.466-.076-14.492-.184-21.081-.33-4.54,0-7.65-1.392-9.331-4.17-1.687-2.78-2.197-5.821-1.537-9.114,.655-3.294,2.447-6.293,5.378-9.003,2.927-2.708,6.661-4.063,11.2-4.063V35.892c-1.904,.441-3.811,.33-5.711-.329-1.904-.659-3.59-1.646-5.052-2.966-1.464-1.316-2.598-2.887-3.404-4.719-.805-1.829-1.062-3.695-.766-5.6,.438-3.218,2.086-6.511,4.94-9.882,2.854-3.364,6.182-6.148,9.992-8.344C25.701,1.857,29.619,.538,33.645,.099c4.025-.44,7.501,.587,10.432,3.075,1.171,.878,2.23,2.123,3.185,3.732,.95,1.613,1.427,3.075,1.427,4.393,.142,17.566,.18,35.024,.109,52.371-.074,17.347-.109,34.733-.109,52.152h5.709c2.927,.878,5.488,2.563,7.685,5.052Z"/><path class="at" d="M57.041,124.932c2.195,2.491,3.695,5.087,4.505,7.796,.801,2.71,.655,5.271-.442,7.686-1.097,2.414-3.478,3.914-7.136,4.501-7.026,1.17-14.274,1.718-21.74,1.645-7.466-.075-14.492-.184-21.079-.329-4.542,0-7.652-1.392-9.333-4.17-1.685-2.779-2.197-5.821-1.537-9.114,.659-3.293,2.449-6.292,5.378-9.004,2.927-2.707,6.661-4.062,11.2-4.062V39.952c-1.906,.44-3.808,.328-5.709-.329-1.906-.658-3.592-1.647-5.052-2.965-1.466-1.318-2.6-2.888-3.404-4.721-.808-1.828-1.066-3.695-.768-5.599,.44-3.218,2.084-6.512,4.94-9.882,2.854-3.365,6.184-6.149,9.992-8.344,3.804-2.197,7.718-3.514,11.746-3.954,4.025-.438,7.501,.587,10.432,3.075,1.169,.879,2.23,2.124,3.183,3.732,.952,1.615,1.427,3.075,1.427,4.393,.147,17.567,.184,35.024,.112,52.373-.076,17.347-.112,34.731-.112,52.15h5.713c2.924,.878,5.49,2.565,7.683,5.052Z"/></g><g class="bi"><path class="ay" d="M5.042,27.878s.085-.568,.363-1.506c.273-.942,.746-2.249,1.454-3.751,1.411-2.997,3.912-6.708,7.274-9.734,.855-.734,1.725-1.464,2.664-2.09,.917-.649,1.886-1.21,2.865-1.685,1.948-.96,3.961-1.532,5.719-1.685,.882-.072,1.687-.067,2.396,.023,.704,.031,1.309,.225,1.789,.335,.483,.12,.845,.314,1.093,.401,.24,.107,.368,.165,.368,.165,0,0-.533,.147-1.462,.403-.448,.156-.981,.308-1.561,.547-.587,.211-1.214,.53-1.88,.851-2.666,1.331-5.756,3.68-8.742,6.365-2.984,2.675-5.909,5.592-8.251,7.761-1.173,1.08-2.183,1.986-2.912,2.616-.725,.632-1.175,.985-1.175,.985Z"/></g><g class="bm"><path class="b`" d="M20.377,43.665s.211,1.194,.481,3.28c.273,2.087,.626,5.068,.911,8.645,.153,1.789,.316,3.726,.419,5.775,.12,2.05,.271,4.211,.328,6.448,.062,2.235,.2,4.546,.211,6.892,.029,2.348,.056,4.733,.085,7.117-.025,2.385-.047,4.771-.072,7.118-.023,2.347-.151,4.658-.219,6.893-.167,4.471-.43,8.645-.746,12.223-.285,3.577-.64,6.559-.913,8.645-.273,2.086-.485,3.279-.485,3.279,0,0-.213-1.193-.483-3.279-.275-2.087-.63-5.068-.915-8.645-.314-3.577-.576-7.751-.746-12.223-.068-2.235-.196-4.546-.219-6.893-.023-2.347-.048-4.733-.07-7.118,.029-2.384,.056-4.769,.083-7.117,.01-2.346,.149-4.657,.211-6.892,.06-2.237,.211-4.398,.328-6.448,.103-2.049,.266-3.986,.419-5.775,.285-3.577,.638-6.559,.911-8.645,.27-2.086,.481-3.28,.481-3.28Z"/></g></g></g></g></g></g></svg>