<?xml version="1.0" encoding="UTF-8"?><svg xmlns="http://www.w3.org/2000/svg" xmlns:xlink="http://www.w3.org/1999/xlink" viewBox="0 0 173.613 147"><defs><style>.al{mask:url(#ag);}.am{mask:url(#h);}.an{fill:#0c557c;}.ao{mask:url(#e);}.ap{fill:url(#k);}.ap,.aq,.ar,.as{mix-blend-mode:multiply;}.at{fill:url(#u);}.au{filter:url(#af);}.av{isolation:isolate;}.aw{fill:url(#t);}.aw,.ax,.ay,.b`{mix-blend-mode:screen;}.ba{filter:url(#j);}.bb{filter:url(#x);}.ax{fill:url(#l);}.bc{filter:url(#ai);}.bd{mask:url(#y);}.be{filter:url(#aa);}.aq{fill:url(#ab);}.ay{fill:url(#ac);}.bf{fill:url(#d);}.bg{filter:url(#r);}.ar{fill:url(#aj);}.bh{mask:url(#p);}.as{fill:url(#s);}.bi{mask:url(#v);}.bj{filter:url(#o);}.bk{mask:url(#m);}.b`{fill:url(#ak);}.bl{filter:url(#g);}.bm{mask:url(#ad);}</style><linearGradient id="d" x1="3153.048" y1="-1191.765" x2="3153.048" y2="-740.035" gradientTransform="translate(-3025.481 1033.157) rotate(-.352)" gradientUnits="userSpaceOnUse"><stop offset="0" stop-color="#47c1f0"/><stop offset=".5" stop-color="#00a0e4"/><stop offset="1" stop-color="#008cd3"/></linearGradient><filter id="g" x="79.17" y="6.555" width="66.703" height="16.432" color-interpolation-filters="sRGB" filterUnits="userSpaceOnUse"><feFlood flood-color="#fff" result="bg"/><feBlend in="SourceGraphic" in2="bg"/></filter><filter id="j" x="79.17" y="-12734.218" width="66.703" height="32766" color-interpolation-filters="sRGB" filterUnits="userSpaceOnUse"><feFlood flood-color="#fff" result="bg"/><feBlend in="SourceGraphic" in2="bg"/></filter><mask id="h" x="79.17" y="-12734.218" width="66.703" height="32766" maskUnits="userSpaceOnUse"><g class="ba"/></mask><linearGradient id="k" x1="3110.771" y1="-999.164" x2="3177.535" y2="-999.164" gradientTransform="translate(-3025.481 1033.157) rotate(-.352)" gradientUnits="userSpaceOnUse"><stop offset=".001" stop-color="#fff"/><stop offset="1" stop-color="#000"/></linearGradient><mask id="e" x="79.17" y="6.555" width="66.703" height="16.432" maskUnits="userSpaceOnUse"><g class="bl"><g class="am"><path class="ap" d="M79.683,22.986s-.376-1.15-.501-3.288c-.032-1.065-.02-2.386,.286-3.903,.317-1.496,.938-3.251,2.269-4.835,1.286-1.595,3.331-2.919,5.642-3.426,.568-.142,1.15-.186,1.737-.282l.891-.114,.801-.051c1.068-.081,2.158-.107,3.268-.159,2.213-.075,4.509-.227,6.839-.25,2.326-.043,4.695-.085,7.063-.125,2.373,.006,4.736,.018,7.066,.023,2.333,.015,4.625,.123,6.846,.174,4.437,.138,8.584,.37,12.132,.662,3.553,.255,6.52,.589,8.586,.845,2.082,.253,3.265,.453,3.265,.453,0,0-1.176,.223-3.248,.5-2.068,.282-5.031,.646-8.574,.949-3.546,.337-7.693,.615-12.12,.809-2.224,.081-4.513,.221-6.842,.255-2.328,.045-4.698,.077-7.067,.119-2.367-.018-4.737-.029-7.064-.041-2.329,.006-4.628-.117-6.837-.162-1.114-.04-2.208-.048-3.277-.119l-.795-.046-.675,.015c-.442,.022-.908-.007-1.332,.05-1.718,.202-3.183,.837-4.326,1.813-1.133,.984-1.946,2.257-2.507,3.486-.517,1.255-.859,2.434-1.078,3.428-.403,2.002-.447,3.218-.447,3.218Z"/></g></g></mask><linearGradient id="l" x1="3110.771" y1="-999.164" x2="3177.535" y2="-999.164" gradientTransform="translate(-3025.481 1033.157) rotate(-.352)" gradientUnits="userSpaceOnUse"><stop offset=".001" stop-color="#fff"/><stop offset="1" stop-color="#fff"/></linearGradient><filter id="o" x="98.773" y="71.255" width="51.17" height="47.246" color-interpolation-filters="sRGB" filterUnits="userSpaceOnUse"><feFlood flood-color="#fff" result="bg"/><feBlend in="SourceGraphic" in2="bg"/></filter><filter id="r" x="98.773" y="-12734.218" width="51.17" height="32766" color-interpolation-filters="sRGB" filterUnits="userSpaceOnUse"><feFlood flood-color="#fff" result="bg"/><feBlend in="SourceGraphic" in2="bg"/></filter><mask id="p" x="98.773" y="-12734.218" width="51.17" height="32766" maskUnits="userSpaceOnUse"><g class="bg"/></mask><linearGradient id="s" x1="3099.499" y1="-902.969" x2="3204.934" y2="-932.923" xlink:href="#k"/><mask id="m" x="98.773" y="71.255" width="51.17" height="47.246" maskUnits="userSpaceOnUse"><g class="bj"><g class="bh"><path class="as" d="M98.773,78.022s.261-.23,.793-.626c.534-.385,1.325-.98,2.409-1.587,1.076-.633,2.419-1.338,4.043-1.99,.803-.366,1.697-.625,2.623-.965,.942-.299,1.954-.538,3.014-.802,2.127-.427,4.486-.816,7.002-.795,.638,.002,1.276,.004,1.926-.003,.648,.053,1.297,.104,1.963,.163,1.331,.05,2.657,.351,4.019,.622,2.699,.578,5.439,1.456,8.066,2.669l.507,.215,.124,.052,.064,.029,.198,.104,.228,.13,.902,.513,1.807,1.032c.587,.285,1.245,.896,1.865,1.341l1.877,1.473c.544,.553,1.056,1.127,1.571,1.694,.501,.582,1.079,1.095,1.48,1.759,.839,1.285,1.777,2.502,2.347,3.919,.322,.692,.676,1.364,.947,2.058,.205,.725,.414,1.442,.618,2.155l.298,1.064,.155,1.091c.093,.719,.195,1.435,.287,2.142,.053,.713,.021,1.425,.036,2.129-.023,.695,.044,1.393-.105,2.067-.243,1.351-.335,2.687-.78,3.914-.186,.619-.367,1.227-.546,1.833-.207,.59-.492,1.149-.742,1.696-.267,.539-.509,1.083-.779,1.599-.318,.484-.633,.962-.942,1.426-.315,.464-.59,.934-.917,1.349-.347,.401-.702,.787-1.03,1.163-.348,.372-.675,.733-1.002,1.08-.349,.318-.723,.601-1.068,.885-.716,.532-1.28,1.146-1.985,1.487-.662,.37-1.283,.714-1.833,1.019-.523,.337-1.074,.487-1.53,.65-.46,.157-.85,.288-1.164,.398-.621,.218-.955,.325-.955,.325,0,0,.293-.195,.839-.563,.535-.388,1.392-.831,2.301-1.613,.907-.794,2.018-1.707,3.037-3.004,.261-.316,.547-.622,.815-.952,.23-.367,.472-.743,.713-1.133,.247-.373,.503-.763,.755-1.159,.244-.407,.419-.864,.641-1.3,.205-.445,.426-.893,.641-1.357,.178-.476,.315-.985,.477-1.487,.141-.503,.355-.993,.479-1.518,.106-.531,.201-1.071,.305-1.614,.29-1.076,.232-2.232,.321-3.379,.023-1.144-.089-2.321-.183-3.503-.425-2.337-1.032-4.725-2.246-6.879-.465-1.145-1.282-2.106-1.975-3.141-.731-1.004-1.696-1.843-2.524-2.768l-1.402-1.137-.688-.58-.351-.297-.444-.27-1.79-1.066-.884-.533-.226-.133-.029-.015c-.035-.029,.254,.136,.12,.061l-.06-.023-.104-.05-.451-.201c-2.352-1.105-4.703-2.126-7.096-2.756-1.192-.323-2.368-.635-3.548-.813-.592-.107-1.166-.22-1.743-.328-.587-.059-1.158-.109-1.727-.162-2.276-.226-4.463-.173-6.485-.065-2.004,.2-3.864,.44-5.497,.8-1.626,.36-3.048,.727-4.192,1.113-2.318,.733-3.593,1.347-3.593,1.347Z"/></g></g></mask><linearGradient id="t" x1="3099.499" y1="-902.969" x2="3204.934" y2="-932.923" xlink:href="#l"/><linearGradient id="u" x1="31.074" y1="-181.525" x2="31.074" y2="278.306" gradientTransform="matrix(1, 0, 0, 1, 0, 0)" xlink:href="#d"/><filter id="x" x="5.05" y="7.598" width="26.024" height="20.532" color-interpolation-filters="sRGB" filterUnits="userSpaceOnUse"><feFlood flood-color="#fff" result="bg"/><feBlend in="SourceGraphic" in2="bg"/></filter><filter id="aa" x="5.05" y="-12734.218" width="26.024" height="32766" color-interpolation-filters="sRGB" filterUnits="userSpaceOnUse"><feFlood flood-color="#fff" result="bg"/><feBlend in="SourceGraphic" in2="bg"/></filter><mask id="y" x="5.05" y="-12734.218" width="26.024" height="32766" maskUnits="userSpaceOnUse"><g class="be"/></mask><linearGradient id="ab" x1="5.05" y1="17.864" x2="31.073" y2="17.864" gradientTransform="matrix(1, 0, 0, 1, 0, 0)" xlink:href="#k"/><mask id="v" x="5.05" y="7.598" width="26.024" height="20.532" maskUnits="userSpaceOnUse"><g class="bb"><g class="bd"><path class="aq" d="M5.05,28.13s.085-.569,.364-1.508c.273-.943,.747-2.253,1.456-3.756,1.413-3.001,3.918-6.718,7.285-9.749,.856-.735,1.727-1.467,2.668-2.093,.918-.65,1.889-1.212,2.869-1.688,1.951-.962,3.967-1.534,5.728-1.688,.883-.072,1.69-.067,2.399,.023,.705,.031,1.311,.225,1.791,.335,.484,.12,.846,.314,1.094,.401,.24,.108,.368,.165,.368,.165,0,0-.534,.147-1.465,.403-.449,.156-.982,.308-1.564,.548-.587,.211-1.216,.531-1.882,.852-2.67,1.333-5.765,3.686-8.756,6.375-2.989,2.679-5.918,5.6-8.264,7.772-1.175,1.082-2.186,1.989-2.917,2.62-.726,.633-1.177,.987-1.177,.987Z"/></g></g></mask><linearGradient id="ac" x1="5.05" y1="17.864" x2="31.073" y2="17.864" gradientTransform="matrix(1, 0, 0, 1, 0, 0)" xlink:href="#l"/><filter id="af" x="17.971" y="43.941" width="4.875" height="76.432" color-interpolation-filters="sRGB" filterUnits="userSpaceOnUse"><feFlood flood-color="#fff" result="bg"/><feBlend in="SourceGraphic" in2="bg"/></filter><filter id="ai" x="17.971" y="-12734.218" width="4.875" height="32766" color-interpolation-filters="sRGB" filterUnits="userSpaceOnUse"><feFlood flood-color="#fff" result="bg"/><feBlend in="SourceGraphic" in2="bg"/></filter><mask id="ag" x="17.971" y="-12734.218" width="4.875" height="32766" maskUnits="userSpaceOnUse"><g class="bc"/></mask><linearGradient id="aj" x1="17.971" y1="82.157" x2="22.847" y2="82.157" gradientTransform="matrix(1, 0, 0, 1, 0, 0)" xlink:href="#k"/><mask id="ad" x="17.971" y="43.941" width="4.875" height="76.432" maskUnits="userSpaceOnUse"><g class="au"><g class="al"><path class="ar" d="M20.408,43.941s.211,1.196,.482,3.285c.273,2.09,.627,5.076,.912,8.659,.153,1.791,.317,3.732,.42,5.783,.12,2.053,.271,4.218,.329,6.458,.062,2.238,.201,4.553,.211,6.902,.029,2.352,.056,4.74,.085,7.128-.025,2.389-.048,4.778-.072,7.129-.023,2.351-.151,4.665-.219,6.904-.168,4.478-.43,8.659-.747,12.241-.285,3.583-.641,6.569-.914,8.659-.273,2.089-.486,3.284-.486,3.284,0,0-.213-1.195-.484-3.284-.275-2.09-.631-5.076-.916-8.659-.314-3.583-.577-7.763-.747-12.241-.068-2.238-.196-4.553-.219-6.904-.023-2.351-.048-4.74-.07-7.129,.029-2.388,.056-4.776,.083-7.128,.01-2.35,.149-4.664,.211-6.902,.06-2.24,.211-4.405,.329-6.458,.103-2.052,.267-3.992,.42-5.783,.286-3.583,.639-6.569,.912-8.659,.271-2.089,.482-3.285,.482-3.285Z"/></g></g></mask><linearGradient id="ak" x1="17.971" y1="82.157" x2="22.847" y2="82.157" gradientTransform="matrix(1, 0, 0, 1, 0, 0)" xlink:href="#l"/></defs><g class="av"><g id="a"/><g id="b"><g id="c"><g><g><path class="an" d="M85.502,129.183c-2.17-2.433-3.488-5.089-3.932-7.968-.452-2.875-.14-5.505,.916-7.889,1.066-2.389,2.816-4.345,5.265-5.868,2.437-1.53,5.384-2.157,8.843-1.888,1.875,.28,3.716,.949,5.521,2.015,1.807,1.075,3.507,2.037,5.102,2.893,2.163,1.137,4.649,2.091,7.47,2.867,2.806,.776,5.441,1.016,7.887,.708,3.165-.308,6.11-.904,8.847-1.783,2.724-.881,5.313-2.412,7.748-4.585,2.859-2.754,4.786-5.789,5.773-9.109,1.977-5.629,1.955-10.238-.079-13.826-2.042-3.588-5.007-6.236-8.907-7.939-3.905-1.705-8.304-2.653-13.199-2.838-4.898-.179-9.36,.308-13.383,1.486-.43,.434-.861,.872-1.284,1.309-.435,.432-.864,.795-1.293,1.086-1.718,1.738-3.658,2.828-5.817,3.276-2.157,.445-4.244,.426-6.266-.072-2.02-.487-3.864-1.49-5.528-2.988-1.667-1.506-2.867-3.405-3.597-5.708-1.029-2.871-1.517-5.93-1.463-9.165,.051-3.243,0-6.299-.161-9.184-.163-2.161-.244-4.356-.254-6.59-.015-2.226-.107-4.498-.262-6.802-.002-.432-.008-1.407-.02-2.921-.008-1.508-.054-3.093-.137-4.75-.084-1.654-.165-3.271-.239-4.859-.091-1.583-.13-2.733-.13-3.451-1.31-1.431-2.218-3.086-2.73-4.958-.528-1.866-.68-3.738-.473-5.61,.208-1.875,.771-3.642,1.698-5.309,.923-1.658,2.251-3.067,3.971-4.23,2.433-1.747,5.202-2.63,8.299-2.651,3.095-.017,6.082-.032,8.964-.054,1.728-.01,4.466-.058,8.207-.16,3.744-.092,7.595-.184,11.565-.284,3.954-.097,7.625-.187,11.013-.285,3.385-.092,5.508-.145,6.37-.147,3.745-.164,6.842-.439,9.287-.813,2.437-.374,5.108,.006,8.004,1.141,2.597,.849,4.655,2.277,6.183,4.28,1.526,2.008,2.434,4.201,2.739,6.574,.298,2.374,.022,4.72-.823,7.029-.852,2.308-2.429,4.262-4.715,5.861-3.02,2.18-6.503,3.282-10.462,3.304-3.961,.025-7.599,.05-10.91,.068-4.897,.173-9.756,.24-14.579,.195-4.826-.038-9.692,.031-14.585,.195,.021,3.173,.069,6.305,.164,9.404,.092,3.09,.219,6.224,.385,9.392,3.456-.738,6.982-1.193,10.578-1.361,3.594-.165,7.129,.027,10.586,.582,3.9,.701,7.577,1.756,11.048,3.172,3.459,1.424,6.926,3.201,10.396,5.338,4.196,2.572,7.741,5.859,10.649,9.874,2.9,4.018,5.241,8.329,6.993,12.922,2.192,5.746,3.125,11.398,2.8,16.942-.323,5.553-1.624,10.813-3.902,15.794-2.272,4.984-5.376,9.541-9.31,13.671-3.933,4.128-8.344,7.545-13.228,10.23-4.879,2.702-10.087,4.64-15.623,5.826-5.542,1.183-11.122,1.288-16.744,.316-9.943-1.661-19.405-5.281-28.367-10.843l-.875-.862Z"/><path class="bf" d="M80.573,133.209c-2.179-2.431-3.488-5.089-3.944-7.971-.445-2.876-.138-5.508,.931-7.889,1.065-2.387,2.813-4.339,5.256-5.866,2.441-1.524,5.383-2.154,8.845-1.891,1.876,.277,3.715,.951,5.523,2.023,1.805,1.066,3.497,2.028,5.094,2.881,2.167,1.143,4.66,2.097,7.468,2.87,2.815,.773,5.448,1.016,7.896,.705,3.163-.306,6.114-.899,8.845-1.78,2.73-.878,5.312-2.409,7.75-4.589,2.864-2.748,4.79-5.783,5.773-9.109,1.983-5.627,1.954-10.236-.082-13.821-2.04-3.591-5.007-6.237-8.904-7.945-3.901-1.7-8.307-2.648-13.2-2.836-4.902-.185-9.361,.311-13.385,1.489-.431,.437-.859,.869-1.288,1.304-.429,.434-.858,.797-1.287,1.089-1.718,1.738-3.66,2.831-5.817,3.276-2.15,.444-4.244,.426-6.269-.066-2.017-.493-3.858-1.487-5.518-2.993-1.677-1.5-2.87-3.4-3.607-5.703-1.023-2.868-1.508-5.933-1.458-9.174,.051-3.244-.008-6.299-.162-9.181-.157-2.158-.244-4.356-.256-6.588-.019-2.231-.104-4.503-.261-6.802-.003-.432-.007-1.41-.02-2.921-.004-1.513-.053-3.096-.135-4.753-.085-1.651-.164-3.271-.247-4.856-.084-1.583-.123-2.733-.127-3.457-1.308-1.434-2.214-3.08-2.733-4.952-.514-1.866-.672-3.741-.465-5.613,.201-1.875,.771-3.642,1.696-5.303,.925-1.661,2.25-3.079,3.971-4.244,2.437-1.742,5.203-2.619,8.298-2.636,3.097-.02,6.085-.038,8.972-.054,1.73-.013,4.463-.067,8.209-.162,3.744-.092,7.595-.184,11.552-.286,3.961-.097,7.634-.19,11.019-.282,3.378-.092,5.507-.142,6.372-.15,3.745-.164,6.839-.433,9.288-.815,2.444-.374,5.114,.009,7.996,1.143,2.603,.852,4.662,2.277,6.189,4.283,1.525,2.008,2.433,4.2,2.742,6.569,.301,2.382,.027,4.726-.828,7.025-.844,2.32-2.421,4.273-4.715,5.861-3.007,2.183-6.498,3.287-10.456,3.307-3.962,.028-7.6,.053-10.913,.074-4.896,.17-9.761,.237-14.578,.196-4.824-.042-9.688,.023-14.585,.195,.022,3.17,.078,6.303,.168,9.396,.093,3.102,.222,6.232,.383,9.398,3.45-.741,6.973-1.19,10.576-1.358,3.596-.168,7.136,.027,10.595,.579,3.887,.698,7.57,1.755,11.03,3.177,3.471,1.416,6.937,3.195,10.405,5.335,4.192,2.566,7.742,5.856,10.65,9.871,2.898,4.021,5.234,8.329,6.993,12.922,2.192,5.746,3.127,11.395,2.801,16.939-.324,5.556-1.625,10.816-3.897,15.8-2.28,4.984-5.376,9.541-9.316,13.669-3.938,4.124-8.349,7.542-13.228,10.229-4.878,2.699-10.087,4.64-15.623,5.826-5.542,1.183-11.125,1.293-16.745,.319-9.952-1.673-19.405-5.281-28.366-10.846l-.869-.859Z"/><g class="ao"><path class="ax" d="M79.683,22.986s-.376-1.15-.501-3.288c-.032-1.065-.02-2.386,.286-3.903,.317-1.496,.938-3.251,2.269-4.835,1.286-1.595,3.331-2.919,5.642-3.426,.568-.142,1.15-.186,1.737-.282l.891-.114,.801-.051c1.068-.081,2.158-.107,3.268-.159,2.213-.075,4.509-.227,6.839-.25,2.326-.043,4.695-.085,7.063-.125,2.373,.006,4.736,.018,7.066,.023,2.333,.015,4.625,.123,6.846,.174,4.437,.138,8.584,.37,12.132,.662,3.553,.255,6.52,.589,8.586,.845,2.082,.253,3.265,.453,3.265,.453,0,0-1.176,.223-3.248,.5-2.068,.282-5.031,.646-8.574,.949-3.546,.337-7.693,.615-12.12,.809-2.224,.081-4.513,.221-6.842,.255-2.328,.045-4.698,.077-7.067,.119-2.367-.018-4.737-.029-7.064-.041-2.329,.006-4.628-.117-6.837-.162-1.114-.04-2.208-.048-3.277-.119l-.795-.046-.675,.015c-.442,.022-.908-.007-1.332,.05-1.718,.202-3.183,.837-4.326,1.813-1.133,.984-1.946,2.257-2.507,3.486-.517,1.255-.859,2.434-1.078,3.428-.403,2.002-.447,3.218-.447,3.218Z"/></g><g class="bk"><path class="aw" d="M98.773,78.022s.261-.23,.793-.626c.534-.385,1.325-.98,2.409-1.587,1.076-.633,2.419-1.338,4.043-1.99,.803-.366,1.697-.625,2.623-.965,.942-.299,1.954-.538,3.014-.802,2.127-.427,4.486-.816,7.002-.795,.638,.002,1.276,.004,1.926-.003,.648,.053,1.297,.104,1.963,.163,1.331,.05,2.657,.351,4.019,.622,2.699,.578,5.439,1.456,8.066,2.669l.507,.215,.124,.052,.064,.029,.198,.104,.228,.13,.902,.513,1.807,1.032c.587,.285,1.245,.896,1.865,1.341l1.877,1.473c.544,.553,1.056,1.127,1.571,1.694,.501,.582,1.079,1.095,1.48,1.759,.839,1.285,1.777,2.502,2.347,3.919,.322,.692,.676,1.364,.947,2.058,.205,.725,.414,1.442,.618,2.155l.298,1.064,.155,1.091c.093,.719,.195,1.435,.287,2.142,.053,.713,.021,1.425,.036,2.129-.023,.695,.044,1.393-.105,2.067-.243,1.351-.335,2.687-.78,3.914-.186,.619-.367,1.227-.546,1.833-.207,.59-.492,1.149-.742,1.696-.267,.539-.509,1.083-.779,1.599-.318,.484-.633,.962-.942,1.426-.315,.464-.59,.934-.917,1.349-.347,.401-.702,.787-1.03,1.163-.348,.372-.675,.733-1.002,1.08-.349,.318-.723,.601-1.068,.885-.716,.532-1.28,1.146-1.985,1.487-.662,.37-1.283,.714-1.833,1.019-.523,.337-1.074,.487-1.53,.65-.46,.157-.85,.288-1.164,.398-.621,.218-.955,.325-.955,.325,0,0,.293-.195,.839-.563,.535-.388,1.392-.831,2.301-1.613,.907-.794,2.018-1.707,3.037-3.004,.261-.316,.547-.622,.815-.952,.23-.367,.472-.743,.713-1.133,.247-.373,.503-.763,.755-1.159,.244-.407,.419-.864,.641-1.3,.205-.445,.426-.893,.641-1.357,.178-.476,.315-.985,.477-1.487,.141-.503,.355-.993,.479-1.518,.106-.531,.201-1.071,.305-1.614,.29-1.076,.232-2.232,.321-3.379,.023-1.144-.089-2.321-.183-3.503-.425-2.337-1.032-4.725-2.246-6.879-.465-1.145-1.282-2.106-1.975-3.141-.731-1.004-1.696-1.843-2.524-2.768l-1.402-1.137-.688-.58-.351-.297-.444-.27-1.79-1.066-.884-.533-.226-.133-.029-.015c-.035-.029,.254,.136,.12,.061l-.06-.023-.104-.05-.451-.201c-2.352-1.105-4.703-2.126-7.096-2.756-1.192-.323-2.368-.635-3.548-.813-.592-.107-1.166-.22-1.743-.328-.587-.059-1.158-.109-1.727-.162-2.276-.226-4.463-.173-6.485-.065-2.004,.2-3.864,.44-5.497,.8-1.626,.36-3.048,.727-4.192,1.113-2.318,.733-3.593,1.347-3.593,1.347Z"/></g></g><g><g><path class="an" d="M62.177,121.268c2.199,2.493,3.7,5.094,4.509,7.806,.803,2.714,.66,5.279-.441,7.697-1.098,2.419-6.863,7.618-10.524,8.206-7.039,1.173-10.917-1.975-18.395-2.048-7.478-.076-14.515-.184-21.113-.331-4.547,0-7.662-1.394-9.345-4.176-1.69-2.784-2.201-5.83-1.539-9.128,.656-3.299,2.451-6.303,5.386-9.016,2.931-2.712,6.671-4.069,11.217-4.069V36.157c-1.907,.442-3.816,.33-5.719-.33-1.907-.66-3.595-1.649-5.059-2.97-1.467-1.318-2.602-2.892-3.409-4.727-.807-1.832-1.063-3.7-.767-5.609,.439-3.223,2.089-6.521,4.948-9.897,2.859-3.37,6.191-6.158,10.007-8.357,3.808-2.199,7.732-3.519,11.763-3.959,4.032-.441,7.513,.587,10.448,3.08,1.173,.879,2.234,2.126,3.19,3.738,.951,1.615,1.429,3.08,1.429,4.4,.143,17.592,.18,35.077,.11,52.451-.074,17.373-.11,34.786-.11,52.231h5.717c2.931,.879,5.496,2.567,7.697,5.059Z"/><path class="at" d="M57.128,125.332c2.199,2.495,3.701,5.095,4.511,7.808,.803,2.714,.656,5.279-.443,7.698-1.098,2.418-3.483,3.92-7.147,4.508-7.037,1.172-14.295,1.721-21.773,1.647-7.478-.076-14.515-.184-21.111-.33-4.549,0-7.664-1.394-9.348-4.176-1.688-2.783-2.201-5.83-1.539-9.128,.66-3.298,2.453-6.302,5.386-9.018,2.931-2.711,6.671-4.069,11.217-4.069V40.222c-1.909,.441-3.814,.329-5.717-.33-1.909-.659-3.597-1.65-5.06-2.969-1.469-1.32-2.604-2.893-3.409-4.729-.809-1.831-1.067-3.7-.77-5.608,.441-3.223,2.087-6.522,4.948-9.897,2.859-3.371,6.193-6.159,10.007-8.357,3.81-2.2,7.73-3.52,11.763-3.96,4.032-.439,7.513,.587,10.448,3.08,1.171,.88,2.234,2.127,3.187,3.738,.954,1.618,1.429,3.08,1.429,4.4,.147,17.594,.184,35.077,.112,52.453-.076,17.373-.112,34.784-.112,52.229h5.721c2.929,.879,5.498,2.569,7.695,5.059Z"/></g><g class="bi"><path class="ay" d="M5.05,28.13s.085-.569,.364-1.508c.273-.943,.747-2.253,1.456-3.756,1.413-3.001,3.918-6.718,7.285-9.749,.856-.735,1.727-1.467,2.668-2.093,.918-.65,1.889-1.212,2.869-1.688,1.951-.962,3.967-1.534,5.728-1.688,.883-.072,1.69-.067,2.399,.023,.705,.031,1.311,.225,1.791,.335,.484,.12,.846,.314,1.094,.401,.24,.108,.368,.165,.368,.165,0,0-.534,.147-1.465,.403-.449,.156-.982,.308-1.564,.548-.587,.211-1.216,.531-1.882,.852-2.67,1.333-5.765,3.686-8.756,6.375-2.989,2.679-5.918,5.6-8.264,7.772-1.175,1.082-2.186,1.989-2.917,2.62-.726,.633-1.177,.987-1.177,.987Z"/></g><g class="bm"><path class="b`" d="M20.408,43.941s.211,1.196,.482,3.285c.273,2.09,.627,5.076,.912,8.659,.153,1.791,.317,3.732,.42,5.783,.12,2.053,.271,4.218,.329,6.458,.062,2.238,.201,4.553,.211,6.902,.029,2.352,.056,4.74,.085,7.128-.025,2.389-.048,4.778-.072,7.129-.023,2.351-.151,4.665-.219,6.904-.168,4.478-.43,8.659-.747,12.241-.285,3.583-.641,6.569-.914,8.659-.273,2.089-.486,3.284-.486,3.284,0,0-.213-1.195-.484-3.284-.275-2.09-.631-5.076-.916-8.659-.314-3.583-.577-7.763-.747-12.241-.068-2.238-.196-4.553-.219-6.904-.023-2.351-.048-4.74-.07-7.129,.029-2.388,.056-4.776,.083-7.128,.01-2.35,.149-4.664,.211-6.902,.06-2.24,.211-4.405,.329-6.458,.103-2.052,.267-3.992,.42-5.783,.286-3.583,.639-6.569,.912-8.659,.271-2.089,.482-3.285,.482-3.285Z"/></g></g></g></g></g></g></svg>