<?xml version="1.0" encoding="UTF-8"?><svg xmlns="http://www.w3.org/2000/svg" xmlns:xlink="http://www.w3.org/1999/xlink" viewBox="0 0 171.161 147"><defs><style>.al{mask:url(#ag);}.am{mask:url(#h);}.an{mask:url(#e);}.ao{fill:url(#k);}.ao,.ap,.aq,.ar{mix-blend-mode:multiply;}.as{fill:url(#u);}.at{fill:#2d853e;}.au{filter:url(#af);}.av{isolation:isolate;}.aw{fill:url(#t);}.aw,.ax,.ay,.b`{mix-blend-mode:screen;}.ba{filter:url(#j);}.bb{filter:url(#x);}.ax{fill:url(#l);}.bc{filter:url(#ai);}.bd{mask:url(#y);}.be{filter:url(#aa);}.ap{fill:url(#ab);}.ay{fill:url(#ac);}.bf{fill:url(#d);}.bg{filter:url(#r);}.aq{fill:url(#aj);}.bh{mask:url(#p);}.ar{fill:url(#s);}.bi{mask:url(#v);}.bj{filter:url(#o);}.bk{mask:url(#m);}.b`{fill:url(#ak);}.bl{filter:url(#g);}.bm{mask:url(#ad);}</style><linearGradient id="d" x1="3138.492" y1="-85.937" x2="3138.492" y2="364.383" gradientTransform="translate(-2984.278 600.916) rotate(-12.569)" gradientUnits="userSpaceOnUse"><stop offset="0" stop-color="#dae5a7"/><stop offset=".295" stop-color="#b8d26e"/><stop offset="1" stop-color="#58ab32"/></linearGradient><filter id="g" x="72.537" y="25.678" width="22.189" height="80.924" color-interpolation-filters="sRGB" filterUnits="userSpaceOnUse"><feFlood flood-color="#fff" result="bg"/><feBlend in="SourceGraphic" in2="bg"/></filter><filter id="j" x="72.537" y="-12728.879" width="22.189" height="32766" color-interpolation-filters="sRGB" filterUnits="userSpaceOnUse"><feFlood flood-color="#fff" result="bg"/><feBlend in="SourceGraphic" in2="bg"/></filter><mask id="h" x="72.537" y="-12728.879" width="22.189" height="32766" maskUnits="userSpaceOnUse"><g class="ba"/></mask><linearGradient id="k" x1="3094.886" y1="146.19" x2="3130.452" y2="146.19" gradientTransform="translate(-2984.278 600.916) rotate(-12.569)" gradientUnits="userSpaceOnUse"><stop offset=".001" stop-color="#fff"/><stop offset="1" stop-color="#000"/></linearGradient><mask id="e" x="72.537" y="25.678" width="22.189" height="80.924" maskUnits="userSpaceOnUse"><g class="bl"><g class="am"><path class="ao" d="M94.726,25.678s-.592,1.21-1.62,3.318c-1.008,2.107-2.436,5.126-4.027,8.762-.8,1.82-1.6,3.818-2.48,5.9-.849,2.112-1.676,4.348-2.531,6.655-.879,2.296-1.596,4.739-2.411,7.176-.777,2.465-1.481,4.975-2.081,7.514-.623,2.529-1.213,5.078-1.653,7.599-.453,2.518-.86,5.016-1.119,7.446-.243,2.422-.452,4.774-.527,7.017-.085,1.125-.029,2.204-.057,3.27-.039,1.062-.011,2.079,.027,3.062,.036,1.97,.218,3.768,.315,5.387,.173,1.609,.344,3.009,.464,4.161,.381,2.3,.553,3.654,.553,3.654,0,0-.567-1.219-1.459-3.422-.409-1.1-.883-2.471-1.351-4.053-.414-1.606-.947-3.415-1.248-5.433-.397-2.011-.664-4.229-.814-6.565-.159-2.352-.231-4.833-.103-7.401,.146-2.562,.313-5.214,.752-7.88,.368-2.677,.948-5.346,1.584-8.004,.683-2.637,1.484-5.245,2.343-7.781,.861-2.543,1.871-4.983,2.894-7.312,.994-2.345,2.125-4.527,3.207-6.594,1.086-2.059,2.201-3.95,3.284-5.673,2.122-3.453,4.168-6.156,5.632-7.992,1.48-1.842,2.426-2.813,2.426-2.813Z"/></g></g></mask><linearGradient id="l" x1="3094.886" y1="146.19" x2="3130.452" y2="146.19" gradientTransform="translate(-2984.278 600.916) rotate(-12.569)" gradientUnits="userSpaceOnUse"><stop offset=".001" stop-color="#fff"/><stop offset="1" stop-color="#fff"/></linearGradient><filter id="o" x="120.433" y="77.954" width="24.483" height="16.877" color-interpolation-filters="sRGB" filterUnits="userSpaceOnUse"><feFlood flood-color="#fff" result="bg"/><feBlend in="SourceGraphic" in2="bg"/></filter><filter id="r" x="120.433" y="-12728.879" width="24.483" height="32766" color-interpolation-filters="sRGB" filterUnits="userSpaceOnUse"><feFlood flood-color="#fff" result="bg"/><feBlend in="SourceGraphic" in2="bg"/></filter><mask id="p" x="120.433" y="-12728.879" width="24.483" height="32766" maskUnits="userSpaceOnUse"><g class="bg"/></mask><linearGradient id="s" x1="3136.237" y1="189.493" x2="3179.208" y2="160.846" xlink:href="#k"/><mask id="m" x="120.433" y="77.954" width="24.483" height="16.877" maskUnits="userSpaceOnUse"><g class="bj"><g class="bh"><path class="ar" d="M120.433,81.286s.353-.412,1.117-.942c.385-.275,.867-.562,1.446-.861,.587-.28,1.261-.627,2.048-.843,.765-.275,1.643-.437,2.588-.58,.477-.074,.97-.049,1.464-.094,.516-.028,1.03-.007,1.554,.07,.531,.053,1.078,.12,1.616,.216,.531,.14,1.075,.284,1.608,.461,1.101,.284,2.078,.928,3.119,1.429,.886,.699,1.881,1.308,2.622,2.114,.393,.394,.754,.805,1.106,1.201,.362,.408,.708,.802,.963,1.257,.541,.867,1.073,1.701,1.484,2.515,.336,.861,.647,1.677,.905,2.421,.283,.731,.414,1.455,.515,2.104,.111,.618,.172,1.178,.229,1.645,.095,.907,.101,1.433,.101,1.433,0,0-.395-.385-.977-1.078-.3-.349-.656-.755-1.02-1.241-.353-.482-.783-1.015-1.286-1.55-.481-.542-.98-1.136-1.487-1.765-.538-.596-1.154-1.155-1.727-1.789-.549-.646-1.298-1.1-1.892-1.706-.646-.572-1.396-.976-2.072-1.511l-1.1-.591c-.363-.208-.72-.438-1.117-.56-.393-.154-.769-.32-1.144-.492-.39-.12-.785-.225-1.171-.36-.77-.276-1.567-.374-2.321-.549-.771-.097-1.514-.242-2.208-.264-1.411-.143-2.65-.13-3.533-.124-.894,0-1.426,.036-1.426,.036Z"/></g></g></mask><linearGradient id="t" x1="3136.237" y1="189.493" x2="3179.208" y2="160.846" xlink:href="#l"/><linearGradient id="u" x1="31.118" y1="-181.994" x2="31.118" y2="278.493" gradientTransform="matrix(1, 0, 0, 1, 0, 0)" xlink:href="#d"/><filter id="x" x="5.057" y="7.399" width="26.061" height="20.561" color-interpolation-filters="sRGB" filterUnits="userSpaceOnUse"><feFlood flood-color="#fff" result="bg"/><feBlend in="SourceGraphic" in2="bg"/></filter><filter id="aa" x="5.057" y="-12728.879" width="26.061" height="32766" color-interpolation-filters="sRGB" filterUnits="userSpaceOnUse"><feFlood flood-color="#fff" result="bg"/><feBlend in="SourceGraphic" in2="bg"/></filter><mask id="y" x="5.057" y="-12728.879" width="26.061" height="32766" maskUnits="userSpaceOnUse"><g class="be"/></mask><linearGradient id="ab" x1="5.057" y1="17.679" x2="31.118" y2="17.679" gradientTransform="matrix(1, 0, 0, 1, 0, 0)" xlink:href="#k"/><mask id="v" x="5.057" y="7.399" width="26.061" height="20.561" maskUnits="userSpaceOnUse"><g class="bb"><g class="bd"><path class="ap" d="M5.057,27.96s.085-.57,.365-1.51c.274-.945,.748-2.256,1.458-3.762,1.415-3.006,3.923-6.728,7.296-9.763,.858-.736,1.73-1.469,2.672-2.096,.92-.65,1.891-1.214,2.873-1.69,1.953-.963,3.973-1.536,5.736-1.69,.884-.073,1.692-.067,2.403,.023,.706,.031,1.313,.226,1.794,.336,.485,.12,.847,.315,1.096,.402,.24,.108,.369,.166,.369,.166,0,0-.535,.147-1.467,.404-.449,.156-.984,.309-1.566,.549-.588,.211-1.218,.531-1.885,.853-2.674,1.335-5.773,3.691-8.768,6.384-2.993,2.683-5.926,5.608-8.275,7.783-1.177,1.083-2.189,1.992-2.921,2.623-.727,.634-1.179,.988-1.179,.988Z"/></g></g></mask><linearGradient id="ac" x1="5.057" y1="17.679" x2="31.118" y2="17.679" gradientTransform="matrix(1, 0, 0, 1, 0, 0)" xlink:href="#l"/><filter id="af" x="17.997" y="43.794" width="4.882" height="76.541" color-interpolation-filters="sRGB" filterUnits="userSpaceOnUse"><feFlood flood-color="#fff" result="bg"/><feBlend in="SourceGraphic" in2="bg"/></filter><filter id="ai" x="17.997" y="-12728.879" width="4.882" height="32766" color-interpolation-filters="sRGB" filterUnits="userSpaceOnUse"><feFlood flood-color="#fff" result="bg"/><feBlend in="SourceGraphic" in2="bg"/></filter><mask id="ag" x="17.997" y="-12728.879" width="4.882" height="32766" maskUnits="userSpaceOnUse"><g class="bc"/></mask><linearGradient id="aj" x1="17.997" y1="82.065" x2="22.88" y2="82.065" gradientTransform="matrix(1, 0, 0, 1, 0, 0)" xlink:href="#k"/><mask id="ad" x="17.997" y="43.794" width="4.882" height="76.541" maskUnits="userSpaceOnUse"><g class="au"><g class="al"><path class="aq" d="M20.437,43.794s.211,1.197,.483,3.289c.273,2.093,.628,5.083,.913,8.671,.153,1.794,.317,3.737,.421,5.792,.12,2.056,.271,4.224,.329,6.467,.062,2.241,.201,4.559,.211,6.912,.029,2.355,.056,4.747,.085,7.138-.025,2.393-.048,4.785-.073,7.139-.023,2.354-.151,4.672-.22,6.913-.168,4.485-.431,8.671-.748,12.259-.286,3.588-.642,6.578-.916,8.671-.273,2.092-.487,3.288-.487,3.288,0,0-.213-1.196-.485-3.288-.276-2.093-.632-5.083-.918-8.671-.315-3.588-.578-7.774-.748-12.259-.068-2.241-.197-4.559-.22-6.913-.023-2.354-.048-4.747-.07-7.139,.029-2.391,.056-4.783,.083-7.138,.01-2.353,.149-4.671,.211-6.912,.06-2.243,.211-4.411,.329-6.467,.104-2.055,.267-3.998,.42-5.792,.286-3.588,.64-6.578,.914-8.671,.271-2.092,.483-3.289,.483-3.289Z"/></g></g></mask><linearGradient id="ak" x1="17.997" y1="82.065" x2="22.88" y2="82.065" gradientTransform="matrix(1, 0, 0, 1, 0, 0)" xlink:href="#l"/></defs><g class="av"><g id="a"/><g id="b"><g id="c"><g><g><g><path class="at" d="M121.626,20.727c-4.484,6.296-8.205,12.826-11.19,19.589-2.982,6.774-5.553,13.861-7.726,21.264,2.554-1.752,5.233-3.236,8.048-4.447,2.824-1.218,5.857-2.116,9.125-2.694,4.538-.715,8.745-1.002,12.603-.825,3.873,.169,8.058,.843,12.59,2.039,5.987,1.762,10.913,4.894,14.784,9.394,3.875,4.508,6.743,9.644,8.614,15.399,1.881,5.764,2.769,11.738,2.683,17.929-.099,6.211-1.032,11.858-2.837,16.975-2.444,6.869-6.658,12.373-12.658,16.501-5.988,4.128-12.334,7.012-19.032,8.652-6.933,1.839-14.025,2.023-21.277,.553-8.287-1.534-15.672-5.328-22.162-11.387-6.845-6.271-11.72-13.456-14.638-21.562-2.903-8.108-4.446-16.472-4.607-25.119-.164-8.635,.837-17.352,2.996-26.161,2.163-8.781,4.937-17.094,8.345-24.909,1.917-4.548,4.142-9.268,6.658-14.179,2.52-4.9,5.483-9.2,8.919-12.911C103.7,1.701,106.805,.088,110.161,.007c3.368-.097,6.283,.799,8.764,2.675,2.473,1.881,4.126,4.455,4.923,7.727,.8,3.283,.066,6.716-2.222,10.318Zm-16.583,77.763c-.59,2.245-.132,4.428,1.749,7.713-.172-.136-.335-.277-.507-.413,6.63,8.448,17.943,11.192,27.9,7.896,2.746-.899,5.18-2.544,7.296-4.935,1.669-1.694,2.765-3.894,3.274-6.574,.505-2.685,.514-5.409,.043-8.181-.472-2.765-1.417-5.341-2.832-7.752-1.411-2.402-3.187-4.096-5.33-5.098-2.299-1.1-4.653-1.606-7.06-1.508-2.405,.093-4.774,.549-7.097,1.351-3.686,1.264-6.722,3.128-9.133,5.569-1.844,1.59-3.458,3.414-4.832,5.495-1.749,2.63-2.981,4.555-3.472,6.436Z"/><path class="bf" d="M117.666,25.686c-4.484,6.299-8.207,12.832-11.194,19.601-2.966,6.765-5.548,13.846-7.726,21.24,2.559-1.747,5.234-3.218,8.06-4.443,2.822-1.212,5.847-2.106,9.11-2.689,4.543-.707,8.749-.994,12.61-.826,3.866,.169,8.06,.86,12.594,2.05,5.978,1.749,10.91,4.883,14.784,9.394,3.87,4.503,6.74,9.633,8.62,15.401,1.869,5.758,2.757,11.734,2.67,17.929-.089,6.2-1.033,11.858-2.835,16.965-2.442,6.863-6.651,12.372-12.651,16.497-5.994,4.127-12.335,7.018-19.028,8.66-6.948,1.844-14.04,2.026-21.288,.547-8.286-1.537-15.672-5.328-22.172-11.377-6.839-6.269-11.719-13.462-14.631-21.563-2.903-8.108-4.445-16.475-4.607-25.116-.154-8.648,.842-17.367,3.004-26.165,2.15-8.782,4.928-17.087,8.346-24.912,1.92-4.554,4.143-9.271,6.65-14.175,2.519-4.897,5.482-9.197,8.93-12.904,2.825-3.134,5.931-4.75,9.298-4.844,3.357-.084,6.279,.814,8.755,2.683,2.476,1.872,4.118,4.459,4.92,7.736,.809,3.279,.068,6.713-2.219,10.309Zm-16.881,77.688c-.164,.621-.564,1.446-1.21,2.482,.222,.385,.579,.962,1.046,1.743,.472,.789,.912,1.485,1.356,2.126,.437,.642,.726,1.091,.853,1.353,.133,.261-.088,.093-.664-.511,1.247,1.635,2.908,3.136,4.981,4.517,2.08,1.377,3.998,2.456,5.792,3.224,1.311,.6,2.711,1.103,4.2,1.494,1.487,.417,3.031,.584,4.636,.513,2.893-.206,5.712-.755,8.448-1.664,2.746-.899,5.174-2.546,7.295-4.928,1.677-1.701,2.773-3.898,3.277-6.583,.498-2.687,.509-5.418,.049-8.179-.467-2.76-1.415-5.347-2.826-7.75-1.425-2.403-3.201-4.097-5.331-5.092-2.31-1.107-4.663-1.616-7.069-1.521-2.413,.097-4.781,.548-7.096,1.348-3.695,1.271-6.732,3.139-9.128,5.573-1.849,1.588-3.461,3.423-4.834,5.501-1.383,2.068-2.643,4.191-3.774,6.354Z"/></g><g class="an"><path class="ax" d="M94.726,25.678s-.592,1.21-1.62,3.318c-1.008,2.107-2.436,5.126-4.027,8.762-.8,1.82-1.6,3.818-2.48,5.9-.849,2.112-1.676,4.348-2.531,6.655-.879,2.296-1.596,4.739-2.411,7.176-.777,2.465-1.481,4.975-2.081,7.514-.623,2.529-1.213,5.078-1.653,7.599-.453,2.518-.86,5.016-1.119,7.446-.243,2.422-.452,4.774-.527,7.017-.085,1.125-.029,2.204-.057,3.27-.039,1.062-.011,2.079,.027,3.062,.036,1.97,.218,3.768,.315,5.387,.173,1.609,.344,3.009,.464,4.161,.381,2.3,.553,3.654,.553,3.654,0,0-.567-1.219-1.459-3.422-.409-1.1-.883-2.471-1.351-4.053-.414-1.606-.947-3.415-1.248-5.433-.397-2.011-.664-4.229-.814-6.565-.159-2.352-.231-4.833-.103-7.401,.146-2.562,.313-5.214,.752-7.88,.368-2.677,.948-5.346,1.584-8.004,.683-2.637,1.484-5.245,2.343-7.781,.861-2.543,1.871-4.983,2.894-7.312,.994-2.345,2.125-4.527,3.207-6.594,1.086-2.059,2.201-3.95,3.284-5.673,2.122-3.453,4.168-6.156,5.632-7.992,1.48-1.842,2.426-2.813,2.426-2.813Z"/></g><g class="bk"><path class="aw" d="M120.433,81.286s.353-.412,1.117-.942c.385-.275,.867-.562,1.446-.861,.587-.28,1.261-.627,2.048-.843,.765-.275,1.643-.437,2.588-.58,.477-.074,.97-.049,1.464-.094,.516-.028,1.03-.007,1.554,.07,.531,.053,1.078,.12,1.616,.216,.531,.14,1.075,.284,1.608,.461,1.101,.284,2.078,.928,3.119,1.429,.886,.699,1.881,1.308,2.622,2.114,.393,.394,.754,.805,1.106,1.201,.362,.408,.708,.802,.963,1.257,.541,.867,1.073,1.701,1.484,2.515,.336,.861,.647,1.677,.905,2.421,.283,.731,.414,1.455,.515,2.104,.111,.618,.172,1.178,.229,1.645,.095,.907,.101,1.433,.101,1.433,0,0-.395-.385-.977-1.078-.3-.349-.656-.755-1.02-1.241-.353-.482-.783-1.015-1.286-1.55-.481-.542-.98-1.136-1.487-1.765-.538-.596-1.154-1.155-1.727-1.789-.549-.646-1.298-1.1-1.892-1.706-.646-.572-1.396-.976-2.072-1.511l-1.1-.591c-.363-.208-.72-.438-1.117-.56-.393-.154-.769-.32-1.144-.492-.39-.12-.785-.225-1.171-.36-.77-.276-1.567-.374-2.321-.549-.771-.097-1.514-.242-2.208-.264-1.411-.143-2.65-.13-3.533-.124-.894,0-1.426,.036-1.426,.036Z"/></g></g><g><g><path class="at" d="M62.266,121.231c2.202,2.496,3.706,5.101,4.516,7.818,.804,2.718,.661,5.286-.441,7.708-1.1,2.423-6.873,7.629-10.539,8.217-7.049,1.174-10.933-1.978-18.421-2.051-7.488-.077-14.535-.184-21.143-.331-4.553,0-7.673-1.396-9.359-4.182-1.692-2.788-2.204-5.838-1.541-9.141,.657-3.304,2.455-6.312,5.394-9.029,2.935-2.716,6.68-4.075,11.233-4.075V35.998c-1.91,.442-3.822,.33-5.728-.33-1.91-.661-3.6-1.651-5.067-2.975-1.469-1.319-2.606-2.896-3.414-4.733-.808-1.834-1.065-3.706-.768-5.617,.439-3.227,2.092-6.53,4.955-9.911,2.863-3.374,6.2-6.167,10.022-8.369C25.777,1.862,29.707,.54,33.744,.099c4.037-.441,7.524,.588,10.463,3.084,1.174,.88,2.237,2.129,3.194,3.743,.953,1.618,1.431,3.084,1.431,4.406,.143,17.618,.18,35.128,.11,52.526-.075,17.398-.11,34.835-.11,52.306h5.725c2.935,.88,5.504,2.571,7.708,5.067Z"/><path class="as" d="M57.209,125.301c2.202,2.498,3.706,5.102,4.518,7.819,.804,2.718,.657,5.286-.443,7.709-1.1,2.422-3.488,3.925-7.157,4.515-7.047,1.173-14.316,1.723-21.804,1.65-7.488-.076-14.535-.184-21.141-.33-4.555,0-7.675-1.396-9.361-4.182-1.69-2.787-2.204-5.838-1.541-9.141,.661-3.303,2.457-6.311,5.394-9.031,2.935-2.715,6.68-4.074,11.233-4.074V40.07c-1.912,.441-3.82,.329-5.725-.33-1.912-.66-3.602-1.652-5.067-2.974-1.471-1.322-2.608-2.897-3.414-4.735-.81-1.833-1.069-3.706-.771-5.616,.441-3.227,2.09-6.531,4.955-9.911,2.863-3.375,6.202-6.168,10.022-8.369,3.816-2.203,7.741-3.525,11.78-3.966,4.037-.439,7.524,.588,10.463,3.084,1.172,.881,2.237,2.13,3.192,3.743,.955,1.62,1.431,3.084,1.431,4.406,.147,17.619,.184,35.128,.112,52.528-.077,17.398-.112,34.833-.112,52.304h5.73c2.933,.88,5.506,2.573,7.706,5.067Z"/></g><g class="bi"><path class="ay" d="M5.057,27.96s.085-.57,.365-1.51c.274-.945,.748-2.256,1.458-3.762,1.415-3.006,3.923-6.728,7.296-9.763,.858-.736,1.73-1.469,2.672-2.096,.92-.65,1.891-1.214,2.873-1.69,1.953-.963,3.973-1.536,5.736-1.69,.884-.073,1.692-.067,2.403,.023,.706,.031,1.313,.226,1.794,.336,.485,.12,.847,.315,1.096,.402,.24,.108,.369,.166,.369,.166,0,0-.535,.147-1.467,.404-.449,.156-.984,.309-1.566,.549-.588,.211-1.218,.531-1.885,.853-2.674,1.335-5.773,3.691-8.768,6.384-2.993,2.683-5.926,5.608-8.275,7.783-1.177,1.083-2.189,1.992-2.921,2.623-.727,.634-1.179,.988-1.179,.988Z"/></g><g class="bm"><path class="b`" d="M20.437,43.794s.211,1.197,.483,3.289c.273,2.093,.628,5.083,.913,8.671,.153,1.794,.317,3.737,.421,5.792,.12,2.056,.271,4.224,.329,6.467,.062,2.241,.201,4.559,.211,6.912,.029,2.355,.056,4.747,.085,7.138-.025,2.393-.048,4.785-.073,7.139-.023,2.354-.151,4.672-.22,6.913-.168,4.485-.431,8.671-.748,12.259-.286,3.588-.642,6.578-.916,8.671-.273,2.092-.487,3.288-.487,3.288,0,0-.213-1.196-.485-3.288-.276-2.093-.632-5.083-.918-8.671-.315-3.588-.578-7.774-.748-12.259-.068-2.241-.197-4.559-.22-6.913-.023-2.354-.048-4.747-.07-7.139,.029-2.391,.056-4.783,.083-7.138,.01-2.353,.149-4.671,.211-6.912,.06-2.243,.211-4.411,.329-6.467,.104-2.055,.267-3.998,.42-5.792,.286-3.588,.64-6.578,.914-8.671,.271-2.092,.483-3.289,.483-3.289Z"/></g></g></g></g></g></g></svg>