<?xml version="1.0" encoding="UTF-8"?><svg xmlns="http://www.w3.org/2000/svg" xmlns:xlink="http://www.w3.org/1999/xlink" viewBox="0 0 183.516 147"><defs><style>.an{filter:url(#k);}.ao{fill:url(#u);}.ao,.ap,.aq,.ar{mix-blend-mode:screen;}.as{mask:url(#af);}.at{filter:url(#ah);}.au{filter:url(#ac);}.av{mask:url(#f);}.aw{mask:url(#n);}.ax{isolation:isolate;}.ay{fill:url(#v);}.b`{fill:url(#l);}.b`,.ba,.bb,.bc{mix-blend-mode:multiply;}.ap{fill:url(#ae);}.bd{mask:url(#ai);}.be{filter:url(#s);}.bf{filter:url(#p);}.ba{fill:url(#t);}.bg{filter:url(#ak);}.bh{filter:url(#a`);}.bb{fill:url(#ad);}.bi{filter:url(#h);}.bj{mask:url(#x);}.aq{fill:url(#m);}.bk{mask:url(#i);}.bc{fill:url(#al);}.bl{fill:url(#d);}.bm{fill:url(#e);}.bn{mask:url(#q);}.bo{mask:url(#aa);}.ar{fill:url(#am);}.bp{fill:url(#w);}</style><linearGradient id="d" x1="-2015.679" y1="2209.24" x2="-2227.693" y2="2328.599" gradientTransform="translate(2291.637 -2194.322) rotate(.677)" gradientUnits="userSpaceOnUse"><stop offset="0" stop-color="#fecc00"/><stop offset="1" stop-color="#c76b43"/></linearGradient><linearGradient id="e" x1="-2143.03" y1="2039.24" x2="-2143.03" y2="2492.75" gradientTransform="translate(2291.637 -2194.322) rotate(.677)" gradientUnits="userSpaceOnUse"><stop offset="0" stop-color="#ffeba9"/><stop offset=".5" stop-color="#fecc00"/><stop offset="1" stop-color="#f8ae00"/></linearGradient><filter id="h" x="77.228" y="8.537" width="80.584" height="4.84" color-interpolation-filters="sRGB" filterUnits="userSpaceOnUse"><feFlood flood-color="#fff" result="bg"/><feBlend in="SourceGraphic" in2="bg"/></filter><filter id="k" x="77.228" y="-12733.747" width="80.584" height="32766" color-interpolation-filters="sRGB" filterUnits="userSpaceOnUse"><feFlood flood-color="#fff" result="bg"/><feBlend in="SourceGraphic" in2="bg"/></filter><mask id="i" x="77.228" y="-12733.747" width="80.584" height="32766" maskUnits="userSpaceOnUse"><g class="an"/></mask><linearGradient id="l" x1="-2188.105" y1="2230.726" x2="-2107.519" y2="2230.726" gradientTransform="translate(2291.637 -2194.322) rotate(.677)" gradientUnits="userSpaceOnUse"><stop offset=".001" stop-color="#fff"/><stop offset="1" stop-color="#000"/></linearGradient><mask id="f" x="77.228" y="8.537" width="80.584" height="4.84" maskUnits="userSpaceOnUse"><g class="bi"><g class="bk"><path class="b`" d="M77.228,10.478s1.259-.198,3.472-.443c2.2-.242,5.357-.552,9.132-.791,1.9-.124,3.943-.261,6.11-.339,2.16-.092,4.448-.216,6.817-.247,2.351-.026,4.794-.141,7.27-.118,2.489,.006,5.005,.008,7.526,.006,2.511,.063,5.033,.106,7.512,.164,2.476,.052,4.913,.213,7.271,.302,4.715,.218,9.125,.532,12.903,.888,3.775,.322,6.911,.715,9.114,1.011,2.207,.29,3.456,.517,3.456,.517,0,0-1.256,.19-3.456,.431-2.219,.247-5.37,.569-9.147,.805-3.782,.267-8.195,.466-12.915,.584-2.361,.035-4.811,.135-7.286,.129-2.477-.011-4.999-.011-7.507-.026-2.534-.052-5.046-.118-7.528-.166-2.479-.029-4.907-.201-7.267-.293-2.371-.086-4.646-.267-6.804-.402-2.166-.135-4.219-.319-6.1-.489-3.774-.333-6.922-.71-9.119-1.008-2.196-.296-3.455-.514-3.455-.514Z"/></g></g></mask><linearGradient id="m" x1="-2188.105" y1="2230.726" x2="-2107.519" y2="2230.726" gradientTransform="translate(2291.637 -2194.322) rotate(.677)" gradientUnits="userSpaceOnUse"><stop offset=".001" stop-color="#fff"/><stop offset="1" stop-color="#fff"/></linearGradient><filter id="p" x="103.259" y="53.372" width="26.702" height="75.308" color-interpolation-filters="sRGB" filterUnits="userSpaceOnUse"><feFlood flood-color="#fff" result="bg"/><feBlend in="SourceGraphic" in2="bg"/></filter><filter id="s" x="103.259" y="-12733.747" width="26.702" height="32766" color-interpolation-filters="sRGB" filterUnits="userSpaceOnUse"><feFlood flood-color="#fff" result="bg"/><feBlend in="SourceGraphic" in2="bg"/></filter><mask id="q" x="103.259" y="-12733.747" width="26.702" height="32766" maskUnits="userSpaceOnUse"><g class="be"/></mask><linearGradient id="t" x1="-2160.75" y1="2310.805" x2="-2134.87" y2="2310.805" xlink:href="#l"/><mask id="n" x="103.259" y="53.372" width="26.702" height="75.308" maskUnits="userSpaceOnUse"><g class="bf"><g class="bn"><path class="ba" d="M129.961,53.372s-.452,1.193-1.247,3.254c-.831,2.061-1.963,4.984-3.398,8.464-1.406,3.483-3.039,7.544-4.791,11.901-.92,2.156-1.716,4.429-2.651,6.697-.95,2.268-1.776,4.61-2.663,6.932-.875,2.331-1.737,4.659-2.584,6.947-.749,2.325-1.648,4.564-2.361,6.774-.659,2.23-1.46,4.351-2.073,6.386-.566,2.058-1.198,3.983-1.733,5.774-.437,1.814-.891,3.463-1.297,4.935-.441,1.474-.641,2.785-.903,3.857-.498,2.15-.829,3.386-.829,3.386,0,0-.085-1.262-.127-3.486,.01-1.101-.131-2.489,.036-4.024,.106-1.541,.22-3.297,.409-5.202,.25-1.9,.575-3.938,.954-6.096,.397-2.153,.923-4.406,1.489-6.723,.612-2.311,1.285-4.673,2.009-7.076,.799-2.368,1.622-4.774,2.503-7.151,.966-2.351,1.86-4.731,2.884-7.007,.961-2.302,2.035-4.509,3.072-6.645,1.013-2.156,2.119-4.168,3.148-6.076,1.007-1.937,2.097-3.696,3.042-5.326,1.964-3.256,3.722-5.892,5.014-7.691,1.285-1.814,2.096-2.805,2.096-2.805Z"/></g></g></mask><linearGradient id="u" x1="-2160.75" y1="2310.805" x2="-2134.87" y2="2310.805" xlink:href="#m"/><linearGradient id="v" x1="36.174" y1="-341.302" x2="36.174" y2="329.887" gradientTransform="matrix(1, 0, 0, 1, 0, 0)" xlink:href="#d"/><linearGradient id="w" x1="31.118" y1="-181.994" x2="31.118" y2="278.493" gradientTransform="matrix(1, 0, 0, 1, 0, 0)" xlink:href="#e"/><filter id="a`" x="5.057" y="7.399" width="26.061" height="20.561" color-interpolation-filters="sRGB" filterUnits="userSpaceOnUse"><feFlood flood-color="#fff" result="bg"/><feBlend in="SourceGraphic" in2="bg"/></filter><filter id="ac" x="5.057" y="-12733.747" width="26.061" height="32766" color-interpolation-filters="sRGB" filterUnits="userSpaceOnUse"><feFlood flood-color="#fff" result="bg"/><feBlend in="SourceGraphic" in2="bg"/></filter><mask id="aa" x="5.057" y="-12733.747" width="26.061" height="32766" maskUnits="userSpaceOnUse"><g class="au"/></mask><linearGradient id="ad" x1="5.057" y1="17.679" x2="31.118" y2="17.679" gradientTransform="matrix(1, 0, 0, 1, 0, 0)" xlink:href="#l"/><mask id="x" x="5.057" y="7.399" width="26.061" height="20.561" maskUnits="userSpaceOnUse"><g class="bh"><g class="bo"><path class="bb" d="M5.057,27.96s.085-.57,.365-1.51c.274-.945,.748-2.256,1.458-3.762,1.415-3.006,3.923-6.728,7.296-9.763,.858-.736,1.73-1.469,2.672-2.096,.92-.65,1.891-1.214,2.873-1.69,1.953-.963,3.973-1.536,5.736-1.69,.884-.073,1.692-.067,2.403,.023,.706,.031,1.313,.226,1.794,.336,.485,.12,.847,.315,1.096,.402,.24,.108,.369,.166,.369,.166,0,0-.535,.147-1.467,.404-.449,.156-.984,.309-1.566,.549-.588,.211-1.218,.531-1.885,.853-2.674,1.335-5.773,3.691-8.768,6.384-2.993,2.683-5.926,5.608-8.275,7.783-1.177,1.083-2.189,1.992-2.921,2.623-.727,.634-1.179,.988-1.179,.988Z"/></g></g></mask><linearGradient id="ae" x1="5.057" y1="17.679" x2="31.118" y2="17.679" gradientTransform="matrix(1, 0, 0, 1, 0, 0)" xlink:href="#m"/><filter id="ah" x="17.997" y="43.794" width="4.882" height="76.541" color-interpolation-filters="sRGB" filterUnits="userSpaceOnUse"><feFlood flood-color="#fff" result="bg"/><feBlend in="SourceGraphic" in2="bg"/></filter><filter id="ak" x="17.997" y="-12733.747" width="4.882" height="32766" color-interpolation-filters="sRGB" filterUnits="userSpaceOnUse"><feFlood flood-color="#fff" result="bg"/><feBlend in="SourceGraphic" in2="bg"/></filter><mask id="ai" x="17.997" y="-12733.747" width="4.882" height="32766" maskUnits="userSpaceOnUse"><g class="bg"/></mask><linearGradient id="al" x1="17.997" y1="82.065" x2="22.88" y2="82.065" gradientTransform="matrix(1, 0, 0, 1, 0, 0)" xlink:href="#l"/><mask id="af" x="17.997" y="43.794" width="4.882" height="76.541" maskUnits="userSpaceOnUse"><g class="at"><g class="bd"><path class="bc" d="M20.437,43.794s.211,1.197,.483,3.289c.273,2.093,.628,5.083,.913,8.671,.153,1.794,.317,3.737,.421,5.792,.12,2.056,.271,4.224,.329,6.467,.062,2.241,.201,4.559,.211,6.912,.029,2.355,.056,4.747,.085,7.138-.025,2.393-.048,4.785-.073,7.139-.023,2.354-.151,4.672-.22,6.913-.168,4.485-.431,8.671-.748,12.259-.286,3.588-.642,6.578-.916,8.671-.273,2.092-.487,3.288-.487,3.288,0,0-.213-1.196-.485-3.288-.276-2.093-.632-5.083-.918-8.671-.315-3.588-.578-7.774-.748-12.259-.068-2.241-.197-4.559-.22-6.913-.023-2.354-.048-4.747-.07-7.139,.029-2.391,.056-4.783,.083-7.138,.01-2.353,.149-4.671,.211-6.912,.06-2.243,.211-4.411,.329-6.467,.104-2.055,.267-3.998,.42-5.792,.286-3.588,.64-6.578,.914-8.671,.271-2.092,.483-3.289,.483-3.289Z"/></g></g></mask><linearGradient id="am" x1="17.997" y1="82.065" x2="22.88" y2="82.065" gradientTransform="matrix(1, 0, 0, 1, 0, 0)" xlink:href="#m"/></defs><g class="ax"><g id="a"/><g id="b"><g id="c"><g><g><path class="bl" d="M129.986,134.091c-1.046,2.578-2.592,4.63-4.627,6.122-2.048,1.495-12.022,6.321-14.261,6.657-2.246,.336,3.34-3.897,1.119-4.86-2.239-.972-4.127-2.693-5.704-5.171-1.837-2.767-2.484-5.843-1.936-9.246,.536-3.382,1.046-6.458,1.516-9.197,2.943-16.302,7.462-32.225,13.578-47.782,6.112-15.54,14.017-30.049,23.725-43.529l-53.354-.636c-3.906-.037-6.997-1.161-9.285-3.365-2.291-2.196-3.637-4.774-4.027-7.751-.404-2.963-5.685-4.515-4.132-7.314,1.556-2.808,10.071-6.171,13.847-7.427C88.037,.18,89.698-.019,91.44,.001c13.593,.155,27.076,.289,40.45,.366,13.382,.092,26.86,.29,40.45,.582,2.607,.04,5.048,1.302,7.33,3.782,2.292,2.486,3.556,4.955,3.813,7.424,.247,4.331-.888,7.938-3.375,10.81-2.497,2.866-4.986,5.792-7.478,8.798-2.641,3.44-5.157,6.987-7.5,10.652-2.37,3.653-4.655,7.361-6.857,11.088-7.238,12.497-13.177,25.264-17.813,38.295-4.638,13.04-7.91,26.701-9.81,40.994l-.665,1.299Z"/><path class="bm" d="M122.162,138.003c-1.058,2.584-2.604,4.636-4.639,6.128-2.042,1.492-4.187,2.403-6.426,2.739-2.246,.336-4.495,.02-6.715-.942-2.233-.974-4.127-2.693-5.692-5.176-1.848-2.762-2.495-5.837-1.953-9.237,.548-3.388,1.046-6.458,1.522-9.2,2.948-16.305,7.467-32.227,13.578-47.782,6.111-15.54,14.023-30.052,23.73-43.532l-53.359-.634c-3.9-.04-6.997-1.161-9.291-3.363-2.285-2.199-3.62-4.782-4.018-7.748-.413-2.966,.169-5.855,1.729-8.657,1.54-2.796,4.202-4.831,7.978-6.088,1.596-.414,3.264-.615,4.999-.592,13.587,.157,27.075,.29,40.444,.369,13.382,.092,26.866,.287,40.456,.579,2.607,.04,5.048,1.302,7.33,3.782,2.286,2.489,3.555,4.955,3.818,7.421,.23,4.34-.881,7.953-3.381,10.813-2.498,2.866-4.981,5.789-7.478,8.798-2.641,3.441-5.157,6.987-7.505,10.655-2.36,3.659-4.643,7.355-6.851,11.085-7.232,12.494-13.171,25.261-17.801,38.289-4.65,13.046-7.922,26.706-9.821,40.999l-.654,1.293Z"/><g class="av"><path class="aq" d="M77.228,10.478s1.259-.198,3.472-.443c2.2-.242,5.357-.552,9.132-.791,1.9-.124,3.943-.261,6.11-.339,2.16-.092,4.448-.216,6.817-.247,2.351-.026,4.794-.141,7.27-.118,2.489,.006,5.005,.008,7.526,.006,2.511,.063,5.033,.106,7.512,.164,2.476,.052,4.913,.213,7.271,.302,4.715,.218,9.125,.532,12.903,.888,3.775,.322,6.911,.715,9.114,1.011,2.207,.29,3.456,.517,3.456,.517,0,0-1.256,.19-3.456,.431-2.219,.247-5.37,.569-9.147,.805-3.782,.267-8.195,.466-12.915,.584-2.361,.035-4.811,.135-7.286,.129-2.477-.011-4.999-.011-7.507-.026-2.534-.052-5.046-.118-7.528-.166-2.479-.029-4.907-.201-7.267-.293-2.371-.086-4.646-.267-6.804-.402-2.166-.135-4.219-.319-6.1-.489-3.774-.333-6.922-.71-9.119-1.008-2.196-.296-3.455-.514-3.455-.514Z"/></g><g class="aw"><path class="ao" d="M129.961,53.372s-.452,1.193-1.247,3.254c-.831,2.061-1.963,4.984-3.398,8.464-1.406,3.483-3.039,7.544-4.791,11.901-.92,2.156-1.716,4.429-2.651,6.697-.95,2.268-1.776,4.61-2.663,6.932-.875,2.331-1.737,4.659-2.584,6.947-.749,2.325-1.648,4.564-2.361,6.774-.659,2.23-1.46,4.351-2.073,6.386-.566,2.058-1.198,3.983-1.733,5.774-.437,1.814-.891,3.463-1.297,4.935-.441,1.474-.641,2.785-.903,3.857-.498,2.15-.829,3.386-.829,3.386,0,0-.085-1.262-.127-3.486,.01-1.101-.131-2.489,.036-4.024,.106-1.541,.22-3.297,.409-5.202,.25-1.9,.575-3.938,.954-6.096,.397-2.153,.923-4.406,1.489-6.723,.612-2.311,1.285-4.673,2.009-7.076,.799-2.368,1.622-4.774,2.503-7.151,.966-2.351,1.86-4.731,2.884-7.007,.961-2.302,2.035-4.509,3.072-6.645,1.013-2.156,2.119-4.168,3.148-6.076,1.007-1.937,2.097-3.696,3.042-5.326,1.964-3.256,3.722-5.892,5.014-7.691,1.285-1.814,2.096-2.805,2.096-2.805Z"/></g></g><g><g><path class="ay" d="M62.266,121.231c2.202,2.496,3.706,5.101,4.516,7.818,.804,2.718,.661,5.286-.441,7.708-1.1,2.423-6.873,7.629-10.539,8.217-7.049,1.174-10.933-1.978-18.421-2.051-7.488-.077-14.535-.184-21.143-.331-4.553,0-7.673-1.396-9.359-4.182-1.692-2.788-2.204-5.838-1.541-9.141,.657-3.304,2.455-6.312,5.394-9.029,2.935-2.716,6.68-4.075,11.233-4.075V35.998c-1.91,.442-3.822,.33-5.728-.33-1.91-.661-3.6-1.651-5.067-2.975-1.469-1.319-2.606-2.896-3.414-4.733-.808-1.834-1.065-3.706-.768-5.617,.439-3.227,2.092-6.53,4.955-9.911,2.863-3.374,6.2-6.167,10.022-8.369C25.777,1.862,29.707,.54,33.744,.099c4.037-.441,7.524,.588,10.463,3.084,1.174,.88,2.237,2.129,3.194,3.743,.953,1.618,1.431,3.084,1.431,4.406,.143,17.618,.18,35.128,.11,52.526-.075,17.398-.11,34.835-.11,52.306h5.725c2.935,.88,5.504,2.571,7.708,5.067Z"/><path class="bp" d="M57.209,125.301c2.202,2.498,3.706,5.102,4.518,7.819,.804,2.718,.657,5.286-.443,7.709-1.1,2.422-3.488,3.925-7.157,4.515-7.047,1.173-14.316,1.723-21.804,1.65-7.488-.076-14.535-.184-21.141-.33-4.555,0-7.675-1.396-9.361-4.182-1.69-2.787-2.204-5.838-1.541-9.141,.661-3.303,2.457-6.311,5.394-9.031,2.935-2.715,6.68-4.074,11.233-4.074V40.07c-1.912,.441-3.82,.329-5.725-.33-1.912-.66-3.602-1.652-5.067-2.974-1.471-1.322-2.608-2.897-3.414-4.735-.81-1.833-1.069-3.706-.771-5.616,.441-3.227,2.09-6.531,4.955-9.911,2.863-3.375,6.202-6.168,10.022-8.369,3.816-2.203,7.741-3.525,11.78-3.966,4.037-.439,7.524,.588,10.463,3.084,1.172,.881,2.237,2.13,3.192,3.743,.955,1.62,1.431,3.084,1.431,4.406,.147,17.619,.184,35.128,.112,52.528-.077,17.398-.112,34.833-.112,52.304h5.73c2.933,.88,5.506,2.573,7.706,5.067Z"/></g><g class="bj"><path class="ap" d="M5.057,27.96s.085-.57,.365-1.51c.274-.945,.748-2.256,1.458-3.762,1.415-3.006,3.923-6.728,7.296-9.763,.858-.736,1.73-1.469,2.672-2.096,.92-.65,1.891-1.214,2.873-1.69,1.953-.963,3.973-1.536,5.736-1.69,.884-.073,1.692-.067,2.403,.023,.706,.031,1.313,.226,1.794,.336,.485,.12,.847,.315,1.096,.402,.24,.108,.369,.166,.369,.166,0,0-.535,.147-1.467,.404-.449,.156-.984,.309-1.566,.549-.588,.211-1.218,.531-1.885,.853-2.674,1.335-5.773,3.691-8.768,6.384-2.993,2.683-5.926,5.608-8.275,7.783-1.177,1.083-2.189,1.992-2.921,2.623-.727,.634-1.179,.988-1.179,.988Z"/></g><g class="as"><path class="ar" d="M20.437,43.794s.211,1.197,.483,3.289c.273,2.093,.628,5.083,.913,8.671,.153,1.794,.317,3.737,.421,5.792,.12,2.056,.271,4.224,.329,6.467,.062,2.241,.201,4.559,.211,6.912,.029,2.355,.056,4.747,.085,7.138-.025,2.393-.048,4.785-.073,7.139-.023,2.354-.151,4.672-.22,6.913-.168,4.485-.431,8.671-.748,12.259-.286,3.588-.642,6.578-.916,8.671-.273,2.092-.487,3.288-.487,3.288,0,0-.213-1.196-.485-3.288-.276-2.093-.632-5.083-.918-8.671-.315-3.588-.578-7.774-.748-12.259-.068-2.241-.197-4.559-.22-6.913-.023-2.354-.048-4.747-.07-7.139,.029-2.391,.056-4.783,.083-7.138,.01-2.353,.149-4.671,.211-6.912,.06-2.243,.211-4.411,.329-6.467,.104-2.055,.267-3.998,.42-5.792,.286-3.588,.64-6.578,.914-8.671,.271-2.092,.483-3.289,.483-3.289Z"/></g></g></g></g></g></g></svg>