<?xml version="1.0" encoding="UTF-8"?><svg xmlns="http://www.w3.org/2000/svg" xmlns:xlink="http://www.w3.org/1999/xlink" viewBox="0 0 182.053 147"><defs><style>.al{mask:url(#ag);}.am{mask:url(#h);}.an{fill:#720936;}.ao{mask:url(#e);}.ap{fill:url(#k);}.ap,.aq,.ar,.as{mix-blend-mode:multiply;}.at{fill:url(#u);}.au{filter:url(#af);}.av{isolation:isolate;}.aw{fill:url(#t);}.aw,.ax,.ay,.b`{mix-blend-mode:screen;}.ba{filter:url(#j);}.bb{filter:url(#x);}.ax{fill:url(#l);}.bc{filter:url(#ai);}.bd{mask:url(#y);}.be{filter:url(#aa);}.aq{fill:url(#ab);}.ay{fill:url(#ac);}.bf{fill:url(#d);}.bg{filter:url(#r);}.ar{fill:url(#aj);}.bh{mask:url(#p);}.as{fill:url(#s);}.bi{mask:url(#v);}.bj{filter:url(#o);}.bk{mask:url(#m);}.b`{fill:url(#ak);}.bl{filter:url(#g);}.bm{mask:url(#ad);}</style><linearGradient id="d" x1="129.888" y1="-169.284" x2="129.888" y2="267.93" gradientTransform="matrix(1, 0, 0, 1, 0, 0)" gradientUnits="userSpaceOnUse"><stop offset="0" stop-color="#e30613"/><stop offset="1" stop-color="#ff001a"/></linearGradient><filter id="g" x="89.588" y="15.716" width="23.561" height="55.762" color-interpolation-filters="sRGB" filterUnits="userSpaceOnUse"><feFlood flood-color="#fff" result="bg"/><feBlend in="SourceGraphic" in2="bg"/></filter><filter id="j" x="89.588" y="-12731.231" width="23.561" height="32766" color-interpolation-filters="sRGB" filterUnits="userSpaceOnUse"><feFlood flood-color="#fff" result="bg"/><feBlend in="SourceGraphic" in2="bg"/></filter><mask id="h" x="89.588" y="-12731.231" width="23.561" height="32766" maskUnits="userSpaceOnUse"><g class="ba"/></mask><linearGradient id="k" x1="89.588" y1="43.596" x2="113.149" y2="43.596" gradientTransform="matrix(1, 0, 0, 1, 0, 0)" gradientUnits="userSpaceOnUse"><stop offset=".001" stop-color="#fff"/><stop offset="1" stop-color="#000"/></linearGradient><mask id="e" x="89.588" y="15.716" width="23.561" height="55.762" maskUnits="userSpaceOnUse"><g class="bl"><g class="am"><path class="ap" d="M102.716,15.716s-.192,.186-.545,.533c-.341,.356-.824,.901-1.425,1.577-.582,.697-1.239,1.586-1.958,2.593-.706,1.035-1.413,2.221-2.106,3.556-.663,1.338-1.282,2.822-1.754,4.42-.223,.815-.489,1.629-.588,2.5-.136,.858-.316,1.732-.328,2.633-.037,.449-.068,.901-.099,1.354-.006,.458,.031,.92,.043,1.372,.019,.465,.037,.929,.049,1.403,.037,.455,.136,.929,.198,1.406,.124,.933,.248,1.871,.521,2.81,.26,.92,.421,1.927,.75,2.776,.347,.991,.663,2.007,1.016,2.964,.347,.898,.712,1.794,1.072,2.686,.415,.889,.824,1.778,1.227,2.649,.415,.867,.917,1.685,1.338,2.537,.929,1.626,1.865,3.2,2.856,4.628,.998,1.425,1.989,2.744,2.937,3.94,1.951,2.376,3.748,4.247,5.068,5.501,1.326,1.258,2.162,1.924,2.162,1.924,0,0-1.022-.304-2.695-1.174-.818-.428-1.821-.985-2.912-1.716-1.084-.728-2.292-1.598-3.513-2.664-2.491-2.088-5.099-4.901-7.41-8.277-1.146-1.701-2.193-3.537-3.153-5.48-.44-1.007-.886-2.029-1.326-3.042-.378-1.007-.7-1.989-1.053-2.971-.409-1.118-.558-2.196-.842-3.293-.316-1.075-.397-2.199-.502-3.312-.056-.548-.142-1.099-.155-1.645,.012-.564,.031-1.106,.043-1.657,.012-.545,.012-1.093,.068-1.632,.081-.53,.155-1.066,.235-1.598,.13-1.059,.409-2.06,.712-3.039,.254-.991,.682-1.896,1.047-2.785,.762-1.787,1.753-3.311,2.744-4.643,.489-.663,1.016-1.258,1.512-1.821,.514-.533,1.035-1.022,1.499-1.49,.991-.886,1.914-1.57,2.695-2.088,1.561-1.05,2.571-1.434,2.571-1.434Z"/></g></g></mask><linearGradient id="l" x1="89.588" y1="43.596" x2="113.149" y2="43.596" gradientTransform="matrix(1, 0, 0, 1, 0, 0)" gradientUnits="userSpaceOnUse"><stop offset=".001" stop-color="#fff"/><stop offset="1" stop-color="#fff"/></linearGradient><filter id="o" x="85.417" y="83.747" width="12.652" height="26.284" color-interpolation-filters="sRGB" filterUnits="userSpaceOnUse"><feFlood flood-color="#fff" result="bg"/><feBlend in="SourceGraphic" in2="bg"/></filter><filter id="r" x="85.417" y="-12731.231" width="12.652" height="32766" color-interpolation-filters="sRGB" filterUnits="userSpaceOnUse"><feFlood flood-color="#fff" result="bg"/><feBlend in="SourceGraphic" in2="bg"/></filter><mask id="p" x="85.417" y="-12731.231" width="12.652" height="32766" maskUnits="userSpaceOnUse"><g class="bg"/></mask><linearGradient id="s" x1="85.417" y1="96.889" x2="98.069" y2="96.889" xlink:href="#k"/><mask id="m" x="85.417" y="83.747" width="12.652" height="26.284" maskUnits="userSpaceOnUse"><g class="bj"><g class="bh"><path class="as" d="M98.069,83.747s-.359,.363-.923,.973c-.266,.322-.582,.716-.948,1.146-.365,.424-.706,.97-1.109,1.493-.353,.586-.787,1.137-1.146,1.806-.403,.623-.75,1.335-1.121,2.048-.359,.709-.675,1.478-1.035,2.23-.242,.821-.657,1.552-.861,2.397-.272,.824-.576,1.633-.762,2.469-.198,.839-.502,1.639-.651,2.462-.186,.824-.378,1.62-.57,2.367-.136,.771-.291,1.503-.458,2.184-.174,.681-.304,1.323-.428,1.896-.099,.557-.235,1.062-.347,1.484-.211,.836-.384,1.329-.384,1.329,0,0-.223-.452-.527-1.273-.155-.406-.353-.898-.508-1.478-.186-.586-.397-1.251-.496-1.983-.118-.731-.235-1.527-.334-2.388-.068-.846-.043-1.754-.019-2.704-.012-.948,.167-1.914,.335-2.902,.118-.994,.465-1.977,.75-2.952,.291-.985,.793-1.918,1.214-2.834,.502-.898,1.028-1.757,1.629-2.528,.613-.771,1.239-1.472,1.921-2.063,.632-.62,1.35-1.087,1.983-1.53,1.332-.799,2.546-1.258,3.407-1.465,.88-.195,1.388-.183,1.388-.183Z"/></g></g></mask><linearGradient id="t" x1="85.417" y1="96.889" x2="98.069" y2="96.889" xlink:href="#l"/><linearGradient id="u" x1="31.118" y1="-181.994" x2="31.118" y2="278.493" xlink:href="#d"/><filter id="x" x="5.057" y="7.399" width="26.061" height="20.561" color-interpolation-filters="sRGB" filterUnits="userSpaceOnUse"><feFlood flood-color="#fff" result="bg"/><feBlend in="SourceGraphic" in2="bg"/></filter><filter id="aa" x="5.057" y="-12731.231" width="26.061" height="32766" color-interpolation-filters="sRGB" filterUnits="userSpaceOnUse"><feFlood flood-color="#fff" result="bg"/><feBlend in="SourceGraphic" in2="bg"/></filter><mask id="y" x="5.057" y="-12731.231" width="26.061" height="32766" maskUnits="userSpaceOnUse"><g class="be"/></mask><linearGradient id="ab" x1="5.057" y1="17.679" x2="31.118" y2="17.679" xlink:href="#k"/><mask id="v" x="5.057" y="7.399" width="26.061" height="20.561" maskUnits="userSpaceOnUse"><g class="bb"><g class="bd"><path class="aq" d="M5.057,27.96s.085-.57,.365-1.51c.274-.945,.748-2.256,1.458-3.762,1.415-3.006,3.923-6.728,7.296-9.763,.858-.736,1.73-1.469,2.672-2.096,.92-.65,1.891-1.214,2.873-1.69,1.953-.963,3.973-1.536,5.736-1.69,.884-.073,1.692-.067,2.403,.023,.706,.031,1.313,.226,1.794,.336,.485,.12,.847,.315,1.096,.402,.24,.108,.369,.166,.369,.166,0,0-.535,.147-1.467,.404-.449,.156-.984,.309-1.566,.549-.588,.211-1.218,.531-1.885,.853-2.674,1.335-5.773,3.691-8.768,6.384-2.993,2.683-5.926,5.608-8.275,7.783-1.177,1.083-2.189,1.992-2.921,2.623-.727,.634-1.179,.988-1.179,.988Z"/></g></g></mask><linearGradient id="ac" x1="5.057" y1="17.679" x2="31.118" y2="17.679" xlink:href="#l"/><filter id="af" x="17.997" y="43.794" width="4.882" height="76.541" color-interpolation-filters="sRGB" filterUnits="userSpaceOnUse"><feFlood flood-color="#fff" result="bg"/><feBlend in="SourceGraphic" in2="bg"/></filter><filter id="ai" x="17.997" y="-12731.231" width="4.882" height="32766" color-interpolation-filters="sRGB" filterUnits="userSpaceOnUse"><feFlood flood-color="#fff" result="bg"/><feBlend in="SourceGraphic" in2="bg"/></filter><mask id="ag" x="17.997" y="-12731.231" width="4.882" height="32766" maskUnits="userSpaceOnUse"><g class="bc"/></mask><linearGradient id="aj" x1="17.997" y1="82.065" x2="22.88" y2="82.065" xlink:href="#k"/><mask id="ad" x="17.997" y="43.794" width="4.882" height="76.541" maskUnits="userSpaceOnUse"><g class="au"><g class="al"><path class="ar" d="M20.437,43.794s.211,1.197,.483,3.289c.273,2.093,.628,5.083,.913,8.671,.153,1.794,.317,3.737,.421,5.792,.12,2.056,.271,4.224,.329,6.467,.062,2.241,.201,4.559,.211,6.912,.029,2.355,.056,4.747,.085,7.138-.025,2.393-.048,4.785-.073,7.139-.023,2.354-.151,4.672-.22,6.913-.168,4.485-.431,8.671-.748,12.259-.286,3.588-.642,6.578-.916,8.671-.273,2.092-.487,3.288-.487,3.288,0,0-.213-1.196-.485-3.288-.276-2.093-.632-5.083-.918-8.671-.315-3.588-.578-7.774-.748-12.259-.068-2.241-.197-4.559-.22-6.913-.023-2.354-.048-4.747-.07-7.139,.029-2.391,.056-4.783,.083-7.138,.01-2.353,.149-4.671,.211-6.912,.06-2.243,.211-4.411,.329-6.467,.104-2.055,.267-3.998,.42-5.792,.286-3.588,.64-6.578,.914-8.671,.271-2.092,.483-3.289,.483-3.289Z"/></g></g></mask><linearGradient id="ak" x1="17.997" y1="82.065" x2="22.88" y2="82.065" xlink:href="#l"/></defs><g class="av"><g id="a"/><g id="b"><g id="c"><g><g><g><path class="an" d="M87.438,107.739c-.149-2.091-.149-4.529,0-7.313,0-3.624,.688-7.041,2.082-10.254,1.394-3.209,3.172-6.201,5.334-8.999,2.162-2.782,4.597-5.359,7.317-7.729,2.726-2.367,5.539-4.455,8.475-6.27-2.509-2.233-4.851-4.6-7.013-7.106-2.156-2.512-4.064-5.374-5.749-8.574-4.603-8.091-6.307-15.374-5.123-21.851,1.183-6.48,4.12-11.954,8.791-16.418,4.665-4.464,10.588-7.84,17.775-10.148C126.5,.788,133.755-.232,141.071,.044c7.317,.285,14.212,1.924,20.693,4.929,6.48,2.989,11.399,7.552,14.751,13.685,1.388,2.506,2.156,5.232,2.299,8.156,.136,2.921,.136,5.718,0,8.364-.143,2.794-.638,5.514-1.462,8.156-.836,2.649-1.958,5.155-3.352,7.524-2.094,3.624-4.74,6.793-7.949,9.522-3.209,2.714-6.48,5.263-9.826,7.624,3.346,2.515,6.864,5.123,10.563,7.84,3.687,2.729,6.722,5.892,9.089,9.522,3.624,5.576,5.644,11.006,6.065,16.309,.428,5.294-.39,10.241-2.404,14.844-2.02,4.603-5.08,8.779-9.2,12.543-4.107,3.77-9.027,6.899-14.745,9.408-4.733,2.097-9.962,3.488-15.68,4.188-5.718,.694-11.393,.62-17.044-.204-5.644-.846-10.972-2.481-15.984-4.922-5.019-2.435-9.275-5.746-12.769-9.931-2.367-2.788-4.002-5.926-4.913-9.414-.892-3.473-1.493-6.97-1.766-10.449Zm44.948-25.513c-3.624,2.379-6.926,4.848-9.931,7.422-2.999,2.58-5.675,5.678-8.048,9.306,0,.282-.211,.728-.626,1.363-.421,.629-.632,2.19-.632,4.699,0,.703,.031,1.462,.111,2.302,.068,.84,.31,1.818,.731,2.93,2.503,3.628,5.886,6.065,10.142,7.317,4.25,1.258,8.531,1.499,12.855,.734,4.318-.759,8.228-2.472,11.709-5.123,3.476-2.652,5.849-6.065,7.112-10.253-.564-2.357-1.747-4.563-3.556-6.573-1.815-2.026-3.866-3.878-6.171-5.554-2.298-1.669-4.671-3.237-7.106-4.699-2.447-1.459-4.634-2.757-6.592-3.869Zm-13.587-49.346c-.285,.84-.316,1.608-.105,2.298,.205,.7,.446,1.462,.731,2.302,1.958,3.073,4.182,5.855,6.691,8.364s5.229,4.95,8.159,7.317c3.34-2.231,6.542-4.631,9.615-7.215,3.06-2.583,5.78-5.613,8.153-9.098,.564-1.53,.905-2.639,1.047-3.339,.13-.697-.075-1.955-.626-3.773-2.094-2.085-4.671-3.513-7.744-4.284-3.06-.762-6.232-1.047-9.51-.827-3.277,.207-6.375,.976-9.299,2.302-2.93,1.32-5.235,3.029-6.908,5.108-.136,.291-.205,.567-.205,.846Z"/><path class="bf" d="M82.636,111.605c-.142-2.097-.142-4.532,0-7.32,0-3.624,.694-7.038,2.088-10.25,1.394-3.2,3.166-6.202,5.334-8.986,2.156-2.794,4.597-5.365,7.317-7.741,2.72-2.363,5.539-4.458,8.469-6.273-2.509-2.23-4.851-4.6-7.001-7.106-2.168-2.512-4.089-5.362-5.755-8.574-4.603-8.091-6.313-15.365-5.13-21.854,1.19-6.477,4.12-11.948,8.791-16.415,4.671-4.448,10.582-7.837,17.775-10.139,7.168-2.302,14.429-3.308,21.746-3.03,7.311,.282,14.206,1.927,20.699,4.916,6.474,3.005,11.393,7.564,14.739,13.698,1.394,2.506,2.168,5.226,2.305,8.144,.136,2.937,.136,5.731,0,8.367-.136,2.794-.632,5.508-1.475,8.153-.83,2.661-1.945,5.17-3.327,7.53-2.1,3.634-4.746,6.8-7.961,9.513-3.209,2.717-6.468,5.266-9.826,7.639,3.358,2.503,6.865,5.127,10.557,7.84,3.699,2.717,6.728,5.883,9.101,9.51,3.624,5.582,5.644,11.018,6.059,16.309,.415,5.306-.384,10.253-2.397,14.841-2.026,4.606-5.087,8.795-9.2,12.555-4.114,3.76-9.033,6.893-14.751,9.408-4.74,2.097-9.962,3.479-15.681,4.179-5.712,.703-11.393,.635-17.037-.204-5.644-.84-10.978-2.485-15.99-4.907-5.025-2.45-9.281-5.762-12.756-9.937-2.373-2.797-4.015-5.926-4.925-9.411-.905-3.482-1.499-6.97-1.766-10.455Zm44.954-25.51c-3.624,2.37-6.933,4.835-9.937,7.419-2.999,2.587-5.675,5.681-8.041,9.309,0,.279-.217,.731-.638,1.351-.415,.638-.626,2.206-.626,4.715,0,.697,.031,1.459,.105,2.298,.068,.83,.31,1.812,.737,2.924,2.509,3.621,5.886,6.065,10.136,7.32,4.25,1.255,8.537,1.499,12.868,.737,4.312-.768,8.221-2.478,11.709-5.136,3.476-2.639,5.842-6.062,7.112-10.244-.564-2.363-1.753-4.557-3.556-6.583-1.821-2.013-3.878-3.869-6.177-5.539-2.292-1.676-4.671-3.237-7.106-4.709-2.435-1.462-4.64-2.744-6.586-3.863Zm-13.587-49.359c-.285,.843-.316,1.614-.111,2.305,.204,.694,.452,1.474,.731,2.305,1.952,3.067,4.188,5.848,6.691,8.364,2.515,2.506,5.229,4.941,8.159,7.313,3.339-2.218,6.548-4.634,9.621-7.208,3.06-2.577,5.78-5.613,8.147-9.095,.564-1.533,.911-2.645,1.047-3.349,.136-.694-.068-1.955-.626-3.76-2.088-2.094-4.671-3.525-7.738-4.284-3.061-.774-6.239-1.053-9.51-.84-3.283,.201-6.381,.976-9.312,2.299-2.924,1.32-5.229,3.029-6.895,5.127-.136,.276-.205,.551-.205,.824Z"/></g><g class="ao"><path class="ax" d="M102.716,15.716s-.192,.186-.545,.533c-.341,.356-.824,.901-1.425,1.577-.582,.697-1.239,1.586-1.958,2.593-.706,1.035-1.413,2.221-2.106,3.556-.663,1.338-1.282,2.822-1.754,4.42-.223,.815-.489,1.629-.588,2.5-.136,.858-.316,1.732-.328,2.633-.037,.449-.068,.901-.099,1.354-.006,.458,.031,.92,.043,1.372,.019,.465,.037,.929,.049,1.403,.037,.455,.136,.929,.198,1.406,.124,.933,.248,1.871,.521,2.81,.26,.92,.421,1.927,.75,2.776,.347,.991,.663,2.007,1.016,2.964,.347,.898,.712,1.794,1.072,2.686,.415,.889,.824,1.778,1.227,2.649,.415,.867,.917,1.685,1.338,2.537,.929,1.626,1.865,3.2,2.856,4.628,.998,1.425,1.989,2.744,2.937,3.94,1.951,2.376,3.748,4.247,5.068,5.501,1.326,1.258,2.162,1.924,2.162,1.924,0,0-1.022-.304-2.695-1.174-.818-.428-1.821-.985-2.912-1.716-1.084-.728-2.292-1.598-3.513-2.664-2.491-2.088-5.099-4.901-7.41-8.277-1.146-1.701-2.193-3.537-3.153-5.48-.44-1.007-.886-2.029-1.326-3.042-.378-1.007-.7-1.989-1.053-2.971-.409-1.118-.558-2.196-.842-3.293-.316-1.075-.397-2.199-.502-3.312-.056-.548-.142-1.099-.155-1.645,.012-.564,.031-1.106,.043-1.657,.012-.545,.012-1.093,.068-1.632,.081-.53,.155-1.066,.235-1.598,.13-1.059,.409-2.06,.712-3.039,.254-.991,.682-1.896,1.047-2.785,.762-1.787,1.753-3.311,2.744-4.643,.489-.663,1.016-1.258,1.512-1.821,.514-.533,1.035-1.022,1.499-1.49,.991-.886,1.914-1.57,2.695-2.088,1.561-1.05,2.571-1.434,2.571-1.434Z"/></g><g class="bk"><path class="aw" d="M98.069,83.747s-.359,.363-.923,.973c-.266,.322-.582,.716-.948,1.146-.365,.424-.706,.97-1.109,1.493-.353,.586-.787,1.137-1.146,1.806-.403,.623-.75,1.335-1.121,2.048-.359,.709-.675,1.478-1.035,2.23-.242,.821-.657,1.552-.861,2.397-.272,.824-.576,1.633-.762,2.469-.198,.839-.502,1.639-.651,2.462-.186,.824-.378,1.62-.57,2.367-.136,.771-.291,1.503-.458,2.184-.174,.681-.304,1.323-.428,1.896-.099,.557-.235,1.062-.347,1.484-.211,.836-.384,1.329-.384,1.329,0,0-.223-.452-.527-1.273-.155-.406-.353-.898-.508-1.478-.186-.586-.397-1.251-.496-1.983-.118-.731-.235-1.527-.334-2.388-.068-.846-.043-1.754-.019-2.704-.012-.948,.167-1.914,.335-2.902,.118-.994,.465-1.977,.75-2.952,.291-.985,.793-1.918,1.214-2.834,.502-.898,1.028-1.757,1.629-2.528,.613-.771,1.239-1.472,1.921-2.063,.632-.62,1.35-1.087,1.983-1.53,1.332-.799,2.546-1.258,3.407-1.465,.88-.195,1.388-.183,1.388-.183Z"/></g></g><g><g><path class="an" d="M62.266,121.231c2.202,2.496,3.706,5.101,4.516,7.818,.804,2.718,.661,5.286-.441,7.708-1.1,2.423-6.873,7.629-10.539,8.217-7.049,1.174-10.933-1.978-18.421-2.051-7.488-.077-14.535-.184-21.143-.331-4.553,0-7.673-1.396-9.359-4.182-1.692-2.788-2.204-5.838-1.541-9.141,.657-3.304,2.455-6.312,5.394-9.029,2.935-2.716,6.68-4.075,11.233-4.075V35.998c-1.91,.442-3.822,.33-5.728-.33-1.91-.661-3.6-1.651-5.067-2.975-1.469-1.319-2.606-2.896-3.414-4.733-.808-1.834-1.065-3.706-.768-5.617,.439-3.227,2.092-6.53,4.955-9.911,2.863-3.374,6.2-6.167,10.022-8.369C25.777,1.862,29.707,.54,33.744,.099c4.037-.441,7.524,.588,10.463,3.084,1.174,.88,2.237,2.129,3.194,3.743,.953,1.618,1.431,3.084,1.431,4.406,.143,17.618,.18,35.128,.11,52.526-.075,17.398-.11,34.835-.11,52.306h5.725c2.935,.88,5.504,2.571,7.708,5.067Z"/><path class="at" d="M57.209,125.301c2.202,2.498,3.706,5.102,4.518,7.819,.804,2.718,.657,5.286-.443,7.709-1.1,2.422-3.488,3.925-7.157,4.515-7.047,1.173-14.316,1.723-21.804,1.65-7.488-.076-14.535-.184-21.141-.33-4.555,0-7.675-1.396-9.361-4.182-1.69-2.787-2.204-5.838-1.541-9.141,.661-3.303,2.457-6.311,5.394-9.031,2.935-2.715,6.68-4.074,11.233-4.074V40.07c-1.912,.441-3.82,.329-5.725-.33-1.912-.66-3.602-1.652-5.067-2.974-1.471-1.322-2.608-2.897-3.414-4.735-.81-1.833-1.069-3.706-.771-5.616,.441-3.227,2.09-6.531,4.955-9.911,2.863-3.375,6.202-6.168,10.022-8.369,3.816-2.203,7.741-3.525,11.78-3.966,4.037-.439,7.524,.588,10.463,3.084,1.172,.881,2.237,2.13,3.192,3.743,.955,1.62,1.431,3.084,1.431,4.406,.147,17.619,.184,35.128,.112,52.528-.077,17.398-.112,34.833-.112,52.304h5.73c2.933,.88,5.506,2.573,7.706,5.067Z"/></g><g class="bi"><path class="ay" d="M5.057,27.96s.085-.57,.365-1.51c.274-.945,.748-2.256,1.458-3.762,1.415-3.006,3.923-6.728,7.296-9.763,.858-.736,1.73-1.469,2.672-2.096,.92-.65,1.891-1.214,2.873-1.69,1.953-.963,3.973-1.536,5.736-1.69,.884-.073,1.692-.067,2.403,.023,.706,.031,1.313,.226,1.794,.336,.485,.12,.847,.315,1.096,.402,.24,.108,.369,.166,.369,.166,0,0-.535,.147-1.467,.404-.449,.156-.984,.309-1.566,.549-.588,.211-1.218,.531-1.885,.853-2.674,1.335-5.773,3.691-8.768,6.384-2.993,2.683-5.926,5.608-8.275,7.783-1.177,1.083-2.189,1.992-2.921,2.623-.727,.634-1.179,.988-1.179,.988Z"/></g><g class="bm"><path class="b`" d="M20.437,43.794s.211,1.197,.483,3.289c.273,2.093,.628,5.083,.913,8.671,.153,1.794,.317,3.737,.421,5.792,.12,2.056,.271,4.224,.329,6.467,.062,2.241,.201,4.559,.211,6.912,.029,2.355,.056,4.747,.085,7.138-.025,2.393-.048,4.785-.073,7.139-.023,2.354-.151,4.672-.22,6.913-.168,4.485-.431,8.671-.748,12.259-.286,3.588-.642,6.578-.916,8.671-.273,2.092-.487,3.288-.487,3.288,0,0-.213-1.196-.485-3.288-.276-2.093-.632-5.083-.918-8.671-.315-3.588-.578-7.774-.748-12.259-.068-2.241-.197-4.559-.22-6.913-.023-2.354-.048-4.747-.07-7.139,.029-2.391,.056-4.783,.083-7.138,.01-2.353,.149-4.671,.211-6.912,.06-2.243,.211-4.411,.329-6.467,.104-2.055,.267-3.998,.42-5.792,.286-3.588,.64-6.578,.914-8.671,.271-2.092,.483-3.289,.483-3.289Z"/></g></g></g></g></g></g></svg>