<?xml version="1.0" encoding="UTF-8"?><svg xmlns="http://www.w3.org/2000/svg" xmlns:xlink="http://www.w3.org/1999/xlink" viewBox="0 0 279.818 227.726"><defs><style>.an{filter:url(#k);}.ao{fill:#fff;}.ap{fill:url(#u);}.ap,.aq,.ar,.as{mix-blend-mode:screen;}.at{mask:url(#af);}.au{filter:url(#ah);}.av{filter:url(#ac);}.aw{mask:url(#f);}.ax{mask:url(#n);}.ay{isolation:isolate;}.b`{fill:url(#v);}.ba{fill:url(#l);}.ba,.bb,.bc,.bd{mix-blend-mode:multiply;}.aq{fill:url(#ae);}.be{mask:url(#ai);}.bf{filter:url(#s);}.bg{filter:url(#p);}.bb{fill:url(#t);}.bh{filter:url(#ak);}.bi{filter:url(#a`);}.bc{fill:url(#ad);}.bj{filter:url(#h);}.bk{mask:url(#x);}.ar{fill:url(#m);}.bl{mask:url(#i);}.bd{fill:url(#al);}.bm{fill:url(#d);}.bn{fill:url(#e);}.bo{mask:url(#q);}.bp{mask:url(#aa);}.as{fill:url(#am);}.bq{fill:url(#w);}</style><linearGradient id="d" x1="142.832" y1="114.93" x2="238.668" y2="114.93" gradientTransform="matrix(1, 0, 0, 1, 0, 0)" gradientUnits="userSpaceOnUse"><stop offset="0" stop-color="#8477b5"/><stop offset=".5" stop-color="#6a5ba4"/><stop offset="1" stop-color="#49358b"/></linearGradient><linearGradient id="e" x1="185.909" y1="-130.226" x2="185.909" y2="310.674" xlink:href="#d"/><filter id="h" x="141.724" y="58.671" width="21.061" height="38.978" color-interpolation-filters="sRGB" filterUnits="userSpaceOnUse"><feFlood flood-color="#fff" result="bg"/><feBlend in="SourceGraphic" in2="bg"/></filter><filter id="k" x="141.724" y="-12531.186" width="21.061" height="32766" color-interpolation-filters="sRGB" filterUnits="userSpaceOnUse"><feFlood flood-color="#fff" result="bg"/><feBlend in="SourceGraphic" in2="bg"/></filter><mask id="i" x="141.724" y="-12531.186" width="21.061" height="32766" maskUnits="userSpaceOnUse"><g class="an"/></mask><linearGradient id="l" x1="141.724" y1="78.16" x2="162.786" y2="78.16" gradientTransform="matrix(1, 0, 0, 1, 0, 0)" gradientUnits="userSpaceOnUse"><stop offset=".001" stop-color="#fff"/><stop offset="1" stop-color="#000"/></linearGradient><mask id="f" x="141.724" y="58.671" width="21.061" height="38.978" maskUnits="userSpaceOnUse"><g class="bj"><g class="bl"><path class="ba" d="M162.786,58.671s-.503,.534-1.377,1.464c-.855,.93-2.055,2.253-3.4,3.878-.691,.795-1.358,1.719-2.093,2.649-.723,.949-1.452,1.971-2.188,3.017-.691,1.087-1.477,2.147-2.131,3.326-.339,.575-.691,1.15-1.037,1.731l-.924,1.807c-.698,1.166-1.156,2.445-1.741,3.652-.591,1.201-.937,2.474-1.439,3.655-.497,1.194-.748,2.407-1.138,3.532-.415,1.128-.616,2.228-.886,3.256-.208,1.025-.572,1.961-.685,2.81-.145,.858-.314,1.606-.44,2.225-.27,1.248-.471,1.974-.471,1.974,0,0-.201-.701-.459-1.967-.126-.632-.289-1.405-.421-2.301-.189-.899-.157-1.914-.195-3.033-.019-1.113-.107-2.341,.094-3.614,.182-1.267,.239-2.653,.61-4.017,.176-.682,.352-1.38,.534-2.081,.176-.707,.384-1.423,.673-2.106,.547-1.383,1.062-2.813,1.804-4.13l1.081-1.992c.396-.644,.836-1.254,1.245-1.87,.798-1.257,1.779-2.345,2.678-3.426,.949-1.04,1.917-1.999,2.879-2.85,.974-.839,1.924-1.597,2.848-2.219,.886-.669,1.798-1.169,2.571-1.622,.786-.446,1.502-.789,2.099-1.05,1.188-.522,1.911-.701,1.911-.701Z"/></g></g></mask><linearGradient id="m" x1="141.724" y1="78.16" x2="162.786" y2="78.16" gradientTransform="matrix(1, 0, 0, 1, 0, 0)" gradientUnits="userSpaceOnUse"><stop offset=".001" stop-color="#fff"/><stop offset="1" stop-color="#fff"/></linearGradient><filter id="p" x="166.3" y="138.189" width="35.081" height="33.918" color-interpolation-filters="sRGB" filterUnits="userSpaceOnUse"><feFlood flood-color="#fff" result="bg"/><feBlend in="SourceGraphic" in2="bg"/></filter><filter id="s" x="166.3" y="-12531.186" width="35.081" height="32766" color-interpolation-filters="sRGB" filterUnits="userSpaceOnUse"><feFlood flood-color="#fff" result="bg"/><feBlend in="SourceGraphic" in2="bg"/></filter><mask id="q" x="166.3" y="-12531.186" width="35.081" height="32766" maskUnits="userSpaceOnUse"><g class="bf"/></mask><linearGradient id="t" x1="164.232" y1="139.699" x2="202.8" y2="170.086" xlink:href="#l"/><mask id="n" x="166.3" y="138.189" width="35.081" height="33.918" maskUnits="userSpaceOnUse"><g class="bg"><g class="bo"><path class="bb" d="M201.381,138.189s-.151,.789-.591,2.115c-.22,.663-.503,1.461-.874,2.357-.383,.89-.786,1.914-1.351,2.964-.516,1.072-1.125,2.213-1.835,3.388-.685,1.185-1.515,2.367-2.351,3.608-.899,1.188-1.798,2.452-2.841,3.633-1.025,1.188-2.081,2.392-3.237,3.501l-1.722,1.666c-.597,.531-1.219,1.034-1.823,1.537-1.182,1.047-2.458,1.939-3.702,2.791-1.207,.88-2.477,1.606-3.69,2.266-.597,.33-1.194,.644-1.76,.952-.578,.28-1.169,.509-1.722,.748-1.094,.481-2.112,.892-3.03,1.216-.93,.292-1.754,.497-2.426,.676-1.351,.355-2.124,.5-2.124,.5,0,0,.622-.525,1.729-1.342,.553-.405,1.219-.905,1.999-1.421,.748-.578,1.565-1.266,2.489-1.939,.937-.666,1.88-1.471,2.879-2.316,1.018-.817,2.087-1.669,3.13-2.631,.534-.462,1.081-.934,1.628-1.408,.547-.478,1.062-1.012,1.609-1.506,.547-.503,1.1-1.006,1.647-1.512l1.597-1.6c1.106-1.021,2.112-2.153,3.162-3.206,1.037-1.062,1.992-2.175,2.992-3.196,.918-1.081,1.886-2.071,2.728-3.08,.874-.99,1.691-1.926,2.445-2.8,3.03-3.577,5.048-5.962,5.048-5.962Z"/></g></g></mask><linearGradient id="u" x1="164.232" y1="139.699" x2="202.8" y2="170.086" xlink:href="#m"/><linearGradient id="v" x1="69.871" y1="118.627" x2="132.107" y2="118.627" gradientTransform="matrix(1, 0, 0, 1, 0, 0)" gradientUnits="userSpaceOnUse"><stop offset="0" stop-color="#8477b5"/><stop offset="1" stop-color="#150025"/></linearGradient><linearGradient id="w" x1="95.933" y1="-135.985" x2="95.933" y2="324.502" xlink:href="#d"/><filter id="a`" x="69.871" y="53.407" width="26.061" height="20.561" color-interpolation-filters="sRGB" filterUnits="userSpaceOnUse"><feFlood flood-color="#fff" result="bg"/><feBlend in="SourceGraphic" in2="bg"/></filter><filter id="ac" x="69.871" y="-12531.186" width="26.061" height="32766" color-interpolation-filters="sRGB" filterUnits="userSpaceOnUse"><feFlood flood-color="#fff" result="bg"/><feBlend in="SourceGraphic" in2="bg"/></filter><mask id="aa" x="69.871" y="-12531.186" width="26.061" height="32766" maskUnits="userSpaceOnUse"><g class="av"/></mask><linearGradient id="ad" x1="69.871" y1="63.688" x2="95.932" y2="63.688" xlink:href="#l"/><mask id="x" x="69.871" y="53.407" width="26.061" height="20.561" maskUnits="userSpaceOnUse"><g class="bi"><g class="bp"><path class="bc" d="M69.871,73.969s.085-.57,.365-1.51c.274-.945,.748-2.256,1.458-3.762,1.415-3.006,3.923-6.728,7.296-9.763,.858-.736,1.73-1.469,2.672-2.096,.92-.65,1.891-1.214,2.873-1.69,1.953-.963,3.973-1.536,5.736-1.69,.884-.073,1.692-.067,2.403,.023,.706,.031,1.313,.226,1.794,.336,.485,.12,.847,.315,1.096,.402,.24,.108,.369,.166,.369,.166,0,0-.535,.147-1.467,.404-.449,.156-.984,.309-1.566,.549-.588,.211-1.218,.531-1.885,.853-2.674,1.335-5.773,3.691-8.768,6.384-2.993,2.683-5.926,5.608-8.275,7.783-1.177,1.083-2.189,1.992-2.921,2.623-.727,.634-1.179,.988-1.179,.988Z"/></g></g></mask><linearGradient id="ae" x1="69.871" y1="63.688" x2="95.932" y2="63.688" xlink:href="#m"/><filter id="ah" x="82.812" y="89.803" width="4.882" height="76.541" color-interpolation-filters="sRGB" filterUnits="userSpaceOnUse"><feFlood flood-color="#fff" result="bg"/><feBlend in="SourceGraphic" in2="bg"/></filter><filter id="ak" x="82.812" y="-12531.186" width="4.882" height="32766" color-interpolation-filters="sRGB" filterUnits="userSpaceOnUse"><feFlood flood-color="#fff" result="bg"/><feBlend in="SourceGraphic" in2="bg"/></filter><mask id="ai" x="82.812" y="-12531.186" width="4.882" height="32766" maskUnits="userSpaceOnUse"><g class="bh"/></mask><linearGradient id="al" x1="82.812" y1="128.073" x2="87.694" y2="128.073" xlink:href="#l"/><mask id="af" x="82.812" y="89.803" width="4.882" height="76.541" maskUnits="userSpaceOnUse"><g class="au"><g class="be"><path class="bd" d="M85.252,89.803s.211,1.197,.483,3.289c.273,2.093,.628,5.083,.913,8.671,.153,1.794,.317,3.737,.421,5.792,.12,2.056,.271,4.224,.329,6.467,.062,2.241,.201,4.559,.211,6.912,.029,2.355,.056,4.747,.085,7.138-.025,2.393-.048,4.785-.073,7.139-.023,2.354-.151,4.672-.22,6.913-.168,4.485-.431,8.671-.748,12.259-.286,3.588-.642,6.578-.916,8.671-.273,2.092-.487,3.288-.487,3.288,0,0-.213-1.196-.485-3.288-.276-2.093-.632-5.083-.918-8.671-.315-3.588-.578-7.774-.748-12.259-.068-2.241-.197-4.559-.22-6.913-.023-2.354-.048-4.747-.07-7.139,.029-2.391,.056-4.783,.083-7.138,.01-2.353,.149-4.671,.211-6.912,.06-2.243,.211-4.411,.329-6.467,.104-2.055,.267-3.998,.42-5.792,.286-3.588,.64-6.578,.914-8.671,.271-2.092,.483-3.289,.483-3.289Z"/></g></g></mask><linearGradient id="am" x1="82.812" y1="128.073" x2="87.694" y2="128.073" xlink:href="#m"/></defs><g class="ay"><g id="a"/><g id="b"><g id="c"><rect class="ao" width="279.818" height="227.726" rx="12" ry="12"/><g><g><g><path class="bm" d="M180.77,185.405c-2.533,1.122-4.953,1.367-7.279,.735-2.319-.635-4.318-1.788-6.009-3.479-1.685-1.684-2.879-3.724-3.583-6.113-.704-2.392-.629-4.783,.207-7.172,.704-1.688,1.691-3.124,2.954-4.322,1.27-1.191,2.634-2.219,4.111-3.058,1.477-.842,2.986-1.65,4.538-2.423,1.54-.773,3.024-1.653,4.425-2.64,4.639-3.228,8.995-6.921,13.074-11.066,4.073-4.149,7.518-8.681,10.334-13.603-4.218,.843-8.618,1.333-13.181,1.471-4.57,.148-9.064-.242-13.495-1.151-4.432-.918-8.574-2.429-12.44-4.538-3.872-2.106-7.272-4.919-10.227-8.439-2.112-2.53-3.973-5.126-5.588-7.801-1.622-2.668-2.923-5.554-3.904-8.643-1.829-5.902-2.319-11.949-1.477-18.134s2.772-11.946,5.796-17.292c3.023-5.343,6.927-10.013,11.711-14.024,4.771-4.004,10.12-6.779,16.022-8.329,5.198-1.264,10.441-1.93,15.708-2.002,5.274-.069,10.372,.631,15.287,2.109,4.928,1.477,9.46,3.759,13.603,6.855,4.149,3.092,7.625,7.166,10.441,12.226,1.829,3.093,3.231,6.468,4.212,10.123,.987,3.659,1.691,7.348,2.118,11.069,.421,3.731,.591,7.452,.528,11.179-.082,3.721-.321,7.348-.742,10.862-.987,9.272-3.061,17.707-6.223,25.301-3.162,7.59-7.21,14.545-12.125,20.878-4.922,6.327-10.617,12.053-17.079,17.182-6.468,5.129-13.634,9.872-21.504,14.238h-.214Zm-8.442-83.928c4.08,3.659,8.366,5.833,12.867,6.537,4.494,.707,9.416,.283,14.765-1.264,1.113-.28,2.451-.814,3.998-1.587,1.546-.77,3.023-1.578,4.431-2.423,1.402-.839,2.602-1.543,3.583-2.109,.987-.559,1.339-.77,1.056-.632,0,.286-.032-.069-.107-1.056-.069-.981-.176-2.213-.321-3.69-.132-1.477-.276-2.979-.415-4.529-.138-1.543-.283-2.744-.421-3.589-.283-1.968-.673-3.866-1.156-5.692-.497-1.826-1.238-3.511-2.219-5.06-2.389-3.797-5.305-6.289-8.75-7.486-3.445-1.194-6.959-1.402-10.541-.629-3.583,.767-6.996,2.282-10.227,4.535-3.237,2.25-5.802,4.953-7.7,8.115-1.898,3.159-2.879,6.534-2.948,10.117-.075,3.586,1.295,7.068,4.105,10.441Z"/><path class="bn" d="M175.923,189.302c-2.527,1.122-4.953,1.367-7.273,.735-2.319-.632-4.324-1.791-6.009-3.482-1.685-1.682-2.885-3.718-3.589-6.11-.698-2.392-.629-4.78,.22-7.172,.698-1.684,1.684-3.127,2.948-4.321,1.264-1.191,2.64-2.213,4.111-3.058,1.477-.843,2.986-1.653,4.538-2.426,1.54-.77,3.011-1.653,4.425-2.634,4.633-3.234,8.995-6.924,13.074-11.066,4.073-4.152,7.518-8.684,10.328-13.606-4.212,.845-8.605,1.332-13.175,1.474-4.57,.145-9.07-.245-13.495-1.157-4.425-.915-8.58-2.426-12.44-4.535-3.872-2.109-7.279-4.919-10.227-8.436-2.112-2.53-3.973-5.129-5.588-7.801-1.622-2.668-2.917-5.55-3.904-8.646-1.829-5.906-2.319-11.943-1.477-18.135,.849-6.185,2.772-11.946,5.796-17.292,3.023-5.34,6.927-10.016,11.711-14.021,4.771-4.007,10.114-6.779,16.022-8.329,5.198-1.263,10.441-1.936,15.708-2.005,5.274-.069,10.372,.635,15.294,2.109,4.915,1.477,9.447,3.762,13.596,6.852,4.149,3.092,7.625,7.172,10.441,12.229,1.823,3.096,3.225,6.474,4.218,10.126,.981,3.655,1.684,7.345,2.106,11.069,.421,3.727,.603,7.449,.528,11.176-.069,3.724-.314,7.345-.735,10.859-.987,9.278-3.061,17.713-6.223,25.307-3.168,7.59-7.21,14.545-12.125,20.875-4.916,6.323-10.617,12.053-17.079,17.185-6.474,5.126-13.634,9.872-21.51,14.234h-.214Zm-8.429-83.928c4.08,3.658,8.36,5.836,12.861,6.537,4.494,.704,9.416,.283,14.759-1.264,1.125-.28,2.458-.811,4.01-1.584,1.546-.77,3.017-1.581,4.425-2.423,1.408-.845,2.602-1.546,3.589-2.112,.981-.556,1.326-.767,1.05-.629,0,.28-.032-.072-.107-1.056-.069-.981-.176-2.216-.314-3.689-.145-1.477-.283-2.983-.421-4.535-.138-1.543-.283-2.741-.415-3.583-.289-1.964-.679-3.866-1.169-5.692-.49-1.829-1.232-3.517-2.213-5.066-2.395-3.793-5.305-6.286-8.75-7.48-3.451-1.194-6.964-1.405-10.541-.635-3.583,.773-6.996,2.288-10.227,4.535-3.237,2.25-5.796,4.957-7.7,8.118-1.898,3.162-2.885,6.54-2.948,10.12-.075,3.583,1.295,7.062,4.111,10.438Z"/></g><g class="aw"><path class="ar" d="M162.786,58.671s-.503,.534-1.377,1.464c-.855,.93-2.055,2.253-3.4,3.878-.691,.795-1.358,1.719-2.093,2.649-.723,.949-1.452,1.971-2.188,3.017-.691,1.087-1.477,2.147-2.131,3.326-.339,.575-.691,1.15-1.037,1.731l-.924,1.807c-.698,1.166-1.156,2.445-1.741,3.652-.591,1.201-.937,2.474-1.439,3.655-.497,1.194-.748,2.407-1.138,3.532-.415,1.128-.616,2.228-.886,3.256-.208,1.025-.572,1.961-.685,2.81-.145,.858-.314,1.606-.44,2.225-.27,1.248-.471,1.974-.471,1.974,0,0-.201-.701-.459-1.967-.126-.632-.289-1.405-.421-2.301-.189-.899-.157-1.914-.195-3.033-.019-1.113-.107-2.341,.094-3.614,.182-1.267,.239-2.653,.61-4.017,.176-.682,.352-1.38,.534-2.081,.176-.707,.384-1.423,.673-2.106,.547-1.383,1.062-2.813,1.804-4.13l1.081-1.992c.396-.644,.836-1.254,1.245-1.87,.798-1.257,1.779-2.345,2.678-3.426,.949-1.04,1.917-1.999,2.879-2.85,.974-.839,1.924-1.597,2.848-2.219,.886-.669,1.798-1.169,2.571-1.622,.786-.446,1.502-.789,2.099-1.05,1.188-.522,1.911-.701,1.911-.701Z"/></g><g class="ax"><path class="ap" d="M201.381,138.189s-.151,.789-.591,2.115c-.22,.663-.503,1.461-.874,2.357-.383,.89-.786,1.914-1.351,2.964-.516,1.072-1.125,2.213-1.835,3.388-.685,1.185-1.515,2.367-2.351,3.608-.899,1.188-1.798,2.452-2.841,3.633-1.025,1.188-2.081,2.392-3.237,3.501l-1.722,1.666c-.597,.531-1.219,1.034-1.823,1.537-1.182,1.047-2.458,1.939-3.702,2.791-1.207,.88-2.477,1.606-3.69,2.266-.597,.33-1.194,.644-1.76,.952-.578,.28-1.169,.509-1.722,.748-1.094,.481-2.112,.892-3.03,1.216-.93,.292-1.754,.497-2.426,.676-1.351,.355-2.124,.5-2.124,.5,0,0,.622-.525,1.729-1.342,.553-.405,1.219-.905,1.999-1.421,.748-.578,1.565-1.266,2.489-1.939,.937-.666,1.88-1.471,2.879-2.316,1.018-.817,2.087-1.669,3.13-2.631,.534-.462,1.081-.934,1.628-1.408,.547-.478,1.062-1.012,1.609-1.506,.547-.503,1.1-1.006,1.647-1.512l1.597-1.6c1.106-1.021,2.112-2.153,3.162-3.206,1.037-1.062,1.992-2.175,2.992-3.196,.918-1.081,1.886-2.071,2.728-3.08,.874-.99,1.691-1.926,2.445-2.8,3.03-3.577,5.048-5.962,5.048-5.962Z"/></g></g><g><g><path class="b`" d="M127.08,167.24c2.202,2.496,3.706,5.101,4.516,7.818,.804,2.718,.661,5.286-.441,7.708-1.1,2.423-6.873,7.629-10.539,8.217-7.049,1.174-10.933-1.978-18.421-2.051-7.488-.077-14.535-.184-21.143-.331-4.553,0-7.673-1.396-9.359-4.182-1.692-2.788-2.204-5.838-1.541-9.141,.657-3.304,2.455-6.312,5.394-9.029,2.935-2.716,6.68-4.075,11.233-4.075V82.007c-1.91,.442-3.822,.33-5.728-.33-1.91-.661-3.6-1.651-5.067-2.975-1.469-1.319-2.606-2.896-3.414-4.733-.808-1.834-1.065-3.706-.768-5.617,.439-3.227,2.092-6.53,4.955-9.911,2.863-3.374,6.2-6.167,10.022-8.369,3.814-2.202,7.743-3.525,11.78-3.965,4.037-.441,7.524,.588,10.463,3.084,1.174,.88,2.237,2.129,3.194,3.743,.953,1.618,1.431,3.084,1.431,4.406,.143,17.618,.18,35.128,.11,52.526-.075,17.398-.11,34.835-.11,52.306h5.725c2.935,.88,5.504,2.571,7.708,5.067Z"/><path class="bq" d="M122.024,171.31c2.202,2.498,3.706,5.102,4.518,7.819,.804,2.718,.657,5.286-.443,7.709-1.1,2.422-3.488,3.925-7.157,4.515-7.047,1.173-14.316,1.723-21.804,1.65-7.488-.076-14.535-.184-21.141-.33-4.555,0-7.675-1.396-9.361-4.182-1.69-2.787-2.204-5.838-1.541-9.141,.661-3.303,2.457-6.311,5.394-9.031,2.935-2.715,6.68-4.074,11.233-4.074V86.078c-1.912,.441-3.82,.329-5.725-.33-1.912-.66-3.602-1.652-5.067-2.974-1.471-1.322-2.608-2.897-3.414-4.735-.81-1.833-1.069-3.706-.771-5.616,.441-3.227,2.09-6.531,4.955-9.911,2.863-3.375,6.202-6.168,10.022-8.369,3.816-2.203,7.741-3.525,11.78-3.966,4.037-.439,7.524,.588,10.463,3.084,1.172,.881,2.237,2.13,3.192,3.743,.955,1.62,1.431,3.084,1.431,4.406,.147,17.619,.184,35.128,.112,52.528-.077,17.398-.112,34.833-.112,52.304h5.73c2.933,.88,5.506,2.573,7.706,5.067Z"/></g><g class="bk"><path class="aq" d="M69.871,73.969s.085-.57,.365-1.51c.274-.945,.748-2.256,1.458-3.762,1.415-3.006,3.923-6.728,7.296-9.763,.858-.736,1.73-1.469,2.672-2.096,.92-.65,1.891-1.214,2.873-1.69,1.953-.963,3.973-1.536,5.736-1.69,.884-.073,1.692-.067,2.403,.023,.706,.031,1.313,.226,1.794,.336,.485,.12,.847,.315,1.096,.402,.24,.108,.369,.166,.369,.166,0,0-.535,.147-1.467,.404-.449,.156-.984,.309-1.566,.549-.588,.211-1.218,.531-1.885,.853-2.674,1.335-5.773,3.691-8.768,6.384-2.993,2.683-5.926,5.608-8.275,7.783-1.177,1.083-2.189,1.992-2.921,2.623-.727,.634-1.179,.988-1.179,.988Z"/></g><g class="at"><path class="as" d="M85.252,89.803s.211,1.197,.483,3.289c.273,2.093,.628,5.083,.913,8.671,.153,1.794,.317,3.737,.421,5.792,.12,2.056,.271,4.224,.329,6.467,.062,2.241,.201,4.559,.211,6.912,.029,2.355,.056,4.747,.085,7.138-.025,2.393-.048,4.785-.073,7.139-.023,2.354-.151,4.672-.22,6.913-.168,4.485-.431,8.671-.748,12.259-.286,3.588-.642,6.578-.916,8.671-.273,2.092-.487,3.288-.487,3.288,0,0-.213-1.196-.485-3.288-.276-2.093-.632-5.083-.918-8.671-.315-3.588-.578-7.774-.748-12.259-.068-2.241-.197-4.559-.22-6.913-.023-2.354-.048-4.747-.07-7.139,.029-2.391,.056-4.783,.083-7.138,.01-2.353,.149-4.671,.211-6.912,.06-2.243,.211-4.411,.329-6.467,.104-2.055,.267-3.998,.42-5.792,.286-3.588,.64-6.578,.914-8.671,.271-2.092,.483-3.289,.483-3.289Z"/></g></g></g></g></g></g></svg>