<?xml version="1.0" encoding="UTF-8"?><svg xmlns="http://www.w3.org/2000/svg" xmlns:xlink="http://www.w3.org/1999/xlink" viewBox="0 0 279.818 227.726"><defs><style>.u{mask:url(#h);}.v{fill:#fff;}.w{mask:url(#e);}.x{fill:url(#k);}.x,.y{mix-blend-mode:multiply;}.a`{fill:#2d853e;}.aa{isolation:isolate;}.ab{fill:url(#t);}.ab,.ac{mix-blend-mode:screen;}.ad{filter:url(#j);}.ac{fill:url(#l);}.ae{fill:url(#d);}.af{filter:url(#r);}.ag{mask:url(#p);}.y{fill:url(#s);}.ah{filter:url(#o);}.ai{mask:url(#m);}.aj{filter:url(#g);}</style><linearGradient id="d" x1="137.496" y1="-138.54" x2="137.496" y2="316.639" gradientTransform="matrix(1, 0, 0, 1, 0, 0)" gradientUnits="userSpaceOnUse"><stop offset="0" stop-color="#dae5a7"/><stop offset=".295" stop-color="#b8d26e"/><stop offset="1" stop-color="#58ab32"/></linearGradient><filter id="g" x="95.256" y="49.101" width="42.241" height="26.691" color-interpolation-filters="sRGB" filterUnits="userSpaceOnUse"><feFlood flood-color="#fff" result="bg"/><feBlend in="SourceGraphic" in2="bg"/></filter><filter id="j" x="95.256" y="-13281.143" width="42.241" height="32766" color-interpolation-filters="sRGB" filterUnits="userSpaceOnUse"><feFlood flood-color="#fff" result="bg"/><feBlend in="SourceGraphic" in2="bg"/></filter><mask id="h" x="95.256" y="-13281.143" width="42.241" height="32766" maskUnits="userSpaceOnUse"><g class="ad"/></mask><linearGradient id="k" x1="95.256" y1="62.446" x2="137.497" y2="62.446" gradientTransform="matrix(1, 0, 0, 1, 0, 0)" gradientUnits="userSpaceOnUse"><stop offset=".001" stop-color="#fff"/><stop offset="1" stop-color="#000"/></linearGradient><mask id="e" x="95.256" y="49.101" width="42.241" height="26.691" maskUnits="userSpaceOnUse"><g class="aj"><g class="u"><path class="x" d="M95.256,75.792s.15-.828,.657-2.206c.252-.685,.574-1.52,1.021-2.437,.448-.914,.953-1.964,1.637-3.02,.629-1.101,1.423-2.21,2.285-3.383,.905-1.128,1.876-2.329,2.994-3.455,1.127-1.121,2.298-2.288,3.636-3.296,.666-.508,1.293-1.085,2.004-1.546l2.141-1.393c1.406-.966,2.988-1.637,4.474-2.403,.738-.403,1.534-.657,2.302-.944,.775-.275,1.534-.548,2.283-.818,1.504-.514,3.033-.765,4.441-1.1,1.399-.367,2.794-.382,4.043-.51,1.256-.094,2.389-.247,3.419-.148,1.021,.035,1.908,.113,2.635,.17,1.451,.118,2.268,.244,2.268,.244,0,0-.801,.296-2.176,.712-.69,.205-1.519,.466-2.47,.705-.955,.207-1.982,.694-3.123,1.034-1.125,.416-2.372,.722-3.61,1.295-1.245,.543-2.596,.979-3.915,1.606-1.301,.67-2.701,1.225-4.037,1.965-1.301,.794-2.74,1.394-4,2.3-1.317,.808-2.624,1.634-3.845,2.553-1.271,.853-2.422,1.817-3.578,2.716-1.14,.913-2.194,1.867-3.216,2.756-.968,.937-1.959,1.775-2.779,2.638-1.704,1.68-3.055,3.179-4.013,4.246-.949,1.07-1.48,1.72-1.48,1.72Z"/></g></g></mask><linearGradient id="l" x1="95.256" y1="62.446" x2="137.497" y2="62.446" gradientTransform="matrix(1, 0, 0, 1, 0, 0)" gradientUnits="userSpaceOnUse"><stop offset=".001" stop-color="#fff"/><stop offset="1" stop-color="#fff"/></linearGradient><filter id="o" x="96.816" y="95.511" width="58.549" height="82.497" color-interpolation-filters="sRGB" filterUnits="userSpaceOnUse"><feFlood flood-color="#fff" result="bg"/><feBlend in="SourceGraphic" in2="bg"/></filter><filter id="r" x="96.816" y="-13281.143" width="58.549" height="32766" color-interpolation-filters="sRGB" filterUnits="userSpaceOnUse"><feFlood flood-color="#fff" result="bg"/><feBlend in="SourceGraphic" in2="bg"/></filter><mask id="p" x="96.816" y="-13281.143" width="58.549" height="32766" maskUnits="userSpaceOnUse"><g class="af"/></mask><linearGradient id="s" x1="96.816" y1="136.76" x2="155.365" y2="136.76" xlink:href="#k"/><mask id="m" x="96.816" y="95.511" width="58.549" height="82.497" maskUnits="userSpaceOnUse"><g class="ah"><g class="ag"><path class="y" d="M155.365,95.511s-.068,.413-.37,1.156c-.126,.385-.318,.849-.605,1.348-.274,.509-.566,1.126-.973,1.753-.881,1.19-1.841,2.796-3.31,4.272-.705,.772-1.456,1.597-2.248,2.464-.87,.78-1.784,1.601-2.742,2.456-1.867,1.791-4.115,3.401-6.491,5.126-2.328,1.814-4.979,3.375-7.71,5.032-.683,.414-1.373,.832-2.065,1.253-.655,.405-1.319,.812-1.982,1.223-1.369,.872-2.757,1.745-4.174,2.596-1.303,.912-2.49,1.885-3.752,2.82-.642,.44-1.214,1.008-1.798,1.556l-1.75,1.641c-2.309,2.212-4.391,4.651-6.187,7.242-.492,.618-.901,1.288-1.284,1.968-.411,.667-.82,1.326-1.227,1.987-.825,1.311-1.408,2.739-2.113,4.075-.662,1.362-1.116,2.785-1.715,4.122-.511,1.371-.92,2.748-1.373,4.075-.355,1.361-.698,2.683-1.032,3.962-.27,1.302-.533,2.56-.783,3.769-.39,2.44-.722,4.696-.914,6.716-.17,2.017-.342,3.793-.385,5.257-.065,1.466-.128,2.624-.131,3.413-.022,.793-.03,1.215-.03,1.215,0,0-.081-.416-.231-1.193-.154-.777-.39-1.922-.568-3.393-.222-1.471-.394-3.269-.505-5.342-.028-1.037-.1-2.144-.102-3.313,.02-1.167,.052-2.399,.113-3.685,.111-1.284,.231-2.622,.353-4.008,.215-1.378,.442-2.803,.716-4.265,.355-1.443,.67-2.944,1.095-4.455,.49-1.492,.962-3.032,1.58-4.547,1.258-3.022,2.725-6.112,4.679-8.974,1.924-2.878,4.172-5.613,6.674-8.081l1.956-1.771c.651-.591,1.282-1.193,2.028-1.697,1.436-1.038,2.866-2.139,4.291-3.089,1.421-.845,2.849-1.655,4.263-2.447,1.441-.783,2.862-1.556,4.259-2.318,2.711-1.514,5.462-2.785,7.83-4.344,2.411-1.502,4.788-2.805,6.759-4.296,1.018-.711,1.996-1.389,2.927-2.037,.873-.713,1.702-1.388,2.479-2.022,1.619-1.234,2.77-2.537,3.841-3.544,.905-1.104,1.734-1.953,2.1-2.628,.446-.649,.607-1.049,.607-1.049Z"/></g></g></mask><linearGradient id="t" x1="96.816" y1="136.76" x2="155.365" y2="136.76" xlink:href="#l"/></defs><g class="aa"><g id="a"/><g id="b"><g id="c"><rect class="v" width="279.818" height="227.726" rx="12" ry="12"/><g><g><path class="a`" d="M153.912,74.763c-2.468-5.079-5.588-7.729-9.357-7.946-3.776-.219-8.056,1.271-12.846,4.462-2.324,1.453-4.827,3.484-7.51,6.096-2.688,2.612-5.48,4.788-8.38,6.531-2.905,1.741-5.845,2.611-8.818,2.611s-5.915-1.814-8.818-5.441c-2.468-3.048-3.373-6.166-2.72-9.363,.653-3.19,2.067-6.204,4.246-9.033,2.176-2.829,4.751-5.403,7.728-7.728,2.975-2.32,5.477-4.209,7.512-5.66,4.788-3.482,10.012-6.129,15.673-7.947,5.66-1.812,11.283-2.574,16.869-2.285,5.586,.292,10.809,1.852,15.675,4.681,4.861,2.83,8.89,7.223,12.084,13.17,3.047,5.66,5.005,11.396,5.876,17.198,.871,5.807,.653,11.466-.653,16.98-1.308,5.518-3.593,10.741-6.857,15.673-3.266,4.935-7.51,9.291-12.735,13.063-3.195,2.323-6.716,4.571-10.559,6.748-3.847,2.177-7.547,4.571-11.103,7.182-3.558,2.612-6.676,5.518-9.36,8.708-2.69,3.195-4.463,7.042-5.336,11.54,1.597,0,3.954,.144,7.077,.433,3.118,.292,6.531,.511,10.23,.654,3.704,.147,7.547,.075,11.54-.216,3.989-.289,7.579-.943,10.774-1.961-.581,.583-1.016,.944-1.306,1.09,2.178-2.179,4.243-4.173,6.204-5.987,1.961-1.815,4.681-2.574,8.165-2.287,2.463,.146,4.681,.979,6.639,2.503,1.959,1.524,3.445,3.375,4.461,5.552,1.014,2.177,1.486,4.537,1.414,7.074-.074,2.542-.977,4.827-2.718,6.858-3.343,4.066-7.044,7.476-11.105,10.231-4.065,2.757-8.853,4.137-14.367,4.137h-51.812c-3.338,0-6.241-1.088-8.709-3.266-2.468-2.176-4.063-4.859-4.788-8.055-.581-2.464-.62-4.93-.109-7.4,.507-2.466,.905-4.933,1.197-7.401,.87-5.95,2.178-11.322,3.919-16.11,1.741-4.789,3.991-9.143,6.748-13.061,2.753-3.919,6.058-7.51,9.906-10.776,3.843-3.265,8.306-6.422,13.388-9.471,2.32-1.303,5.151-3.047,8.489-5.225,3.338-2.175,6.385-4.642,9.144-7.401,2.755-2.753,4.751-5.769,5.987-9.033,1.23-3.265,.905-6.639-.981-10.122Z"/><path class="ae" d="M148.915,78.786c-2.47-5.079-5.588-7.727-9.362-7.946-3.776-.219-8.054,1.271-12.841,4.463-2.324,1.453-4.827,3.483-7.512,6.096-2.688,2.612-5.48,4.789-8.383,6.53-2.903,1.741-5.841,2.612-8.813,2.612s-5.915-1.814-8.818-5.441c-2.47-3.049-3.375-6.167-2.722-9.364,.653-3.189,2.069-6.202,4.246-9.032,2.178-2.83,4.753-5.404,7.728-7.728,2.973-2.321,5.477-4.209,7.512-5.661,4.79-3.482,10.012-6.128,15.673-7.946,5.66-1.813,11.281-2.575,16.872-2.286,5.586,.293,10.809,1.852,15.673,4.682,4.864,2.83,8.89,7.222,12.082,13.17,3.051,5.661,5.009,11.395,5.88,17.197,.871,5.807,.651,11.466-.655,16.98-1.306,5.519-3.591,10.742-6.857,15.673-3.266,4.937-7.51,9.291-12.733,13.063-3.197,2.324-6.716,4.572-10.561,6.748-3.845,2.178-7.547,4.572-11.1,7.183-3.558,2.612-6.676,5.516-9.362,8.709-2.685,3.193-4.463,7.04-5.334,11.538,1.597,0,3.952,.144,7.075,.433,3.118,.293,6.533,.511,10.232,.655,3.702,.146,7.545,.075,11.538-.218,3.991-.289,7.582-.942,10.776-1.961-.581,.583-1.016,.946-1.308,1.09,2.178-2.178,4.248-4.172,6.206-5.987,1.959-1.814,4.681-2.574,8.163-2.287,2.468,.146,4.681,.979,6.639,2.505,1.959,1.523,3.445,3.373,4.463,5.55,1.012,2.177,1.486,4.538,1.414,7.076-.074,2.54-.979,4.827-2.722,6.857-3.338,4.065-7.04,7.476-11.1,10.23-4.065,2.757-8.855,4.138-14.367,4.138h-51.812c-3.34,0-6.243-1.088-8.709-3.267-2.47-2.175-4.063-4.858-4.788-8.054-.581-2.466-.618-4.93-.111-7.401,.507-2.466,.908-4.933,1.199-7.401,.87-5.948,2.176-11.321,3.917-16.11,1.741-4.788,3.991-9.142,6.75-13.061,2.755-3.919,6.056-7.51,9.904-10.776,3.845-3.264,8.306-6.422,13.388-9.468,2.32-1.306,5.151-3.047,8.491-5.227,3.336-2.175,6.385-4.642,9.144-7.4,2.753-2.754,4.748-5.769,5.984-9.034,1.234-3.264,.905-6.638-.979-10.122Z"/></g><g class="w"><path class="ac" d="M95.256,75.792s.15-.828,.657-2.206c.252-.685,.574-1.52,1.021-2.437,.448-.914,.953-1.964,1.637-3.02,.629-1.101,1.423-2.21,2.285-3.383,.905-1.128,1.876-2.329,2.994-3.455,1.127-1.121,2.298-2.288,3.636-3.296,.666-.508,1.293-1.085,2.004-1.546l2.141-1.393c1.406-.966,2.988-1.637,4.474-2.403,.738-.403,1.534-.657,2.302-.944,.775-.275,1.534-.548,2.283-.818,1.504-.514,3.033-.765,4.441-1.1,1.399-.367,2.794-.382,4.043-.51,1.256-.094,2.389-.247,3.419-.148,1.021,.035,1.908,.113,2.635,.17,1.451,.118,2.268,.244,2.268,.244,0,0-.801,.296-2.176,.712-.69,.205-1.519,.466-2.47,.705-.955,.207-1.982,.694-3.123,1.034-1.125,.416-2.372,.722-3.61,1.295-1.245,.543-2.596,.979-3.915,1.606-1.301,.67-2.701,1.225-4.037,1.965-1.301,.794-2.74,1.394-4,2.3-1.317,.808-2.624,1.634-3.845,2.553-1.271,.853-2.422,1.817-3.578,2.716-1.14,.913-2.194,1.867-3.216,2.756-.968,.937-1.959,1.775-2.779,2.638-1.704,1.68-3.055,3.179-4.013,4.246-.949,1.07-1.48,1.72-1.48,1.72Z"/></g><g class="ai"><path class="ab" d="M155.365,95.511s-.068,.413-.37,1.156c-.126,.385-.318,.849-.605,1.348-.274,.509-.566,1.126-.973,1.753-.881,1.19-1.841,2.796-3.31,4.272-.705,.772-1.456,1.597-2.248,2.464-.87,.78-1.784,1.601-2.742,2.456-1.867,1.791-4.115,3.401-6.491,5.126-2.328,1.814-4.979,3.375-7.71,5.032-.683,.414-1.373,.832-2.065,1.253-.655,.405-1.319,.812-1.982,1.223-1.369,.872-2.757,1.745-4.174,2.596-1.303,.912-2.49,1.885-3.752,2.82-.642,.44-1.214,1.008-1.798,1.556l-1.75,1.641c-2.309,2.212-4.391,4.651-6.187,7.242-.492,.618-.901,1.288-1.284,1.968-.411,.667-.82,1.326-1.227,1.987-.825,1.311-1.408,2.739-2.113,4.075-.662,1.362-1.116,2.785-1.715,4.122-.511,1.371-.92,2.748-1.373,4.075-.355,1.361-.698,2.683-1.032,3.962-.27,1.302-.533,2.56-.783,3.769-.39,2.44-.722,4.696-.914,6.716-.17,2.017-.342,3.793-.385,5.257-.065,1.466-.128,2.624-.131,3.413-.022,.793-.03,1.215-.03,1.215,0,0-.081-.416-.231-1.193-.154-.777-.39-1.922-.568-3.393-.222-1.471-.394-3.269-.505-5.342-.028-1.037-.1-2.144-.102-3.313,.02-1.167,.052-2.399,.113-3.685,.111-1.284,.231-2.622,.353-4.008,.215-1.378,.442-2.803,.716-4.265,.355-1.443,.67-2.944,1.095-4.455,.49-1.492,.962-3.032,1.58-4.547,1.258-3.022,2.725-6.112,4.679-8.974,1.924-2.878,4.172-5.613,6.674-8.081l1.956-1.771c.651-.591,1.282-1.193,2.028-1.697,1.436-1.038,2.866-2.139,4.291-3.089,1.421-.845,2.849-1.655,4.263-2.447,1.441-.783,2.862-1.556,4.259-2.318,2.711-1.514,5.462-2.785,7.83-4.344,2.411-1.502,4.788-2.805,6.759-4.296,1.018-.711,1.996-1.389,2.927-2.037,.873-.713,1.702-1.388,2.479-2.022,1.619-1.234,2.77-2.537,3.841-3.544,.905-1.104,1.734-1.953,2.1-2.628,.446-.649,.607-1.049,.607-1.049Z"/></g></g></g></g></g></svg>