<?xml version="1.0" encoding="UTF-8"?><svg xmlns="http://www.w3.org/2000/svg" xmlns:xlink="http://www.w3.org/1999/xlink" viewBox="0 0 205.146 148.337"><defs><style>.an{filter:url(#k);}.ao{fill:url(#u);}.ao,.ap,.aq,.ar{mix-blend-mode:screen;}.as{mask:url(#af);}.at{filter:url(#ah);}.au{filter:url(#ac);}.av{mask:url(#f);}.aw{mask:url(#n);}.ax{isolation:isolate;}.ay{fill:url(#v);}.b`{fill:url(#l);}.b`,.ba,.bb,.bc{mix-blend-mode:multiply;}.ap{fill:url(#ae);}.bd{mask:url(#ai);}.be{filter:url(#s);}.bf{filter:url(#p);}.ba{fill:url(#t);}.bg{filter:url(#ak);}.bh{filter:url(#a`);}.bb{fill:url(#ad);}.bi{filter:url(#h);}.bj{mask:url(#x);}.aq{fill:url(#m);}.bk{mask:url(#i);}.bc{fill:url(#al);}.bl{fill:url(#d);}.bm{fill:url(#e);}.bn{mask:url(#q);}.bo{mask:url(#aa);}.ar{fill:url(#am);}.bp{fill:url(#w);}</style><linearGradient id="d" x1="6.047" y1="70.046" x2="100.519" y2="70.046" gradientTransform="translate(-2.214 3.277) rotate(-1.801)" gradientUnits="userSpaceOnUse"><stop offset="0" stop-color="#ea4b94"/><stop offset=".194" stop-color="#e23a8f"/><stop offset=".727" stop-color="#cf1083"/><stop offset="1" stop-color="#c8007f"/></linearGradient><linearGradient id="e" x1="48.286" y1="-179.037" x2="48.286" y2="276.142" xlink:href="#d"/><filter id="h" x="4.938" y="10.532" width="41.395" height="27.833" color-interpolation-filters="sRGB" filterUnits="userSpaceOnUse"><feFlood flood-color="#fff" result="bg"/><feBlend in="SourceGraphic" in2="bg"/></filter><filter id="k" x="4.938" y="-12487.128" width="41.395" height="32766" color-interpolation-filters="sRGB" filterUnits="userSpaceOnUse"><feFlood flood-color="#fff" result="bg"/><feBlend in="SourceGraphic" in2="bg"/></filter><mask id="i" x="4.938" y="-12487.128" width="41.395" height="32766" maskUnits="userSpaceOnUse"><g class="an"/></mask><linearGradient id="l" x1="6.046" y1="21.95" x2="48.287" y2="21.95" gradientTransform="translate(-2.214 3.277) rotate(-1.801)" gradientUnits="userSpaceOnUse"><stop offset=".001" stop-color="#fff"/><stop offset="1" stop-color="#000"/></linearGradient><mask id="f" x="4.938" y="10.532" width="41.395" height="27.833" maskUnits="userSpaceOnUse"><g class="bi"><g class="bk"><path class="b`" d="M4.938,38.365s.124-.832,.588-2.225c.231-.693,.526-1.537,.943-2.468,.419-.928,.891-1.993,1.541-3.07,.594-1.12,1.353-2.254,2.177-3.453,.869-1.156,1.802-2.386,2.884-3.547,1.092-1.156,2.225-2.359,3.531-3.408,.65-.529,1.258-1.125,1.955-1.608l2.097-1.459c1.375-1.01,2.935-1.73,4.396-2.542,.725-.426,1.513-.705,2.272-1.016,.766-.3,1.516-.596,2.256-.89,1.487-.561,3.008-.86,4.405-1.239,1.387-.41,2.781-.47,4.025-.637,1.252-.133,2.38-.322,3.412-.255,1.021,.003,1.911,.053,2.639,.087,1.454,.072,2.274,.172,2.274,.172,0,0-.791,.321-2.153,.78-.683,.226-1.503,.513-2.447,.782-.948,.237-1.96,.756-3.089,1.131-1.111,.451-2.348,.797-3.568,1.408-1.227,.582-2.564,1.06-3.862,1.728-1.28,.711-2.661,1.309-3.973,2.091-1.276,.835-2.695,1.479-3.925,2.425-1.29,.849-2.572,1.716-3.763,2.672-1.243,.893-2.364,1.892-3.49,2.827-1.111,.948-2.134,1.935-3.128,2.856-.939,.967-1.902,1.835-2.695,2.725-1.65,1.733-2.954,3.274-3.877,4.37-.915,1.099-1.425,1.766-1.425,1.766Z"/></g></g></mask><linearGradient id="m" x1="6.046" y1="21.95" x2="48.287" y2="21.95" gradientTransform="translate(-2.214 3.277) rotate(-1.801)" gradientUnits="userSpaceOnUse"><stop offset=".001" stop-color="#fff"/><stop offset="1" stop-color="#fff"/></linearGradient><filter id="p" x="9.278" y="56.185" width="56.359" height="84.253" color-interpolation-filters="sRGB" filterUnits="userSpaceOnUse"><feFlood flood-color="#fff" result="bg"/><feBlend in="SourceGraphic" in2="bg"/></filter><filter id="s" x="9.278" y="-12487.128" width="56.359" height="32766" color-interpolation-filters="sRGB" filterUnits="userSpaceOnUse"><feFlood flood-color="#fff" result="bg"/><feBlend in="SourceGraphic" in2="bg"/></filter><mask id="q" x="9.278" y="-12487.128" width="56.359" height="32766" maskUnits="userSpaceOnUse"><g class="be"/></mask><linearGradient id="t" x1="7.606" y1="96.263" x2="66.155" y2="96.263" xlink:href="#l"/><mask id="n" x="9.278" y="56.185" width="56.359" height="84.253" maskUnits="userSpaceOnUse"><g class="bf"><g class="bn"><path class="ba" d="M65.638,56.185s-.054,.415-.334,1.167c-.114,.389-.291,.858-.562,1.366-.258,.518-.53,1.143-.917,1.783-.843,1.217-1.752,2.853-3.174,4.374-.68,.794-1.405,1.642-2.169,2.534-.845,.807-1.733,1.656-2.663,2.541-1.81,1.849-4.006,3.529-6.327,5.327-2.27,1.886-4.87,3.53-7.548,5.272-.67,.436-1.346,.875-2.025,1.318-.642,.425-1.293,.853-1.943,1.285-1.341,.914-2.701,1.831-4.09,2.726-1.274,.952-2.429,1.962-3.661,2.937-.628,.46-1.182,1.045-1.748,1.612l-1.697,1.695c-2.238,2.283-4.243,4.787-5.956,7.433-.472,.633-.86,1.316-1.221,2.008-.39,.68-.778,1.351-1.164,2.024-.783,1.336-1.321,2.782-1.984,4.139-.618,1.382-1.028,2.819-1.584,4.173-.468,1.386-.834,2.776-1.244,4.116-.312,1.372-.614,2.704-.906,3.992-.229,1.31-.452,2.576-.665,3.792-.313,2.451-.574,4.717-.702,6.741-.106,2.022-.222,3.802-.22,5.267-.019,1.467-.046,2.627-.023,3.416,.003,.793,.008,1.216,.008,1.216,0,0-.094-.413-.268-1.185-.179-.772-.45-1.908-.674-3.373-.268-1.463-.497-3.255-.673-5.324-.061-1.036-.167-2.139-.206-3.308-.017-1.167-.023-2.4-.003-3.687,.071-1.287,.148-2.628,.226-4.017,.172-1.384,.353-2.815,.582-4.286,.309-1.453,.577-2.964,.954-4.487,.443-1.506,.866-3.061,1.436-4.595,1.162-3.06,2.531-6.194,4.394-9.117,1.832-2.937,3.993-5.742,6.417-8.287l1.9-1.832c.632-.611,1.244-1.232,1.974-1.76,1.403-1.083,2.797-2.228,4.192-3.222,1.394-.89,2.795-1.744,4.184-2.58,1.415-.828,2.811-1.645,4.184-2.45,2.663-1.598,5.372-2.956,7.689-4.587,2.363-1.577,4.697-2.954,6.621-4.506,.996-.742,1.951-1.452,2.861-2.128,.85-.74,1.657-1.441,2.414-2.099,1.579-1.284,2.689-2.623,3.728-3.663,.87-1.132,1.672-2.007,2.016-2.692,.426-.662,.574-1.067,.574-1.067Z"/></g></g></mask><linearGradient id="u" x1="7.606" y1="96.263" x2="66.155" y2="96.263" xlink:href="#m"/><linearGradient id="v" x1="103.104" y1="70.778" x2="205.225" y2="70.778" xlink:href="#d"/><linearGradient id="w" x1="149.946" y1="-166.653" x2="149.946" y2="265.513" xlink:href="#d"/><filter id="a`" x="103.191" y="17.574" width="22.181" height="52.029" color-interpolation-filters="sRGB" filterUnits="userSpaceOnUse"><feFlood flood-color="#fff" result="bg"/><feBlend in="SourceGraphic" in2="bg"/></filter><filter id="ac" x="103.191" y="-12487.128" width="22.181" height="32766" color-interpolation-filters="sRGB" filterUnits="userSpaceOnUse"><feFlood flood-color="#fff" result="bg"/><feBlend in="SourceGraphic" in2="bg"/></filter><mask id="aa" x="103.191" y="-12487.128" width="22.181" height="32766" maskUnits="userSpaceOnUse"><g class="au"/></mask><linearGradient id="ad" x1="-3206.106" y1="6129.992" x2="-3176.75" y2="6129.992" gradientTransform="translate(2307.054 -6510.264) rotate(-9.006)" xlink:href="#l"/><mask id="x" x="103.191" y="17.574" width="22.181" height="52.029" maskUnits="userSpaceOnUse"><g class="bh"><g class="bo"><path class="bb" d="M125.371,17.574s-.145,.179-.432,.496c-.303,.315-.673,.837-1.196,1.43-.475,.639-1.082,1.387-1.718,2.265-.666,.869-1.327,1.921-2.087,3.003-.384,.542-.73,1.154-1.108,1.755-.373,.611-.792,1.225-1.154,1.891-.382,.654-.774,1.331-1.166,2.016-.366,.712-.731,1.431-1.116,2.161-.813,1.436-1.432,3.032-2.2,4.576-.687,1.587-1.342,3.199-2,4.823-.562,1.676-1.204,3.309-1.728,4.956-.466,1.666-1.042,3.286-1.48,4.882-.387,1.611-.821,3.168-1.22,4.648-.345,1.495-.62,2.923-.944,4.228-.29,1.316-.606,2.528-.773,3.611-.189,1.086-.407,2.031-.564,2.822-.342,1.566-.588,2.468-.588,2.468,0,0-.153-.896-.324-2.511-.083-.802-.195-1.774-.27-2.905-.124-1.124-.131-2.392-.09-3.781,.038-1.377,.03-2.888,.182-4.481,.184-1.582,.371-3.26,.63-4.982,.303-1.719,.761-3.479,1.184-5.266,.453-1.777,1.126-3.531,1.716-5.31,.714-1.733,1.446-3.462,2.264-5.117,.89-1.616,1.699-3.249,2.709-4.695,.5-.73,.948-1.46,1.449-2.14,.517-.665,1.039-1.32,1.538-1.953,.972-1.287,2.069-2.367,3.034-3.366,1.006-.984,1.953-1.846,2.859-2.536,.856-.745,1.704-1.272,2.371-1.745,1.374-.867,2.223-1.241,2.223-1.241Z"/></g></g></mask><linearGradient id="ae" x1="-3206.106" y1="6129.992" x2="-3176.75" y2="6129.992" gradientTransform="translate(2307.054 -6510.264) rotate(-9.006)" xlink:href="#m"/><filter id="ah" x="162.046" y="78.682" width="19.789" height="39.987" color-interpolation-filters="sRGB" filterUnits="userSpaceOnUse"><feFlood flood-color="#fff" result="bg"/><feBlend in="SourceGraphic" in2="bg"/></filter><filter id="ak" x="162.046" y="-12487.128" width="19.789" height="32766" color-interpolation-filters="sRGB" filterUnits="userSpaceOnUse"><feFlood flood-color="#fff" result="bg"/><feBlend in="SourceGraphic" in2="bg"/></filter><mask id="ai" x="162.046" y="-12487.128" width="19.789" height="32766" maskUnits="userSpaceOnUse"><g class="bg"/></mask><linearGradient id="al" x1="-3156.353" y1="6193.301" x2="-3131.572" y2="6193.301" gradientTransform="translate(2307.054 -6510.264) rotate(-9.006)" xlink:href="#l"/><mask id="af" x="162.046" y="78.682" width="19.789" height="39.987" maskUnits="userSpaceOnUse"><g class="at"><g class="bd"><path class="bc" d="M180.595,78.682s.235,.725,.499,2.022c.257,1.307,.545,3.173,.664,5.434,.287,4.513-.177,10.669-2.237,16.544-.529,1.451-1.108,2.902-1.839,4.264-.68,1.383-1.535,2.67-2.392,3.867-.906,1.177-1.865,2.255-2.875,3.181-1.004,.929-2.062,1.676-3.065,2.307-.526,.284-1.009,.572-1.493,.824-.482,.197-.956,.392-1.397,.577-.876,.366-1.704,.508-2.336,.693-1.331,.224-2.079,.277-2.079,.277,0,0,.638-.446,1.73-1.119,.511-.397,1.156-.812,1.814-1.372,.332-.292,.684-.581,1.058-.907,.334-.327,.698-.678,1.079-1.055,.722-.755,1.437-1.612,2.149-2.553,.709-.943,1.381-1.989,2.027-3.085,.631-1.138,1.233-2.313,1.789-3.561,.55-1.244,1.066-2.536,1.525-3.85,1.865-5.285,3.028-10.916,3.931-15.215,.867-4.36,1.447-7.27,1.447-7.27Z"/></g></g></mask><linearGradient id="am" x1="-3156.353" y1="6193.301" x2="-3131.572" y2="6193.301" gradientTransform="translate(2307.054 -6510.264) rotate(-9.006)" xlink:href="#m"/></defs><g class="ax"><g id="a"/><g id="b"><g id="c"><g><g><g><path class="bl" d="M63.533,35.493c-2.626-4.999-5.828-7.549-9.603-7.648-3.781-.1-8.012,1.523-12.699,4.864-2.277,1.525-4.715,3.634-7.315,6.329-2.604,2.696-5.326,4.957-8.171,6.791-2.849,1.831-5.76,2.794-8.731,2.887s-5.969-1.627-8.984-5.162c-2.562-2.969-3.565-6.057-3.013-9.273,.552-3.209,1.871-6.266,3.96-9.162,2.086-2.896,4.578-5.55,7.481-7.967,2.9-2.412,5.342-4.379,7.33-5.893,4.676-3.631,9.815-6.441,15.415-8.436C44.803,.835,50.399-.104,55.992,.009c5.593,.116,10.862,1.511,15.814,4.186,4.948,2.676,9.112,6.94,12.492,12.784,3.223,5.562,5.361,11.233,6.413,17.005,1.053,5.777,1.013,11.44-.119,16.993-1.134,5.556-3.253,10.849-6.361,15.88-3.11,5.036-7.214,9.522-12.318,13.457-3.12,2.422-6.569,4.78-10.341,7.077-3.777,2.297-7.399,4.806-10.871,7.528-3.474,2.723-6.5,5.725-9.081,8.998-2.588,3.278-4.24,7.179-4.971,11.702,1.597-.05,3.957,.019,7.087,.21,3.126,.193,6.543,.306,10.245,.332,3.707,.03,7.546-.162,11.528-.579,3.978-.415,7.546-1.181,10.707-2.298-.562,.601-.986,.976-1.271,1.131,2.109-2.247,4.11-4.304,6.013-6.179,1.903-1.876,4.598-2.72,8.089-2.543,2.467,.068,4.709,.832,6.715,2.293,2.005,1.462,3.549,3.265,4.633,5.409,1.082,2.144,1.628,4.488,1.636,7.026,.006,2.543-.825,4.855-2.501,6.94-3.213,4.169-6.806,7.694-10.778,10.575-3.976,2.884-8.718,4.413-14.23,4.586l-51.786,1.628c-3.337,.105-6.272-.891-8.807-2.991-2.535-2.097-4.214-4.729-5.038-7.901-.658-2.445-.775-4.908-.341-7.393,.429-2.48,.75-4.959,.964-7.435,.683-5.974,1.821-11.385,3.411-16.225,1.59-4.841,3.702-9.264,6.334-13.267,2.628-4.004,5.819-7.697,9.562-11.082,3.739-3.385,8.1-6.68,13.083-9.887,2.278-1.376,5.053-3.207,8.321-5.489,3.268-2.279,6.236-4.84,8.907-7.685,2.667-2.838,4.567-5.915,5.7-9.217,1.126-3.302,.696-6.665-1.299-10.087Z"/><path class="bm" d="M58.665,39.671c-2.628-4.999-5.828-7.548-9.607-7.648-3.781-.1-8.01,1.523-12.695,4.865-2.277,1.525-4.715,3.633-7.317,6.33-2.604,2.696-5.326,4.958-8.173,6.79-2.847,1.831-5.756,2.795-8.727,2.888s-5.969-1.627-8.984-5.162C.598,44.764-.405,41.676,.147,38.46c.552-3.208,1.874-6.264,3.96-9.161,2.088-2.897,4.58-5.551,7.481-7.967,2.898-2.413,5.342-4.379,7.33-5.894,4.678-3.631,9.815-6.44,15.415-8.435,5.6-1.99,11.195-2.929,16.791-2.815,5.593,.117,10.862,1.511,15.812,4.187,4.95,2.676,9.112,6.939,12.49,12.784,3.227,5.563,5.365,11.232,6.417,17.004,1.053,5.777,1.011,11.44-.121,16.993-1.132,5.557-3.251,10.849-6.361,15.88-3.11,5.037-7.214,9.522-12.316,13.457-3.122,2.423-6.569,4.781-10.343,7.077-3.775,2.298-7.399,4.807-10.869,7.529-3.474,2.723-6.5,5.724-9.083,8.999-2.584,3.276-4.24,7.177-4.968,11.7,1.596-.05,3.954,.019,7.085,.211,3.126,.195,6.546,.306,10.248,.333,3.704,.029,7.543-.162,11.525-.58,3.98-.415,7.548-1.18,10.709-2.298-.562,.601-.986,.977-1.273,1.131,2.109-2.246,4.115-4.303,6.015-6.179,1.901-1.874,4.598-2.72,8.087-2.542,2.471,.068,4.709,.832,6.715,2.295,2.006,1.461,3.549,3.263,4.636,5.407,1.08,2.144,1.628,4.489,1.636,7.028,.006,2.541-.827,4.855-2.505,6.939-3.209,4.168-6.801,7.694-10.773,10.574-3.976,2.884-8.72,4.414-14.23,4.587l-51.786,1.628c-3.339,.105-6.274-.891-8.807-2.992-2.537-2.096-4.214-4.728-5.038-7.899-.658-2.446-.773-4.908-.344-7.394,.429-2.48,.752-4.959,.966-7.435,.683-5.973,1.819-11.384,3.409-16.225,1.59-4.84,3.702-9.263,6.337-13.267,2.631-4.004,5.817-7.696,9.56-11.082,3.741-3.383,8.1-6.68,13.083-9.884,2.278-1.378,5.053-3.207,8.323-5.491,3.266-2.279,6.236-4.84,8.907-7.684,2.665-2.839,4.565-5.915,5.697-9.218,1.131-3.301,.696-6.663-1.297-10.087Z"/></g><g class="av"><path class="aq" d="M4.938,38.365s.124-.832,.588-2.225c.231-.693,.526-1.537,.943-2.468,.419-.928,.891-1.993,1.541-3.07,.594-1.12,1.353-2.254,2.177-3.453,.869-1.156,1.802-2.386,2.884-3.547,1.092-1.156,2.225-2.359,3.531-3.408,.65-.529,1.258-1.125,1.955-1.608l2.097-1.459c1.375-1.01,2.935-1.73,4.396-2.542,.725-.426,1.513-.705,2.272-1.016,.766-.3,1.516-.596,2.256-.89,1.487-.561,3.008-.86,4.405-1.239,1.387-.41,2.781-.47,4.025-.637,1.252-.133,2.38-.322,3.412-.255,1.021,.003,1.911,.053,2.639,.087,1.454,.072,2.274,.172,2.274,.172,0,0-.791,.321-2.153,.78-.683,.226-1.503,.513-2.447,.782-.948,.237-1.96,.756-3.089,1.131-1.111,.451-2.348,.797-3.568,1.408-1.227,.582-2.564,1.06-3.862,1.728-1.28,.711-2.661,1.309-3.973,2.091-1.276,.835-2.695,1.479-3.925,2.425-1.29,.849-2.572,1.716-3.763,2.672-1.243,.893-2.364,1.892-3.49,2.827-1.111,.948-2.134,1.935-3.128,2.856-.939,.967-1.902,1.835-2.695,2.725-1.65,1.733-2.954,3.274-3.877,4.37-.915,1.099-1.425,1.766-1.425,1.766Z"/></g><g class="aw"><path class="ao" d="M65.638,56.185s-.054,.415-.334,1.167c-.114,.389-.291,.858-.562,1.366-.258,.518-.53,1.143-.917,1.783-.843,1.217-1.752,2.853-3.174,4.374-.68,.794-1.405,1.642-2.169,2.534-.845,.807-1.733,1.656-2.663,2.541-1.81,1.849-4.006,3.529-6.327,5.327-2.27,1.886-4.87,3.53-7.548,5.272-.67,.436-1.346,.875-2.025,1.318-.642,.425-1.293,.853-1.943,1.285-1.341,.914-2.701,1.831-4.09,2.726-1.274,.952-2.429,1.962-3.661,2.937-.628,.46-1.182,1.045-1.748,1.612l-1.697,1.695c-2.238,2.283-4.243,4.787-5.956,7.433-.472,.633-.86,1.316-1.221,2.008-.39,.68-.778,1.351-1.164,2.024-.783,1.336-1.321,2.782-1.984,4.139-.618,1.382-1.028,2.819-1.584,4.173-.468,1.386-.834,2.776-1.244,4.116-.312,1.372-.614,2.704-.906,3.992-.229,1.31-.452,2.576-.665,3.792-.313,2.451-.574,4.717-.702,6.741-.106,2.022-.222,3.802-.22,5.267-.019,1.467-.046,2.627-.023,3.416,.003,.793,.008,1.216,.008,1.216,0,0-.094-.413-.268-1.185-.179-.772-.45-1.908-.674-3.373-.268-1.463-.497-3.255-.673-5.324-.061-1.036-.167-2.139-.206-3.308-.017-1.167-.023-2.4-.003-3.687,.071-1.287,.148-2.628,.226-4.017,.172-1.384,.353-2.815,.582-4.286,.309-1.453,.577-2.964,.954-4.487,.443-1.506,.866-3.061,1.436-4.595,1.162-3.06,2.531-6.194,4.394-9.117,1.832-2.937,3.993-5.742,6.417-8.287l1.9-1.832c.632-.611,1.244-1.232,1.974-1.76,1.403-1.083,2.797-2.228,4.192-3.222,1.394-.89,2.795-1.744,4.184-2.58,1.415-.828,2.811-1.645,4.184-2.45,2.663-1.598,5.372-2.956,7.689-4.587,2.363-1.577,4.697-2.954,6.621-4.506,.996-.742,1.951-1.452,2.861-2.128,.85-.74,1.657-1.441,2.414-2.099,1.579-1.284,2.689-2.623,3.728-3.663,.87-1.132,1.672-2.007,2.016-2.692,.426-.662,.574-1.067,.574-1.067Z"/></g></g><g><g><path class="ay" d="M205.099,72.781c-.202,10.197-2.093,20.201-5.692,30.022-3.596,9.83-9.422,18.235-17.511,25.219-4.131,2.889-8.656,5.064-13.569,6.542-4.917,1.469-9.884,2.188-14.899,2.144-5.023-.041-9.902-.97-14.639-2.788-4.753-1.82-9.008-4.593-12.81-8.309-8.25-8.157-14.147-17.039-17.679-26.634-3.538-9.598-5.296-20.038-5.277-31.32-.007-7.933,.926-15.934,2.775-24.028,1.843-8.084,5.105-15.419,9.764-22.011,3.744-5.309,8.154-9.603,13.207-12.84,5.058-3.227,10.388-5.362,16-6.391,5.614-1.035,11.339-.892,17.178,.412,5.856,1.292,11.422,3.747,16.728,7.368,5.301,3.604,9.699,7.817,13.167,12.63,3.476,4.804,6.207,9.905,8.166,15.304,1.975,5.387,3.356,11.056,4.159,16.982,.795,5.928,1.105,11.823,.932,17.699Zm-24.069-.354c.167-4.211-.261-9.079-1.28-14.628-1.013-5.539-2.781-10.758-5.297-15.653-2.514-4.886-5.786-8.823-9.81-11.803-4.012-2.989-9.014-3.998-14.991-3.056-6.51,1.036-11.405,3.962-14.674,8.805-3.274,4.827-5.412,10.43-6.43,16.772-1.007,6.355-1.204,12.788-.59,19.299,.623,6.516,1.612,11.959,2.997,16.338,.893,2.916,2.096,5.932,3.628,9.022,1.537,3.092,3.332,5.872,5.398,8.334,2.059,2.451,4.463,4.304,7.243,5.533,2.769,1.231,5.902,1.497,9.416,.804,4.84-1.045,8.77-2.82,11.784-5.314,3.019-2.498,5.433-5.456,7.26-8.871,1.819-3.42,3.13-7.247,3.919-11.482,.791-4.227,1.256-8.576,1.377-13.049l.049-1.051Z"/><path class="bp" d="M201.012,77.292c-.196,10.179-2.09,20.195-5.68,30.021-3.599,9.821-9.427,18.225-17.508,25.22-4.139,2.871-8.664,5.045-13.579,6.529-4.92,1.474-9.881,2.189-14.902,2.156-5.015-.05-9.894-.973-14.636-2.8-4.751-1.819-9.011-4.587-12.799-8.302-8.253-8.151-14.149-17.034-17.685-26.637-3.544-9.601-5.296-20.031-5.271-31.311-.007-7.94,.921-15.95,2.758-24.03,1.849-8.088,5.105-15.419,9.775-22.005,3.752-5.318,8.143-9.609,13.204-12.848,5.056-3.235,10.392-5.367,16-6.398,5.616-1.02,11.347-.894,17.19,.411,5.842,1.299,11.409,3.747,16.718,7.369,5.303,3.619,9.701,7.825,13.169,12.631,3.476,4.804,6.199,9.915,8.173,15.308,1.961,5.393,3.345,11.05,4.146,16.974,.798,5.93,1.107,11.838,.928,17.711Zm-24.063-.365c.17-4.21-.267-9.075-1.283-14.616-1.013-5.546-2.786-10.761-5.297-15.66-2.514-4.887-5.773-8.822-9.804-11.808-4.015-2.976-9.009-4.002-14.983-3.051-6.521,1.03-11.414,3.964-14.685,8.8-3.28,4.837-5.409,10.424-6.416,16.779-1.018,6.349-1.212,12.79-.598,19.302,.615,6.505,1.609,11.957,3.011,16.332,.873,2.913,2.075,5.927,3.609,9.018,1.54,3.1,3.328,5.877,5.392,8.338,2.062,2.459,4.472,4.294,7.246,5.541,2.772,1.218,5.899,1.489,9.416,.79,4.84-1.038,8.781-2.807,11.787-5.312,3.024-2.481,5.438-5.44,7.26-8.871,1.822-3.418,3.13-7.24,3.919-11.476,.802-4.235,1.256-8.583,1.374-13.057l.051-1.05Z"/></g><g class="bj"><path class="ap" d="M125.371,17.574s-.145,.179-.432,.496c-.303,.315-.673,.837-1.196,1.43-.475,.639-1.082,1.387-1.718,2.265-.666,.869-1.327,1.921-2.087,3.003-.384,.542-.73,1.154-1.108,1.755-.373,.611-.792,1.225-1.154,1.891-.382,.654-.774,1.331-1.166,2.016-.366,.712-.731,1.431-1.116,2.161-.813,1.436-1.432,3.032-2.2,4.576-.687,1.587-1.342,3.199-2,4.823-.562,1.676-1.204,3.309-1.728,4.956-.466,1.666-1.042,3.286-1.48,4.882-.387,1.611-.821,3.168-1.22,4.648-.345,1.495-.62,2.923-.944,4.228-.29,1.316-.606,2.528-.773,3.611-.189,1.086-.407,2.031-.564,2.822-.342,1.566-.588,2.468-.588,2.468,0,0-.153-.896-.324-2.511-.083-.802-.195-1.774-.27-2.905-.124-1.124-.131-2.392-.09-3.781,.038-1.377,.03-2.888,.182-4.481,.184-1.582,.371-3.26,.63-4.982,.303-1.719,.761-3.479,1.184-5.266,.453-1.777,1.126-3.531,1.716-5.31,.714-1.733,1.446-3.462,2.264-5.117,.89-1.616,1.699-3.249,2.709-4.695,.5-.73,.948-1.46,1.449-2.14,.517-.665,1.039-1.32,1.538-1.953,.972-1.287,2.069-2.367,3.034-3.366,1.006-.984,1.953-1.846,2.859-2.536,.856-.745,1.704-1.272,2.371-1.745,1.374-.867,2.223-1.241,2.223-1.241Z"/></g><g class="as"><path class="ar" d="M180.595,78.682s.235,.725,.499,2.022c.257,1.307,.545,3.173,.664,5.434,.287,4.513-.177,10.669-2.237,16.544-.529,1.451-1.108,2.902-1.839,4.264-.68,1.383-1.535,2.67-2.392,3.867-.906,1.177-1.865,2.255-2.875,3.181-1.004,.929-2.062,1.676-3.065,2.307-.526,.284-1.009,.572-1.493,.824-.482,.197-.956,.392-1.397,.577-.876,.366-1.704,.508-2.336,.693-1.331,.224-2.079,.277-2.079,.277,0,0,.638-.446,1.73-1.119,.511-.397,1.156-.812,1.814-1.372,.332-.292,.684-.581,1.058-.907,.334-.327,.698-.678,1.079-1.055,.722-.755,1.437-1.612,2.149-2.553,.709-.943,1.381-1.989,2.027-3.085,.631-1.138,1.233-2.313,1.789-3.561,.55-1.244,1.066-2.536,1.525-3.85,1.865-5.285,3.028-10.916,3.931-15.215,.867-4.36,1.447-7.27,1.447-7.27Z"/></g></g></g></g></g></g></svg>