<?xml version="1.0" encoding="UTF-8"?><svg xmlns="http://www.w3.org/2000/svg" xmlns:xlink="http://www.w3.org/1999/xlink" viewBox="0 0 279.818 227.726"><defs><style>.ac{mask:url(#h);}.ad{fill:#fff;}.ae{fill:#0c557c;}.af{mask:url(#e);}.ag{fill:url(#k);}.ag,.ah,.ai{mix-blend-mode:multiply;}.ah{fill:url(#aa);}.aj{isolation:isolate;}.ak{fill:url(#t);}.ak,.al,.am{mix-blend-mode:screen;}.an{filter:url(#j);}.al{fill:url(#ab);}.ao{filter:url(#a`);}.am{fill:url(#l);}.ap{filter:url(#w);}.aq{mask:url(#x);}.ar{mask:url(#u);}.as{fill:url(#d);}.at{filter:url(#r);}.au{mask:url(#p);}.ai{fill:url(#s);}.av{filter:url(#o);}.aw{mask:url(#m);}.ax{filter:url(#g);}</style><linearGradient id="d" x1="-525.674" y1="-375.41" x2="-525.674" y2="83.945" gradientTransform="translate(635.417 315.821) rotate(8.648)" gradientUnits="userSpaceOnUse"><stop offset="0" stop-color="#47c1f0"/><stop offset=".5" stop-color="#00a0e4"/><stop offset="1" stop-color="#008cd3"/></linearGradient><filter id="g" x="104.081" y="49.769" width="58.766" height="13.108" color-interpolation-filters="sRGB" filterUnits="userSpaceOnUse"><feFlood flood-color="#fff" result="bg"/><feBlend in="SourceGraphic" in2="bg"/></filter><filter id="j" x="104.081" y="-13281.143" width="58.766" height="32766" color-interpolation-filters="sRGB" filterUnits="userSpaceOnUse"><feFlood flood-color="#fff" result="bg"/><feBlend in="SourceGraphic" in2="bg"/></filter><mask id="h" x="104.081" y="-13281.143" width="58.766" height="32766" maskUnits="userSpaceOnUse"><g class="an"/></mask><linearGradient id="k" x1="-564.118" y1="-181.566" x2="-505.233" y2="-181.566" gradientTransform="translate(635.417 315.821) rotate(8.648)" gradientUnits="userSpaceOnUse"><stop offset=".001" stop-color="#fff"/><stop offset="1" stop-color="#000"/></linearGradient><mask id="e" x="104.081" y="49.769" width="58.766" height="13.108" maskUnits="userSpaceOnUse"><g class="ax"><g class="ac"><path class="ag" d="M104.081,57.638s.775-.62,2.275-1.477c.74-.453,1.669-.928,2.75-1.47,1.098-.478,2.324-1.106,3.728-1.58,.7-.252,1.428-.52,2.183-.797,.763-.246,1.568-.444,2.391-.681,1.636-.502,3.417-.82,5.255-1.184,.922-.168,1.873-.245,2.833-.362,.96-.098,1.93-.259,2.918-.249,1.976-.053,3.988-.144,5.997,.062l3.008,.249c.988,.179,1.972,.361,2.947,.538,1.969,.29,3.835,.904,5.631,1.484,1.825,.49,3.462,1.339,5.023,2.065,.775,.374,1.546,.697,2.254,1.084,.681,.44,1.34,.864,1.971,1.272,1.249,.825,2.414,1.531,3.337,2.314,.927,.786,1.694,1.512,2.329,2.097,1.264,1.171,1.934,1.877,1.934,1.877,0,0-.933-.37-2.48-1.076-.771-.359-1.708-.774-2.741-1.301-1.055-.49-2.337-.862-3.639-1.41-.655-.257-1.341-.525-2.05-.799-.727-.217-1.476-.444-2.251-.674-1.546-.456-3.138-.991-4.862-1.29-.849-.188-1.71-.375-2.583-.57-.866-.222-1.781-.256-2.674-.414-.9-.134-1.809-.268-2.717-.4l-2.768-.187c-1.84-.221-3.702-.142-5.531-.201-1.828-.009-3.634,.114-5.389,.172-1.74,.197-3.458,.212-5.057,.463-1.612,.191-3.139,.386-4.55,.614-1.417,.2-2.698,.476-3.865,.652-1.134,.26-2.164,.402-2.984,.601-1.664,.343-2.624,.58-2.624,.58Z"/></g></g></mask><linearGradient id="l" x1="-564.118" y1="-181.566" x2="-505.233" y2="-181.566" gradientTransform="translate(635.417 315.821) rotate(8.648)" gradientUnits="userSpaceOnUse"><stop offset=".001" stop-color="#fff"/><stop offset="1" stop-color="#fff"/></linearGradient><filter id="o" x="112.798" y="99.466" width="17.559" height="11.284" color-interpolation-filters="sRGB" filterUnits="userSpaceOnUse"><feFlood flood-color="#fff" result="bg"/><feBlend in="SourceGraphic" in2="bg"/></filter><filter id="r" x="112.798" y="-13281.143" width="17.559" height="32766" color-interpolation-filters="sRGB" filterUnits="userSpaceOnUse"><feFlood flood-color="#fff" result="bg"/><feBlend in="SourceGraphic" in2="bg"/></filter><mask id="p" x="112.798" y="-13281.143" width="17.559" height="32766" maskUnits="userSpaceOnUse"><g class="at"/></mask><linearGradient id="s" x1="-547.955" y1="-130.711" x2="-531.629" y2="-130.711" xlink:href="#k"/><mask id="m" x="112.798" y="99.466" width="17.559" height="11.284" maskUnits="userSpaceOnUse"><g class="av"><g class="au"><path class="ai" d="M113.4,110.75s-.236-.322-.423-.995c-.185-.664-.278-1.676-.021-2.889,.074-.298,.165-.607,.266-.928,.126-.305,.278-.616,.435-.941,.339-.62,.774-1.257,1.3-1.812,.527-.561,1.116-1.107,1.784-1.519,.641-.49,1.356-.793,2.064-1.127,.717-.345,1.45-.496,2.175-.693,.721-.225,1.439-.247,2.13-.319,1.386-.168,2.662,.052,3.74,.197,.539,.079,1.028,.262,1.458,.392,.43,.119,.8,.279,1.104,.396,.606,.246,.945,.441,.945,.441,0,0-.337,.228-.914,.528-.575,.314-1.391,.658-2.334,1.055-.467,.207-.971,.417-1.497,.609-.534,.173-1.071,.392-1.616,.611-.543,.219-1.131,.374-1.662,.618-.526,.25-1.138,.372-1.63,.65-.522,.226-1.067,.428-1.533,.688-.236,.132-.502,.227-.732,.352-.219,.136-.438,.27-.672,.385-.442,.254-.849,.528-1.237,.805-.388,.286-.75,.577-1.067,.885-1.33,1.194-2.063,2.611-2.063,2.611Z"/></g></g></mask><linearGradient id="t" x1="-547.955" y1="-130.711" x2="-531.629" y2="-130.711" xlink:href="#l"/><filter id="w" x="85.948" y="150.751" width="10.513" height="16.181" color-interpolation-filters="sRGB" filterUnits="userSpaceOnUse"><feFlood flood-color="#fff" result="bg"/><feBlend in="SourceGraphic" in2="bg"/></filter><filter id="a`" x="85.948" y="-13281.143" width="10.513" height="32766" color-interpolation-filters="sRGB" filterUnits="userSpaceOnUse"><feFlood flood-color="#fff" result="bg"/><feBlend in="SourceGraphic" in2="bg"/></filter><mask id="x" x="85.948" y="-13281.143" width="10.513" height="32766" maskUnits="userSpaceOnUse"><g class="ao"/></mask><linearGradient id="aa" x1="-566.854" y1="-73.642" x2="-557.619" y2="-73.642" xlink:href="#k"/><mask id="u" x="85.948" y="150.751" width="10.513" height="16.181" maskUnits="userSpaceOnUse"><g class="ap"><g class="aq"><path class="ah" d="M96.462,150.96s-.917,.987-2.295,2.469c-.294,.363-.646,.692-.94,1.089-.331,.364-.617,.766-.907,1.156-.279,.393-.533,.797-.755,1.191-.199,.406-.428,.785-.532,1.203-.231,.378-.204,.832-.379,1.241-.05,.442-.105,.896-.179,1.359,.025,.48,.005,.964-.024,1.448,.04,.484,.087,.962,.102,1.427,0,.468,.027,.912,.091,1.307,.057,.39,.066,.761,.088,1.069,.034,.615,.015,1.013,.015,1.013,0,0-.334-.159-.853-.525-.255-.186-.581-.409-.907-.699-.169-.148-.351-.305-.542-.464-.169-.184-.317-.393-.496-.606-.327-.437-.686-.923-1.016-1.479-.262-.596-.521-1.255-.747-1.956-.134-.733-.254-1.534-.235-2.35,.104-.821,.158-1.692,.513-2.479,.169-.391,.309-.803,.519-1.163,.216-.359,.466-.693,.699-1.03,.22-.354,.53-.602,.803-.881,.282-.266,.544-.553,.857-.739,.592-.438,1.192-.792,1.787-1.035,.583-.286,1.175-.418,1.698-.566,1.083-.213,1.988-.243,2.633-.175,.639,.053,1.004,.176,1.004,.176Z"/></g></g></mask><linearGradient id="ab" x1="-566.854" y1="-73.642" x2="-557.619" y2="-73.642" xlink:href="#l"/></defs><g class="aj"><g id="a"/><g id="b"><g id="c"><rect class="ad" width="279.818" height="227.726" rx="12" ry="12"/><g><g><path class="ae" d="M90.448,164.499c-1.223-2.705-1.772-5.416-1.65-8.142,.113-2.721,.85-5.129,2.207-7.219,1.352-2.089,3.251-3.616,5.697-4.577,2.441-.965,5.233-1.057,8.377-.282,3.429,.82,6.214,2.465,8.358,4.939,2.144,2.472,4.344,4.806,6.603,7.002,2.256,2.199,4.786,3.837,7.584,4.931,2.794,1.092,6.489,.654,11.088-1.315,1.121-.567,2.104-1.194,2.954-1.884,.843-.683,1.693-1.408,2.551-2.166,1.046-1.025,1.844-1.902,2.401-2.636,.555-.727,1.149-1.712,1.78-2.95,1.245-2.327,2.173-4.557,2.795-6.684,.618-2.13,.97-4.445,1.058-6.951-1.555-4.382-3.861-7.477-6.921-9.275-3.06-1.798-6.338-3.15-9.829-4.05-3.495-.901-6.944-1.836-10.353-2.797-3.409-.965-6.18-2.718-8.31-5.266-1.885-2.21-2.897-4.585-3.027-7.126-.135-2.537-3.745-3.821-2.609-5.947,1.136-2.121,6.932-4.949,9.153-6.39,2.219-1.441,4.734-2.169,7.553-2.186,2.237-.103,4.651-.144,7.24-.122,2.587,.027,5.103-.184,7.543-.631,2.433-.441,4.764-1.161,6.994-2.158,2.223-.993,4.153-2.477,5.786-4.451,.386-1.572,.659-3.124,.819-4.654,.158-1.533-.014-3.076-.517-4.636-1.252-1.522-3.176-2.738-5.778-3.653-2.603-.913-5.395-1.563-8.371-1.941-2.98-.376-5.817-.474-8.509-.293-2.696,.184-4.896,.513-6.596,.997-4.002,2.947-7.803,4.034-11.386,3.268-3.588-.768-6.435-2.496-8.543-5.189-2.112-2.691-3.192-5.819-3.24-9.382-.052-3.561,1.435-6.522,4.459-8.876,2.379-2.006,4.941-3.508,7.684-4.499,2.741-.989,5.703-1.687,8.875-2.094,7.692-.904,15.562-.779,23.609,.368,8.049,1.15,15.271,4.065,21.673,8.739,5.204,3.757,8.856,8.237,10.952,13.444,2.098,5.209,2.919,10.52,2.468,15.93-.458,5.415-2.098,10.609-4.925,15.586-2.834,4.977-6.656,9.174-11.472,12.589,4.664,4.412,7.975,9.175,9.94,14.287,1.96,5.115,2.889,10.218,2.781,15.31-.108,5.096-1.171,10.122-3.181,15.072-2.014,4.955-4.806,9.455-8.385,13.503-3.581,4.048-18.792,13.815-23.619,16.858-4.834,3.042-9.801,3.14-15.486,4.5-4.923,1.174,1.092-2.774-3.374-3.598-4.467-.827-8.726-2.294-12.777-4.389-4.053-2.098-7.873-4.717-11.471-7.853-3.6-3.138-6.901-6.493-9.913-10.064l-.737-.999Z"/><path class="as" d="M84.852,167.757c-1.221-2.704-1.772-5.418-1.652-8.143,.115-2.72,.854-5.127,2.207-7.22,1.357-2.088,3.253-3.615,5.699-4.576,2.441-.965,5.233-1.057,8.377-.282,3.429,.82,6.214,2.466,8.36,4.939,2.14,2.472,4.342,4.806,6.601,7.003,2.256,2.197,4.784,3.837,7.584,4.929,2.794,1.093,6.489,.654,11.088-1.314,1.121-.567,2.104-1.193,2.954-1.883,.843-.685,1.693-1.409,2.551-2.168,1.043-1.024,1.844-1.901,2.401-2.635,.555-.728,1.149-1.712,1.782-2.951,1.243-2.327,2.173-4.558,2.793-6.684,.62-2.13,.972-4.444,1.058-6.951-1.555-4.382-3.863-7.477-6.924-9.275-3.058-1.798-6.334-3.148-9.827-4.05-3.495-.9-6.944-1.835-10.351-2.796-3.409-.965-6.182-2.718-8.31-5.266-1.89-2.21-2.899-4.584-3.029-7.126-.133-2.537,.369-4.867,1.509-6.992,1.134-2.122,2.813-3.904,5.034-5.344,2.219-1.441,4.736-2.168,7.553-2.186,2.239-.103,4.649-.144,7.24-.122,2.587,.028,5.099-.184,7.541-.631,2.435-.441,4.767-1.161,6.994-2.157,2.223-.994,4.158-2.478,5.788-4.45,.384-1.573,.661-3.126,.821-4.654,.156-1.533-.016-3.077-.517-4.636-1.252-1.523-3.178-2.739-5.78-3.654-2.604-.913-5.393-1.563-8.371-1.941-2.98-.376-5.815-.473-8.511-.293-2.694,.184-4.893,.514-6.594,.997-4.004,2.947-7.801,4.035-11.386,3.268-3.588-.767-6.435-2.496-8.545-5.189-2.11-2.69-3.19-5.819-3.238-9.382-.054-3.56,1.437-6.52,4.459-8.876,2.379-2.005,4.941-3.507,7.684-4.499,2.743-.988,5.703-1.687,8.877-2.094,7.69-.904,15.562-.778,23.609,.368,8.047,1.15,15.271,4.065,21.669,8.739,5.206,3.757,8.861,8.238,10.956,13.444,2.096,5.21,2.917,10.52,2.464,15.93-.453,5.415-2.094,10.609-4.923,15.587-2.834,4.976-6.656,9.174-11.47,12.588,4.662,4.412,7.97,9.174,9.935,14.287,1.965,5.116,2.891,10.218,2.783,15.311-.106,5.095-1.169,10.121-3.178,15.071-2.016,4.955-4.813,9.455-8.387,13.503-3.581,4.048-7.787,7.595-12.617,10.636-4.834,3.043-10.096,5.243-15.783,6.599-4.921,1.177-9.614,1.349-14.079,.526-4.465-.827-8.726-2.294-12.775-4.388-4.053-2.1-7.878-4.719-11.473-7.855-3.6-3.138-6.901-6.493-9.915-10.065l-.735-.997Z"/></g><g class="af"><path class="am" d="M104.081,57.638s.775-.62,2.275-1.477c.74-.453,1.669-.928,2.75-1.47,1.098-.478,2.324-1.106,3.728-1.58,.7-.252,1.428-.52,2.183-.797,.763-.246,1.568-.444,2.391-.681,1.636-.502,3.417-.82,5.255-1.184,.922-.168,1.873-.245,2.833-.362,.96-.098,1.93-.259,2.918-.249,1.976-.053,3.988-.144,5.997,.062l3.008,.249c.988,.179,1.972,.361,2.947,.538,1.969,.29,3.835,.904,5.631,1.484,1.825,.49,3.462,1.339,5.023,2.065,.775,.374,1.546,.697,2.254,1.084,.681,.44,1.34,.864,1.971,1.272,1.249,.825,2.414,1.531,3.337,2.314,.927,.786,1.694,1.512,2.329,2.097,1.264,1.171,1.934,1.877,1.934,1.877,0,0-.933-.37-2.48-1.076-.771-.359-1.708-.774-2.741-1.301-1.055-.49-2.337-.862-3.639-1.41-.655-.257-1.341-.525-2.05-.799-.727-.217-1.476-.444-2.251-.674-1.546-.456-3.138-.991-4.862-1.29-.849-.188-1.71-.375-2.583-.57-.866-.222-1.781-.256-2.674-.414-.9-.134-1.809-.268-2.717-.4l-2.768-.187c-1.84-.221-3.702-.142-5.531-.201-1.828-.009-3.634,.114-5.389,.172-1.74,.197-3.458,.212-5.057,.463-1.612,.191-3.139,.386-4.55,.614-1.417,.2-2.698,.476-3.865,.652-1.134,.26-2.164,.402-2.984,.601-1.664,.343-2.624,.58-2.624,.58Z"/></g><g class="aw"><path class="ak" d="M113.4,110.75s-.236-.322-.423-.995c-.185-.664-.278-1.676-.021-2.889,.074-.298,.165-.607,.266-.928,.126-.305,.278-.616,.435-.941,.339-.62,.774-1.257,1.3-1.812,.527-.561,1.116-1.107,1.784-1.519,.641-.49,1.356-.793,2.064-1.127,.717-.345,1.45-.496,2.175-.693,.721-.225,1.439-.247,2.13-.319,1.386-.168,2.662,.052,3.74,.197,.539,.079,1.028,.262,1.458,.392,.43,.119,.8,.279,1.104,.396,.606,.246,.945,.441,.945,.441,0,0-.337,.228-.914,.528-.575,.314-1.391,.658-2.334,1.055-.467,.207-.971,.417-1.497,.609-.534,.173-1.071,.392-1.616,.611-.543,.219-1.131,.374-1.662,.618-.526,.25-1.138,.372-1.63,.65-.522,.226-1.067,.428-1.533,.688-.236,.132-.502,.227-.732,.352-.219,.136-.438,.27-.672,.385-.442,.254-.849,.528-1.237,.805-.388,.286-.75,.577-1.067,.885-1.33,1.194-2.063,2.611-2.063,2.611Z"/></g><g class="ar"><path class="al" d="M96.462,150.96s-.917,.987-2.295,2.469c-.294,.363-.646,.692-.94,1.089-.331,.364-.617,.766-.907,1.156-.279,.393-.533,.797-.755,1.191-.199,.406-.428,.785-.532,1.203-.231,.378-.204,.832-.379,1.241-.05,.442-.105,.896-.179,1.359,.025,.48,.005,.964-.024,1.448,.04,.484,.087,.962,.102,1.427,0,.468,.027,.912,.091,1.307,.057,.39,.066,.761,.088,1.069,.034,.615,.015,1.013,.015,1.013,0,0-.334-.159-.853-.525-.255-.186-.581-.409-.907-.699-.169-.148-.351-.305-.542-.464-.169-.184-.317-.393-.496-.606-.327-.437-.686-.923-1.016-1.479-.262-.596-.521-1.255-.747-1.956-.134-.733-.254-1.534-.235-2.35,.104-.821,.158-1.692,.513-2.479,.169-.391,.309-.803,.519-1.163,.216-.359,.466-.693,.699-1.03,.22-.354,.53-.602,.803-.881,.282-.266,.544-.553,.857-.739,.592-.438,1.192-.792,1.787-1.035,.583-.286,1.175-.418,1.698-.566,1.083-.213,1.988-.243,2.633-.175,.639,.053,1.004,.176,1.004,.176Z"/></g></g></g></g></g></svg>