<?xml version="1.0" encoding="UTF-8"?><svg xmlns="http://www.w3.org/2000/svg" xmlns:xlink="http://www.w3.org/1999/xlink" viewBox="0 0 279.818 227.726"><defs><style>.u{mask:url(#h);}.v{fill:#fff;}.w{fill:#720936;}.x{mask:url(#e);}.y{fill:url(#k);}.y,.a`{mix-blend-mode:multiply;}.aa{isolation:isolate;}.ab{fill:url(#t);}.ab,.ac{mix-blend-mode:screen;}.ad{filter:url(#j);}.ac{fill:url(#l);}.ae{fill:url(#d);}.af{filter:url(#r);}.ag{mask:url(#p);}.a`{fill:url(#s);}.ah{filter:url(#o);}.ai{mask:url(#m);}.aj{filter:url(#g);}</style><linearGradient id="d" x1="563.814" y1="35.041" x2="563.814" y2="484.96" gradientTransform="translate(-455.013 -119.725) rotate(-5.394)" gradientUnits="userSpaceOnUse"><stop offset="0" stop-color="#e30613"/><stop offset="1" stop-color="#ff001a"/></linearGradient><filter id="g" x="91.151" y="55.661" width="36.733" height="81.584" color-interpolation-filters="sRGB" filterUnits="userSpaceOnUse"><feFlood flood-color="#fff" result="bg"/><feBlend in="SourceGraphic" in2="bg"/></filter><filter id="j" x="91.151" y="-13281.143" width="36.733" height="32766" color-interpolation-filters="sRGB" filterUnits="userSpaceOnUse"><feFlood flood-color="#fff" result="bg"/><feBlend in="SourceGraphic" in2="bg"/></filter><mask id="h" x="91.151" y="-13281.143" width="36.733" height="32766" maskUnits="userSpaceOnUse"><g class="ad"/></mask><linearGradient id="k" x1="519.577" y1="268.278" x2="563.815" y2="268.278" gradientTransform="translate(-455.013 -119.725) rotate(-5.394)" gradientUnits="userSpaceOnUse"><stop offset=".001" stop-color="#fff"/><stop offset="1" stop-color="#000"/></linearGradient><mask id="e" x="91.151" y="55.661" width="36.733" height="81.584" maskUnits="userSpaceOnUse"><g class="aj"><g class="u"><path class="y" d="M127.885,55.661s-1.573,5.426-4.499,13.308c-.723,1.973-1.509,4.11-2.403,6.342-.881,2.238-1.788,4.61-2.812,7.024-1.019,2.415-2.008,4.94-3.128,7.455-1.105,2.521-2.23,5.081-3.35,7.642-1.175,2.538-2.346,5.077-3.499,7.577-1.131,2.509-2.37,4.921-3.504,7.285-2.304,4.713-4.547,9.068-6.548,12.766-3.963,7.415-6.99,12.185-6.99,12.185,0,0,1.564-5.43,4.49-13.312,1.441-3.95,3.216-8.517,5.215-13.365,1.021-2.416,2.003-4.944,3.132-7.453,1.107-2.521,2.23-5.081,3.352-7.641,1.173-2.538,2.346-5.077,3.502-7.575,1.14-2.504,2.372-4.92,3.506-7.284,1.129-2.366,2.304-4.618,3.396-6.76,1.079-2.148,2.159-4.154,3.154-6.005,3.961-7.416,6.986-12.187,6.986-12.187Z"/></g></g></mask><linearGradient id="l" x1="519.577" y1="268.278" x2="563.815" y2="268.278" gradientTransform="translate(-455.013 -119.725) rotate(-5.394)" gradientUnits="userSpaceOnUse"><stop offset=".001" stop-color="#fff"/><stop offset="1" stop-color="#fff"/></linearGradient><filter id="o" x="140.182" y="99.447" width="7.218" height="25.913" color-interpolation-filters="sRGB" filterUnits="userSpaceOnUse"><feFlood flood-color="#fff" result="bg"/><feBlend in="SourceGraphic" in2="bg"/></filter><filter id="r" x="140.182" y="-13281.143" width="7.218" height="32766" color-interpolation-filters="sRGB" filterUnits="userSpaceOnUse"><feFlood flood-color="#fff" result="bg"/><feBlend in="SourceGraphic" in2="bg"/></filter><mask id="p" x="140.182" y="-13281.143" width="7.218" height="32766" maskUnits="userSpaceOnUse"><g class="af"/></mask><linearGradient id="s" x1="570.609" y1="287.541" x2="579.128" y2="287.541" xlink:href="#k"/><mask id="m" x="140.182" y="99.447" width="7.218" height="25.913" maskUnits="userSpaceOnUse"><g class="ah"><g class="ag"><path class="a`" d="M147.4,99.453s-.347,.337-.705,.983c-.18,.321-.362,.712-.529,1.173-.184,.442-.296,.995-.448,1.543-.112,.584-.246,1.181-.316,1.856-.13,.638-.134,1.377-.233,2.087-.044,.738-.09,1.501-.141,2.276,.011,.793-.068,1.583-.075,2.39-.015,.814-.022,1.625-.077,2.427,.013,.812-.018,1.612-.055,2.393-.081,1.562-.112,3.05-.286,4.347-.105,1.296-.255,2.398-.406,3.183-.141,.784-.275,1.248-.275,1.248,0,0-.277-.386-.659-1.085-.391-.701-.896-1.718-1.399-2.969-.428-1.269-.923-2.759-1.199-4.414-.134-.829-.264-1.69-.349-2.569-.053-.889-.055-1.796-.066-2.703,.037-.909,.138-1.834,.25-2.729,.149-.904,.356-1.791,.6-2.636,.305-.85,.558-1.655,.977-2.396,.356-.743,.828-1.407,1.272-1.986,.488-.569,.964-1.048,1.465-1.402,.457-.382,.964-.609,1.353-.769,.806-.319,1.301-.249,1.301-.249Z"/></g></g></mask><linearGradient id="t" x1="570.609" y1="287.541" x2="579.128" y2="287.541" xlink:href="#l"/></defs><g class="aa"><g id="a"/><g id="b"><g id="c"><rect class="v" width="279.818" height="227.726" rx="12" ry="12"/><g><g><path class="w" d="M171.582,174.435c-1.571,2.452-8.025,8.752-10.278,10.047-2.258,1.293-.123-2.688-2.682-3.096-2.559-.404-4.903-1.951-7.029-4.631-1.32-1.75-2.304-3.818-2.961-6.203-.659-2.389-1.149-4.899-1.47-7.535-.321-2.635-.525-5.172-.611-7.617-.088-2.438-.292-4.581-.606-6.427-5.43,.513-11.001,1.006-16.721,1.472-5.72,.469-11.3,.888-16.741,1.257-1.713,.16-3.502,.33-5.356,.505-1.858,.176-3.695,.169-5.512-.02-1.823-.184-3.552-.6-5.2-1.239-1.645-.635-3.113-1.685-4.4-3.149-2.118-2.538-3.133-5.289-3.049-8.251,.077-2.959,.659-5.932,1.749-8.92,1.09-2.983,2.436-5.85,4.053-8.596,1.612-2.746,2.832-5.093,3.655-7.046,3.08-7.062,6.278-14.027,9.593-20.898,3.313-6.869,6.513-13.762,9.611-20.684,.951-2.107,1.953-4.508,2.992-7.201,1.046-2.691,2.12-5.386,3.236-8.086,1.114-2.699,2.344-5.301,3.695-7.805,1.347-2.506-1.746-.271-.191-2.147,1.951-2.2,8.664-8.054,11.054-8.713,2.388-.658,4.692-.66,6.917-.004,2.221,.655,4.207,1.872,5.962,3.651,1.753,1.779,2.906,4.086,3.464,6.914,.303,1.7,.13,3.662-.525,5.884-.655,2.224-1.457,4.429-2.403,6.604-.947,2.18-1.916,4.146-2.9,5.894-.991,1.752-1.663,3.004-2.023,3.757-1.665,3.761-3.335,7.447-5.008,11.065-1.678,3.615-3.354,7.231-5.026,10.848-2.258,5.114-4.521,10.153-6.788,15.123-2.269,4.969-4.609,9.945-7.019,14.928,3.594-.049,7.003-.228,10.217-.533,3.212-.303,6.46-.61,9.747-.92-.222-3.868-.584-7.688-1.083-11.46-.501-3.771-4.429-5.564-3.908-9.215,.428-3.067,5.687-7.451,7.888-9.318,2.199-1.862,4.65-2.995,7.35-3.395,2.7-.396,5.294-.031,7.779,1.102,2.482,1.137,4.303,3.236,5.457,6.294,.771,2.089,1.342,4.303,1.709,6.647,.362,2.344,.619,4.664,.764,6.953,.143,2.293,.266,4.335,.362,6.126,.094,1.796,.185,3.117,.264,3.975,1.858-.176,3.598-.448,5.222-.819,1.621-.367,3.324-.275,5.105,.277,2.223,.655,4.303,1.72,6.245,3.192,1.94,1.476,3.433,3.171,4.479,5.09,1.046,1.92,1.489,3.965,1.338,6.141-.156,2.176-1.21,4.366-3.163,6.567-2.344,2.673-6.968,7.887-9.654,8.426-2.687,.546-3.633-2.634-7.06-2.309l1.819,19.281c-.002,3.027-.786,5.764-2.357,8.22Z"/><path class="ae" d="M167.039,178.859c-1.573,2.452-3.482,4.327-5.736,5.622-2.258,1.293-4.666,1.736-7.225,1.328-2.561-.404-4.905-1.949-7.029-4.631-1.32-1.749-2.307-3.818-2.963-6.204-.657-2.388-1.149-4.899-1.467-7.534-.323-2.635-.525-5.173-.613-7.617-.088-2.439-.29-4.582-.608-6.428-5.426,.514-11.001,1.006-16.717,1.472-5.72,.47-11.302,.889-16.739,1.257-1.716,.16-3.504,.329-5.358,.505-1.858,.176-3.695,.17-5.514-.02-1.821-.184-3.554-.6-5.197-1.238-1.647-.636-3.113-1.686-4.402-3.15-2.115-2.537-3.13-5.288-3.051-8.25,.081-2.959,.666-5.933,1.753-8.92,1.085-2.984,2.438-5.85,4.053-8.597,1.612-2.746,2.831-5.092,3.657-7.046,3.078-7.061,6.274-14.026,9.589-20.898,3.313-6.867,6.518-13.762,9.611-20.684,.951-2.107,1.951-4.508,2.996-7.201,1.039-2.691,2.118-5.386,3.234-8.085,1.114-2.699,2.344-5.302,3.695-7.806,1.347-2.505,2.796-4.695,4.352-6.571,1.951-2.2,4.121-3.63,6.511-4.288,2.386-.658,4.692-.66,6.915-.006,2.223,.655,4.209,1.872,5.966,3.651,1.751,1.782,2.902,4.086,3.462,6.914,.301,1.701,.127,3.663-.527,5.885-.655,2.224-1.456,4.427-2.401,6.604-.949,2.18-1.916,4.145-2.904,5.893-.989,1.752-1.661,3.004-2.019,3.758-1.667,3.761-3.335,7.448-5.008,11.065-1.678,3.616-3.354,7.231-5.028,10.849-2.256,5.113-4.521,10.153-6.786,15.122-2.269,4.969-4.611,9.944-7.021,14.929,3.598-.049,7.003-.228,10.219-.533,3.212-.303,6.458-.61,9.747-.92-.224-3.869-.584-7.69-1.083-11.461-.503-3.77-.49-7.482,.029-11.135,.431-3.067,1.746-5.531,3.95-7.399,2.199-1.861,4.648-2.994,7.352-3.394,2.695-.398,5.29-.031,7.779,1.101,2.485,1.138,4.301,3.236,5.457,6.294,.771,2.089,1.34,4.306,1.707,6.647,.362,2.344,.619,4.664,.764,6.953,.143,2.294,.264,4.336,.362,6.127,.097,1.795,.187,3.116,.268,3.974,1.852-.176,3.594-.448,5.217-.817,1.621-.369,3.326-.277,5.105,.275,2.225,.655,4.303,1.72,6.245,3.193,1.94,1.475,3.436,3.171,4.479,5.089,1.048,1.92,1.489,3.965,1.338,6.142-.156,2.177-1.208,4.365-3.163,6.566-2.342,2.673-4.857,4.279-7.541,4.82-2.689,.545-5.744,.974-9.171,1.298l1.821,19.281c-.004,3.027-.791,5.765-2.359,8.22Z"/></g><g class="x"><path class="ac" d="M127.885,55.661s-1.573,5.426-4.499,13.308c-.723,1.973-1.509,4.11-2.403,6.342-.881,2.238-1.788,4.61-2.812,7.024-1.019,2.415-2.008,4.94-3.128,7.455-1.105,2.521-2.23,5.081-3.35,7.642-1.175,2.538-2.346,5.077-3.499,7.577-1.131,2.509-2.37,4.921-3.504,7.285-2.304,4.713-4.547,9.068-6.548,12.766-3.963,7.415-6.99,12.185-6.99,12.185,0,0,1.564-5.43,4.49-13.312,1.441-3.95,3.216-8.517,5.215-13.365,1.021-2.416,2.003-4.944,3.132-7.453,1.107-2.521,2.23-5.081,3.352-7.641,1.173-2.538,2.346-5.077,3.502-7.575,1.14-2.504,2.372-4.92,3.506-7.284,1.129-2.366,2.304-4.618,3.396-6.76,1.079-2.148,2.159-4.154,3.154-6.005,3.961-7.416,6.986-12.187,6.986-12.187Z"/></g><g class="ai"><path class="ab" d="M147.4,99.453s-.347,.337-.705,.983c-.18,.321-.362,.712-.529,1.173-.184,.442-.296,.995-.448,1.543-.112,.584-.246,1.181-.316,1.856-.13,.638-.134,1.377-.233,2.087-.044,.738-.09,1.501-.141,2.276,.011,.793-.068,1.583-.075,2.39-.015,.814-.022,1.625-.077,2.427,.013,.812-.018,1.612-.055,2.393-.081,1.562-.112,3.05-.286,4.347-.105,1.296-.255,2.398-.406,3.183-.141,.784-.275,1.248-.275,1.248,0,0-.277-.386-.659-1.085-.391-.701-.896-1.718-1.399-2.969-.428-1.269-.923-2.759-1.199-4.414-.134-.829-.264-1.69-.349-2.569-.053-.889-.055-1.796-.066-2.703,.037-.909,.138-1.834,.25-2.729,.149-.904,.356-1.791,.6-2.636,.305-.85,.558-1.655,.977-2.396,.356-.743,.828-1.407,1.272-1.986,.488-.569,.964-1.048,1.465-1.402,.457-.382,.964-.609,1.353-.769,.806-.319,1.301-.249,1.301-.249Z"/></g></g></g></g></g></svg>