<?xml version="1.0" encoding="UTF-8"?><svg xmlns="http://www.w3.org/2000/svg" xmlns:xlink="http://www.w3.org/1999/xlink" viewBox="0 0 279.818 227.726"><defs><style>.v{filter:url(#k);}.w{fill:#fff;}.x{fill:url(#u);}.x,.y{mix-blend-mode:screen;}.a`{mask:url(#f);}.aa{mask:url(#n);}.ab{isolation:isolate;}.ac{fill:url(#l);}.ac,.ad{mix-blend-mode:multiply;}.ae{filter:url(#s);}.af{filter:url(#p);}.ad{fill:url(#t);}.ag{filter:url(#h);}.y{fill:url(#m);}.ah{mask:url(#i);}.ai{fill:url(#d);}.aj{fill:url(#e);}.ak{mask:url(#q);}</style><linearGradient id="d" x1="3256.436" y1="-1063.678" x2="3151.581" y2="-860.016" gradientTransform="translate(-3028.845 1029.601) rotate(-.352)" gradientUnits="userSpaceOnUse"><stop offset="0" stop-color="#fecc00"/><stop offset="1" stop-color="#c76b43"/></linearGradient><linearGradient id="e" x1="3168.915" y1="-1141.401" x2="3168.915" y2="-685.237" gradientTransform="translate(-3028.845 1029.601) rotate(-.352)" gradientUnits="userSpaceOnUse"><stop offset="0" stop-color="#ffeba9"/><stop offset=".5" stop-color="#fecc00"/><stop offset="1" stop-color="#f8ae00"/></linearGradient><filter id="h" x="91.58" y="55.077" width="67.358" height="16.593" color-interpolation-filters="sRGB" filterUnits="userSpaceOnUse"><feFlood flood-color="#fff" result="bg"/><feBlend in="SourceGraphic" in2="bg"/></filter><filter id="k" x="91.58" y="-13281.143" width="67.358" height="32766" color-interpolation-filters="sRGB" filterUnits="userSpaceOnUse"><feFlood flood-color="#fff" result="bg"/><feBlend in="SourceGraphic" in2="bg"/></filter><mask id="i" x="91.58" y="-13281.143" width="67.358" height="32766" maskUnits="userSpaceOnUse"><g class="v"/></mask><linearGradient id="l" x1="3126.223" y1="-946.909" x2="3193.642" y2="-946.909" gradientTransform="translate(-3028.845 1029.601) rotate(-.352)" gradientUnits="userSpaceOnUse"><stop offset=".001" stop-color="#fff"/><stop offset="1" stop-color="#000"/></linearGradient><mask id="f" x="91.58" y="55.077" width="67.358" height="16.593" maskUnits="userSpaceOnUse"><g class="ag"><g class="ah"><path class="ac" d="M92.098,71.67s-.38-1.161-.506-3.32c-.033-1.075-.02-2.41,.289-3.941,.32-1.511,.947-3.283,2.291-4.882,1.299-1.611,3.364-2.948,5.698-3.459,.573-.143,1.161-.188,1.754-.285l.899-.115,.809-.052c1.078-.082,2.179-.108,3.3-.16,2.235-.076,4.553-.229,6.906-.252,2.349-.043,4.741-.086,7.132-.126,2.396,.006,4.782,.018,7.135,.024,2.356,.015,4.67,.124,6.913,.176,4.481,.14,8.668,.373,12.251,.668,3.588,.258,6.584,.595,8.671,.853,2.102,.255,3.297,.458,3.297,.458,0,0-1.187,.225-3.28,.505-2.088,.285-5.08,.653-8.658,.959-3.58,.34-7.768,.621-12.239,.817-2.245,.082-4.557,.223-6.909,.258-2.35,.046-4.744,.077-7.136,.12-2.39-.018-4.783-.03-7.133-.041-2.352,.006-4.673-.118-6.905-.164-1.125-.04-2.23-.048-3.31-.12l-.803-.046-.682,.015c-.446,.022-.917-.007-1.345,.051-1.735,.204-3.214,.846-4.369,1.831-1.144,.994-1.965,2.279-2.532,3.52-.522,1.267-.867,2.458-1.088,3.461-.407,2.022-.452,3.249-.452,3.249Z"/></g></g></mask><linearGradient id="m" x1="3126.223" y1="-946.909" x2="3193.642" y2="-946.909" gradientTransform="translate(-3028.845 1029.601) rotate(-.352)" gradientUnits="userSpaceOnUse"><stop offset=".001" stop-color="#fff"/><stop offset="1" stop-color="#fff"/></linearGradient><filter id="p" x="111.375" y="120.412" width="51.672" height="47.709" color-interpolation-filters="sRGB" filterUnits="userSpaceOnUse"><feFlood flood-color="#fff" result="bg"/><feBlend in="SourceGraphic" in2="bg"/></filter><filter id="s" x="111.375" y="-13281.143" width="51.672" height="32766" color-interpolation-filters="sRGB" filterUnits="userSpaceOnUse"><feFlood flood-color="#fff" result="bg"/><feBlend in="SourceGraphic" in2="bg"/></filter><mask id="q" x="111.375" y="-13281.143" width="51.672" height="32766" maskUnits="userSpaceOnUse"><g class="ae"/></mask><linearGradient id="t" x1="3114.84" y1="-849.77" x2="3221.31" y2="-880.018" xlink:href="#l"/><mask id="n" x="111.375" y="120.412" width="51.672" height="47.709" maskUnits="userSpaceOnUse"><g class="af"><g class="ak"><path class="ad" d="M111.375,127.246s.263-.232,.801-.633c.539-.389,1.338-.99,2.433-1.603,1.087-.639,2.442-1.351,4.083-2.009,.811-.37,1.713-.631,2.649-.974,.951-.302,1.973-.543,3.044-.81,2.148-.432,4.53-.824,7.07-.803,.644,.002,1.289,.004,1.944-.003,.654,.054,1.309,.105,1.982,.165,1.345,.05,2.683,.355,4.059,.628,2.726,.584,5.492,1.471,8.145,2.695l.512,.218,.126,.053,.064,.029,.2,.105,.23,.132,.91,.518,1.825,1.042c.593,.288,1.257,.905,1.884,1.354l1.896,1.487c.549,.559,1.066,1.138,1.587,1.711,.505,.587,1.09,1.106,1.495,1.776,.847,1.298,1.794,2.527,2.37,3.958,.326,.699,.683,1.377,.957,2.079,.207,.732,.418,1.456,.624,2.177l.301,1.074,.156,1.102c.094,.726,.197,1.449,.29,2.163,.054,.72,.021,1.439,.036,2.15-.024,.702,.045,1.407-.106,2.088-.246,1.365-.338,2.713-.788,3.952-.188,.625-.37,1.239-.551,1.851-.209,.596-.497,1.16-.749,1.713-.27,.544-.514,1.094-.786,1.615-.321,.489-.64,.972-.951,1.44-.318,.469-.596,.943-.926,1.362-.351,.405-.709,.795-1.04,1.174-.351,.376-.681,.74-1.012,1.09-.352,.321-.73,.607-1.079,.893-.723,.538-1.293,1.157-2.004,1.502-.668,.373-1.295,.721-1.851,1.029-.528,.34-1.084,.492-1.545,.656-.465,.158-.859,.291-1.176,.401-.627,.221-.965,.328-.965,.328,0,0,.296-.197,.848-.568,.54-.392,1.406-.839,2.323-1.629,.916-.802,2.038-1.724,3.067-3.034,.264-.319,.552-.629,.823-.962,.232-.371,.476-.751,.72-1.144,.25-.377,.508-.771,.763-1.17,.246-.411,.423-.872,.647-1.312,.207-.449,.43-.901,.647-1.37,.18-.481,.318-.994,.482-1.502,.143-.507,.359-1.003,.484-1.533,.107-.537,.203-1.082,.308-1.63,.293-1.087,.235-2.254,.324-3.412,.023-1.155-.089-2.344-.184-3.537-.429-2.36-1.042-4.771-2.269-6.947-.469-1.156-1.294-2.127-1.994-3.172-.738-1.013-1.712-1.862-2.549-2.795l-1.416-1.149-.695-.586-.355-.3-.449-.272-1.808-1.077-.893-.538-.229-.135-.029-.015c-.036-.029,.256,.138,.121,.062l-.061-.024-.105-.05-.455-.203c-2.375-1.115-4.749-2.147-7.165-2.783-1.204-.327-2.392-.642-3.583-.821-.597-.108-1.177-.222-1.76-.331-.593-.059-1.169-.11-1.744-.163-2.298-.228-4.506-.175-6.548-.066-2.024,.202-3.902,.445-5.551,.808-1.642,.363-3.078,.734-4.233,1.124-2.341,.74-3.628,1.36-3.628,1.36Z"/></g></g></mask><linearGradient id="u" x1="3114.84" y1="-849.77" x2="3221.31" y2="-880.018" xlink:href="#m"/></defs><g class="ab"><g id="a"/><g id="b"><g id="c"><rect class="w" x="0" width="279.818" height="227.726" rx="12" ry="12"/><g><path class="ai" d="M97.974,178.909c-2.192-2.457-3.522-5.139-3.97-8.046-.457-2.904-.141-5.559,.925-7.966,1.077-2.413,2.843-4.387,5.316-5.926,2.461-1.545,5.437-2.178,8.93-1.907,1.893,.283,3.753,.958,5.575,2.035,1.825,1.085,3.541,2.057,5.152,2.921,2.184,1.148,4.695,2.112,7.543,2.896,2.834,.783,5.494,1.026,7.965,.715,3.196-.312,6.17-.913,8.934-1.8,2.751-.889,5.365-2.436,7.824-4.63,2.887-2.781,4.833-5.846,5.83-9.199,1.997-5.685,1.974-10.339-.08-13.962-2.062-3.623-5.056-6.298-8.994-8.017-3.943-1.722-8.385-2.679-13.328-2.866-4.946-.181-9.452,.312-13.515,1.5-.434,.439-.869,.881-1.297,1.322-.439,.436-.873,.802-1.305,1.097-1.734,1.755-3.694,2.856-5.874,3.308-2.178,.449-4.286,.43-6.327-.073-2.04-.492-3.902-1.505-5.582-3.017-1.683-1.52-2.895-3.439-3.632-5.764-1.039-2.899-1.532-5.988-1.477-9.255,.052-3.275,0-6.361-.163-9.274-.164-2.182-.246-4.399-.257-6.655-.015-2.248-.108-4.542-.264-6.869-.002-.436-.008-1.421-.02-2.95-.008-1.523-.055-3.123-.138-4.796-.085-1.671-.166-3.303-.241-4.907-.092-1.598-.131-2.76-.132-3.485-1.323-1.446-2.24-3.116-2.756-5.007-.533-1.885-.687-3.775-.478-5.665,.21-1.894,.778-3.678,1.715-5.361,.933-1.674,2.273-3.097,4.01-4.272,2.457-1.764,5.253-2.656,8.38-2.677,3.126-.017,6.142-.033,9.052-.054,1.745-.01,4.51-.059,8.288-.161,3.78-.093,7.67-.186,11.679-.286,3.993-.098,7.7-.189,11.121-.287,3.418-.093,5.562-.147,6.433-.149,3.781-.166,6.909-.443,9.378-.821,2.461-.377,5.158,.007,8.083,1.152,2.622,.857,4.701,2.3,6.244,4.322,1.541,2.028,2.457,4.242,2.766,6.639,.301,2.397,.022,4.767-.831,7.098-.861,2.331-2.453,4.303-4.761,5.918-3.05,2.202-6.566,3.314-10.565,3.337-4,.025-7.673,.05-11.017,.068-4.946,.174-9.851,.242-14.722,.197-4.873-.039-9.787,.031-14.729,.197,.021,3.204,.07,6.367,.165,9.497,.092,3.121,.221,6.285,.389,9.484,3.489-.746,7.051-1.204,10.682-1.374,3.63-.166,7.199,.028,10.69,.587,3.938,.708,7.651,1.773,11.156,3.203,3.493,1.438,6.994,3.232,10.498,5.39,4.238,2.597,7.817,5.916,10.754,9.971,2.928,4.057,5.292,8.411,7.062,13.049,2.213,5.803,3.156,11.509,2.827,17.108-.326,5.608-1.639,10.919-3.94,15.949-2.295,5.033-5.429,9.634-9.401,13.805-3.971,4.168-8.426,7.619-13.358,10.33-4.927,2.728-10.186,4.685-15.776,5.883-5.596,1.195-11.231,1.301-16.908,.319-10.041-1.677-19.596-5.333-28.645-10.95l-.883-.87Z"/><path class="aj" d="M92.997,182.974c-2.2-2.455-3.522-5.139-3.983-8.049-.45-2.904-.139-5.562,.94-7.966,1.075-2.41,2.841-4.382,5.307-5.923,2.465-1.539,5.435-2.175,8.932-1.91,1.895,.28,3.751,.961,5.578,2.043,1.822,1.076,3.531,2.048,5.144,2.91,2.189,1.154,4.706,2.118,7.542,2.898,2.842,.781,5.501,1.026,7.974,.712,3.194-.309,6.174-.908,8.932-1.797,2.757-.887,5.364-2.433,7.826-4.634,2.892-2.775,4.837-5.84,5.83-9.198,2.002-5.682,1.973-10.336-.083-13.956-2.06-3.626-5.057-6.298-8.991-8.023-3.939-1.716-8.388-2.674-13.33-2.863-4.95-.187-9.453,.314-13.517,1.503-.435,.442-.867,.878-1.301,1.316-.434,.439-.867,.805-1.299,1.1-1.735,1.755-3.696,2.859-5.874,3.308-2.172,.449-4.286,.43-6.331-.067-2.037-.497-3.896-1.502-5.572-3.022-1.693-1.515-2.898-3.433-3.642-5.759-1.033-2.896-1.523-5.991-1.472-9.264,.052-3.276-.008-6.361-.164-9.271-.159-2.18-.246-4.399-.259-6.652-.019-2.253-.105-4.548-.264-6.868-.003-.436-.007-1.424-.02-2.95-.005-1.528-.053-3.126-.136-4.799-.086-1.667-.166-3.303-.25-4.904-.085-1.598-.124-2.76-.129-3.491-1.321-1.448-2.236-3.11-2.759-5.001-.519-1.885-.678-3.778-.469-5.668,.203-1.894,.778-3.678,1.712-5.355,.934-1.677,2.272-3.109,4.01-4.286,2.461-1.759,5.254-2.645,8.38-2.662,3.128-.02,6.145-.038,9.06-.054,1.747-.013,4.507-.068,8.29-.164,3.78-.093,7.67-.186,11.666-.289,4-.098,7.709-.191,11.127-.284,3.411-.093,5.561-.144,6.435-.152,3.781-.166,6.906-.437,9.379-.823,2.468-.377,5.164,.009,8.074,1.155,2.628,.86,4.708,2.3,6.25,4.325,1.54,2.028,2.457,4.242,2.769,6.633,.304,2.406,.027,4.772-.837,7.094-.853,2.342-2.444,4.315-4.762,5.919-3.036,2.205-6.562,3.32-10.559,3.339-4.001,.028-7.674,.053-11.02,.074-4.944,.172-9.857,.239-14.721,.198-4.872-.042-9.783,.023-14.729,.197,.022,3.201,.078,6.365,.169,9.488,.094,3.132,.224,6.294,.386,9.49,3.484-.749,7.042-1.202,10.68-1.371,3.631-.169,7.206,.028,10.699,.585,3.925,.705,7.644,1.773,11.139,3.208,3.505,1.43,7.005,3.227,10.507,5.388,4.233,2.591,7.818,5.913,10.755,9.968,2.927,4.06,5.285,8.411,7.062,13.049,2.213,5.803,3.158,11.506,2.829,17.105-.327,5.611-1.641,10.922-3.936,15.955-2.302,5.033-5.429,9.634-9.407,13.803-3.977,4.165-8.431,7.616-13.358,10.33-4.926,2.725-10.186,4.685-15.776,5.883-5.596,1.195-11.234,1.306-16.909,.323-10.049-1.689-19.596-5.333-28.644-10.953l-.878-.867Z"/><g class="a`"><path class="y" d="M92.098,71.67s-.38-1.161-.506-3.32c-.033-1.075-.02-2.41,.289-3.941,.32-1.511,.947-3.283,2.291-4.882,1.299-1.611,3.364-2.948,5.698-3.459,.573-.143,1.161-.188,1.754-.285l.899-.115,.809-.052c1.078-.082,2.179-.108,3.3-.16,2.235-.076,4.553-.229,6.906-.252,2.349-.043,4.741-.086,7.132-.126,2.396,.006,4.782,.018,7.135,.024,2.356,.015,4.67,.124,6.913,.176,4.481,.14,8.668,.373,12.251,.668,3.588,.258,6.584,.595,8.671,.853,2.102,.255,3.297,.458,3.297,.458,0,0-1.187,.225-3.28,.505-2.088,.285-5.08,.653-8.658,.959-3.58,.34-7.768,.621-12.239,.817-2.245,.082-4.557,.223-6.909,.258-2.35,.046-4.744,.077-7.136,.12-2.39-.018-4.783-.03-7.133-.041-2.352,.006-4.673-.118-6.905-.164-1.125-.04-2.23-.048-3.31-.12l-.803-.046-.682,.015c-.446,.022-.917-.007-1.345,.051-1.735,.204-3.214,.846-4.369,1.831-1.144,.994-1.965,2.279-2.532,3.52-.522,1.267-.867,2.458-1.088,3.461-.407,2.022-.452,3.249-.452,3.249Z"/></g><g class="aa"><path class="x" d="M111.375,127.246s.263-.232,.801-.633c.539-.389,1.338-.99,2.433-1.603,1.087-.639,2.442-1.351,4.083-2.009,.811-.37,1.713-.631,2.649-.974,.951-.302,1.973-.543,3.044-.81,2.148-.432,4.53-.824,7.07-.803,.644,.002,1.289,.004,1.944-.003,.654,.054,1.309,.105,1.982,.165,1.345,.05,2.683,.355,4.059,.628,2.726,.584,5.492,1.471,8.145,2.695l.512,.218,.126,.053,.064,.029,.2,.105,.23,.132,.91,.518,1.825,1.042c.593,.288,1.257,.905,1.884,1.354l1.896,1.487c.549,.559,1.066,1.138,1.587,1.711,.505,.587,1.09,1.106,1.495,1.776,.847,1.298,1.794,2.527,2.37,3.958,.326,.699,.683,1.377,.957,2.079,.207,.732,.418,1.456,.624,2.177l.301,1.074,.156,1.102c.094,.726,.197,1.449,.29,2.163,.054,.72,.021,1.439,.036,2.15-.024,.702,.045,1.407-.106,2.088-.246,1.365-.338,2.713-.788,3.952-.188,.625-.37,1.239-.551,1.851-.209,.596-.497,1.16-.749,1.713-.27,.544-.514,1.094-.786,1.615-.321,.489-.64,.972-.951,1.44-.318,.469-.596,.943-.926,1.362-.351,.405-.709,.795-1.04,1.174-.351,.376-.681,.74-1.012,1.09-.352,.321-.73,.607-1.079,.893-.723,.538-1.293,1.157-2.004,1.502-.668,.373-1.295,.721-1.851,1.029-.528,.34-1.084,.492-1.545,.656-.465,.158-.859,.291-1.176,.401-.627,.221-.965,.328-.965,.328,0,0,.296-.197,.848-.568,.54-.392,1.406-.839,2.323-1.629,.916-.802,2.038-1.724,3.067-3.034,.264-.319,.552-.629,.823-.962,.232-.371,.476-.751,.72-1.144,.25-.377,.508-.771,.763-1.17,.246-.411,.423-.872,.647-1.312,.207-.449,.43-.901,.647-1.37,.18-.481,.318-.994,.482-1.502,.143-.507,.359-1.003,.484-1.533,.107-.537,.203-1.082,.308-1.63,.293-1.087,.235-2.254,.324-3.412,.023-1.155-.089-2.344-.184-3.537-.429-2.36-1.042-4.771-2.269-6.947-.469-1.156-1.294-2.127-1.994-3.172-.738-1.013-1.712-1.862-2.549-2.795l-1.416-1.149-.695-.586-.355-.3-.449-.272-1.808-1.077-.893-.538-.229-.135-.029-.015c-.036-.029,.256,.138,.121,.062l-.061-.024-.105-.05-.455-.203c-2.375-1.115-4.749-2.147-7.165-2.783-1.204-.327-2.392-.642-3.583-.821-.597-.108-1.177-.222-1.76-.331-.593-.059-1.169-.11-1.744-.163-2.298-.228-4.506-.175-6.548-.066-2.024,.202-3.902,.445-5.551,.808-1.642,.363-3.078,.734-4.233,1.124-2.341,.74-3.628,1.36-3.628,1.36Z"/></g></g></g></g></g></svg>