<?xml version="1.0" encoding="UTF-8"?><svg xmlns="http://www.w3.org/2000/svg" xmlns:xlink="http://www.w3.org/1999/xlink" viewBox="0 0 279.818 227.726"><defs><style>.u{mask:url(#h);}.v{fill:#fff;}.w{mask:url(#e);}.x{fill:url(#k);}.x,.y{mix-blend-mode:multiply;}.a`{fill:#2d853e;}.aa{isolation:isolate;}.ab{fill:url(#t);}.ab,.ac{mix-blend-mode:screen;}.ad{filter:url(#j);}.ac{fill:url(#l);}.ae{fill:url(#d);}.af{filter:url(#r);}.ag{mask:url(#p);}.y{fill:url(#s);}.ah{filter:url(#o);}.ai{mask:url(#m);}.aj{filter:url(#g);}</style><linearGradient id="d" x1="3256.867" y1="97.25" x2="3256.867" y2="547.569" gradientTransform="translate(-3118.319 488.339) rotate(-12.569)" gradientUnits="userSpaceOnUse"><stop offset="0" stop-color="#dae5a7"/><stop offset=".295" stop-color="#b8d26e"/><stop offset="1" stop-color="#58ab32"/></linearGradient><filter id="g" x="93.894" y="66.136" width="22.189" height="80.924" color-interpolation-filters="sRGB" filterUnits="userSpaceOnUse"><feFlood flood-color="#fff" result="bg"/><feBlend in="SourceGraphic" in2="bg"/></filter><filter id="j" x="93.894" y="-13281.143" width="22.189" height="32766" color-interpolation-filters="sRGB" filterUnits="userSpaceOnUse"><feFlood flood-color="#fff" result="bg"/><feBlend in="SourceGraphic" in2="bg"/></filter><mask id="h" x="93.894" y="-13281.143" width="22.189" height="32766" maskUnits="userSpaceOnUse"><g class="ad"/></mask><linearGradient id="k" x1="3213.26" y1="329.377" x2="3248.827" y2="329.377" gradientTransform="translate(-3118.319 488.339) rotate(-12.569)" gradientUnits="userSpaceOnUse"><stop offset=".001" stop-color="#fff"/><stop offset="1" stop-color="#000"/></linearGradient><mask id="e" x="93.894" y="66.136" width="22.189" height="80.924" maskUnits="userSpaceOnUse"><g class="aj"><g class="u"><path class="x" d="M116.083,66.136s-.592,1.21-1.62,3.318c-1.008,2.107-2.436,5.126-4.027,8.762-.8,1.82-1.6,3.818-2.48,5.9-.849,2.112-1.676,4.348-2.531,6.655-.879,2.296-1.596,4.739-2.411,7.176-.777,2.465-1.481,4.975-2.081,7.514-.623,2.529-1.213,5.078-1.653,7.599-.453,2.518-.86,5.016-1.119,7.446-.243,2.422-.452,4.774-.527,7.017-.085,1.125-.029,2.204-.057,3.27-.039,1.062-.011,2.079,.027,3.062,.036,1.97,.218,3.768,.315,5.387,.173,1.609,.344,3.009,.464,4.161,.381,2.3,.553,3.654,.553,3.654,0,0-.567-1.219-1.459-3.422-.409-1.1-.883-2.471-1.351-4.053-.414-1.606-.947-3.415-1.248-5.433-.397-2.011-.664-4.229-.814-6.565-.159-2.352-.231-4.833-.103-7.401,.146-2.562,.313-5.214,.752-7.88,.368-2.677,.948-5.346,1.584-8.004,.683-2.637,1.484-5.245,2.343-7.781,.861-2.543,1.871-4.983,2.894-7.312,.994-2.345,2.125-4.527,3.207-6.594,1.086-2.059,2.201-3.95,3.284-5.673,2.122-3.453,4.168-6.156,5.632-7.992,1.48-1.842,2.426-2.813,2.426-2.813Z"/></g></g></mask><linearGradient id="l" x1="3213.26" y1="329.377" x2="3248.827" y2="329.377" gradientTransform="translate(-3118.319 488.339) rotate(-12.569)" gradientUnits="userSpaceOnUse"><stop offset=".001" stop-color="#fff"/><stop offset="1" stop-color="#fff"/></linearGradient><filter id="o" x="141.79" y="118.412" width="24.483" height="16.877" color-interpolation-filters="sRGB" filterUnits="userSpaceOnUse"><feFlood flood-color="#fff" result="bg"/><feBlend in="SourceGraphic" in2="bg"/></filter><filter id="r" x="141.79" y="-13281.143" width="24.483" height="32766" color-interpolation-filters="sRGB" filterUnits="userSpaceOnUse"><feFlood flood-color="#fff" result="bg"/><feBlend in="SourceGraphic" in2="bg"/></filter><mask id="p" x="141.79" y="-13281.143" width="24.483" height="32766" maskUnits="userSpaceOnUse"><g class="af"/></mask><linearGradient id="s" x1="3254.611" y1="372.68" x2="3297.582" y2="344.033" xlink:href="#k"/><mask id="m" x="141.79" y="118.412" width="24.483" height="16.877" maskUnits="userSpaceOnUse"><g class="ah"><g class="ag"><path class="y" d="M141.79,121.744s.353-.412,1.117-.942c.385-.275,.867-.562,1.446-.861,.587-.28,1.261-.627,2.048-.843,.765-.275,1.643-.437,2.588-.58,.477-.074,.97-.049,1.464-.094,.516-.028,1.03-.007,1.554,.07,.531,.053,1.078,.12,1.616,.216,.531,.14,1.075,.284,1.608,.461,1.101,.284,2.078,.928,3.119,1.429,.886,.699,1.881,1.308,2.622,2.114,.393,.394,.754,.805,1.106,1.201,.362,.408,.708,.802,.963,1.257,.541,.867,1.073,1.701,1.484,2.515,.336,.861,.647,1.677,.905,2.421,.283,.731,.414,1.455,.515,2.104,.111,.618,.172,1.178,.229,1.645,.095,.907,.101,1.433,.101,1.433,0,0-.395-.385-.977-1.078-.3-.349-.656-.755-1.02-1.241-.353-.482-.783-1.015-1.286-1.55-.481-.542-.98-1.136-1.487-1.765-.538-.596-1.154-1.155-1.727-1.789-.549-.646-1.298-1.1-1.892-1.706-.646-.572-1.396-.976-2.072-1.511l-1.1-.591c-.363-.208-.72-.438-1.117-.56-.393-.154-.769-.32-1.144-.492-.39-.12-.785-.225-1.171-.36-.77-.276-1.567-.374-2.321-.549-.771-.097-1.514-.242-2.208-.264-1.411-.143-2.65-.13-3.533-.124-.894,0-1.426,.036-1.426,.036Z"/></g></g></mask><linearGradient id="t" x1="3254.611" y1="372.68" x2="3297.582" y2="344.033" xlink:href="#l"/></defs><g class="aa"><g id="a"/><g id="b"><g id="c"><rect class="v" width="279.818" height="227.726" rx="12" ry="12"/><g><g><path class="a`" d="M142.982,61.185c-4.484,6.296-8.205,12.826-11.19,19.589-2.982,6.774-5.553,13.861-7.726,21.264,2.554-1.752,5.233-3.236,8.048-4.447,2.824-1.218,5.857-2.116,9.125-2.694,4.538-.715,8.745-1.002,12.603-.825,3.873,.169,8.058,.843,12.59,2.039,5.987,1.762,10.913,4.894,14.784,9.394,3.875,4.508,6.743,9.644,8.614,15.399,1.881,5.764,2.769,11.738,2.683,17.929-.099,6.211-1.032,11.858-2.837,16.975-2.444,6.869-6.658,12.373-12.658,16.501-5.988,4.128-12.334,7.012-19.032,8.652-6.933,1.839-14.025,2.023-21.277,.553-8.287-1.534-15.672-5.328-22.162-11.387-6.845-6.271-11.72-13.456-14.638-21.562-2.903-8.108-4.446-16.472-4.607-25.119-.164-8.635,.837-17.352,2.996-26.161,2.163-8.781,4.937-17.094,8.345-24.909,1.917-4.548,4.142-9.268,6.658-14.179,2.52-4.9,5.483-9.2,8.919-12.911,2.837-3.13,5.943-4.743,9.298-4.824,3.368-.097,6.283,.799,8.764,2.675,2.473,1.881,4.126,4.455,4.923,7.727,.8,3.283,.066,6.716-2.222,10.318Zm-16.583,77.763c-.59,2.245-.132,4.428,1.749,7.713-.172-.136-.335-.277-.507-.413,6.63,8.448,17.943,11.192,27.9,7.896,2.746-.899,5.18-2.544,7.296-4.935,1.669-1.694,2.765-3.894,3.274-6.574,.505-2.685,.514-5.409,.043-8.181-.472-2.765-1.417-5.341-2.832-7.752-1.411-2.402-3.187-4.096-5.33-5.098-2.299-1.1-4.653-1.606-7.06-1.508-2.405,.093-4.774,.549-7.097,1.351-3.686,1.264-6.722,3.128-9.133,5.569-1.844,1.59-3.458,3.414-4.832,5.495-1.749,2.63-2.981,4.555-3.472,6.436Z"/><path class="ae" d="M139.023,66.144c-4.484,6.299-8.207,12.832-11.194,19.601-2.966,6.765-5.548,13.846-7.726,21.24,2.559-1.747,5.234-3.218,8.06-4.443,2.822-1.212,5.847-2.106,9.11-2.689,4.543-.707,8.749-.994,12.61-.826,3.866,.169,8.06,.86,12.594,2.05,5.978,1.749,10.91,4.883,14.784,9.394,3.87,4.503,6.74,9.633,8.62,15.401,1.869,5.758,2.757,11.734,2.67,17.929-.089,6.2-1.033,11.858-2.835,16.965-2.442,6.863-6.651,12.372-12.651,16.497-5.994,4.127-12.335,7.018-19.028,8.66-6.948,1.844-14.04,2.026-21.288,.547-8.286-1.537-15.672-5.328-22.172-11.377-6.839-6.269-11.719-13.462-14.631-21.563-2.903-8.108-4.445-16.475-4.607-25.116-.154-8.648,.842-17.367,3.004-26.165,2.15-8.782,4.928-17.087,8.346-24.912,1.92-4.554,4.143-9.271,6.65-14.175,2.519-4.897,5.482-9.197,8.93-12.904,2.825-3.134,5.931-4.75,9.298-4.844,3.357-.084,6.279,.814,8.755,2.683,2.476,1.872,4.118,4.459,4.92,7.736,.809,3.279,.068,6.713-2.219,10.309Zm-16.881,77.688c-.164,.621-.564,1.446-1.21,2.482,.222,.385,.579,.962,1.046,1.743,.472,.789,.912,1.485,1.356,2.126,.437,.642,.726,1.091,.853,1.353,.133,.261-.088,.093-.664-.511,1.247,1.635,2.908,3.136,4.981,4.517,2.08,1.377,3.998,2.456,5.792,3.224,1.311,.6,2.711,1.103,4.2,1.494,1.487,.417,3.031,.584,4.636,.513,2.893-.206,5.712-.755,8.448-1.664,2.746-.899,5.174-2.546,7.295-4.928,1.677-1.701,2.773-3.898,3.277-6.583,.498-2.687,.509-5.418,.049-8.179-.467-2.76-1.415-5.347-2.826-7.75-1.425-2.403-3.201-4.097-5.331-5.092-2.31-1.107-4.663-1.616-7.069-1.521-2.413,.097-4.781,.548-7.096,1.348-3.695,1.271-6.732,3.139-9.128,5.573-1.849,1.588-3.461,3.423-4.834,5.501-1.383,2.068-2.643,4.191-3.774,6.354Z"/></g><g class="w"><path class="ac" d="M116.083,66.136s-.592,1.21-1.62,3.318c-1.008,2.107-2.436,5.126-4.027,8.762-.8,1.82-1.6,3.818-2.48,5.9-.849,2.112-1.676,4.348-2.531,6.655-.879,2.296-1.596,4.739-2.411,7.176-.777,2.465-1.481,4.975-2.081,7.514-.623,2.529-1.213,5.078-1.653,7.599-.453,2.518-.86,5.016-1.119,7.446-.243,2.422-.452,4.774-.527,7.017-.085,1.125-.029,2.204-.057,3.27-.039,1.062-.011,2.079,.027,3.062,.036,1.97,.218,3.768,.315,5.387,.173,1.609,.344,3.009,.464,4.161,.381,2.3,.553,3.654,.553,3.654,0,0-.567-1.219-1.459-3.422-.409-1.1-.883-2.471-1.351-4.053-.414-1.606-.947-3.415-1.248-5.433-.397-2.011-.664-4.229-.814-6.565-.159-2.352-.231-4.833-.103-7.401,.146-2.562,.313-5.214,.752-7.88,.368-2.677,.948-5.346,1.584-8.004,.683-2.637,1.484-5.245,2.343-7.781,.861-2.543,1.871-4.983,2.894-7.312,.994-2.345,2.125-4.527,3.207-6.594,1.086-2.059,2.201-3.95,3.284-5.673,2.122-3.453,4.168-6.156,5.632-7.992,1.48-1.842,2.426-2.813,2.426-2.813Z"/></g><g class="ai"><path class="ab" d="M141.79,121.744s.353-.412,1.117-.942c.385-.275,.867-.562,1.446-.861,.587-.28,1.261-.627,2.048-.843,.765-.275,1.643-.437,2.588-.58,.477-.074,.97-.049,1.464-.094,.516-.028,1.03-.007,1.554,.07,.531,.053,1.078,.12,1.616,.216,.531,.14,1.075,.284,1.608,.461,1.101,.284,2.078,.928,3.119,1.429,.886,.699,1.881,1.308,2.622,2.114,.393,.394,.754,.805,1.106,1.201,.362,.408,.708,.802,.963,1.257,.541,.867,1.073,1.701,1.484,2.515,.336,.861,.647,1.677,.905,2.421,.283,.731,.414,1.455,.515,2.104,.111,.618,.172,1.178,.229,1.645,.095,.907,.101,1.433,.101,1.433,0,0-.395-.385-.977-1.078-.3-.349-.656-.755-1.02-1.241-.353-.482-.783-1.015-1.286-1.55-.481-.542-.98-1.136-1.487-1.765-.538-.596-1.154-1.155-1.727-1.789-.549-.646-1.298-1.1-1.892-1.706-.646-.572-1.396-.976-2.072-1.511l-1.1-.591c-.363-.208-.72-.438-1.117-.56-.393-.154-.769-.32-1.144-.492-.39-.12-.785-.225-1.171-.36-.77-.276-1.567-.374-2.321-.549-.771-.097-1.514-.242-2.208-.264-1.411-.143-2.65-.13-3.533-.124-.894,0-1.426,.036-1.426,.036Z"/></g></g></g></g></g></svg>