<?xml version="1.0" encoding="UTF-8"?><svg xmlns="http://www.w3.org/2000/svg" xmlns:xlink="http://www.w3.org/1999/xlink" viewBox="0 0 279.818 227.726"><defs><style>.v{filter:url(#k);}.w{fill:#fff;}.x{fill:url(#u);}.x,.y{mix-blend-mode:screen;}.a`{mask:url(#f);}.aa{mask:url(#n);}.ab{isolation:isolate;}.ac{fill:url(#l);}.ac,.ad{mix-blend-mode:multiply;}.ae{filter:url(#s);}.af{filter:url(#p);}.ad{fill:url(#t);}.ag{filter:url(#h);}.y{fill:url(#m);}.ah{mask:url(#i);}.ai{fill:url(#d);}.aj{fill:url(#e);}.ak{mask:url(#q);}</style><linearGradient id="d" x1="-2004.421" y1="2272.119" x2="-2216.435" y2="2391.478" gradientTransform="translate(2295.18 -2209.967) rotate(.677)" gradientUnits="userSpaceOnUse"><stop offset="0" stop-color="#fecc00"/><stop offset="1" stop-color="#c76b43"/></linearGradient><linearGradient id="e" x1="-2131.772" y1="2102.118" x2="-2131.772" y2="2555.628" gradientTransform="translate(2295.18 -2209.967) rotate(.677)" gradientUnits="userSpaceOnUse"><stop offset="0" stop-color="#ffeba9"/><stop offset=".5" stop-color="#fecc00"/><stop offset="1" stop-color="#f8ae00"/></linearGradient><filter id="h" x="91.286" y="55.902" width="80.584" height="4.84" color-interpolation-filters="sRGB" filterUnits="userSpaceOnUse"><feFlood flood-color="#fff" result="bg"/><feBlend in="SourceGraphic" in2="bg"/></filter><filter id="k" x="91.286" y="-13030.143" width="80.584" height="32766" color-interpolation-filters="sRGB" filterUnits="userSpaceOnUse"><feFlood flood-color="#fff" result="bg"/><feBlend in="SourceGraphic" in2="bg"/></filter><mask id="i" x="91.286" y="-13030.143" width="80.584" height="32766" maskUnits="userSpaceOnUse"><g class="v"/></mask><linearGradient id="l" x1="-2176.847" y1="2293.605" x2="-2096.261" y2="2293.605" gradientTransform="translate(2295.18 -2209.967) rotate(.677)" gradientUnits="userSpaceOnUse"><stop offset=".001" stop-color="#fff"/><stop offset="1" stop-color="#000"/></linearGradient><mask id="f" x="91.286" y="55.902" width="80.584" height="4.84" maskUnits="userSpaceOnUse"><g class="ag"><g class="ah"><path class="ac" d="M91.286,57.843s1.259-.198,3.472-.443c2.2-.242,5.357-.552,9.132-.791,1.9-.124,3.943-.261,6.11-.339,2.16-.092,4.448-.216,6.817-.247,2.351-.026,4.794-.141,7.27-.118,2.489,.006,5.005,.008,7.526,.006,2.511,.063,5.033,.106,7.512,.164,2.476,.052,4.913,.213,7.271,.302,4.715,.218,9.125,.532,12.903,.888,3.775,.322,6.911,.715,9.114,1.011,2.207,.29,3.456,.517,3.456,.517,0,0-1.256,.19-3.456,.431-2.219,.247-5.37,.569-9.147,.805-3.782,.267-8.195,.466-12.915,.584-2.361,.035-4.811,.135-7.286,.129-2.477-.011-4.999-.011-7.507-.026-2.534-.052-5.046-.118-7.528-.166-2.479-.029-4.907-.201-7.267-.293-2.371-.086-4.646-.267-6.804-.402-2.166-.135-4.219-.319-6.1-.489-3.774-.333-6.922-.71-9.119-1.008-2.196-.296-3.455-.514-3.455-.514Z"/></g></g></mask><linearGradient id="m" x1="-2176.847" y1="2293.605" x2="-2096.261" y2="2293.605" gradientTransform="translate(2295.18 -2209.967) rotate(.677)" gradientUnits="userSpaceOnUse"><stop offset=".001" stop-color="#fff"/><stop offset="1" stop-color="#fff"/></linearGradient><filter id="p" x="117.317" y="100.737" width="26.702" height="75.308" color-interpolation-filters="sRGB" filterUnits="userSpaceOnUse"><feFlood flood-color="#fff" result="bg"/><feBlend in="SourceGraphic" in2="bg"/></filter><filter id="s" x="117.317" y="-13030.143" width="26.702" height="32766" color-interpolation-filters="sRGB" filterUnits="userSpaceOnUse"><feFlood flood-color="#fff" result="bg"/><feBlend in="SourceGraphic" in2="bg"/></filter><mask id="q" x="117.317" y="-13030.143" width="26.702" height="32766" maskUnits="userSpaceOnUse"><g class="ae"/></mask><linearGradient id="t" x1="-2149.492" y1="2373.684" x2="-2123.612" y2="2373.684" xlink:href="#l"/><mask id="n" x="117.317" y="100.737" width="26.702" height="75.308" maskUnits="userSpaceOnUse"><g class="af"><g class="ak"><path class="ad" d="M144.019,100.737s-.452,1.193-1.247,3.254c-.831,2.061-1.963,4.984-3.398,8.464-1.406,3.483-3.039,7.544-4.791,11.901-.92,2.156-1.716,4.429-2.651,6.697-.95,2.268-1.776,4.61-2.663,6.932-.875,2.331-1.737,4.659-2.584,6.947-.749,2.325-1.648,4.564-2.361,6.774-.659,2.23-1.46,4.351-2.073,6.386-.566,2.058-1.198,3.983-1.733,5.774-.437,1.814-.891,3.463-1.297,4.935-.441,1.474-.641,2.785-.903,3.857-.498,2.15-.829,3.386-.829,3.386,0,0-.085-1.262-.127-3.486,.01-1.101-.131-2.489,.036-4.024,.106-1.541,.22-3.297,.409-5.202,.25-1.9,.575-3.938,.954-6.096,.397-2.153,.923-4.406,1.489-6.723,.612-2.311,1.285-4.673,2.009-7.076,.799-2.368,1.622-4.774,2.503-7.151,.966-2.351,1.86-4.731,2.884-7.007,.961-2.302,2.035-4.509,3.072-6.645,1.013-2.156,2.119-4.168,3.148-6.076,1.007-1.937,2.097-3.696,3.042-5.326,1.964-3.256,3.722-5.892,5.014-7.691,1.285-1.814,2.096-2.805,2.096-2.805Z"/></g></g></mask><linearGradient id="u" x1="-2149.492" y1="2373.684" x2="-2123.612" y2="2373.684" xlink:href="#m"/></defs><g class="ab"><g id="a"/><g id="b"><g id="c"><rect class="w" width="279.818" height="227.726" rx="12" ry="12"/><g><path class="ai" d="M144.044,181.456c-1.046,2.578-2.592,4.63-4.627,6.122-2.048,1.495-12.022,6.321-14.261,6.657-2.246,.336,3.34-3.897,1.119-4.86-2.239-.972-4.127-2.693-5.704-5.171-1.837-2.767-2.484-5.843-1.936-9.246,.536-3.382,1.046-6.458,1.516-9.197,2.943-16.302,7.462-32.225,13.578-47.782,6.112-15.54,14.017-30.049,23.725-43.529l-53.354-.636c-3.906-.037-6.997-1.161-9.285-3.365-2.291-2.196-3.637-4.774-4.027-7.751-.404-2.963-5.685-4.515-4.132-7.314,1.556-2.808,10.071-6.171,13.847-7.427,1.591-.411,3.252-.609,4.994-.589,13.593,.155,27.076,.289,40.45,.366,13.382,.092,26.86,.29,40.45,.582,2.607,.04,5.048,1.302,7.33,3.782,2.292,2.486,3.556,4.955,3.813,7.424,.247,4.331-.888,7.938-3.375,10.81-2.497,2.866-4.986,5.792-7.478,8.798-2.641,3.44-5.157,6.987-7.5,10.652-2.37,3.653-4.655,7.361-6.857,11.088-7.238,12.497-13.177,25.264-17.813,38.295-4.638,13.04-7.91,26.701-9.81,40.994l-.665,1.299Z"/><path class="aj" d="M136.22,185.368c-1.058,2.584-2.604,4.636-4.639,6.128-2.042,1.492-4.187,2.403-6.426,2.739-2.246,.336-4.495,.02-6.715-.942-2.233-.974-4.127-2.693-5.692-5.176-1.848-2.762-2.495-5.837-1.953-9.237,.548-3.388,1.046-6.458,1.522-9.2,2.948-16.305,7.467-32.227,13.578-47.782,6.111-15.54,14.023-30.052,23.73-43.532l-53.359-.634c-3.9-.04-6.997-1.161-9.291-3.363-2.285-2.199-3.62-4.782-4.018-7.748-.413-2.966,.169-5.855,1.729-8.657,1.54-2.796,4.202-4.831,7.978-6.088,1.596-.414,3.264-.615,4.999-.592,13.587,.157,27.075,.29,40.444,.369,13.382,.092,26.866,.287,40.456,.579,2.607,.04,5.048,1.302,7.33,3.782,2.286,2.489,3.555,4.955,3.818,7.421,.23,4.34-.881,7.953-3.381,10.813-2.498,2.866-4.981,5.789-7.478,8.798-2.641,3.441-5.157,6.987-7.505,10.655-2.36,3.659-4.643,7.355-6.851,11.085-7.232,12.494-13.171,25.261-17.801,38.289-4.65,13.046-7.922,26.706-9.821,40.999l-.654,1.293Z"/><g class="a`"><path class="y" d="M91.286,57.843s1.259-.198,3.472-.443c2.2-.242,5.357-.552,9.132-.791,1.9-.124,3.943-.261,6.11-.339,2.16-.092,4.448-.216,6.817-.247,2.351-.026,4.794-.141,7.27-.118,2.489,.006,5.005,.008,7.526,.006,2.511,.063,5.033,.106,7.512,.164,2.476,.052,4.913,.213,7.271,.302,4.715,.218,9.125,.532,12.903,.888,3.775,.322,6.911,.715,9.114,1.011,2.207,.29,3.456,.517,3.456,.517,0,0-1.256,.19-3.456,.431-2.219,.247-5.37,.569-9.147,.805-3.782,.267-8.195,.466-12.915,.584-2.361,.035-4.811,.135-7.286,.129-2.477-.011-4.999-.011-7.507-.026-2.534-.052-5.046-.118-7.528-.166-2.479-.029-4.907-.201-7.267-.293-2.371-.086-4.646-.267-6.804-.402-2.166-.135-4.219-.319-6.1-.489-3.774-.333-6.922-.71-9.119-1.008-2.196-.296-3.455-.514-3.455-.514Z"/></g><g class="aa"><path class="x" d="M144.019,100.737s-.452,1.193-1.247,3.254c-.831,2.061-1.963,4.984-3.398,8.464-1.406,3.483-3.039,7.544-4.791,11.901-.92,2.156-1.716,4.429-2.651,6.697-.95,2.268-1.776,4.61-2.663,6.932-.875,2.331-1.737,4.659-2.584,6.947-.749,2.325-1.648,4.564-2.361,6.774-.659,2.23-1.46,4.351-2.073,6.386-.566,2.058-1.198,3.983-1.733,5.774-.437,1.814-.891,3.463-1.297,4.935-.441,1.474-.641,2.785-.903,3.857-.498,2.15-.829,3.386-.829,3.386,0,0-.085-1.262-.127-3.486,.01-1.101-.131-2.489,.036-4.024,.106-1.541,.22-3.297,.409-5.202,.25-1.9,.575-3.938,.954-6.096,.397-2.153,.923-4.406,1.489-6.723,.612-2.311,1.285-4.673,2.009-7.076,.799-2.368,1.622-4.774,2.503-7.151,.966-2.351,1.86-4.731,2.884-7.007,.961-2.302,2.035-4.509,3.072-6.645,1.013-2.156,2.119-4.168,3.148-6.076,1.007-1.937,2.097-3.696,3.042-5.326,1.964-3.256,3.722-5.892,5.014-7.691,1.285-1.814,2.096-2.805,2.096-2.805Z"/></g></g></g></g></g></svg>