<?xml version="1.0" encoding="UTF-8"?>
<!DOCTYPE svg PUBLIC "-//W3C//DTD SVG 1.1//EN" "http://www.w3.org/Graphics/SVG/1.1/DTD/svg11.dtd">
<svg xmlns="http://www.w3.org/2000/svg" version="1.1" width="147px" height="85px" style="shape-rendering:geometricPrecision; text-rendering:geometricPrecision; image-rendering:optimizeQuality; fill-rule:evenodd; clip-rule:evenodd" xmlns:xlink="http://www.w3.org/1999/xlink">
<g><path style="opacity:0.933" fill="#a6a6a6" d="M 12.5,-0.5 C 50.8333,-0.5 89.1667,-0.5 127.5,-0.5C 127.5,-0.166667 127.5,0.166667 127.5,0.5C 89.4273,0.173214 51.4273,0.506547 13.5,1.5C 12.6618,1.15829 12.3284,0.491622 12.5,-0.5 Z"/></g>
<g><path style="opacity:1" fill="#d5d5d5" d="M 127.5,0.5 C 129.698,0.120121 131.365,0.786787 132.5,2.5C 92.8333,1.16667 53.1667,1.16667 13.5,2.5C 13.5,2.16667 13.5,1.83333 13.5,1.5C 51.4273,0.506547 89.4273,0.173214 127.5,0.5 Z"/></g>
<g><path style="opacity:1" fill="#fdfdfd" d="M 132.5,2.5 C 138.181,4.68154 142.014,8.68154 144,14.5C 144.5,29.4963 144.667,44.4963 144.5,59.5C 143.327,65.3722 140.327,70.0389 135.5,73.5C 132.868,74.3267 130.202,75.16 127.5,76C 88.4774,76.8095 49.4774,76.6428 10.5,75.5C 6.70699,71.3676 3.70699,66.7009 1.5,61.5C 1.33341,45.8298 1.50008,30.1631 2,14.5C 3.98604,8.68154 7.81938,4.68154 13.5,2.5C 53.1667,1.16667 92.8333,1.16667 132.5,2.5 Z"/></g>
<g><path style="opacity:0.362" fill="#bababa" d="M 9.5,-0.5 C 10.5,-0.5 11.5,-0.5 12.5,-0.5C 12.3284,0.491622 12.6618,1.15829 13.5,1.5C 13.5,1.83333 13.5,2.16667 13.5,2.5C 7.81938,4.68154 3.98604,8.68154 2,14.5C 1.50008,30.1631 1.33341,45.8298 1.5,61.5C 0.833333,47.8333 0.166667,34.1667 -0.5,20.5C -0.5,17.1667 -0.5,13.8333 -0.5,10.5C 2.85537,6.81329 6.18871,3.14662 9.5,-0.5 Z"/></g>
<g><path style="opacity:1" fill="#848484" d="M 71.5,16.5 C 72.5,16.5 73.5,16.5 74.5,16.5C 74.334,21.8437 74.5006,27.1771 75,32.5C 80.9229,36.7004 80.9229,41.0337 75,45.5C 74.6667,50.5 74.3333,55.5 74,60.5C 73.586,60.9574 73.086,61.2907 72.5,61.5C 67.6041,57.5583 62.9374,53.3916 58.5,49C 50.2722,50.4373 47.2722,47.1039 49.5,39C 47.2722,30.8961 50.2722,27.5627 58.5,29C 62.7287,24.6022 67.0621,20.4356 71.5,16.5 Z"/></g>
<g><path style="opacity:0.882" fill="#aaaaaa" d="M -0.5,20.5 C 0.166667,34.1667 0.833333,47.8333 1.5,61.5C 3.70699,66.7009 6.70699,71.3676 10.5,75.5C 5.3551,72.6955 1.68844,68.6955 -0.5,63.5C -0.5,49.1667 -0.5,34.8333 -0.5,20.5 Z"/></g>
<g><path style="opacity:1" fill="#bababa" d="M 127.5,0.5 C 127.5,0.166667 127.5,-0.166667 127.5,-0.5C 130.5,-0.5 133.5,-0.5 136.5,-0.5C 139.811,3.14662 143.145,6.81329 146.5,10.5C 146.5,13.8333 146.5,17.1667 146.5,20.5C 145.833,33.5 145.167,46.5 144.5,59.5C 144.667,44.4963 144.5,29.4963 144,14.5C 142.014,8.68154 138.181,4.68154 132.5,2.5C 131.365,0.786787 129.698,0.120121 127.5,0.5 Z"/></g>
<g><path style="opacity:1" fill="#8d8d8d" d="M 81.5,26.5 C 86.6636,29.1519 88.9969,33.4852 88.5,39.5C 88.7474,44.5957 86.7474,48.5957 82.5,51.5C 81.2801,51.1131 80.6135,50.2798 80.5,49C 87.1597,42.3038 87.1597,35.6372 80.5,29C 80.7432,28.0979 81.0766,27.2646 81.5,26.5 Z"/></g>
<g><path style="opacity:1" fill="#909090" d="M 84.5,20.5 C 86.7834,20.6079 88.7834,21.4412 90.5,23C 99.0258,34.8379 98.3591,46.1712 88.5,57C 87.2068,57.49 85.8734,57.6567 84.5,57.5C 84.3505,56.448 84.5172,55.448 85,54.5C 91.9293,48.7096 94.2626,41.3762 92,32.5C 90.431,28.928 88.0976,25.928 85,23.5C 84.5172,22.552 84.3505,21.552 84.5,20.5 Z"/></g>
<g><path style="opacity:1" fill="#aaaaaa" d="M 146.5,20.5 C 146.5,34.8333 146.5,49.1667 146.5,63.5C 144.259,68.2737 140.925,72.4404 136.5,76C 134.846,76.6077 133.179,77.1077 131.5,77.5C 132.833,76.1667 134.167,74.8333 135.5,73.5C 140.327,70.0389 143.327,65.3722 144.5,59.5C 145.167,46.5 145.833,33.5 146.5,20.5 Z"/></g>
<g><path style="opacity:0.378" fill="#151515" d="M 146.5,69.5 C 146.5,70.8333 146.5,72.1667 146.5,73.5C 146.167,73.5 145.833,73.5 145.5,73.5C 144.876,73.0831 144.543,72.4164 144.5,71.5C 144.747,70.2867 145.414,69.62 146.5,69.5 Z"/></g>
<g><path style="opacity:0.329" fill="#161616" d="M -0.5,69.5 C 0.586173,69.62 1.25284,70.2867 1.5,71.5C 1.45728,72.4164 1.12395,73.0831 0.5,73.5C 0.166667,73.5 -0.166667,73.5 -0.5,73.5C -0.5,72.1667 -0.5,70.8333 -0.5,69.5 Z"/></g>
<g><path style="opacity:0.98" fill="#444444" d="M -0.5,63.5 C 1.68844,68.6955 5.3551,72.6955 10.5,75.5C 10.9175,76.2216 11.5842,76.7216 12.5,77C 52.1653,77.5 91.8319,77.6667 131.5,77.5C 133.179,77.1077 134.846,76.6077 136.5,76C 140.925,72.4404 144.259,68.2737 146.5,63.5C 146.5,65.5 146.5,67.5 146.5,69.5C 145.414,69.62 144.747,70.2867 144.5,71.5C 144.543,72.4164 144.876,73.0831 145.5,73.5C 142.825,77.5011 139.825,81.1677 136.5,84.5C 136.167,84.5 135.833,84.5 135.5,84.5C 134.833,81.8333 134.167,81.8333 133.5,84.5C 93.1667,84.5 52.8333,84.5 12.5,84.5C 11.8333,81.8333 11.1667,81.8333 10.5,84.5C 10.1667,84.5 9.83333,84.5 9.5,84.5C 6.17517,81.1677 3.17517,77.5011 0.5,73.5C 1.12395,73.0831 1.45728,72.4164 1.5,71.5C 1.25284,70.2867 0.586173,69.62 -0.5,69.5C -0.5,67.5 -0.5,65.5 -0.5,63.5 Z"/></g>
<g><path style="opacity:1" fill="#d8d8d8" d="M 135.5,73.5 C 134.167,74.8333 132.833,76.1667 131.5,77.5C 91.8319,77.6667 52.1653,77.5 12.5,77C 11.5842,76.7216 10.9175,76.2216 10.5,75.5C 49.4774,76.6428 88.4774,76.8095 127.5,76C 130.202,75.16 132.868,74.3267 135.5,73.5 Z"/></g>
<g><path style="opacity:0.102" fill="#0f0f0f" d="M 12.5,84.5 C 11.8333,84.5 11.1667,84.5 10.5,84.5C 11.1667,81.8333 11.8333,81.8333 12.5,84.5 Z"/></g>
<g><path style="opacity:0.035" fill="#0d0d0d" d="M 135.5,84.5 C 134.833,84.5 134.167,84.5 133.5,84.5C 134.167,81.8333 134.833,81.8333 135.5,84.5 Z"/></g>
</svg>
