<?xml version="1.0" encoding="UTF-8"?>
<!DOCTYPE svg PUBLIC "-//W3C//DTD SVG 1.1//EN" "http://www.w3.org/Graphics/SVG/1.1/DTD/svg11.dtd">
<svg xmlns="http://www.w3.org/2000/svg" version="1.1" width="147px" height="85px" style="shape-rendering:geometricPrecision; text-rendering:geometricPrecision; image-rendering:optimizeQuality; fill-rule:evenodd; clip-rule:evenodd" xmlns:xlink="http://www.w3.org/1999/xlink">
<g><path style="opacity:0.27" fill="#f3f0f5" d="M 17.5,-0.5 C 57.1667,-0.5 96.8333,-0.5 136.5,-0.5C 139.811,3.14662 143.145,6.81329 146.5,10.5C 146.5,26.8333 146.5,43.1667 146.5,59.5C 145.833,45.5 145.167,31.5 144.5,17.5C 143.015,9.35003 138.348,4.0167 130.5,1.5C 92.8333,0.833333 55.1667,0.166667 17.5,-0.5 Z"/></g>
<g><path style="opacity:1" fill="#026429" d="M 130.5,1.5 C 138.348,4.0167 143.015,9.35003 144.5,17.5C 144.904,33.5431 144.404,49.5431 143,65.5C 139.838,70.8307 135.338,74.4974 129.5,76.5C 90.4389,76.9821 51.4389,76.4821 12.5,75C 8.33333,72.8333 5.16667,69.6667 3,65.5C 1.59391,49.2095 1.09391,32.8762 1.5,16.5C 3.20844,9.29259 7.54177,4.45926 14.5,2C 53.1652,1.50001 91.8319,1.33335 130.5,1.5 Z"/></g>
<g><path style="opacity:0.41" fill="#d9d2e1" d="M 9.5,-0.5 C 12.1667,-0.5 14.8333,-0.5 17.5,-0.5C 55.1667,0.166667 92.8333,0.833333 130.5,1.5C 91.8319,1.33335 53.1652,1.50001 14.5,2C 7.54177,4.45926 3.20844,9.29259 1.5,16.5C 0.833333,31.1667 0.166667,45.8333 -0.5,60.5C -0.5,43.8333 -0.5,27.1667 -0.5,10.5C 2.85537,6.81329 6.18871,3.14662 9.5,-0.5 Z"/></g>
<g><path style="opacity:1" fill="#f9f8fa" d="M 71.5,16.5 C 72.5,16.5 73.5,16.5 74.5,16.5C 74.334,21.8437 74.5006,27.1771 75,32.5C 79.7092,35.0423 80.7092,38.709 78,43.5C 77,44.1667 76,44.8333 75,45.5C 74.6667,50.5 74.3333,55.5 74,60.5C 73.586,60.9574 73.086,61.2907 72.5,61.5C 67.645,57.5679 62.9783,53.4012 58.5,49C 50.2722,50.4373 47.2722,47.1039 49.5,39C 47.2722,30.8961 50.2722,27.5627 58.5,29C 62.7553,24.5746 67.0886,20.408 71.5,16.5 Z"/></g>
<g><path style="opacity:1" fill="#c9c0d2" d="M 144.5,17.5 C 145.167,31.5 145.833,45.5 146.5,59.5C 146.5,60.8333 146.5,62.1667 146.5,63.5C 144.538,67.9836 141.538,71.817 137.5,75C 135.091,76.7068 132.425,77.5402 129.5,77.5C 129.5,77.1667 129.5,76.8333 129.5,76.5C 135.338,74.4974 139.838,70.8307 143,65.5C 144.404,49.5431 144.904,33.5431 144.5,17.5 Z"/></g>
<g><path style="opacity:1" fill="#d1c9d9" d="M 1.5,16.5 C 1.09391,32.8762 1.59391,49.2095 3,65.5C 5.16667,69.6667 8.33333,72.8333 12.5,75C 51.4389,76.4821 90.4389,76.9821 129.5,76.5C 129.5,76.8333 129.5,77.1667 129.5,77.5C 91.6689,78.6645 53.6689,78.8311 15.5,78C 8.04583,75.3736 2.71249,70.5403 -0.5,63.5C -0.5,62.5 -0.5,61.5 -0.5,60.5C 0.166667,45.8333 0.833333,31.1667 1.5,16.5 Z"/></g>
<g><path style="opacity:1" fill="#d8d7e0" d="M 81.5,26.5 C 89.8613,31.5341 91.6946,38.5341 87,47.5C 85.6487,49.019 84.1487,50.3523 82.5,51.5C 81.2801,51.1131 80.6135,50.2798 80.5,49C 85.8288,42.3052 85.8288,35.6385 80.5,29C 80.7432,28.0979 81.0766,27.2646 81.5,26.5 Z"/></g>
<g><path style="opacity:1" fill="#e3dfe8" d="M 84.5,20.5 C 87.7845,20.2693 90.2845,21.6026 92,24.5C 99.4601,37.4157 97.6268,48.7491 86.5,58.5C 85.2801,58.1131 84.6135,57.2798 84.5,56C 85.9443,53.5515 87.7776,51.3848 90,49.5C 94.587,39.58 92.9203,30.9134 85,23.5C 84.5172,22.552 84.3505,21.552 84.5,20.5 Z"/></g>
<g><path style="opacity:0.998" fill="#04632b" d="M -0.5,63.5 C 2.71249,70.5403 8.04583,75.3736 15.5,78C 53.6689,78.8311 91.6689,78.6645 129.5,77.5C 132.425,77.5402 135.091,76.7068 137.5,75C 141.538,71.817 144.538,67.9836 146.5,63.5C 146.5,66.8333 146.5,70.1667 146.5,73.5C 143.145,77.1867 139.811,80.8534 136.5,84.5C 94.1667,84.5 51.8333,84.5 9.5,84.5C 6.18871,80.8534 2.85537,77.1867 -0.5,73.5C -0.5,70.1667 -0.5,66.8333 -0.5,63.5 Z"/></g>
</svg>
