<svg xmlns="http://www.w3.org/2000/svg" viewBox="0 0 29.79 28.3"><defs><style>.cls-1{fill:#b751f7;fill-rule:evenodd;}</style></defs><g id="Capa_2" data-name="Capa 2"><g id="Capa_2-2" data-name="Capa 2"><path class="cls-1" d="M25,14.32a9.68,9.68,0,0,1-1.29,4.81,9.44,9.44,0,0,1-2.46,2.81.68.68,0,0,1-1-.22l-.5-.84a.69.69,0,0,1,.15-.88,7.15,7.15,0,0,0,1.76-2,7.31,7.31,0,0,0,0-7.28,7.45,7.45,0,0,0-1.86-2.13.69.69,0,0,1-.16-.89l.48-.84a.7.7,0,0,1,1-.2A9.48,9.48,0,0,1,23.74,9.5,9.66,9.66,0,0,1,25,14.32Z"/><path class="cls-1" d="M29.79,14.32A14.34,14.34,0,0,1,23.65,26.1a.65.65,0,0,1-.93-.21L22.19,25a.65.65,0,0,1,.2-.86,12,12,0,0,0,5-9.79,12.05,12.05,0,0,0-5.19-9.91A.65.65,0,0,1,22,3.55l.51-.91a.66.66,0,0,1,.93-.23,14.37,14.37,0,0,1,6.32,11.91Z"/><path class="cls-1" d="M19,14.32c-.21,2-1.5,3.72-3,4l-.13,8.74v.06a1.15,1.15,0,0,1-.46.9s0,0-.06.05a.09.09,0,0,1-.07,0A1.17,1.17,0,0,1,13.89,28a.57.57,0,0,1-.11-.11L5.55,20.23l-.74,0-3-.08A1.82,1.82,0,0,1,0,18.36V9.86A1.64,1.64,0,0,1,1.6,8.23l2.67-.06,1.29,0L14,.35h0A1.2,1.2,0,0,1,14.88,0a1.17,1.17,0,0,1,1.18,1.1v9.24A3.77,3.77,0,0,1,19,14.32Z"/></g></g></svg>