<?xml version="1.0" encoding="UTF-8"?><svg id="Capa_2" xmlns="http://www.w3.org/2000/svg" viewBox="0 0 31.02 30.43"><defs><style>.cls-1{fill:#009bdc;}</style></defs><g id="Capa_5_copia_2"><path class="cls-1" d="M31.02,4.16V26.27c0,2.3-1.86,4.16-4.16,4.16H12.63c-2.3,0-4.16-1.86-4.16-4.16v-3.61l3.06,.66v2.85c0,.66,.55,1.2,1.2,1.2h14.01c.66,0,1.2-.55,1.2-1.2V4.38c0-.66-.55-1.2-1.2-1.2H12.74c-.66,0-1.2,.55-1.2,1.2V12.59l-3.06-.22v-2.74c-6.13,2.85-4.71,4.27-1.31,5.03,.44,.11,.88,.22,1.31,.22,.99,.11,2.08,.22,3.06,.33,.66,.11,1.31,.11,1.97,.11,2.19,.11,3.83,.11,3.83,.11v-3.39c0-.55,.66-.44,.88-.22l6.35,4.38,2.52,1.75c.22,.22,.22,.55,0,.88l-2.52,1.75-3.06,2.19-3.17,2.19c-.11,.11-.33,.22-.44,.22s-.44,0-.44-.33v-2.74c-1.64-.33-3.17-.55-4.6-.88-.44-.11-.77-.22-1.2-.22-1.09-.22-2.19-.55-3.06-.77-.77-.22-1.42-.44-2.08-.66-15.76-5.58,2.08-12.15,2.08-12.15v-3.28C8.58,1.86,10.44,0,12.74,0h14.23c2.19,0,4.05,1.86,4.05,4.16h0Z"/></g></svg>