<?xml version="1.0" encoding="UTF-8"?>
<svg id="Capa_2" data-name="Capa 2" xmlns="http://www.w3.org/2000/svg" viewBox="0 0 702.68 343.85">
  <defs>
    <style>
      .cls-1 {
        opacity: .08;
      }

      .cls-2 {
        fill: none;
      }

      .cls-3 {
        fill: #1a1a1a;
      }

      .cls-4 {
        fill: #df3629;
      }
    </style>
  </defs>
  <g id="Capa_2-2" data-name="Capa 2">
    <g>
      <rect class="cls-4" x=".64" y=".9" width="702.04" height="342.96" rx="10.99" ry="10.99"/>
      <g class="cls-1">
        <path class="cls-3" d="M260.33,29.04l-1.49,8.57c-7.6-1.28-15.63-15.12-26.27-36.72h9.73c6.46,12.87,14.22,27.03,18.03,28.15Z"/>
        <path class="cls-3" d="M372.44,115.61c-1.39-.88-1.51-1.67-1.51-2.34h-8.7c0,4.05,1.92,7.4,5.56,9.7,14.14,8.94,55.34-.5,66.43-5.77l-3.74-7.86c-12.19,5.79-48.45,12.33-58.03,6.27Z"/>
        <path class="cls-3" d="M293.34,1.66c-2.27,6.72-2.71,14.37-.08,21.03l-8.09,3.21c-3.21-8.11-3.06-16.99-.74-25.01h9.18c-.09,.26-.18,.51-.27,.77Z"/>
        <path class="cls-3" d="M515.02,137.07c-6.17-10.49-13.85-23.53-29.39-20.32l1.76,8.52c8.99-1.86,13.51,4.95,20.14,16.21,5.25,8.91,10.67,18.13,20.51,20.51l2.05-8.46c-6.26-1.51-10.54-8.77-15.06-16.46Z"/>
        <path class="cls-3" d="M452.66,72.28c-2.06,.42-22.73,2.69-43.56,3.14-38.51,.83-41.97-5.21-42.09-5.46-.13-.27,.21-2.09,4.22-5.65l-5.77-6.51c-6.63,5.88-8.7,11.33-6.16,16.2,9.49,18.2,94.53,6.96,95.34,6.76l-1.98-8.48Z"/>
        <path class="cls-3" d="M273.31,72.19l.86,8.66c15.71-1.56,27.57,1.25,35.25,8.38,13.18,12.23,12.63,35.15,12.25,50.31l-.06,2.66,8.7,.18,.06-2.63c.06-2.61,.14-5.51,.14-8.61,0-15.52-1.78-35.87-15.18-48.29-9.58-8.89-23.72-12.48-42.03-10.66Z"/>
        <path class="cls-3" d="M557.9,26.72l-8.69,.31c-.33-9.64,1-18.39,3.91-26.14h9.35c-3.37,7.35-4.9,15.98-4.57,25.83Z"/>
        <path class="cls-3" d="M473.87,174.48c12.16,11.32,38.37,26.28,56.93,18.21l-3.48-7.98c-12.5,5.44-34.4-4.38-47.52-16.6l-5.93,6.37Z"/>
        <path class="cls-3" d="M478.08,132.18c-27.75,4.4-65.49,22.59-86.91,37.47l4.97,7.15c20.91-14.53,57.79-31.98,83.3-36.02l-1.36-8.6Z"/>
        <path class="cls-3" d="M405.27,226.4c8.56,1.7,17.41,3.45,26.92,8.67l4.19-7.63c-10.69-5.87-20.64-7.84-29.42-9.58-15.86-3.14-26.35-5.21-32.29-28.31l-8.43,2.17c7.31,28.4,22.72,31.45,39.03,34.68Z"/>
        <path class="cls-3" d="M491.78,70.44c5.7-8.27,9.45-13.73,20.38-13.42l.24-8.7c-15.65-.45-21.83,8.52-27.8,17.19-2.87,4.17-5.84,8.49-10.06,12.3l5.83,6.46c4.98-4.5,8.39-9.45,11.39-13.82Z"/>
        <path class="cls-3" d="M603.01,16.02l-8.64,1.08c-.79-6.39-.7-11.72,.1-16.21h8.91c-.99,3.91-1.16,8.84-.37,15.13Z"/>
        <path class="cls-3" d="M181.05,128.48c9.77-23.43,30.52-37.07,50.59-50.26l-4.78-7.28c-21.17,13.91-43.06,28.29-53.86,54.19l8.04,3.35Z"/>
        <path class="cls-3" d="M268.88,299.33c12.98-2.87,23.93-12.78,34.51-22.37,9.4-8.52,19.13-17.32,29.55-20.24l-2.35-8.38c-12.39,3.47-22.89,12.98-33.04,22.17-10.19,9.23-19.82,17.95-30.55,20.32l1.88,8.5Z"/>
        <path class="cls-3" d="M321.85,231.16l4.35-7.54c-12.41-7.16-9.88-23.44-7.45-39.17,1.06-6.85,2.07-13.31,1.89-19.09l-8.7,.27c.15,4.99-.79,11.05-1.78,17.49-2.62,16.89-5.88,37.9,11.7,48.04Z"/>
        <path class="cls-3" d="M149.45,79.23c-13.51,11.08-27.48,22.54-36.16,37.68l7.56,4.33c7.88-13.76,20.63-24.21,34.12-35.28,11.07-9.08,22.52-18.47,31.32-30.01l-6.92-5.28c-8.19,10.74-19.24,19.8-29.92,28.56Z"/>
        <path class="cls-3" d="M328.38,61.02c-.09-12.15,2.67-27.33,16.24-30.71,16.73-4.17,42.45,10.81,52.91,30.82l7.71-4.03c-12.32-23.55-42.22-40.34-62.73-35.23-8.61,2.15-23.06,10.11-22.84,39.21l8.7-.06Z"/>
        <path class="cls-3" d="M438.98,46.51c0,1.86-.13,3.7-.39,5.49l-8.62-1.26c1.48-10.04-2.41-21.83-10.94-33.18-4.81-6.39-10.68-12.1-16.93-16.67h13.6c3.71,3.48,7.19,7.31,10.29,11.44,8.49,11.3,12.99,23.23,12.99,34.18Z"/>
        <path class="cls-3" d="M461.77,4.16l-8.55,1.59c-.27-1.41-.47-3.05-.63-4.86h8.72c.13,1.19,.28,2.29,.46,3.27Z"/>
        <path class="cls-3" d="M130.24,.89c-3.81,1.56-7.37,1.69-10.62,.36-.27-.11-.53-.23-.78-.36h11.4Z"/>
        <path class="cls-3" d="M234.37,57.61l1.37-8.59c-26.22-4.2-32.72-13.56-42.57-27.73-4.4-6.34-9.4-13.52-16.88-21.28l-6.26,6.04c7,7.25,11.78,14.13,16,20.2,10.31,14.85,18.47,26.58,48.34,31.36Z"/>
        <path class="cls-3" d="M359.09,145.64l-8.22-2.85c-6.81,19.65-6.55,32.19-6.2,49.55,.06,3.13,.13,6.41,.16,9.93l8.7-.07c-.03-3.56-.1-6.88-.16-10.04-.34-17.07-.58-28.34,5.72-46.53Z"/>
        <path class="cls-3" d="M226.07,237.49l-1.37-8.59c-13.19,2.12-20.27-4.02-29.24-11.8-9.82-8.51-20.96-18.16-41.82-17.27l.37,8.7c17.41-.74,26.32,6.98,35.75,15.15,9.41,8.15,19.13,16.57,36.32,13.81Z"/>
        <path class="cls-3" d="M19.83,283.93c30.01,3.71,55.49-23.86,66.46-51.04l-8.07-3.26c-8.15,20.2-30.14,49.02-57.33,45.67l-1.07,8.64Z"/>
        <path class="cls-3" d="M123.17,322.72l7.15-4.97c-25-35.9-29.57-36.18-57.82-27.56-2.69,.82-5.63,1.72-8.87,2.66l2.43,8.36c3.27-.95,6.25-1.86,8.98-2.69,24.83-7.57,25.79-7.87,48.13,24.21Z"/>
        <path class="cls-3" d="M666.08,98.27l.6-8.68c-6.2-.43-10.68-4.33-15.42-8.45-6.89-5.99-15.46-13.44-29.35-6.58l3.85,7.8c8.31-4.11,12.5-.99,19.79,5.35,5.36,4.66,11.43,9.94,20.54,10.57Z"/>
        <path class="cls-3" d="M49.35,70.74l3.91-7.77c-4.64-2.34-9.26-5.8-14.13-9.46C28.02,45.16,15.41,35.7,0,39.41l2.04,8.46c11.42-2.75,21.36,4.7,31.87,12.59,4.97,3.73,10.11,7.59,15.44,10.28Z"/>
        <rect class="cls-3" x="84.19" y="205.63" width="42.55" height="8.7"/>
        <path class="cls-3" d="M5.31,259.54l-4.66,.79v-15.47c2.16,4.42,3.75,9.31,4.66,14.68Z"/>
        <path class="cls-3" d="M556.93,220.8c19.59,19.59,31.79,15.98,50.25,10.51,6.08-1.8,12.98-3.84,21.34-5.44l-1.63-8.55c-8.79,1.68-15.9,3.79-22.18,5.65-17.64,5.22-25.69,7.61-41.63-8.32l-6.15,6.16Z"/>
        <path class="cls-3" d="M702.68,321.12v8.75l-4.15-5.34c1.21-.95,2.6-2.1,4.15-3.41Z"/>
        <path class="cls-3" d="M107.81,145.36l-8.55,1.59c5.67,30.67,42.56,26.95,69.5,24.24,5.87-.59,11.41-1.15,16.19-1.34l-.35-8.7c-5.03,.2-10.71,.77-16.71,1.37-31.64,3.19-56.16,3.95-60.07-17.16Z"/>
        <path class="cls-3" d="M247.08,286.19c3.6-19.91,32.65-45.32,52.11-57l-4.48-7.46c-20.21,12.13-51.85,38.9-56.2,62.92l8.57,1.55Z"/>
        <path class="cls-3" d="M102.32,260.58c18.63,5.4,36.85,9.75,54.8,3.82l-2.73-8.27c-15.58,5.15-32.38,1.09-49.65-3.92l-2.42,8.36Z"/>
        <path class="cls-3" d="M279.64,187.01l7.54-4.34c-5.99-10.41-18.26-15.71-30.12-20.83-14.32-6.19-27.85-12.04-29.29-25.81l-8.66,.91c1.97,18.83,19.24,26.3,34.49,32.89,11.04,4.77,21.47,9.28,26.03,17.19Z"/>
        <path class="cls-3" d="M597.86,35.5c-25.81,4.99-64.74,39.93-79.85,57.53l6.6,5.67c17.26-20.11,54.11-50.64,74.89-54.65l-1.65-8.55Z"/>
        <path class="cls-3" d="M109.43,30.22l-7.92,3.62c-5.07-11.08-10.59-21.4-17-32.95h9.94c5.53,10.06,10.41,19.37,14.98,29.33Z"/>
        <path class="cls-3" d="M464.44,245.13l-7.46,4.48c1.41,2.35,4.7,7.84,55.09,13.94,25.11,3.04,52.02,4.86,59.97,4.06l-.87-8.66c-16.35,1.64-99.82-7.28-106.93-14.09,0,0,.09,.09,.2,.27Z"/>
        <path class="cls-3" d="M282.7,328.39c7.67,1.27,15.72-1.16,23.28-7.04,10.14-7.88,17.58-20.62,18.52-31.7l-8.67-.73c-.73,8.53-7.11,19.28-15.19,25.56-3.9,3.03-9.93,6.42-16.51,5.33l-1.42,8.59Z"/>
        <path class="cls-3" d="M597.87,272.13l-8.03,3.35c8.11,19.43,26.62,28.68,40.01,30.69,10.64,1.6,19.77-.78,24.42-6.37l-6.69-5.56c-2.6,3.13-9.05,4.44-16.43,3.33-11.15-1.68-26.55-9.34-33.27-25.44Z"/>
        <path class="cls-3" d="M513.73,.89c-5.46,24.82-21.14,35.4-50.42,35.49l-.03-8.7c24.64-.08,37-7.27,41.7-26.79h8.75Z"/>
        <path class="cls-3" d="M205.72,343.85h-33.61v-.24c5.46,.31,11.37,.22,17.07,.13,5.45-.08,11.06-.17,16.54,.11Z"/>
        <path class="cls-3" d="M285.66,140.94l7.1-5.04c-6.76-9.52-15.58-10.91-22.66-12.02-9.35-1.47-16.11-2.53-19.15-20.98l-8.58,1.41c4.06,24.65,15.92,26.52,26.38,28.17,6.58,1.03,12.27,1.93,16.91,8.46Z"/>
        <path class="cls-3" d="M702.68,258.9v9.61c-2.5,1.73-4.16,4.37-6.31,7.76-1.94,3.07-4.15,6.55-7.43,10.14l-6.42-5.87c2.76-3.03,4.66-6.02,6.49-8.92,3.34-5.27,6.55-10.34,13.67-12.72Z"/>
        <path class="cls-3" d="M602.22,98.04c-7.13-3.29-13.87-6.4-18.44-9.61l-5,7.12c5.21,3.66,12.3,6.93,19.8,10.39,11.05,5.1,23.57,10.88,27.31,17.26l7.51-4.4c-5.11-8.73-18.36-14.85-31.17-20.77Z"/>
        <path class="cls-3" d="M689.22,244.99l-3.13-8.12-3.31,1.27c-20.81,7.97-44.4,17-58.63,37.02l7.09,5.04c12.71-17.87,34.03-26.04,54.65-33.94l3.32-1.28Z"/>
        <path class="cls-3" d="M702.68,162.93c-.52,3.72-.44,7.84,0,12.06v37.82l-1.6-.7c-.06,.14-.08,.23-.08,.23,.32-1.64-1.21-7.98-2.45-13.08-4.04-16.59-10.15-41.67,3.56-54.37l.57,.62v17.42Z"/>
        <path class="cls-3" d="M9.93,326.45c19.82,3.53,34.89,3.53,53.79,0l-1.6-8.55c-18,3.37-31.73,3.36-50.66,0l-1.53,8.57Z"/>
        <path class="cls-3" d="M158.28,296.58l-1.18,8.62c25.14,3.42,46.62-4.88,63.83-24.67l-6.57-5.71c-15.39,17.68-33.73,24.8-56.09,21.75Z"/>
        <path class="cls-3" d="M109.46,343.85h-21.31l-1.08-4.65c9.26-2.17,16.51,.5,22.39,4.65Z"/>
        <path class="cls-3" d="M266.6,343.85h-13.43c-13.01-9.71-28.74-16.23-41.03-15.41l-.58-8.69c17.09-1.13,39.25,9.45,55.04,24.1Z"/>
        <path class="cls-3" d="M.84,80.5c-.06,.03-.13,.06-.19,.09v-.52l.19,.43Z"/>
        <path class="cls-3" d="M550.79,343.85h-13.13c-.31-.29-.61-.58-.91-.87-5.48-5.28-10.65-10.26-18.68-12.8l2.63-8.3c9.97,3.15,16.13,9.09,22.08,14.83,2.62,2.52,5.18,4.97,8.01,7.14Z"/>
        <path class="cls-3" d="M34.39,238.98l-8.71,.02c-.03-16.06-10.92-26.77-25.03-35.14v-9.97c18.08,9.83,33.69,23.16,33.74,45.09Z"/>
        <path class="cls-3" d="M702.68,94.55v9.26c-3.1-1.01-6.24-2.39-9.4-4.15l4.23-7.6c1.74,.97,3.47,1.8,5.17,2.49Z"/>
        <path class="cls-3" d="M136.99,231.7c7.68-1.03,20.38,4.4,30.21,12.9,7.01,6.06,11.23,12.66,11.29,17.65l8.7-.1c-.12-10.34-9.01-19.56-14.3-24.13-9.92-8.58-25.22-16.53-37.05-14.95l1.15,8.63Z"/>
        <path class="cls-3" d="M427.39,265.21l-2.98,8.17c10.48,3.82,20.46,4.85,29.26,5.77,15.8,1.64,28.27,2.93,38.92,18.4l7.17-4.93c-12.92-18.78-28.6-20.41-45.19-22.13-8.71-.9-17.72-1.84-27.18-5.28Z"/>
        <path class="cls-3" d="M618.49,184.61l2.95,8.19c27.96-10.05,31.66-5.86,49.42,14.26l6.53-5.76c-19.27-21.83-26.9-28.18-58.89-16.69Z"/>
        <path class="cls-3" d="M519.51,222.62c-12.14-9.46-25.9-20.19-34.46-9.57l6.77,5.46c3.19-3.95,13.81,4.32,22.34,10.97,8.66,6.75,16.84,13.13,24.14,13.84l.84-8.66c-4.79-.46-12.67-6.61-19.63-12.04Z"/>
        <path class="cls-3" d="M436.35,176.62l-.26,8.7c6.07,.19,12.33,11.72,17.36,20.99,3.54,6.53,6.89,12.69,10.65,16.43l6.14-6.17c-2.86-2.85-5.91-8.47-9.14-14.42-6.72-12.39-13.68-25.2-24.74-25.53Z"/>
        <path class="cls-3" d="M684.28,306.74c-.28,21.75-7.39,28.45-16.38,36.92-.07,.06-.13,.12-.2,.19h-12.4c2.36-2.51,4.6-4.62,6.63-6.53,8.36-7.88,13.41-12.63,13.64-30.69l8.71,.11Z"/>
        <path class="cls-3" d="M357.58,227.77l-5.21,6.97c17.51,13.07,27.71,27.03,39.52,43.19,1.33,1.82,2.68,3.67,4.06,5.55l7.01-5.16c-1.38-1.88-2.73-3.72-4.05-5.53-12.23-16.72-22.79-31.17-41.34-45.02Z"/>
        <path class="cls-3" d="M492.36,343.48l-.77,.37h-8.77c-11.26-21.68-24.2-30.31-51.19-34.81l1.43-8.58c31.34,5.23,46.3,16.08,59.3,43.02Z"/>
        <path class="cls-3" d="M318.24,343.85h-9.63c-1.04-2.41-1.84-4.82-2.37-7.21l8.5-1.88c.66,2.96,1.86,6,3.5,9.09Z"/>
        <path class="cls-3" d="M254.19,229.24l4.29-7.57c-14.4-8.15-35.45-37.51-42.58-55.82l-8.11,3.16c6.92,17.76,28.43,50.06,46.4,60.23Z"/>
        <path class="cls-3" d="M370.66,343.85h-11.77c-5.42-5.39-11.22-9.2-17.72-9.61l.54-8.69c11.68,.73,20.91,8.79,28.95,18.3Z"/>
        <path class="cls-3" d="M346.41,276.49l-6.07,6.23c3.32,3.24,7.01,8.25,10.91,13.55,9.54,12.97,20.35,27.66,34.46,29.17,6.95,.74,13.85-1.87,20.51-7.76l-5.76-6.52c-4.82,4.26-9.34,6.1-13.82,5.62-10.3-1.1-19.91-14.15-28.38-25.67-4.12-5.6-8.01-10.88-11.85-14.62Z"/>
        <path class="cls-3" d="M572.43,305.53c-7.77-4.66-13.91-8.33-14.87-17.91l-8.66,.86c1.39,13.92,10.77,19.55,19.05,24.51,5.38,3.22,10.46,6.26,13.43,11.36l7.52-4.39c-4.11-7.02-10.68-10.96-16.47-14.43Z"/>
        <path class="cls-3" d="M86.11,88.72c-1.47,5.45-.76,10.57,2.11,15.23l7.41-4.56c-1.61-2.61-1.96-5.28-1.12-8.39,3.07-11.35,20.92-25.8,53.07-42.97,3.67-1.96,4.56-2.44,5.24-3.04l-5.74-6.54c.06-.06,.14-.13,.27-.22-.4,.26-2.16,1.21-3.87,2.12-22.22,11.87-52.34,29.79-57.37,48.37Z"/>
        <path class="cls-3" d="M83.6,42.71l-6.55,5.72C61.56,30.66,56.49,16.5,55.11,.89h8.71c1.35,14.02,6.05,26.06,19.78,41.82Z"/>
        <path class="cls-3" d="M55.4,135.21c9.91,13.48,19.27,26.22,16.78,39.13l8.55,1.64c.39-2.01,.56-3.99,.56-5.95,0-14.29-9.58-27.32-18.88-39.98-7.11-9.67-14.46-19.67-16.52-29.3l-8.51,1.82c2.45,11.46,10.37,22.22,18.01,32.64Z"/>
        <path class="cls-3" d="M37.41,198.2l4.59-7.39c-29.49-18.31-29.35-30.71-28.98-60.66,.04-3.47,.08-7.15,.08-11.07H4.4c0,3.88-.05,7.53-.08,10.97-.36,30.46-.57,47.26,33.09,68.16Z"/>
        <path class="cls-3" d="M16.96,20.03l-8.66,.79c-.61-6.57-.28-13.21,.91-19.66,.78-.18,1.59-.27,2.42-.27h6.51c-1.34,6.24-1.77,12.73-1.18,19.14Z"/>
        <path class="cls-3" d="M594.75,144.14c0-5.35-.4-10.76-1.47-16.23l-8.54,1.67c2.36,12.13,1.07,23.99-.31,36.56-.8,7.28-1.62,14.81-1.71,22.52l8.7,.1c.08-7.29,.88-14.6,1.65-21.67,.82-7.5,1.66-15.16,1.66-22.95Z"/>
        <path class="cls-3" d="M544.81,96.39c10.17,14.81,8.49,32.08,6.72,50.36-1.43,14.71-2.91,29.92,2.49,43.55l8.09-3.2c-4.63-11.68-3.31-25.2-1.92-39.5,1.85-19.04,3.76-38.72-8.21-56.13l-7.18,4.93Z"/>
        <path class="cls-3" d="M684.59,117.92c-23.35,23.23-32.27,30.53-64.52,29.68l-.23,8.7c36.07,.95,47.14-8.6,70.88-32.21l-6.14-6.17Z"/>
        <path class="cls-3" d="M657.76,45.56c-12.77-4.1-25.97-8.34-27.71-18.16l-8.57,1.53c2.66,14.97,19.11,20.25,33.61,24.91,8.68,2.79,17.66,5.68,21.57,10.09l6.51-5.77c-5.49-6.2-15.17-9.31-25.42-12.6Z"/>
        <path class="cls-3" d="M702.68,23.62v12.49c-7.3-7.15-12.29-13.26-16.11-17.96-11.03-13.53-12.72-15.61-41.94-5.23l-2.91-8.2c4.31-1.53,8.15-2.81,11.59-3.83h28.42c3.84,2.5,7.27,6.46,11.59,11.76,2.61,3.21,5.59,6.86,9.36,10.97Z"/>
      </g>
      <path class="cls-2" d="M702.68,11.88V332.86c0,6.07-4.92,10.99-10.98,10.99H11.63c-6.06,0-10.98-4.92-10.98-10.99V11.88C.65,6.64,4.31,2.26,9.21,1.16c.78-.18,1.59-.27,2.42-.27H691.7c6.06,0,10.98,4.92,10.98,10.99Z"/>
    </g>
  </g>
</svg>