<?xml version="1.0" encoding="UTF-8"?><svg xmlns="http://www.w3.org/2000/svg" viewBox="0 0 702.037 342.961"><defs><style>.d{fill:#01c851;}.e{opacity:.08;}.f{fill:none;}.g{fill:#1a1a1a;}</style></defs><g id="a"/><g id="b"><g id="c"><g><rect class="d" y=".004" width="702.037" height="342.957" rx="10.987" ry="10.987"/><path class="f" d="M702.033,10.99V331.97c0,6.07-4.92,10.99-10.98,10.99H10.983c-5.32,0-9.76-3.79-10.77-8.83-.14-.7-.21-1.42-.21-2.16V10.99C.003,4.92,4.923,0,10.983,0H691.053c6.06,0,10.98,4.92,10.98,10.99Z"/><g class="e"><path class="g" d="M554.12,174.885c1.563-1.783,1.388-4.488-.394-6.051-3.617-3.172-8.25-4.748-13.051-4.434-4.8,.312-9.192,2.477-12.366,6.094l-.004,.004c-2.906,3.316-4.473,7.484-4.473,11.851,0,.398,.015,.796,.041,1.196,.313,4.802,2.475,9.193,6.092,12.368,1.779,1.561,4.488,1.384,6.051-.394,1.563-1.783,1.384-4.488-.394-6.051-1.898-1.662-3.029-3.963-3.193-6.479-.149-2.528,.662-4.947,2.322-6.84,1.664-1.894,3.967-3.029,6.483-3.193,2.516-.164,4.942,.661,6.836,2.324,1.782,1.561,4.488,1.384,6.051-.394Z"/><path class="g" d="M346.754,174.681c-.383,.671-.566,1.405-.566,2.127,0,1.486,.774,2.932,2.155,3.725,4.644,2.657,10.047,3.347,15.213,1.943,5.165-1.405,9.474-4.735,12.132-9.381,1.168-2.049,.461-4.672-1.593-5.85-2.054-1.176-4.674-.463-5.85,1.593-1.518,2.657-3.985,4.562-6.94,5.366-2.951,.804-6.043,.409-8.697-1.113-2.058-1.176-4.674-.463-5.854,1.591Z"/><path class="g" d="M211.138,298.945c1.161,2.062,3.773,2.791,5.839,1.628,2.062-1.161,2.795-3.777,1.626-5.84-7.063-12.528-23.001-16.975-35.531-9.914-1.399,.787-2.185,2.24-2.185,3.738,0,.713,.175,1.437,.555,2.101,1.161,2.063,3.774,2.793,5.835,1.63,8.418-4.741,19.12-1.754,23.861,6.658Z"/><path class="g" d="M291.333,147.67c-.99-4.81-3.8-8.94-7.89-11.64-4.1-2.69-9.01-3.63-13.81-2.64-4.8,.99-8.93,3.79-11.63,7.88l-.01,.01c-1.99,3.04-3.03,6.51-3.03,10.07,0,1.24,.13,2.5,.38,3.74,1,4.81,3.8,8.94,7.9,11.64,0,0,.01,.01,.02,.01,8.45,5.55,19.84,3.2,25.42-5.24,0-.01,.01-.02,.01-.02,2.7-4.1,3.63-9,2.64-13.81Zm-9.8,9.09l-.01,.01c-2.97,4.51-9.05,5.76-13.56,2.8h-.01c-2.18-1.44-3.68-3.64-4.21-6.21-.53-2.55-.02-5.18,1.41-7.36,.01,0,.01-.01,.01-.01,1.44-2.18,3.64-3.68,6.2-4.2,2.56-.53,5.18-.03,7.36,1.41,2.19,1.43,3.69,3.64,4.21,6.2,.53,2.56,.03,5.18-1.4,7.36Z"/><path class="g" d="M264.267,275.06c-1.392-1.915-4.075-2.339-5.988-.947-1.154,.839-1.768,2.147-1.768,3.472,0,.874,.264,1.756,.819,2.517,3.196,4.397,7.915,7.286,13.285,8.135,5.37,.848,10.751-.445,15.15-3.641,9.073-6.598,11.09-19.353,4.495-28.433-1.392-1.915-4.071-2.339-5.992-.947-1.913,1.392-2.337,4.075-.945,5.989,1.849,2.544,2.59,5.662,2.106,8.766-.491,3.109-2.166,5.839-4.711,7.688-2.546,1.851-5.657,2.601-8.767,2.11-3.104-.491-5.835-2.164-7.685-4.709Z"/><path class="g" d="M71.786,217.388c1.433,1.885,4.127,2.249,6.01,.817,1.883-1.434,2.248-4.123,.815-6.008-8.302-10.909-23.932-13.031-34.843-4.73-.007,.005-.015,.011-.018,.017-6.408,4.884-9.78,12.299-9.78,19.797,0,5.249,1.652,10.539,5.072,15.028,1.429,1.885,4.123,2.249,6.006,.815,1.883-1.433,2.251-4.12,.811-6.006-5.433-7.152-4.045-17.382,3.088-22.821l.008-.005c7.152-5.441,17.393-4.051,22.83,3.096Z"/><path class="g" d="M307.587,130.845c-1.243,.826-1.917,2.189-1.917,3.576,0,.815,.231,1.637,.715,2.367,5.493,8.276,16.69,10.544,24.966,5.054,1.972-1.312,2.512-3.973,1.202-5.943-1.31-1.972-3.971-2.51-5.943-1.202-4.335,2.877-10.204,1.688-13.08-2.649-1.31-1.972-3.971-2.51-5.943-1.202Z"/><path class="g" d="M424.243,135.006c-1.139-2.076-3.744-2.835-5.82-1.697-1.422,.78-2.225,2.248-2.225,3.762,0,.696,.171,1.403,.529,2.058,4.168,7.601,13.747,10.397,21.353,6.233,2.076-1.139,2.839-3.742,1.704-5.818-1.139-2.077-3.744-2.84-5.82-1.703-3.461,1.894-7.822,.623-9.72-2.836Z"/><path class="g" d="M467.395,201.413c-5.545-7.792-3.721-18.648,4.071-24.2l.008-.004c7.792-5.55,18.647-3.723,24.196,4.073,1.377,1.927,4.053,2.378,5.984,1.004,1.928-1.375,2.374-4.049,1.005-5.98-8.299-11.646-24.516-14.374-36.164-6.083-.003,.004-.007,.01-.015,.013-7.085,5.052-10.866,13.042-10.866,21.147,0,5.2,1.559,10.449,4.8,15.001,1.37,1.929,4.049,2.38,5.977,1.006,1.927-1.371,2.378-4.05,1.005-5.978Z"/><path class="g" d="M316.321,176.266c-1.578,2.443-2.334,5.185-2.334,7.9,0,4.801,2.36,9.508,6.684,12.301,1.987,1.286,4.644,.715,5.924-1.274,1.288-1.985,.718-4.64-1.272-5.926-2.798-1.809-3.606-5.554-1.797-8.353,1.284-1.987,.711-4.642-1.277-5.926-1.991-1.284-4.644-.712-5.928,1.279Z"/><path class="g" d="M509.677,249.561c.141-2.329-1.626-4.404-3.989-4.564-2.679-.181-4.737-2.523-4.533-5.184,.153-2.376-1.634-4.404-3.997-4.562-2.359-.156-4.406,1.632-4.562,3.993-.018,.303-.03,.603-.03,.901,0,7.007,5.456,12.931,12.548,13.408,2.359,.158,4.406-1.628,4.562-3.991Z"/><path class="g" d="M259.233,241.74c-.99-4.8-3.8-8.94-7.9-11.63q0-.01-.01-.01c-8.46-5.55-19.85-3.2-25.42,5.24q-.01,.01-.01,.02c-2,3.03-3.03,6.51-3.03,10.06,0,1.24,.12,2.5,.38,3.75,.99,4.8,3.8,8.94,7.89,11.63,4.1,2.7,9.01,3.64,13.82,2.65,4.79-.99,8.92-3.79,11.62-7.88,0-.01,.01-.01,.01-.02,2.7-4.09,3.64-9,2.65-13.81Zm-9.81,9.1c-.72,1.1-1.63,2.02-2.69,2.73-1.05,.71-2.24,1.21-3.52,1.48-2.56,.53-5.18,.03-7.36-1.41-2.19-1.44-3.68-3.64-4.21-6.21-.53-2.55-.03-5.17,1.41-7.36,2.97-4.51,9.05-5.77,13.56-2.8h.01c2.19,1.44,3.68,3.64,4.21,6.2,.53,2.57,.03,5.18-1.41,7.37Z"/><path class="g" d="M555.97,237.582l.008-.002c8.499-3.474,18.245,.618,21.717,9.121,.9,2.192,3.401,3.241,5.593,2.346,2.192-.895,3.238-3.392,2.348-5.591-5.266-12.878-20.024-19.076-32.904-13.814l-.008,.004c-9.761,3.991-15.681,13.438-15.681,23.389,0,3.171,.603,6.395,1.876,9.508,.893,2.192,3.394,3.243,5.589,2.348,2.188-.897,3.241-3.398,2.344-5.59-3.468-8.5,.618-18.248,9.117-21.719Z"/><path class="g" d="M610.8,295.357c1.987-4.311,5.53-7.588,9.981-9.231,4.451-1.643,9.273-1.453,13.583,.532,2.151,.99,4.696,.05,5.686-2.101,.993-2.145,.052-4.696-2.099-5.688-6.394-2.942-13.546-3.223-20.14-.787-6.601,2.436-11.856,7.297-14.796,13.687-.268,.581-.394,1.191-.394,1.792,0,1.621,.923,3.172,2.493,3.896,2.151,.99,4.696,.048,5.686-2.101Z"/><path class="g" d="M441.086,253.954c2.061-1.159,2.802-3.77,1.645-5.835-1.161-2.065-3.773-2.802-5.835-1.645-8.5,4.763-13.293,13.62-13.293,22.733,0,4.3,1.072,8.66,3.319,12.671,1.154,2.065,3.766,2.802,5.835,1.645,2.062-1.155,2.802-3.771,1.645-5.835-4.697-8.392-1.704-19.034,6.684-23.734Z"/><path class="g" d="M380.949,212.694c1.667,5.435,5.351,9.897,10.371,12.563,5.02,2.666,10.781,3.217,16.214,1.552,5.437-1.665,9.899-5.347,12.563-10.369,2.668-5.022,3.219-10.781,1.556-16.216-1.667-5.435-5.351-9.897-10.371-12.563-2.088-1.111-4.685-.314-5.794,1.777-.343,.64-.503,1.328-.503,2.006,0,1.535,.826,3.02,2.278,3.79,2.995,1.593,5.198,4.257,6.189,7.502,.997,3.247,.662,6.687-.923,9.685-1.592,2.997-4.257,5.197-7.502,6.19-3.249,.995-6.687,.666-9.687-.927-2.996-1.593-5.199-4.257-6.192-7.504-.994-3.241-.666-6.683,.926-9.683,1.113-2.092,.313-4.687-1.779-5.796-2.091-1.111-4.685-.315-5.797,1.777-1.652,3.116-2.493,6.518-2.493,9.951,0,2.097,.312,4.203,.945,6.265Z"/><path class="g" d="M550.098,309.11c-7.063-12.528-23.005-16.975-35.539-9.914-1.396,.787-2.181,2.24-2.181,3.738,0,.713,.179,1.436,.551,2.101,1.161,2.063,3.781,2.793,5.842,1.63,8.41-4.741,19.113-1.755,23.853,6.657,1.165,2.062,3.781,2.791,5.842,1.628,2.062-1.161,2.791-3.777,1.63-5.841Z"/><path class="g" d="M496.543,275.37c-1-4.8-3.8-8.93-7.9-11.63,0-.01-.01-.01-.01-.01-8.46-5.55-19.85-3.2-25.42,5.24-.01,.01-.02,.01-.02,.02-1.99,3.03-3.02,6.51-3.02,10.06,0,1.24,.12,2.5,.38,3.75,.99,4.8,3.8,8.94,7.89,11.63,4.1,2.7,9.01,3.64,13.81,2.65,4.8-.99,8.93-3.79,11.63-7.88,0-.01,.01-.01,.01-.02,2.7-4.1,3.63-8.99,2.65-13.81Zm-9.81,9.1h-.01c-1.44,2.19-3.64,3.68-6.2,4.21-2.56,.53-5.18,.03-7.36-1.41-2.19-1.44-3.68-3.64-4.21-6.2-.53-2.56-.03-5.18,1.4-7.37h.01c2.97-4.51,9.05-5.77,13.56-2.8h.01c2.18,1.44,3.68,3.64,4.21,6.21,.52,2.55,.02,5.17-1.41,7.36Z"/><path class="g" d="M284.232,219.975c-.339,1.222-.506,2.466-.506,3.701,0,2.331,.599,4.635,1.775,6.722l.003,.011c1.808,3.196,4.748,5.497,8.284,6.481,3.535,.982,7.242,.53,10.434-1.275,2.058-1.165,2.784-3.774,1.623-5.842-1.165-2.06-3.781-2.787-5.843-1.623-1.198,.679-2.59,.849-3.922,.48-1.324-.37-2.43-1.234-3.103-2.434l-.004-.004c-.681-1.202-.845-2.588-.48-3.92,.372-1.327,1.235-2.428,2.434-3.109,2.478-1.399,5.638-.523,7.037,1.956,1.164,2.062,3.777,2.789,5.839,1.624,2.061-1.164,2.787-3.779,1.626-5.841-3.725-6.592-12.12-8.929-18.715-5.208l-.007,.004c-3.193,1.803-5.493,4.745-6.475,8.276Z"/><path class="g" d="M336.517,276.894v-.006c-2.218-5.052-2.337-10.663-.335-15.804,2.006-5.141,5.891-9.192,10.941-11.41,2.166-.955,3.152-3.481,2.203-5.649-.953-2.167-3.483-3.154-5.649-2.203-7.149,3.139-12.645,8.873-15.481,16.149-1.344,3.442-2.01,7.035-2.01,10.622,0,3.991,.826,7.977,2.479,11.741,0,.006,.008,.01,.008,.015,6.49,14.742,23.757,21.468,38.505,14.993l.015-.007c14.74-6.484,21.468-23.757,14.993-38.504-.953-2.168-3.483-3.154-5.649-2.203-2.166,.953-3.152,3.485-2.203,5.649,4.577,10.421-.171,22.629-10.599,27.212-10.427,4.577-22.633-.175-27.217-10.595Z"/><path class="g" d="M193.19,171.192c-2.356,4.25-3.472,8.857-3.472,13.402,0,9.778,5.172,19.275,14.312,24.337,.007,.006,.022,.008,.03,.013,6.479,3.58,13.966,4.428,21.085,2.385,7.123-2.047,13.032-6.747,16.623-13.235,1.142-2.067,.398-4.68-1.675-5.828-2.073-1.146-4.678-.396-5.828,1.674-2.482,4.484-6.56,7.733-11.488,9.147-4.923,1.412-10.104,.826-14.587-1.654l-.008-.006c-9.259-5.126-12.623-16.83-7.491-26.085,5.124-9.257,16.828-12.615,26.086-7.487,2.073,1.146,4.678,.396,5.828-1.674,1.142-2.067,.398-4.68-1.675-5.828-13.393-7.417-30.325-2.557-37.741,10.836Z"/><path class="g" d="M10.797,136.651c-.03,.207-.045,.409-.045,.612,0,2.099,1.541,3.933,3.68,4.239,15.15,2.162,29.231-8.403,31.389-23.55,.35-2.368-1.295-4.517-3.636-4.851-2.344-.335-4.514,1.295-4.849,3.638-1.496,10.468-11.224,17.769-21.691,16.275-2.345-.335-4.514,1.295-4.849,3.638Z"/><path class="g" d="M666.166,102.379c-.782-2.235-3.223-3.416-5.459-2.639-1.768,.616-2.877,2.276-2.877,4.049,0,.467,.074,.944,.238,1.411,2.27,6.518,6.944,11.759,13.155,14.762,6.215,3.003,13.222,3.407,19.742,1.137,2.233-.778,3.412-3.221,2.639-5.459-.778-2.236-3.223-3.416-5.459-2.638-4.354,1.517-9.039,1.249-13.188-.759-4.153-2.006-7.271-5.507-8.79-9.863Z"/><path class="g" d="M356.128,10.974c-.335-3.876,.532-7.67,2.441-10.97h-9.452c-1.075,2.959-1.634,6.095-1.634,9.299,0,.676,.041,1.355,.089,2.036,0,.091,.004,.183,.011,.275,.003,.034,0,.067,.007,.1v.006c.629,7.271,4.056,13.862,9.642,18.558,5.59,4.698,12.671,6.938,19.95,6.306,15.012-1.301,26.191-14.569,24.866-29.592-.201-2.36-2.277-4.105-4.637-3.9-2.359,.203-4.116,2.274-3.9,4.641,.871,10.304-6.765,19.418-17.073,20.311-4.99,.432-9.854-1.105-13.687-4.328-3.84-3.225-6.189-7.75-6.624-12.742Z"/><path class="g" d="M571.473,131.117c.614-2.287-.729-4.64-3.015-5.262-2.285-.621-4.637,.726-5.262,3.01-.603,2.213-.886,4.436-.886,6.624,0,11.116,7.398,21.327,18.629,24.38,13.434,3.654,27.344-4.304,31.006-17.737,.614-2.291-.73-4.641-3.011-5.264-2.285-.621-4.641,.726-5.266,3.009-2.415,8.877-11.603,14.133-20.482,11.72-8.875-2.415-14.126-11.601-11.715-20.48Z"/><path class="g" d="M625.596,231.088c-.752-2.246-3.178-3.457-5.425-2.706-1.794,.601-2.925,2.272-2.925,4.066,0,.45,.07,.91,.223,1.36,2.27,6.793,7.055,12.293,13.464,15.49,6.412,3.195,13.687,3.703,20.475,1.429,2.248-.752,3.461-3.185,2.709-5.426-.752-2.246-3.186-3.457-5.426-2.706-4.622,1.548-9.571,1.202-13.932-.973-4.362-2.173-7.614-5.915-9.162-10.535Z"/><path class="g" d="M695.288,337.738c1.414-1.9,1.016-4.585-.886-5.997-8.883-6.603-21.483-4.748-28.089,4.132-1.6,2.157-2.731,4.559-3.364,7.087h9.065c.324-.687,.718-1.347,1.184-1.97,3.781-5.089,11-6.151,16.091-2.369,1.898,1.412,4.585,1.018,5.999-.884Z"/><path class="g" d="M702.033,262.46v9.89c-.74-.58-1.55-1.09-2.4-1.54-3.85-2.01-8.27-2.41-12.42-1.1-4.15,1.3-7.54,4.14-9.56,8-2.01,3.86-2.4,8.27-1.1,12.42,.71,2.25-.54,4.67-2.8,5.37-2.26,.71-4.67-.54-5.38-2.8-.77-2.46-1.15-4.97-1.15-7.48,0-3.95,.95-7.87,2.84-11.48,3.07-5.88,8.25-10.22,14.59-12.21,5.77-1.82,11.88-1.48,17.38,.93Z"/><path class="g" d="M65.549,319.276c5.932,2.984,12.671,3.479,18.975,1.395,2.248-.744,3.468-3.163,2.728-5.416-.744-2.248-3.167-3.469-5.414-2.726-4.131,1.366-8.548,1.042-12.437-.914-3.885-1.956-6.78-5.307-8.142-9.437l-.008-.011c-1.358-4.129-1.035-8.54,.923-12.425,1.954-3.887,5.307-6.778,9.438-8.144,8.529-2.821,17.758,1.823,20.579,10.351,.744,2.249,3.17,3.468,5.418,2.724,2.248-.742,3.472-3.163,2.724-5.415-4.306-13.017-18.398-20.104-31.416-15.802-6.304,2.086-11.421,6.501-14.405,12.433-1.768,3.521-2.664,7.322-2.664,11.151,0,2.611,.417,5.236,1.257,7.787l.011,.043c2.084,6.306,6.497,11.423,12.433,14.407Z"/><path class="g" d="M16.963,289.61c.17,2.36-1.57,4.43-3.93,4.62-2.36,.19-4.43-1.57-4.62-3.93-.21-2.68-2.57-4.68-5.24-4.47-1.2,.1-2.33-.31-3.17-1.05v-6.44c.67-.59,1.53-.97,2.48-1.06,7.39-.59,13.88,4.94,14.48,12.33Z"/><path class="g" d="M645.535,337.36c-4.57-5.117-10.859-8.146-17.706-8.533-6.851-.385-13.441,1.918-18.554,6.49-.949,.847-1.433,2.019-1.433,3.199,0,1.016,.361,2.038,1.09,2.854,1.578,1.766,4.287,1.918,6.051,.341,3.409-3.044,7.8-4.579,12.362-4.322,4.51,.253,8.652,2.235,11.685,5.573h6.579c1.347-1.608,1.362-3.989-.074-5.6Z"/><path class="g" d="M250.755,308.793c-10.747,4.4-17.259,14.803-17.259,25.757,0,2.798,.447,5.63,1.336,8.41h8.946c-.041-.391-.119-.782-.275-1.165-4.019-9.806,.696-21.051,10.505-25.069,4.748-1.944,9.973-1.924,14.707,.06,4.734,1.984,8.414,5.692,10.36,10.442,.897,2.192,3.401,3.239,5.589,2.342,2.196-.897,3.241-3.398,2.345-5.591-2.813-6.869-8.135-12.232-14.982-15.101-6.847-2.869-14.401-2.899-21.271-.086Z"/><path class="g" d="M409.484,309.792c-5.969-2.908-12.716-3.318-18.994-1.154-10.29,3.548-16.765,13.212-16.765,23.532,0,2.679,.436,5.405,1.358,8.079,.469,1.366,1.567,2.333,2.855,2.711h2.359c.078-.022,.16-.03,.234-.056,2.24-.772,3.431-3.212,2.657-5.45-2.917-8.481,1.6-17.782,10.092-20.711,4.116-1.418,8.537-1.148,12.444,.757,3.915,1.905,6.847,5.221,8.265,9.335,.771,2.238,3.212,3.427,5.452,2.655,2.237-.772,3.431-3.21,2.653-5.45-2.162-6.278-6.643-11.339-12.612-14.249Z"/><path class="g" d="M139.398,319.576c2.203,4.486,2.523,9.558,.904,14.29-1.269,3.712-3.628,6.847-6.747,9.095h11.715c1.295-1.945,2.366-4.051,3.145-6.321,2.355-6.896,1.887-14.296-1.321-20.841-1.042-2.125-3.61-3.003-5.738-1.961-2.121,1.044-3.007,3.608-1.958,5.738Z"/><path class="g" d="M33.668,342.961h5.716c-.29-.255-.595-.489-.96-.666-1.615-.797-3.491-.471-4.756,.666Z"/><path class="g" d="M475.396,342.961h5.798c-.272-.249-.566-.478-.905-.657-1.649-.867-3.598-.54-4.893,.657Z"/><path class="g" d="M182.919,333.362c1.82-1.52,2.065-4.22,.547-6.038-1.518-1.818-4.22-2.061-6.04-.545-3.226,2.693-5.213,6.483-5.589,10.669-.041,.48-.063,.958-.063,1.435,0,1.39,.186,2.759,.54,4.079h9.374c-.982-1.382-1.466-3.037-1.31-4.747,.171-1.903,1.072-3.627,2.542-4.852Z"/><path class="g" d="M199.579,328.769c-1.518-1.816-4.22-2.058-6.04-.54-1.812,1.518-2.054,4.218-.54,6.04,1.224,1.464,1.816,3.305,1.634,5.225-.115,1.273-.585,2.451-1.299,3.467h9.348c.234-.876,.409-1.775,.491-2.698,.372-4.186-.901-8.269-3.595-11.493Z"/><path class="g" d="M588.398,318.856c.993-2.145,.052-4.696-2.099-5.688-2.151-.99-4.696-.05-5.686,2.101-1.102,2.384-3.059,4.196-5.519,5.104-2.46,.91-5.132,.806-7.514-.294-2.151-.99-4.696-.05-5.686,2.101-.268,.58-.394,1.191-.394,1.792,0,1.621,.923,3.172,2.493,3.896,4.462,2.056,9.46,2.251,14.067,.549,4.614-1.701,8.284-5.096,10.338-9.56Z"/><path class="g" d="M474.406,323.377c-4.324-2.275-9.281-2.73-13.948-1.278-4.67,1.452-8.492,4.633-10.769,8.961-1.399,2.664-2.11,5.567-2.11,8.494,0,1.137,.145,2.273,.361,3.407h8.871c-.93-2.504-.871-5.366,.469-7.912,2.493-4.748,8.388-6.579,13.136-4.084,2.095,1.101,4.689,.298,5.791-1.799,1.101-2.097,.294-4.687-1.801-5.789Z"/><path class="g" d="M513.242,342.961h3.107c-1.031-.078-2.065-.071-3.107,0Z"/><path class="g" d="M320.291,318.51c-1.712,1.637-1.771,4.346-.141,6.062,5.091,5.333,8.418,11.698,10.074,18.389h8.804c-1.79-8.848-5.995-17.31-12.671-24.31-1.637-1.712-4.35-1.775-6.066-.141Z"/><path class="g" d="M121.562,143.248c2.155-.98,3.107-3.524,2.125-5.677-3.885-8.537-.097-18.644,8.44-22.529,2.158-.981,3.111-3.524,2.129-5.677-.982-2.154-3.524-3.107-5.679-2.127-9.415,4.283-14.99,13.598-14.99,23.325,0,3.539,.737,7.132,2.3,10.557,.979,2.155,3.52,3.107,5.675,2.127Z"/><path class="g" d="M58.4,64.072c-.722,.817-1.075,1.829-1.075,2.839,0,1.185,.487,2.365,1.447,3.212,1.772,1.569,4.48,1.405,6.051-.368,1.667-1.887,3.975-3.01,6.49-3.165,2.515-.152,4.942,.685,6.832,2.354,1.772,1.568,4.481,1.405,6.051-.369,1.567-1.773,1.403-4.482-.372-6.051-3.603-3.189-8.228-4.783-13.032-4.492-4.8,.292-9.199,2.438-12.392,6.04Z"/><path class="g" d="M34.539,173.24c-1.477,1.85-1.176,4.548,.677,6.025,1.853,1.477,4.548,1.174,6.028-.678,2.68-3.36,3.893-7.556,3.409-11.833-.476-4.272-2.594-8.101-5.954-10.781-1.853-1.477-4.548-1.172-6.025,.679-.629,.789-.934,1.732-.934,2.67,0,1.259,.551,2.506,1.615,3.353,1.566,1.252,2.553,3.04,2.78,5.037,.22,2.006-.342,3.96-1.596,5.528Z"/><path class="g" d="M25.913,91.41c-.33,2.34-2.5,3.97-4.85,3.64C11.573,93.69,2.683,99.56,.003,108.48v-15.24c5.88-5.19,13.91-7.87,22.27-6.68,2.34,.33,3.99,2.5,3.64,4.85Z"/><path class="g" d="M158.727,151.229c2.851,2.182,6.382,3.126,9.943,2.653,2.344-.312,4.008-2.463,3.684-4.813-.313-2.347-2.464-3.997-4.815-3.686-1.288,.171-2.568-.171-3.598-.962-1.031-.789-1.694-1.935-1.864-3.223-.312-2.346-2.464-3.998-4.812-3.688-2.155,.285-3.725,2.127-3.725,4.244,0,.188,.011,.376,.037,.568,.469,3.559,2.3,6.722,5.15,8.907Z"/><path class="g" d="M120.211,.138c.101-.035,.186-.092,.283-.134h-3.509c.982,.447,2.132,.529,3.226,.134Z"/><path class="g" d="M620.527,4.566c-2.054-1.176-4.674-.467-5.85,1.587-4.469,7.791-14.446,10.496-22.238,6.029-2.054-1.178-4.674-.467-5.85,1.587-.387,.674-.57,1.406-.57,2.129,0,1.485,.774,2.93,2.155,3.723,11.893,6.819,27.121,2.689,33.938-9.203,1.176-2.054,.469-4.672-1.585-5.852Z"/><path class="g" d="M75.79,.004h-17.598c3.975,2.283,8.581,3.573,13.486,3.465,2.054-.045,3.736-1.528,4.112-3.465Z"/><path class="g" d="M110.752,57.156c2.835,4.447,7.234,7.525,12.385,8.663,2.315,.51,4.599-.949,5.113-3.26,.517-2.317-.949-4.603-3.26-5.113-2.917-.644-5.407-2.385-7.011-4.901-1.607-2.516-2.136-5.507-1.488-8.422v-.004c1.329-6.014,7.305-9.824,13.322-8.495h.004c6.01,1.334,9.82,7.308,8.492,13.324-.51,2.313,.949,4.602,3.264,5.111,2.311,.51,4.599-.949,5.109-3.261,2.341-10.63-4.38-21.184-15.004-23.541-.004-.002-.011-.006-.019-.006-10.628-2.348-21.182,4.386-23.537,15.01l-.003,.009c-.317,1.433-.473,2.875-.473,4.306,0,3.721,1.057,7.368,3.108,10.579Z"/><path class="g" d="M30.573,319.26c-1.04,2.12-3.61,3-5.74,1.96-8.52-4.19-18.85-.67-23.03,7.85h-.01c-.79,1.62-1.32,3.33-1.58,5.06-.14-.7-.21-1.42-.21-2.16v-14.47c7.6-6.84,18.89-8.76,28.61-3.98,2.13,1.04,3,3.61,1.96,5.74Z"/><path class="g" d="M698.033,12.87s0-.01-.01-.01c-4.09-2.69-9-3.63-13.8-2.64-4.81,.99-8.94,3.79-11.64,7.89-2,3.04-3.03,6.51-3.03,10.06,0,1.25,.13,2.5,.39,3.75,.99,4.81,3.79,8.94,7.89,11.64,3.03,2,6.5,3.03,10.04,3.03,1.25,0,2.52-.13,3.77-.39,4.13-.85,7.75-3.03,10.39-6.22V16.41c-1.14-1.35-2.48-2.54-4-3.54Zm-1.92,20.73c-1.43,2.18-3.64,3.68-6.2,4.21-2.57,.53-5.18,.02-7.37-1.41-2.18-1.44-3.68-3.64-4.21-6.21-.52-2.57-.02-5.18,1.42-7.36,1.43-2.19,3.63-3.69,6.2-4.22,2.56-.52,5.18-.02,7.36,1.41,2.19,1.44,3.69,3.65,4.22,6.21,.52,2.56,.03,5.18-1.42,7.37Z"/><path class="g" d="M82.302,180.451c1.477-1.847,1.176-4.546-.681-6.023-1.567-1.252-2.553-3.04-2.78-5.037-.223-2,.343-3.958,1.597-5.528,1.474-1.848,1.172-4.546-.678-6.025-1.853-1.477-4.547-1.174-6.028,.678-2.292,2.878-3.513,6.374-3.513,10.005,0,.606,.034,1.217,.104,1.829,.476,4.272,2.594,8.101,5.954,10.781,1.853,1.477,4.547,1.172,6.025-.679Z"/><path class="g" d="M145.587,282.871c-2.267,.152-4,2.035-4,4.274,0,.095,.003,.192,.007,.29,.16,2.361,2.203,4.149,4.566,3.991,14.755-.988,25.978-13.73,24.966-28.548-.156-2.361-2.199-4.149-4.562-3.991-2.359,.158-4.13,2.134-3.989,4.564,.677,10.01-6.951,18.748-16.988,19.42Z"/><path class="g" d="M126.172,265.885c-.316-4.873,1.258-9.56,4.466-13.228,3.208-3.669,7.651-5.866,12.515-6.192,2.359-.16,4.142-2.144,3.993-4.564-.16-2.361-2.203-4.149-4.566-3.991-7.149,.478-13.679,3.71-18.394,9.102-4.309,4.931-6.632,11.123-6.632,17.611,0,.609,.023,1.222,.059,1.834,.16,2.363,2.203,4.149,4.566,3.991,2.363-.158,4.112-2.222,3.993-4.564Z"/><path class="g" d="M634.385,199.867c-1.794,.601-2.925,2.272-2.925,4.065,0,.451,.071,.91,.223,1.36,.752,2.246,3.178,3.457,5.426,2.705,9.538-3.193,19.894,1.972,23.087,11.51,.751,2.246,3.181,3.457,5.426,2.706,2.248-.752,3.457-3.184,2.709-5.426-4.696-14.022-19.92-21.613-33.946-16.921Z"/><path class="g" d="M9.073,232.31c-2.34,.34-4.51-1.28-4.86-3.63-.5-3.43-1.96-6.58-4.21-9.13v-10.98c.82,.48,1.62,1.01,2.4,1.59,5.63,4.2,9.29,10.34,10.3,17.29,.33,2.32-1.28,4.52-3.63,4.86Z"/><path class="g" d="M105.181,190.917c-.435,.703-.644,1.485-.644,2.257,0,1.433,.718,2.834,2.025,3.647,2.013,1.249,4.659,.629,5.906-1.382,2.497-4.026,6.416-6.84,11.034-7.919,4.614-1.079,9.367-.298,13.389,2.198,.008,.002,.008,.003,.008,.005,4.026,2.499,6.84,6.417,7.923,11.034,1.075,4.617,.298,9.376-2.199,13.402-1.25,2.008-.633,4.654,1.377,5.902,2.013,1.251,4.655,.631,5.902-1.381,3.71-5.971,4.867-13.03,3.267-19.877-1.6-6.845-5.775-12.658-11.744-16.366-.011-.006-.023-.007-.03-.013-5.965-3.695-13.01-4.852-19.85-3.252-6.843,1.602-12.656,5.773-16.363,11.746Z"/><path class="g" d="M178.937,95.009c.045,2.369,1.998,4.252,4.365,4.207,6.643-.127,12.839-2.828,17.445-7.612,4.495-4.668,6.952-10.77,6.952-17.232,0-.162,0-.324-.004-.485-.048-2.367-2.002-4.25-4.369-4.205-2.367,.044-4.239,1.992-4.205,4.368,.056,4.362-1.533,8.472-4.551,11.605-3.018,3.135-7.078,4.905-11.425,4.986-2.344,.045-4.209,1.956-4.209,4.285v.082Z"/><path class="g" d="M176.087,38.294l.003,.011c5.061,7.504,15.284,9.495,22.79,4.438,1.965-1.321,2.482-3.985,1.161-5.95-1.325-1.961-3.989-2.482-5.954-1.157-3.584,2.415-8.47,1.462-10.881-2.123l-.007-.004c-1.165-1.736-1.585-3.824-1.184-5.874,.398-2.054,1.574-3.831,3.312-4.999,1.965-1.323,2.482-3.989,1.161-5.951-1.325-1.963-3.989-2.484-5.954-1.161-4.697,3.165-7.235,8.356-7.235,13.637,0,3.148,.901,6.33,2.788,9.134Z"/><path class="g" d="M72.98,93.992c4.808-.294,9.207-2.44,12.396-6.044,1.566-1.773,1.399-4.482-.368-6.053-1.775-1.568-4.488-1.403-6.055,.372-1.671,1.887-3.978,3.01-6.494,3.165-2.515,.154-4.938-.683-6.825-2.354-1.771-1.57-4.481-1.405-6.051,.368-.722,.815-1.079,1.829-1.079,2.839,0,1.185,.488,2.365,1.444,3.212,3.602,3.189,8.232,4.785,13.032,4.494Z"/><path class="g" d="M291.853,27.508c-.022,.182-.03,.361-.03,.541,0,2.127,1.582,3.974,3.747,4.248,13.769,1.738,26.381-8.049,28.122-21.814,.29-2.348-1.369-4.495-3.718-4.791-2.348-.296-4.495,1.368-4.789,3.716-1.146,9.076-9.463,15.529-18.539,14.383-2.352-.296-4.495,1.368-4.793,3.718Z"/><path class="g" d="M13.461,28.347c-1.191-2.045-3.811-2.741-5.857-1.55-1.369,.796-2.132,2.233-2.132,3.71,0,.733,.186,1.474,.585,2.153,2.162,3.719,5.649,6.377,9.809,7.476,4.168,1.1,8.507,.512,12.228-1.654,.007-.004,.011-.01,.018-.015,3.71-2.166,6.36-5.644,7.454-9.798,1.102-4.164,.517-8.503-1.652-12.225-1.191-2.047-3.811-2.739-5.857-1.548-2.047,1.191-2.743,3.813-1.548,5.861,1.012,1.741,1.28,3.771,.771,5.723-.514,1.946-1.753,3.576-3.494,4.588l-.008,.004c-1.742,1.014-3.773,1.288-5.719,.774-1.947-.515-3.58-1.758-4.596-3.5Z"/><path class="g" d="M438.689,62.782c-.186,.495-.276,1.005-.276,1.503,0,1.738,1.064,3.372,2.784,4.016,15.767,5.913,33.403-2.103,39.312-17.866,5.921-15.767-2.099-33.401-17.862-39.312-7.636-2.866-15.935-2.583-23.355,.791-7.428,3.373-13.096,9.439-15.957,17.075-.186,.495-.275,1.005-.275,1.504,0,1.738,1.061,3.371,2.784,4.015,2.214,.832,4.685-.29,5.515-2.508,2.061-5.493,6.14-9.854,11.476-12.28,5.344-2.426,11.305-2.629,16.798-.569,11.339,4.253,17.103,16.939,12.854,28.274-4.253,11.337-16.939,17.101-28.275,12.85-2.218-.832-4.689,.29-5.522,2.508Z"/><path class="g" d="M237.302,110.531c.372,1.338,.201,2.739-.48,3.943-.681,1.206-1.794,2.075-3.126,2.445-1.898,.526-3.141,2.251-3.141,4.128,0,.38,.052,.767,.156,1.15,.632,2.281,2.999,3.617,5.277,2.983,3.543-.984,6.49-3.29,8.298-6.49,1.809-3.2,2.263-6.916,1.28-10.451l-.004-.007c-2.036-7.307-9.634-11.601-16.943-9.573l-.008,.002c-3.542,.986-6.486,3.292-8.295,6.494-1.18,2.093-1.783,4.404-1.783,6.745,0,1.237,.171,2.486,.51,3.712,.636,2.279,2.999,3.615,5.28,2.981,2.278-.635,3.61-2.988,2.981-5.28-.376-1.334-.205-2.737,.48-3.943,.677-1.208,1.79-2.076,3.126-2.447,2.753-.765,5.623,.854,6.389,3.61Z"/><path class="g" d="M600.73,198.101c0-3.554-1.37-6.899-3.87-9.432-2.523-2.557-5.887-3.978-9.482-4.002-2.367-.015-4.298,1.89-4.313,4.259v.028c0,2.355,1.902,4.272,4.261,4.287,1.299,.009,2.516,.523,3.431,1.447,.9,.918,1.399,2.129,1.399,3.414v.069c0,2.354,1.898,4.27,4.257,4.287,2.367,.017,4.302-1.889,4.317-4.255v-.102Z"/><path class="g" d="M702.033,143.44v45.1c-.67,.83-1.4,1.64-2.16,2.41-1.66,1.69-4.37,1.71-6.06,.05-1.69-1.66-1.71-4.38-.05-6.06,5.06-5.15,7.73-12.01,7.75-19.19-.06-7.22-2.93-13.98-8.08-19.04-.86-.84-1.29-1.95-1.29-3.06,0-1.08,.41-2.17,1.23-3,1.66-1.69,4.38-1.71,6.07-.05,.92,.91,1.79,1.85,2.59,2.84Z"/><path class="g" d="M671.677,137.607c-4.44-1.07-9.024-.345-12.921,2.039-3.896,2.384-6.627,6.14-7.692,10.576-.32,1.334-.476,2.677-.476,3.995,0,7.715,5.269,14.733,13.091,16.616,2.303,.555,4.618-.863,5.173-3.165,.562-2.298-.863-4.616-3.163-5.171-4.562-1.098-7.391-5.705-6.289-10.267v-.002c.532-2.211,1.89-4.082,3.833-5.269,1.939-1.187,4.228-1.548,6.434-1.016,2.303,.555,4.618-.862,5.173-3.163,.562-2.309-.86-4.62-3.163-5.173Z"/><path class="g" d="M497.769,101.077c-1.69-1.659-4.406-1.637-6.066,.052-.819,.833-1.228,1.92-1.228,3.005,0,1.109,.428,2.218,1.28,3.057,6.43,6.317,6.52,16.69,.201,23.117-1.66,1.69-1.637,4.403,.052,6.062,1.69,1.66,4.406,1.635,6.066-.052,9.631-9.802,9.497-25.607-.305-35.241Z"/><path class="g" d="M549.357,94.964c-4.41-5.956-12.846-7.215-18.804-2.808-2.888,2.136-4.771,5.267-5.299,8.82-.097,.671-.149,1.343-.149,2.009,0,2.86,.908,5.632,2.642,7.973,.004,.006,.011,.011,.015,.017,2.136,2.875,5.258,4.752,8.805,5.28,3.55,.53,7.093-.353,9.977-2.489,1.902-1.407,2.303-4.09,.897-5.995-1.407-1.903-4.093-2.306-5.995-.897-1.046,.772-2.33,1.092-3.614,.9s-2.415-.871-3.189-1.913l-.004-.006c-.774-1.048-1.094-2.335-.904-3.615,.19-1.286,.874-2.419,1.917-3.193,2.158-1.596,5.217-1.141,6.814,1.018,1.41,1.903,4.097,2.303,5.995,.895,1.901-1.409,2.307-4.094,.897-5.997Z"/><path class="g" d="M468.255,114.312c1.414-1.894,1.027-4.581-.867-6.001-1.898-1.416-4.585-1.027-6.003,.869-2.78,3.722-8.072,4.486-11.797,1.706-1.894-1.416-4.581-1.027-5.999,.871-.577,.768-.852,1.669-.852,2.56,0,1.306,.595,2.598,1.723,3.439,7.51,5.608,18.186,4.064,23.794-3.444Z"/><path class="g" d="M652.313,62.25c-1-4.8-3.79-8.93-7.89-11.63-3.04-2-6.52-3.03-10.07-3.03-1.25,0-2.5,.12-3.75,.38-4.8,1-8.94,3.8-11.63,7.9-2,3.03-3.03,6.51-3.03,10.06,0,1.25,.13,2.5,.38,3.75,1,4.8,3.8,8.93,7.9,11.63,3.04,2,6.51,3.03,10.06,3.03,1.25,0,2.5-.12,3.75-.38,4.8-.99,8.93-3.79,11.62-7.89h.01c2.7-4.11,3.64-9.01,2.65-13.82Zm-9.81,9.1c-1.44,2.19-3.64,3.68-6.2,4.21-2.56,.53-5.18,.03-7.37-1.41-2.18-1.44-3.68-3.64-4.21-6.2-.52-2.56-.03-5.18,1.41-7.37,1.44-2.19,3.64-3.68,6.21-4.21,2.56-.53,5.18-.03,7.36,1.41,2.18,1.44,3.68,3.64,4.21,6.21,.52,2.55,.03,5.17-1.41,7.36Z"/><path class="g" d="M269.644,52.251c2.337-.385,3.915-2.601,3.528-4.927-.383-2.337-2.59-3.919-4.927-3.532-9.921,1.638-19.332-5.103-20.973-15.026-.383-2.337-2.59-3.919-4.927-3.532-2.099,.346-3.587,2.164-3.587,4.224,0,.233,.018,.469,.059,.703,2.408,14.587,16.24,24.497,30.827,22.09Z"/><path class="g" d="M702.033,80.05c-.28,.71-.43,1.47-.44,2.26,0,.77,.16,1.52,.44,2.21v9.02c-1.54,.64-3.38,.34-4.65-.9-2.78-2.73-4.33-6.37-4.36-10.25v-.14c0-3.83,1.48-7.45,4.17-10.19,1.3-1.32,3.25-1.62,4.84-.88v8.87Z"/><path class="g" d="M370.206,123.168c2.218,.83,4.685-.298,5.515-2.516,.834-2.22-.301-4.689-2.515-5.515-11.026-4.118-16.653-16.435-12.537-27.464,.826-2.225-.298-4.689-2.515-5.515-2.218-.83-4.689,.298-5.515,2.515-1.284,3.437-1.89,6.961-1.89,10.429,0,12.135,7.439,23.578,19.459,28.064Z"/><path class="g" d="M568.31,60.261c-.908,2.644-1.359,5.366-1.359,8.081,0,3.736,.852,7.456,2.549,10.911,1.038,2.127,3.606,3.007,5.731,1.965,2.129-1.042,3.007-3.61,1.965-5.735-1.913-3.909-2.188-8.328-.778-12.442,1.41-4.118,4.343-7.437,8.25-9.35,2.121-1.042,3.007-3.61,1.965-5.736-1.042-2.127-3.61-3.007-5.738-1.967-5.961,2.921-10.435,7.99-12.585,14.273Z"/><path class="g" d="M546.905,36.333c1.548,1.788,4.257,1.982,6.043,.434,1.794-1.552,1.987-4.259,.432-6.049-4.666-5.387-11.152-8.636-18.264-9.142-7.108-.51-13.992,1.783-19.381,6.449-.007,.004-.007,.008-.011,.011-6.073,5.268-9.188,12.703-9.188,20.177,0,6.196,2.14,12.421,6.505,17.46,1.552,1.79,4.257,1.984,6.051,.436,1.786-1.552,1.98-4.257,.431-6.048-6.542-7.548-5.723-19.01,1.824-25.552,3.658-3.171,8.332-4.728,13.158-4.382,4.827,.344,9.229,2.549,12.399,6.205Z"/><path class="g" d="M465.676,96.516c1.421-1.89,1.031-4.583-.864-5.999-3.639-2.72-8.116-3.859-12.611-3.208-4.492,.649-8.466,3.011-11.186,6.65-.577,.77-.852,1.669-.852,2.562,0,1.306,.595,2.596,1.719,3.439,1.898,1.416,4.585,1.029,6.003-.869,1.347-1.803,3.316-2.975,5.545-3.297,2.229-.322,4.447,.242,6.248,1.589,1.898,1.418,4.585,1.031,5.999-.867Z"/><path class="g" d="M385.615,69.622c-.186,.495-.275,1.001-.275,1.5,0,1.738,1.068,3.372,2.791,4.015,11.026,4.12,16.653,16.45,12.533,27.465-.826,2.22,.301,4.689,2.52,5.517,2.222,.826,4.689-.299,5.519-2.518,5.768-15.46-2.114-32.723-17.572-38.495-2.218-.83-4.689,.298-5.515,2.515Z"/><path class="g" d="M316.819,107.901c.361,2.339,2.549,3.945,4.89,3.584,2.341-.361,3.941-2.562,3.583-4.89-3.111-20.218-22.101-34.145-42.326-31.041-2.121,.324-3.64,2.151-3.64,4.231,0,.216,.015,.435,.052,.655,.358,2.341,2.546,3.948,4.886,3.587,15.559-2.385,30.162,8.325,32.554,23.874Z"/></g></g></g></g></svg>