<?xml version="1.0" encoding="UTF-8"?><svg id="Capa_2" xmlns="http://www.w3.org/2000/svg" viewBox="0 0 28.36 28.6"><defs><style>.cls-1{fill:#026a8e;}.cls-2{fill:#009bdc;}.cls-3{fill:#fff;opacity:.5;}.cls-4{fill:#004e6e;}</style></defs><g id="Capa_5_copia_2"><g><g><g><path class="cls-2" d="M22.74,11.94c2.53,5.89-.2,12.71-6.08,15.24-5.89,2.53-12.71-.19-15.24-6.08-2.53-5.89,.2-12.71,6.09-15.24,5.89-2.53,12.71,.2,15.24,6.08Z"/><path class="cls-4" d="M12.08,4.92c4.5,0,8.78,2.63,10.67,7.03,2.53,5.89-.2,12.71-6.08,15.24-1.49,.64-3.04,.95-4.58,.95-4.5,0-8.78-2.63-10.66-7.03-2.53-5.89,.2-12.71,6.09-15.24,1.49-.64,3.04-.94,4.57-.94m0-.47h0c-1.64,0-3.24,.33-4.76,.98-2.96,1.27-5.25,3.62-6.45,6.62-1.19,3-1.15,6.28,.12,9.24,1.91,4.44,6.26,7.31,11.1,7.31,1.64,0,3.24-.33,4.76-.98,2.96-1.27,5.26-3.62,6.45-6.62,1.2-3,1.16-6.28-.12-9.24-1.91-4.44-6.27-7.31-11.1-7.31h0Z"/></g><g><path class="cls-2" d="M23.88,10.75c2.53,5.89-.2,12.71-6.08,15.24-5.89,2.53-12.71-.19-15.24-6.08C.03,14.02,2.75,7.2,8.64,4.67c5.89-2.53,12.71,.2,15.24,6.09Z"/><path class="cls-4" d="M13.21,3.73c4.5,0,8.78,2.63,10.67,7.03,2.53,5.89-.2,12.71-6.08,15.24-1.49,.64-3.05,.94-4.58,.94-4.5,0-8.78-2.63-10.66-7.03C.03,14.02,2.75,7.2,8.64,4.67c1.49-.64,3.04-.94,4.57-.94m0-.48h0c-1.64,0-3.24,.33-4.76,.98C2.33,6.86-.51,13.98,2.12,20.1c1.9,4.45,6.26,7.32,11.1,7.32,1.64,0,3.24-.33,4.76-.98,6.12-2.63,8.96-9.75,6.33-15.86-1.91-4.44-6.26-7.32-11.1-7.32h0Z"/></g><g><path class="cls-1" d="M24.37,17.11l-1.43-1.68c.34-1.91,.05-3.95-.99-5.77-1.61-2.85-4.6-4.42-7.66-4.36l-2.03-2.38-4.24,5.28c-2.37,2.67-2.91,6.66-1.05,9.95,2.34,4.13,7.59,5.58,11.73,3.24,.17-.1,.34-.21,.5-.31v.02s.41-.31,.41-.31c.09-.07,.18-.14,.27-.21l4.47-3.47Z"/><path class="cls-4" d="M12.26,2.92l2.03,2.38h.17c3,0,5.91,1.57,7.49,4.36,1.04,1.83,1.33,3.86,.99,5.77l1.43,1.68-4.47,3.47c-.09,.07-.18,.14-.27,.21l-.39,.31v-.02c-.18,.11-.35,.22-.52,.31-1.34,.76-2.8,1.12-4.23,1.12-3,0-5.91-1.57-7.5-4.36-1.86-3.29-1.33-7.27,1.05-9.95L12.26,2.92m0-.74l-.36,.45L7.65,7.9c-2.55,2.88-3,7.1-1.09,10.48,1.61,2.84,4.64,4.6,7.91,4.6,1.56,0,3.1-.41,4.47-1.18,.06-.04,.13-.07,.19-.11l.03,.03,.36-.25,.39-.3c.07-.05,.14-.11,.22-.17l.05-.04,4.47-3.47,.39-.3-.32-.38-1.29-1.51c.32-2.01-.06-4.09-1.07-5.86-1.6-2.83-4.6-4.59-7.86-4.6l-1.88-2.21-.37-.44h0Z"/></g></g><g><path class="cls-2" d="M27.87,9.45c-.05-1.44-.44-2.9-1.2-4.24C24.14,.72,18.44-.85,13.96,1.69c-4.48,2.54-6.06,8.23-3.52,12.72,.99,1.74,2.46,3.03,4.14,3.83,2.65,1.25,5.84,1.24,8.58-.31,3.14-1.78,4.85-5.11,4.72-8.48Z"/><path class="cls-4" d="M18.55,.48c3.25,0,6.41,1.7,8.12,4.73,.76,1.34,1.15,2.8,1.2,4.24,.13,3.37-1.58,6.7-4.72,8.48-1.45,.82-3.02,1.21-4.57,1.21-1.39,0-2.76-.31-4.01-.9-1.68-.79-3.15-2.09-4.14-3.83-2.54-4.48-.96-10.18,3.52-12.72,1.46-.82,3.04-1.21,4.6-1.21m0-.48c-1.68,0-3.35,.44-4.82,1.28-2.28,1.29-3.92,3.39-4.62,5.91-.7,2.53-.38,5.17,.91,7.45,1,1.76,2.5,3.15,4.35,4.02,1.31,.62,2.76,.95,4.21,.95,1.68,0,3.34-.44,4.81-1.27,3.2-1.82,5.1-5.23,4.96-8.91-.06-1.59-.48-3.09-1.26-4.45C25.35,1.9,22.08,0,18.55,0h0Z"/></g><path class="cls-3" d="M13.94,5.47c1.73-2.09,4.01-2.83,6.46-2.97-1.9-.74-4.1-.66-6.01,.42-3.37,1.91-4.55,6.17-2.64,9.54,.03,.06,.06,.1,.1,.16-.27-2.53,.57-5.29,2.1-7.14Z"/></g></g></svg>