<svg xmlns="http://www.w3.org/2000/svg" xmlns:xlink="http://www.w3.org/1999/xlink" viewBox="0 0 91.85 53.26"><defs><style>.cls-1{fill:#016429;stroke:#fff;stroke-miterlimit:10;filter:url(#filter);}.cls-2{fill:#fff;fill-rule:evenodd;}</style><filter id="filter" x="0" y="0" width="91.85" height="53.26" filterUnits="userSpaceOnUse"><feOffset dy="4" input="SourceAlpha"/><feGaussianBlur result="blur"/><feFlood flood-color="#016429"/><feComposite operator="in" in2="blur"/><feComposite in="SourceGraphic"/></filter></defs><g id="Layer_2" data-name="Layer 2"><g id="Layer_1-2" data-name="Layer 1"><rect class="cls-1" x="0.5" y="0.5" width="90.85" height="48.26" rx="12"/><path class="cls-2" d="M56.06,24.8a9.65,9.65,0,0,1-1.29,4.81,9.44,9.44,0,0,1-2.46,2.81.67.67,0,0,1-1-.21l-.5-.85a.7.7,0,0,1,.15-.88,7,7,0,0,0,1.76-2,7.31,7.31,0,0,0,0-7.28A7.43,7.43,0,0,0,50.87,19a.68.68,0,0,1-.16-.88l.48-.84a.7.7,0,0,1,1-.21,9.63,9.63,0,0,1,3.84,7.7Z"/><path class="cls-2" d="M60.82,24.8a14.34,14.34,0,0,1-6.14,11.78.65.65,0,0,1-.93-.21l-.53-.91a.66.66,0,0,1,.2-.87,12,12,0,0,0-.15-19.7.65.65,0,0,1-.21-.86l.52-.91a.65.65,0,0,1,.92-.23A14.37,14.37,0,0,1,60.82,24.8Z"/><path class="cls-2" d="M50.05,24.8c-.21,2-1.5,3.72-3,4l-.13,8.75v.05a1.13,1.13,0,0,1-.46.9s0,0-.06,0l-.07,0a1.16,1.16,0,0,1-1.38-.14.57.57,0,0,1-.11-.11l-8.23-7.65-.74,0-3-.08A1.82,1.82,0,0,1,31,28.84v-8.5a1.64,1.64,0,0,1,1.6-1.63l2.67-.06,1.29.05,8.48-7.87h0a1.2,1.2,0,0,1,.83-.34,1.17,1.17,0,0,1,1.18,1.1v9.24A3.77,3.77,0,0,1,50.05,24.8Z"/></g></g></svg>