<?xml version="1.0" encoding="UTF-8"?><svg id="Capa_1" xmlns="http://www.w3.org/2000/svg" viewBox="0 0 702.04 342.96"><defs><style>.cls-1{opacity:.08;}.cls-2{fill:none;}.cls-3{fill:#b751f7;}.cls-4{fill:#1a1a1a;}</style></defs><rect class="cls-3" width="702.04" height="342.96" rx="10.99" ry="10.99"/><g class="cls-1"><path class="cls-4" d="M129.26,307.87c-1.05-2.13-3.62-3.01-5.75-1.96-2.13,1.05-3,3.62-1.96,5.75,1.51,3.08,.23,5.72-2.15,10.12-2.62,4.81-5.87,10.79-2.32,18,.75,1.53,1.66,2.77,2.65,3.81h24.64c-3.24-1.99-6.99-2.6-10.26-3.13-4.94-.79-7.81-1.39-9.32-4.47-1.51-3.08-.23-5.71,2.16-10.11,2.61-4.81,5.86-10.79,2.32-18.01Z"/><path class="cls-4" d="M297.03,184.06c-2.37-.13-4.39,1.69-4.52,4.06-.43,8.7,8.44,12.87,16.3,16.54,5.13,2.39,11.55,5.35,11.36,8.3-.16,2.92-6.82,5.21-12.17,7.04-8.21,2.81-17.51,5.99-17.98,14.72-.41,8.8,8.45,12.87,16.31,16.53,5.13,2.39,11.43,5.34,11.36,8.28-.15,2.92-6.82,5.2-12.17,7.02-8.21,2.8-17.51,5.98-17.97,14.69-.12,2.36,1.69,4.39,4.06,4.52,2.37,.12,4.39-1.69,4.51-4.06,.16-2.91,6.82-5.19,12.17-7.02,8.21-2.8,17.51-5.98,17.98-14.7,.42-8.8-8.45-12.87-16.31-16.53-5.13-2.39-11.58-5.33-11.36-8.28,.15-2.93,6.82-5.21,12.18-7.05,8.2-2.81,17.5-5.99,17.97-14.71,0-.22,.01-.43,.01-.65,0-8.28-8.66-12.32-16.32-15.89-5.13-2.39-11.49-5.35-11.36-8.3,.13-2.36-1.69-4.39-4.06-4.52Z"/><path class="cls-4" d="M210.14,299.7c.34,2.21-4.53,5.11-8.42,7.42-6.05,3.6-13.58,8.08-12.54,15.94,1.05,7.87,9.49,10.22,16.28,12.11,4.35,1.21,9.77,2.72,10.07,4.96,.13,1.05-.88,2.25-2.38,3.47h10.46c.47-1.4,.66-2.92,.44-4.6-1.05-7.86-9.5-10.22-16.28-12.11-4.35-1.21-9.77-2.72-10.07-4.97-.31-2.28,4.53-5.11,8.42-7.42,6.05-3.6,13.58-8.05,12.54-15.93-.31-2.35-2.48-4-4.82-3.69-2.35,.31-4.01,2.47-3.69,4.82Z"/><path class="cls-4" d="M423.66,313.12c-2.25-.37-2.68-.56-2.87-.97-.2-.4-.09-.85,1.02-2.86,1.36-2.47,3.42-6.21,1.22-10.75-1.04-2.13-3.61-3.02-5.74-1.99-2.13,1.03-3.02,3.6-1.99,5.74,.2,.4,.09,.85-1.02,2.86-1.36,2.47-3.42,6.21-1.22,10.75,2.2,4.53,6.41,5.23,9.2,5.69,2.26,.37,2.68,.56,2.87,.97,.2,.41,.09,.85-1.02,2.86-1.36,2.47-3.42,6.22-1.22,10.75,2.2,4.53,6.4,5.23,9.19,5.69,2.26,.37,2.68,.56,2.88,.97,.09,.19,.11,.4,0,.75h8.66c.07-1.39-.16-2.89-.94-4.5-2.2-4.54-6.41-5.23-9.19-5.7-2.26-.37-2.68-.56-2.88-.97-.19-.41-.08-.85,1.02-2.86,1.36-2.47,3.41-6.22,1.22-10.75-2.2-4.53-6.41-5.23-9.2-5.69Z"/><path class="cls-4" d="M379.57,242.42c4-4.54,1.17-10.32-.89-14.54-.72-1.47-1.86-3.82-2.02-4.97,1.17,.01,3.63,.85,5.19,1.38,4.45,1.51,10.54,3.58,14.54-.95,1.47-1.67,2.02-3.51,2.02-5.38,0-3.2-1.6-6.49-2.91-9.16-.77-1.58-2.04-4.18-2.04-5.22v-.03c1.44-1.78,1.23-4.39-.5-5.92-1.78-1.57-4.49-1.4-6.06,.38-4,4.54-1.17,10.32,.88,14.54,.72,1.47,1.86,3.82,2.02,4.97-1.17-.01-3.64-.85-5.19-1.38-4.45-1.51-10.54-3.58-14.54,.95-3.99,4.54-1.17,10.32,.89,14.54,.72,1.47,1.86,3.81,2.02,4.97-1.16-.02-3.63-.86-5.17-1.38-4.45-1.52-10.54-3.59-14.53,.94-1.57,1.78-1.4,4.49,.38,6.06,1.73,1.53,4.34,1.41,5.93-.24,1.01-.15,3.77,.8,5.45,1.37,4.45,1.52,10.54,3.59,14.54-.94Z"/><path class="cls-4" d="M245,278.98c-.26-2.36-2.39-4.06-4.74-3.8-2.36,.26-4.08,2.4-3.8,4.74,1.02,9.23,10.71,12.21,19.25,14.83,6.32,1.94,12.84,3.95,13.25,7.57,.43,3.59-5.52,7.02-11.26,10.3-7.76,4.44-16.57,9.47-15.52,18.7,.72,6.5,5.75,9.9,11.65,12.26h23.62c-3.76-2.64-8.8-4.19-13.49-5.64-6.31-1.94-12.84-3.95-13.24-7.57-.37-3.6,5.52-7.01,11.25-10.3,7.76-4.44,16.57-9.5,15.53-18.7-1.03-9.23-10.71-12.21-19.26-14.83-6.32-1.94-12.84-3.95-13.24-7.57Z"/><path class="cls-4" d="M385.33,334.46c-4.41-1.91-9.42-4.07-9.45-6.58-.02-2.37-1.97-4.27-4.34-4.25-2.36,.02-4.25,1.94-4.25,4.29v.05c.08,8.09,8.15,11.58,14.63,14.38,.94,.4,1.89,.82,2.83,1.25h13.82c-2.6-4.54-8.37-7.03-13.24-9.13Z"/><path class="cls-4" d="M312.86,339.51c-1.43,.91-2.12,2.51-1.95,4.08h9.04c-.22-.92-.58-1.85-1.16-2.76-1.28-2-3.93-2.59-5.93-1.32Z"/><path class="cls-4" d="M409.78,159.03c-.48-2.05,.55-3.47,3.2-6.47,2.37-2.68,5.48-6.2,5.48-11.17,0-.93-.11-1.92-.35-2.96-1.54-6.58-6.94-8.77-10.88-10.36-3.71-1.51-5.27-2.32-5.75-4.37-.48-2.06,.55-3.48,3.2-6.48,2.82-3.19,6.67-7.56,5.13-14.13-1.55-6.58-6.94-8.77-10.88-10.36-3.71-1.51-5.26-2.33-5.75-4.38-.48-2.07,.55-3.48,3.2-6.48,2.81-3.19,6.67-7.55,5.13-14.13-1.55-6.58-6.94-8.78-10.88-10.37-3.71-1.51-5.27-2.33-5.75-4.38-.54-2.3-2.85-3.74-5.16-3.2-2.31,.54-3.75,2.85-3.2,5.17,1.54,6.58,6.94,8.77,10.88,10.37,3.71,1.51,5.27,2.33,5.75,4.38,.49,2.06-.55,3.49-3.2,6.48-2.81,3.18-6.67,7.55-5.12,14.13,1.54,6.58,6.94,8.77,10.88,10.37,3.71,1.51,5.27,2.32,5.75,4.38,.48,2.05-.55,3.48-3.2,6.48-2.82,3.19-6.67,7.56-5.13,14.13,1.55,6.58,6.94,8.77,10.88,10.36,3.71,1.51,5.27,2.32,5.75,4.38,.48,2.05-.55,3.47-3.2,6.47-2.81,3.18-6.67,7.55-5.12,14.13,.54,2.31,2.86,3.74,5.16,3.2,2.31-.54,3.74-2.86,3.2-5.16Z"/><path class="cls-4" d="M371.29,161.49c1.95,1.2,4.52,.66,5.81-1.25,.5-.74,.73-1.57,.73-2.4,0-1.38-.66-2.73-1.89-3.56-5.02-3.39-10.4,.14-14.32,2.72-1.38,.9-3.59,2.35-4.71,2.64-.15-1.14,.37-3.74,.69-5.35,.92-4.61,2.19-10.92-2.83-14.31-5.01-3.39-10.39,.15-14.32,2.73-1.38,.91-3.58,2.35-4.7,2.64-.14-1.15,.37-3.73,.7-5.35,.93-4.6,2.2-10.91-2.81-14.3-1.96-1.33-4.63-.81-5.96,1.15-1.29,1.92-.84,4.5,1,5.86,.28,.97-.3,3.85-.65,5.59-.93,4.61-2.19,10.92,2.82,14.3,5.01,3.39,10.39-.15,14.32-2.73,1.38-.91,3.58-2.35,4.7-2.64,.16,1.14-.37,3.74-.69,5.35-.93,4.61-2.19,10.92,2.83,14.3,5.01,3.39,10.39-.14,14.32-2.72,1.49-.98,3.94-2.59,4.95-2.69Z"/><path class="cls-4" d="M139.13,110.56c-5.55,2.8-5.27,9.24-5.07,13.95,.08,1.82,.22,5.22-.36,5.9-2.12,1.07-2.97,3.65-1.9,5.77,1.07,2.12,3.65,2.97,5.77,1.9,5.56-2.8,5.28-9.24,5.07-13.95-.07-1.82-.23-5.22,.35-5.91,.91-.06,3.56,2.07,4.97,3.22,3.66,2.96,8.68,7,14.23,4.2,5.55-2.8,5.27-9.24,5.07-13.94-.08-1.82-.23-5.21,.34-5.9,.91-.06,3.55,2.07,4.97,3.22,3.66,2.96,8.67,7.01,14.22,4.21,1.5-.76,2.36-2.27,2.36-3.84,0-.65-.15-1.3-.46-1.92-1.07-2.12-3.65-2.97-5.76-1.9-.91,.06-3.55-2.07-4.97-3.22-3.66-2.96-8.67-7.01-14.22-4.21-5.55,2.8-5.27,9.25-5.06,13.94,.07,1.82,.23,5.22-.35,5.9-.91,.06-3.55-2.07-4.97-3.21-3.66-2.96-8.68-7.01-14.23-4.2Z"/><path class="cls-4" d="M150.97,233.94c.79,3.73,1.89,8.85,7.55,11.28,5.67,2.44,10.13-.29,13.39-2.27,3.04-1.86,4.14-2.31,5.52-1.72,2.18,.94,4.7-.07,5.64-2.25,.24-.55,.35-1.13,.35-1.7,0-1.66-.98-3.25-2.6-3.95-5.66-2.44-10.13,.29-13.38,2.27-3.05,1.86-4.14,2.31-5.52,1.72-1.38-.59-1.8-1.7-2.55-5.19-.79-3.74-1.89-8.85-7.55-11.29-5.66-2.44-10.13,.29-13.38,2.28-3.05,1.86-4.13,2.31-5.51,1.72-1.38-.59-1.8-1.7-2.55-5.19-.79-3.73-1.89-8.85-7.55-11.28-5.66-2.44-10.13,.29-13.38,2.28-3.04,1.86-4.14,2.31-5.51,1.72-1.38-.59-1.8-1.69-2.54-5.18-.79-3.73-1.88-8.85-7.54-11.29-2.18-.94-4.7,.07-5.64,2.25-.94,2.18,.07,4.7,2.24,5.64,1.37,.59,1.8,1.7,2.54,5.18,.79,3.73,1.88,8.85,7.54,11.28,5.67,2.44,10.13-.29,13.39-2.28,3.04-1.86,4.13-2.31,5.51-1.72,1.38,.59,1.8,1.7,2.55,5.19,.79,3.73,1.89,8.85,7.55,11.28,5.66,2.44,10.13-.29,13.38-2.28,3.04-1.86,4.14-2.31,5.51-1.72,1.38,.59,1.8,1.7,2.55,5.19Z"/><path class="cls-4" d="M286.11,89.56c-4.68,2.74-5.08,7.39-5.35,10.47-.24,2.75-.43,3.39-1.14,3.8-2.05,1.2-2.73,3.83-1.53,5.88,1.2,2.05,3.83,2.73,5.88,1.53,4.68-2.74,5.08-7.39,5.35-10.47,.24-2.75,.43-3.39,1.14-3.8,.7-.41,1.35-.27,3.87,.87,2.81,1.27,7.07,3.2,11.75,.45,4.68-2.74,5.08-7.39,5.35-10.47,.24-2.74,.43-3.39,1.13-3.8,.7-.41,1.35-.27,3.86,.87,2.82,1.27,7.07,3.19,11.75,.45,4.68-2.74,5.08-7.39,5.35-10.47,.24-2.75,.43-3.39,1.13-3.8,.7-.41,1.35-.26,3.86,.87,2.82,1.27,7.07,3.2,11.75,.46,1.36-.8,2.13-2.23,2.13-3.71,0-.74-.19-1.48-.59-2.17-1.2-2.05-3.83-2.73-5.88-1.54-.7,.41-1.35,.26-3.87-.87-2.81-1.27-7.07-3.2-11.75-.46-4.68,2.74-5.08,7.4-5.34,10.47-.24,2.75-.43,3.39-1.13,3.8-.71,.41-1.36,.26-3.87-.87-2.81-1.28-7.07-3.2-11.75-.45-4.68,2.74-5.08,7.39-5.34,10.47-.23,2.74-.43,3.39-1.13,3.8-.71,.42-1.36,.27-3.87-.87-2.82-1.28-7.07-3.2-11.75-.45Z"/><path class="cls-4" d="M217.88,193.53c-2.32,.08-4.15,1.98-4.15,4.29v.14c.07,2.28,1.91,4.08,4.15,4.15,.78,.7,1.94,3.32,2.64,4.92,1.91,4.32,4.51,10.23,10.5,10.04,6-.2,8.21-6.27,9.83-10.71,.53-1.45,1.36-3.72,2.05-4.75,.75,.97,1.73,3.19,2.36,4.6,1.91,4.32,4.52,10.23,10.51,10.03,5.99-.2,8.21-6.27,9.83-10.7,.6-1.64,1.58-4.34,2.32-5.08,2.19-.21,3.88-2.06,3.88-4.27v-.14c-.08-2.37-2.07-4.23-4.44-4.15-5.99,.2-8.21,6.27-9.83,10.7-.53,1.45-1.36,3.73-2.05,4.75-.76-.98-1.74-3.19-2.36-4.6-1.91-4.32-4.52-10.23-10.51-10.03-5.99,.2-8.21,6.27-9.82,10.7-.53,1.45-1.35,3.72-2.05,4.74-.75-.98-1.73-3.19-2.35-4.6-1.91-4.32-4.51-10.23-10.5-10.04Z"/><path class="cls-4" d="M227.01,149.02c1.99,3.61,4.72,8.55,11.27,9.29,6.55,.73,10.31-3.48,13.05-6.56,2.57-2.89,3.73-3.96,5.67-3.74,1.95,.22,2.84,1.52,4.71,4.91,2,3.61,4.73,8.55,11.27,9.29,6.54,.73,10.3-3.48,13.05-6.56,2.57-2.89,3.73-3.96,5.68-3.74,1.94,.22,2.83,1.52,4.7,4.9,1.99,3.61,4.72,8.56,11.27,9.29,2.36,.26,4.48-1.43,4.75-3.79,.01-.16,.02-.33,.02-.48,0-2.16-1.62-4.02-3.81-4.27-1.94-.22-2.83-1.52-4.7-4.91-1.99-3.61-4.72-8.56-11.26-9.29-6.54-.74-10.3,3.48-13.05,6.56-2.58,2.89-3.73,3.96-5.68,3.74-1.95-.22-2.83-1.52-4.7-4.91-1.99-3.61-4.72-8.56-11.27-9.29-6.55-.74-10.3,3.48-13.05,6.56-2.57,2.89-3.73,3.96-5.67,3.74-1.95-.22-2.84-1.52-4.71-4.91-1.99-3.61-4.73-8.56-11.27-9.29-6.55-.73-10.3,3.48-13.05,6.56-2.58,2.89-3.74,3.96-5.68,3.74-2.36-.26-4.49,1.43-4.75,3.79-.25,2.37,1.43,4.49,3.79,4.75,6.55,.73,10.3-3.48,13.05-6.56,2.58-2.89,3.73-3.96,5.68-3.74,1.95,.22,2.84,1.52,4.72,4.91Z"/><path class="cls-4" d="M184.13,177.56c-2.2-4.53-6.41-5.23-9.2-5.69-2.25-.37-2.68-.56-2.87-.97-.2-.4-.09-.85,1.02-2.86,1.36-2.48,3.42-6.21,1.22-10.75-1.04-2.14-3.61-3.02-5.74-1.99-2.13,1.03-3.02,3.6-1.99,5.74,.2,.4,.09,.85-1.02,2.86-1.36,2.48-3.42,6.21-1.22,10.75,2.2,4.53,6.41,5.23,9.2,5.69,2.26,.37,2.68,.56,2.87,.97,.2,.4,.09,.85-1.02,2.86-1.36,2.47-3.42,6.22-1.22,10.75,2.2,4.53,6.4,5.23,9.19,5.69,2.26,.37,2.68,.56,2.88,.97,.2,.41,.08,.86-1.02,2.86-1.36,2.48-3.41,6.22-1.22,10.75,2.2,4.53,6.41,5.23,9.2,5.7,2.26,.37,2.68,.56,2.88,.97,1.04,2.13,3.61,3.02,5.74,1.99,1.53-.74,2.42-2.27,2.42-3.87,0-.63-.14-1.27-.43-1.87-2.2-4.53-6.41-5.23-9.2-5.7-2.25-.37-2.68-.56-2.88-.97-.19-.41-.08-.87,1.02-2.87,1.36-2.47,3.41-6.22,1.22-10.75-2.2-4.54-6.41-5.23-9.19-5.7-2.26-.37-2.68-.56-2.88-.97-.2-.4-.09-.85,1.02-2.86,1.36-2.47,3.41-6.22,1.22-10.75Z"/><path class="cls-4" d="M345.36,284.4c-5.71,1.37-7.62,6.14-8.88,9.29-1.18,2.94-1.7,3.84-2.9,4.13-1.2,.29-2.08-.27-4.46-2.36-2.56-2.24-6.42-5.62-12.12-4.25-2.31,.55-3.74,2.87-3.18,5.18,.55,2.31,2.87,3.73,5.18,3.17,1.2-.29,2.08,.28,4.46,2.36,2.56,2.24,6.42,5.62,12.12,4.25,5.71-1.37,7.62-6.14,8.88-9.29,1.18-2.94,1.7-3.84,2.9-4.13,1.21-.29,2.08,.27,4.47,2.36,2.56,2.24,6.42,5.62,12.12,4.25,5.71-1.37,7.62-6.14,8.88-9.29,1.18-2.94,1.7-3.84,2.91-4.13,1.21-.29,2.08,.27,4.47,2.36,2.56,2.24,6.42,5.62,12.13,4.25,5.71-1.37,7.62-6.14,8.89-9.29,1.18-2.94,1.7-3.84,2.91-4.13,1.97-.47,3.3-2.23,3.3-4.17,0-.33-.04-.67-.12-1-.55-2.31-2.87-3.73-5.17-3.18-5.71,1.37-7.62,6.14-8.88,9.29-1.18,2.94-1.7,3.84-2.92,4.13-1.2,.29-2.08-.27-4.47-2.36-2.56-2.24-6.42-5.62-12.13-4.25-5.71,1.37-7.62,6.13-8.88,9.29-1.18,2.94-1.71,3.84-2.91,4.13-1.2,.29-2.08-.27-4.47-2.36-2.55-2.24-6.42-5.62-12.13-4.25Z"/><path class="cls-4" d="M560.2,192.91c.18-.49,.26-.99,.26-1.48,0-1.75-1.08-3.4-2.82-4.03-5.92-2.17-10.34,.88-13.56,3.1-2.9,1.99-4.14,2.69-5.74,2.11-1.6-.59-2.1-1.92-3.02-5.31-1.03-3.78-2.44-8.96-8.36-11.13-5.92-2.17-10.33,.88-13.56,3.1-3.09,2.13-4.21,2.66-5.73,2.11-1.6-.59-2.1-1.92-3.02-5.31-1.03-3.78-2.43-8.96-8.35-11.12-5.92-2.17-10.33,.88-13.56,3.1-3.09,2.13-4.21,2.66-5.73,2.11-1.52-.55-2.03-1.69-3.01-5.31-1.03-3.78-2.43-8.96-8.35-11.12-2.23-.81-4.69,.33-5.51,2.56-.81,2.23,.33,4.69,2.56,5.51,1.51,.55,2.03,1.69,3.01,5.31,1.03,3.78,2.43,8.96,8.35,11.12,5.92,2.17,10.34-.88,13.56-3.1,2.89-1.99,4.14-2.69,5.73-2.11,1.6,.58,2.1,1.92,3.02,5.31,1.03,3.78,2.43,8.96,8.35,11.13,5.92,2.17,10.33-.88,13.56-3.1,2.89-1.99,4.13-2.69,5.73-2.11,1.6,.59,2.1,1.92,3.02,5.31,1.03,3.78,2.43,8.96,8.36,11.13,5.92,2.17,10.34-.88,13.56-3.1,2.9-1.99,4.14-2.69,5.74-2.11,2.23,.82,4.69-.33,5.51-2.56Z"/><path class="cls-4" d="M668.62,135.11c-2.37-.1-4.37,1.75-4.46,4.12-.29,5.93,5.63,8.62,9.91,10.54,1.39,.63,3.55,1.6,4.52,2.36-1.03,.67-3.26,1.47-4.69,1.98-4.43,1.58-10.48,3.74-10.72,9.72-.25,5.92,5.63,8.61,9.91,10.54,1.38,.62,3.54,1.59,4.51,2.34-1.03,.67-3.26,1.47-4.69,1.98-4.42,1.58-10.48,3.74-10.72,9.71v.18c0,2.29,1.81,4.19,4.12,4.29,2.27,.09,4.2-1.6,4.44-3.83,.75-.72,3.42-1.67,5.04-2.25,4.43-1.58,10.49-3.74,10.73-9.71,0-.12,0-.23,0-.35,0-5.72-5.72-8.3-9.92-10.19-1.39-.62-3.55-1.6-4.52-2.35,1.03-.67,3.26-1.47,4.69-1.98,4.43-1.58,10.48-3.75,10.72-9.72,0-.12,0-.23,0-.35,0-5.72-5.72-8.3-9.92-10.19-1.58-.71-4.16-1.88-4.85-2.65-.05-2.24-1.85-4.09-4.12-4.18Z"/><path class="cls-4" d="M702.03,70.9v30.07c-4.37-4.6-3.84-10.37-3.46-14.68,.41-4.67,.39-6.74-1.6-8.44-2-1.69-4.05-1.39-8.6-.23-4.51,1.15-10.7,2.72-16.27-2.02-5.58-4.75-5.02-11.11-4.6-15.75,.41-4.67,.38-6.75-1.61-8.45-2-1.7-4.05-1.4-8.59-.24-4.52,1.15-10.71,2.73-16.29-2.02-5.58-4.75-5.01-11.11-4.59-15.75,.42-4.67,.38-6.75-1.61-8.45-2-1.7-4.05-1.4-8.61-.25-4.52,1.16-10.7,2.73-16.28-2.02-1.81-1.53-2.03-4.25-.49-6.05,1.54-1.81,4.25-2.03,6.06-.49,2,1.7,4.05,1.4,8.6,.24,4.52-1.15,10.71-2.72,16.28,2.02,5.58,4.75,5.01,11.11,4.6,15.76-.42,4.67-.39,6.75,1.61,8.45s4.05,1.4,8.6,.24c4.52-1.15,10.7-2.73,16.28,2.02,5.57,4.75,5.01,11.11,4.59,15.75-.41,4.68-.38,6.75,1.61,8.45,2,1.7,4.05,1.39,8.6,.23,4.37-1.12,10.33-2.63,15.77,1.61Z"/><path class="cls-4" d="M35.73,63.8v.08c0,2.34-1.87,4.25-4.21,4.3-6.44,.13-9.71-4.3-12.09-7.53-2.19-2.97-3.19-4.08-5-4.04-1.82,.03-2.78,1.18-4.85,4.23-1.98,2.92-4.6,6.78-9.58,7.77v-9.39c.72-.67,1.47-1.71,2.48-3.21,2.25-3.32,5.34-7.87,11.78-7.99,6.43-.13,9.7,4.3,12.08,7.53,2.19,2.96,3.18,4.08,5.01,4.04,2.37-.04,4.33,1.84,4.38,4.21Z"/><path class="cls-4" d="M619.13,92.16c.93-4.6,2.2-10.91-2.81-14.3-1.96-1.33-4.63-.81-5.96,1.15-1.29,1.92-.84,4.5,1,5.86,.28,.97-.3,3.85-.65,5.59-.93,4.61-2.19,10.92,2.82,14.3,5.01,3.39,10.39-.14,14.32-2.72,1.38-.91,3.58-2.36,4.7-2.65,.15,1.15-.37,3.74-.69,5.35-.92,4.61-2.19,10.92,2.83,14.3,5.01,3.39,10.39-.14,14.32-2.72,1.49-.98,3.94-2.59,4.95-2.68,1.95,1.2,4.52,.66,5.81-1.25,.5-.74,.73-1.57,.73-2.4,0-1.38-.66-2.74-1.89-3.56-5.02-3.39-10.4,.14-14.32,2.72-1.38,.91-3.59,2.36-4.71,2.64-.15-1.14,.37-3.74,.69-5.35,.93-4.61,2.19-10.92-2.83-14.31-5.01-3.39-10.39,.15-14.32,2.73-1.38,.9-3.58,2.35-4.7,2.64-.13-1.15,.37-3.73,.7-5.34Z"/><path class="cls-4" d="M529.68,263.42c-3.06,5.02-6.85,11.27-2.82,16.67,1.42,1.9,4.11,2.29,6.01,.87,1.9-1.42,2.29-4.11,.87-6.01-.32-1.1,2.11-5.13,3.28-7.06,2.11-3.46,4.57-7.51,4.57-11.46,0-1.77-.5-3.53-1.75-5.21-4.04-5.4-11.11-3.52-16.78-2.01-2.18,.58-6.73,1.79-7.71,1.14-.35-1.11,2.1-5.13,3.28-7.06,3.05-5.03,6.84-11.28,2.81-16.67-4.04-5.4-11.11-3.52-16.79-2.01-2.19,.58-6.74,1.79-7.71,1.14-1.42-1.9-4.11-2.29-6.01-.87-1.9,1.42-2.29,4.11-.87,6.01,4.04,5.4,11.11,3.52,16.79,2.02,2.18-.58,6.73-1.79,7.71-1.14,.35,1.11-2.1,5.13-3.27,7.06-3.05,5.02-6.85,11.28-2.81,16.67,4.04,5.4,11.11,3.52,16.79,2.01,2.18-.58,6.73-1.79,7.7-1.14,.32,1.13-2.11,5.13-3.28,7.06Z"/><path class="cls-4" d="M596.51,269.98c.53-6.27-5.02-9.51-9.1-11.87-1.46-.84-4.85-2.81-4.85-3.64v-.03c.07-.82,3.82-2.18,5.42-2.76,4.43-1.6,10.49-3.8,11.05-10.07,.57-6.27-5.03-9.5-9.1-11.86-1.46-.84-4.85-2.81-4.85-3.64v-.02c.07-.82,3.82-2.18,5.42-2.76,4.43-1.6,10.49-3.8,11.05-10.07,.01-.13,.02-.26,.02-.39,0-2.2-1.69-4.07-3.91-4.27-2.36-.21-4.45,1.53-4.66,3.9-.07,.82-3.82,2.18-5.42,2.76-4.43,1.6-10.49,3.8-11.05,10.07-.55,6.26,5.03,9.5,9.1,11.86,1.46,.84,4.85,2.81,4.85,3.64,0,0,0,.02,0,.03-.07,.82-3.82,2.17-5.42,2.75-4.43,1.6-10.5,3.8-11.05,10.07-.56,6.26,5.02,9.5,9.1,11.86,1.45,.84,4.85,2.81,4.85,3.64v.03c-.22,2.36,1.54,4.45,3.9,4.66,2.36,.21,4.45-1.53,4.66-3.9Z"/><path class="cls-4" d="M436.6,191.13c-1.03-2.13-3.61-3.02-5.74-1.99-2.14,1.03-3.03,3.6-1.99,5.74,1.36,2.81,.16,5.25-2.09,9.34-2.39,4.34-5.66,10.29-2.29,17.24,3.37,6.94,10.07,8.05,14.95,8.87,4.6,.76,7.26,1.33,8.63,4.15,1.36,2.81,.16,5.26-2.08,9.35-2.39,4.34-5.66,10.29-2.29,17.23,3.37,6.95,10.06,8.06,14.95,8.87,4.6,.76,7.27,1.33,8.63,4.15,1.37,2.82,.16,5.27-2.08,9.35-2.39,4.34-5.66,10.29-2.29,17.24,3.37,6.95,10.07,8.06,14.95,8.87,4.6,.77,7.27,1.34,8.64,4.16,1.04,2.13,3.6,3.02,5.74,1.99,1.53-.74,2.42-2.27,2.42-3.87,0-.63-.14-1.27-.43-1.87-3.37-6.95-10.07-8.06-14.95-8.88-4.6-.77-7.27-1.34-8.63-4.15-1.36-2.82-.16-5.27,2.08-9.36,2.39-4.34,5.66-10.29,2.29-17.24-3.37-6.95-10.06-8.06-14.95-8.88-4.59-.76-7.26-1.33-8.63-4.14-1.36-2.82-.16-5.26,2.09-9.35,2.39-4.34,5.65-10.29,2.29-17.24-3.37-6.95-10.06-8.06-14.95-8.87-4.6-.76-7.27-1.33-8.63-4.14-1.37-2.81-.16-5.26,2.08-9.34,2.39-4.34,5.66-10.28,2.29-17.23Z"/><path class="cls-4" d="M510.65,320.24c-5.85,2.88-5.93,9.35-5.99,14.08-.03,2.78-.07,5.93-1.19,6.48-1.12,.55-3.65-1.34-5.87-3.01-3.78-2.83-8.97-6.71-14.82-3.83-4.14,2.04-5.39,5.88-5.79,9.63h8.66c.17-.96,.45-1.69,.92-1.93,.88-.43,2.62,.64,4.41,1.93h20.92c1.26-2.92,1.31-6.35,1.35-9.16,.04-2.78,.07-5.93,1.19-6.48,1.12-.55,3.64,1.34,5.87,3.01,3.78,2.84,8.96,6.72,14.81,3.84,1.52-.75,2.4-2.27,2.4-3.86,0-.64-.14-1.28-.44-1.89-1.05-2.13-3.62-3-5.75-1.96-1.12,.55-3.64-1.34-5.87-3-3.78-2.84-8.96-6.72-14.81-3.84Z"/><path class="cls-4" d="M702.03,290.35v8.69c-.42,.42-.76,1.26-1.37,3.11-.96,2.94-2.41,7.38-7.59,8.99-5.18,1.61-8.89-1.23-11.35-3.11-2.19-1.68-2.79-1.96-3.58-1.72-.78,.24-1.11,.82-1.96,3.45-.96,2.94-2.41,7.38-7.59,8.99-5.18,1.61-8.89-1.23-11.35-3.11-2.19-1.68-2.79-1.97-3.58-1.73-.77,.24-1.1,.82-1.96,3.45-.95,2.94-2.4,7.38-7.58,8.99s-8.89-1.23-11.34-3.11c-2.2-1.68-2.8-1.97-3.58-1.73-2.26,.7-4.67-.56-5.37-2.83-.7-2.26,.56-4.67,2.83-5.37,5.18-1.61,8.89,1.23,11.34,3.11,2.19,1.68,2.79,1.97,3.57,1.73,.78-.25,1.11-.83,1.97-3.45,.95-2.94,2.4-7.38,7.58-8.99s8.89,1.23,11.35,3.11c2.19,1.67,2.79,1.97,3.57,1.72,.79-.24,1.11-.82,1.97-3.45,.96-2.93,2.41-7.38,7.58-8.98,5.19-1.61,8.9,1.22,11.35,3.1,2.2,1.68,2.8,1.97,3.58,1.73,.78-.24,1.12-.82,1.97-3.45,.96-2.94,2.41-7.38,7.59-8.99,.65-.2,1.32-.24,1.95-.15Z"/><path class="cls-4" d="M22.65,160.99c-8.49,4.28-8.05,14.44-7.65,23.4,.36,8.21,.34,13.7-2.95,15.36-2.11,1.07-2.97,3.65-1.89,5.77,1.07,2.12,3.65,2.97,5.77,1.9,8.48-4.28,8.04-14.44,7.65-23.4-.36-8.2-.35-13.7,2.94-15.36,3.29-1.66,7.73,1.59,14.11,6.75,6.98,5.63,14.89,12.02,23.38,7.73,8.48-4.28,8.04-14.43,7.65-23.4-.37-8.2-.35-13.7,2.94-15.36,3.27-1.66,7.7,1.6,14.08,6.76,6.98,5.64,14.88,12.03,23.36,7.75,1.5-.76,2.36-2.27,2.36-3.84,0-.65-.15-1.31-.46-1.93-1.07-2.12-3.65-2.97-5.77-1.9-3.28,1.66-7.71-1.6-14.09-6.76-6.98-5.64-14.88-12.02-23.36-7.74-8.48,4.28-8.04,14.43-7.64,23.4,.36,8.2,.34,13.7-2.94,15.36-3.29,1.66-7.72-1.59-14.11-6.75-6.98-5.64-14.89-12.02-23.38-7.73Z"/><path class="cls-4" d="M95.71,105.6c0,1.92-1.29,3.66-3.23,4.16-6.58,1.67-11.04-2.12-14.3-4.89-3.07-2.62-4.53-3.64-6.59-3.11-2.08,.53-2.87,2.12-4.32,5.89-1.54,3.99-3.64,9.45-10.22,11.13-6.58,1.68-11.04-2.12-14.3-4.89-3.07-2.62-4.53-3.63-6.6-3.1-2.08,.52-2.87,2.11-4.32,5.89-1.54,3.99-3.63,9.45-10.22,11.12-6.58,1.68-11.04-2.11-14.3-4.88-3.08-2.62-4.54-3.64-6.61-3.11-.25,.07-.49,.15-.7,.24v-8.84c5.81-.85,9.86,2.59,12.88,5.16,3.08,2.62,4.54,3.64,6.62,3.11,2.06-.53,2.86-2.12,4.31-5.89,1.53-3.99,3.63-9.46,10.22-11.13,6.57-1.67,11.03,2.12,14.29,4.89,3.08,2.62,4.54,3.64,6.62,3.11,2.06-.53,2.86-2.12,4.31-5.89,1.53-3.99,3.63-9.46,10.21-11.14,6.59-1.67,11.04,2.13,14.29,4.9,3.08,2.62,4.54,3.63,6.61,3.11,2.3-.59,4.64,.8,5.22,3.1,.09,.36,.13,.71,.13,1.06Z"/><path class="cls-4" d="M474.55,4.31c2.23-1.1,3.65-2.64,4.63-4.31h-32.61c-.69,1.83-1.01,3.68-1.24,5.19-.54,3.39-.88,4.47-2.15,5.1-1.26,.63-2.33,.25-5.36-1.38-3.11-1.67-7.81-4.21-13.25-1.51-5.44,2.7-6.27,7.97-6.82,11.46-.53,3.39-.88,4.47-2.15,5.1-2.12,1.06-2.99,3.64-1.94,5.76,1.06,2.12,3.63,2.99,5.76,1.94,5.44-2.69,6.27-7.97,6.82-11.46,.54-3.39,.88-4.47,2.15-5.1,1.27-.63,2.34-.25,5.36,1.38,3.11,1.67,7.81,4.21,13.25,1.51,5.44-2.7,6.26-7.97,6.81-11.46,.53-3.39,.88-4.47,2.14-5.1,1.27-.63,2.33-.25,5.36,1.38,3.11,1.67,7.81,4.21,13.24,1.51Z"/><path class="cls-4" d="M286.6,10.67c-.91,2.18,.12,4.7,2.31,5.62,2.18,.91,4.7-.12,5.61-2.31,2.39-5.69-1.16-10.42-4.11-13.98h-10.74c1.06,1.81,2.42,3.43,3.6,4.85,2.25,2.69,3.82,4.67,3.33,5.82Z"/><path class="cls-4" d="M687.87,2.02c.56-.81,1.03-1.47,1.47-2.02h-10.74c-.8,.82-1.52,1.19-2.49,1.2-2.36,.03-4.24,1.95-4.24,4.29v.06c.03,2.37,1.98,4.27,4.35,4.24,6.34-.08,9.42-4.52,11.66-7.77Z"/><path class="cls-4" d="M525.8,9.52c-.58-3.01-.62-3.94,.18-4.78,.8-.83,1.73-.83,4.76-.38,3.28,.49,8.25,1.23,12.23-2.93,.45-.47,.83-.95,1.16-1.44h-25.35c-2.8,3.87-1.99,8.19-1.42,11.15,.58,3.01,.63,3.94-.17,4.77-1.64,1.71-1.59,4.44,.13,6.07,1.71,1.64,4.43,1.58,6.07-.13,3.99-4.15,3.04-9.08,2.41-12.34Z"/><path class="cls-4" d="M604.66,122.72c-3.22-5.74-10.24-4.83-15.88-4.1-2.24,.29-6.41,.84-7.28,.21-1.16-2.07-3.78-2.8-5.85-1.64-2.07,1.16-2.81,3.78-1.64,5.85,3.23,5.74,10.24,4.83,15.88,4.1,2.24-.29,6.42-.83,7.27-.27v.06c0,1.18-2.57,4.38-3.96,6.11-3.55,4.44-7.98,9.96-4.75,15.7,3.23,5.74,10.24,4.83,15.88,4.09,2.24-.29,6.42-.83,7.27-.28,0,.02,0,.04,0,.06,0,1.17-2.57,4.37-3.96,6.11-3.56,4.43-7.99,9.94-4.76,15.69,1.16,2.07,3.79,2.83,5.86,1.67,2.07-1.16,2.81-3.74,1.65-5.82v-.06c0-1.17,2.57-4.37,3.96-6.11,2.69-3.35,5.88-7.33,5.88-11.55,0-1.36-.33-2.75-1.11-4.14-3.23-5.74-10.25-4.83-15.88-4.09-2.24,.29-6.41,.83-7.27,.27-.1-1.07,2.54-4.41,3.96-6.17,3.55-4.43,7.98-9.95,4.75-15.7Z"/><path class="cls-4" d="M700.9,6.13c-1.38-1.28-2.47-2.75-3.41-4.04,1.44,1.04,2.62,2.43,3.41,4.04Z"/><path class="cls-4" d="M628.93,200.62c-2.13,1.03-3.02,3.6-1.99,5.74,.2,.4,.09,.85-1.02,2.86-1.36,2.48-3.42,6.21-1.22,10.75s6.41,5.23,9.2,5.69c2.26,.37,2.68,.56,2.87,.97,.2,.4,.09,.85-1.02,2.86-1.36,2.47-3.42,6.21-1.22,10.75,2.2,4.53,6.4,5.23,9.19,5.69,2.26,.37,2.68,.56,2.88,.97,.2,.41,.08,.86-1.02,2.86-1.36,2.48-3.41,6.22-1.22,10.75,2.2,4.53,6.41,5.23,9.2,5.7,2.26,.37,2.68,.56,2.88,.97,1.04,2.13,3.61,3.02,5.74,1.99,1.53-.74,2.42-2.27,2.42-3.87,0-.63-.14-1.27-.43-1.87-2.2-4.53-6.41-5.23-9.2-5.7-2.25-.37-2.68-.56-2.88-.97-.19-.41-.08-.87,1.02-2.87,1.36-2.48,3.42-6.21,1.22-10.75-2.2-4.54-6.41-5.23-9.19-5.7-2.26-.37-2.68-.56-2.88-.97-.19-.41-.08-.85,1.02-2.86,1.36-2.47,3.41-6.22,1.22-10.75-2.2-4.53-6.41-5.23-9.2-5.69-2.25-.37-2.68-.56-2.87-.97-.2-.4-.09-.85,1.02-2.86,1.36-2.47,3.42-6.21,1.22-10.75-1.04-2.13-3.61-3.02-5.74-1.99Z"/><path class="cls-4" d="M699.63,234.84c-4.9-.64-11.61-1.5-13.16-7.49-1.56-6,3.88-10.02,7.85-12.95,1.47-1.09,4.15-3.07,4.6-4.06-.47-2.23,.88-4.47,3.11-5.05v14.02c-.88,.72-1.77,1.38-2.6,1.99-1.36,1.01-3.78,2.8-4.48,3.84,1.12,.58,4.1,.96,5.78,1.18,.42,.05,.85,.11,1.3,.17v8.68c-.88-.14-1.74-.25-2.4-.33Z"/><path class="cls-4" d="M702.03,250.06c-.19,.2-.35,.38-.46,.55,.13,.07,.28,.13,.46,.2v8.84c-3.92-.81-7.8-2.46-8.94-6.83-1.55-6,3.88-10.02,7.85-12.96,.32-.23,.69-.51,1.09-.81v11.01Z"/><path class="cls-4" d="M573.12,315.89c-1.82-1.44-5.2-4.13-5.35-5.2,.73-.88,5.03-1.28,7.34-1.5,5.73-.54,12.86-1.2,14.76-7.57,.12-.41,.18-.83,.18-1.23,0-1.85-1.2-3.57-3.06-4.12-2.27-.68-4.65,.6-5.33,2.87-.73,.88-5.03,1.28-7.34,1.49-5.73,.54-12.86,1.2-14.76,7.57-1.91,6.36,3.71,10.82,8.22,14.41,1.81,1.44,5.2,4.13,5.35,5.21-.73,.88-5.03,1.29-7.35,1.5-5.73,.54-12.86,1.21-14.75,7.58-.75,2.51-.32,4.71,.73,6.69h11.58c-1.8-1.46-3.98-3.35-4.09-4.21,.72-.88,5.03-1.28,7.34-1.5,5.73-.54,12.86-1.21,14.76-7.58,1.91-6.36-3.71-10.82-8.21-14.41Z"/><path class="cls-4" d="M20.97,18.43c-2.85,5.44-9.5,4.76-14.36,4.27-1.89-.18-4.99-.5-5.99-.09-.18,.3-.38,.57-.62,.81V14.01c2.5-.35,5.18-.08,7.47,.15,1.74,.17,4.49,.45,5.71,.18-.47-1.14-2.27-3.26-3.4-4.59-1.86-2.18-4.12-4.84-5.08-7.77C6.48,.73,8.64,0,10.98,0h2.14c.65,1.19,2.19,3,3.2,4.19,3.16,3.71,7.49,8.8,4.65,14.24Z"/><path class="cls-4" d="M23.33,339.76c-1.05,1.19-1.93,2.22-2.63,3.19-.16,.22-.31,.43-.45,.64H10.84c.06-.22,.13-.43,.2-.64,1.19-3.58,3.69-6.41,5.86-8.88,3.21-3.63,4.99-5.85,4.24-9.05-.76-3.2-3.33-4.39-7.83-6.22-4.97-2.01-11.15-4.52-12.96-12.21-.17-.72-.29-1.43-.35-2.11-.09-.96-.09-1.87,0-2.74,.51-5.06,3.77-8.75,6.51-11.86,3.22-3.64,5-5.84,4.25-9.06-.76-3.21-3.34-4.4-7.83-6.23-.94-.38-1.93-.78-2.93-1.23v-10c1.33,1.26,3.38,2.15,6.16,3.28,4.97,2.01,11.15,4.52,12.96,12.21,1.8,7.7-2.61,12.7-6.17,16.72-3.21,3.63-4.99,5.85-4.24,9.05,.76,3.21,3.34,4.4,7.83,6.22,4.97,2.02,11.15,4.53,12.96,12.21,1.8,7.69-2.62,12.69-6.17,16.71Z"/><path class="cls-4" d="M170.81,293.41c-3.86-.9-9.15-2.13-13.92,2.1-4.76,4.23-4.17,9.64-3.74,13.57,.4,3.58,.42,5.04-.9,6.21-1.77,1.57-1.93,4.29-.36,6.06,1.57,1.77,4.29,1.93,6.06,.36,4.76-4.23,4.18-9.63,3.74-13.57-.39-3.58-.42-5.04,.9-6.21,1.32-1.17,2.77-.97,6.27-.16,3.87,.9,9.15,2.13,13.92-2.1,4.76-4.23,4.17-9.63,3.74-13.57-.4-3.58-.42-5.04,.89-6.21,1.32-1.17,2.77-.97,6.27-.16,3.86,.9,9.16,2.13,13.92-2.1,4.76-4.23,4.17-9.63,3.73-13.57-.4-3.57-.42-5.03,.9-6.2,1.32-1.17,2.76-.97,6.26-.15,3.87,.9,9.15,2.13,13.92-2.1,.95-.85,1.44-2.03,1.44-3.21,0-1.01-.36-2.03-1.08-2.85-1.57-1.77-4.29-1.94-6.06-.36-1.32,1.17-2.76,.97-6.26,.15-3.86-.9-9.16-2.13-13.92,2.1-4.76,4.23-4.16,9.62-3.73,13.57,.4,3.58,.42,5.04-.89,6.21-1.32,1.17-2.77,.97-6.27,.16-3.86-.9-9.16-2.13-13.92,2.1-4.76,4.23-4.16,9.63-3.73,13.57,.4,3.58,.42,5.04-.9,6.21-1.32,1.17-2.77,.97-6.27,.16Z"/><path class="cls-4" d="M528.88,133.3c.43-.81,3.4-2.19,5-2.93,4.21-1.95,9.94-4.6,9.94-10.53,0-.08,0-.17,0-.26-.17-6.11-6.15-8.49-10.52-10.23-1.52-.6-4.28-1.7-5.03-2.48,.7-.83,3.39-2.07,4.88-2.76,4.21-1.95,9.94-4.6,9.94-10.54,0-.08,0-.17,0-.25-.17-6.11-6.15-8.49-10.52-10.23-1.63-.65-4.68-1.86-5.11-2.49-.07-2.37-2.04-4.23-4.41-4.17-2.33,.06-4.18,1.97-4.18,4.29v.12c.17,6.11,6.15,8.49,10.52,10.23,1.53,.61,4.28,1.7,5.03,2.49-.7,.83-3.39,2.07-4.88,2.76-4.21,1.95-9.94,4.61-9.94,10.54,0,.09,0,.18,0,.26,.17,6.11,6.15,8.49,10.52,10.23,1.52,.6,4.27,1.69,5.03,2.48-.72,.82-3.39,2.06-4.88,2.75-4.21,1.95-9.94,4.6-9.94,10.53,0,.09,0,.17,0,.26,.06,2.37,2.02,4.32,4.39,4.26,2.37-.06,4.19-1.96,4.16-4.32Z"/><path class="cls-4" d="M581.83,73.49c4.82-1.16,11.42-2.74,12.33-8.87,.9-6.1-4.94-9.56-9.22-12.06-1.48-.86-4.11-2.41-4.9-3.37,1.04-.7,4-1.41,5.67-1.81,4.82-1.16,11.41-2.74,12.32-8.88,.06-.43,.09-.85,.09-1.25,0-5.36-5.33-8.49-9.31-10.82-1.59-.92-4.49-2.63-5.04-3.57,.25-2.27-1.36-4.37-3.64-4.7-2.34-.35-4.53,1.27-4.88,3.62-.89,6.13,4.94,9.57,9.22,12.07,1.48,.87,4.11,2.41,4.9,3.38-1.04,.7-4,1.41-5.67,1.81-4.82,1.16-11.42,2.74-12.33,8.88-.89,6.13,4.94,9.56,9.22,12.07,1.48,.87,4.1,2.4,4.9,3.37-1.04,.69-4,1.4-5.66,1.8-4.82,1.15-11.41,2.73-12.32,8.87-.35,2.35,1.27,4.53,3.62,4.88,2.29,.34,4.42-1.19,4.85-3.44,.81-.74,4.08-1.52,5.86-1.95Z"/><path class="cls-4" d="M25.44,0h-4.27C22.57,.1,24.02,.13,25.44,0Z"/><path class="cls-4" d="M85.23,14.6c2.96,8.72,13.05,9.5,21.96,10.19,6.56,.51,13.34,1.03,14.48,4.38,1.13,3.39-3.92,7.91-8.82,12.3-6.65,5.97-14.17,12.72-11.21,21.45,2.96,8.73,13.05,9.51,21.96,10.2,6.56,.51,13.34,1.03,14.48,4.39,.76,2.24,3.2,3.45,5.45,2.68,1.79-.6,2.92-2.27,2.92-4.06,0-.46-.07-.92-.23-1.38-2.96-8.73-13.05-9.51-21.95-10.2-6.57-.51-13.35-1.03-14.49-4.4-1.14-3.37,3.93-7.9,8.82-12.3,6.65-5.96,14.17-12.72,11.22-21.45-2.96-8.72-13.06-9.5-21.96-10.18-6.56-.5-13.34-1.03-14.48-4.38C92.27,8.6,96.97,4.25,101.71,0h-12.26c-3.71,4.27-6.1,9.04-4.21,14.6Z"/><path class="cls-4" d="M55.6,20.59c.2,.4,.08,.85-1.02,2.86-1.36,2.48-3.41,6.21-1.22,10.74,2.2,4.53,6.41,5.23,9.2,5.7,2.25,.37,2.68,.56,2.87,.97,.2,.4,.09,.85-1.01,2.86-1.36,2.47-3.42,6.21-1.22,10.74,2.2,4.53,6.41,5.23,9.19,5.7,2.26,.37,2.68,.56,2.88,.97,.2,.41,.08,.86-1.02,2.86-1.36,2.48-3.42,6.22-1.22,10.76,2.2,4.53,6.41,5.23,9.2,5.7,2.25,.38,2.68,.56,2.88,.97,1.04,2.13,3.6,3.02,5.74,1.99,1.53-.75,2.42-2.27,2.42-3.87,0-.63-.14-1.27-.43-1.87-2.2-4.53-6.41-5.23-9.2-5.7-2.26-.37-2.68-.56-2.88-.97-.2-.41-.08-.87,1.02-2.87,1.36-2.47,3.42-6.21,1.22-10.74-2.2-4.54-6.41-5.23-9.2-5.7-2.26-.38-2.68-.56-2.87-.97-.2-.41-.09-.85,1.02-2.86,1.36-2.48,3.42-6.22,1.22-10.75-2.2-4.53-6.41-5.23-9.2-5.69-2.25-.38-2.68-.56-2.87-.97-.2-.4-.08-.85,1.01-2.86,1.36-2.47,3.42-6.21,1.22-10.75-1.04-2.13-3.6-3.02-5.74-1.99-2.14,1.04-3.02,3.61-1.99,5.74Z"/><path class="cls-4" d="M442.92,108.38c.93-4.6,2.2-10.91-2.81-14.3-1.97-1.33-4.64-.81-5.97,1.15-1.29,1.92-.83,4.5,1.01,5.86,.28,.97-.3,3.85-.65,5.59-.93,4.61-2.19,10.92,2.81,14.3,5.01,3.39,10.39-.15,14.32-2.73,1.38-.91,3.58-2.35,4.7-2.64,.15,1.14-.37,3.74-.69,5.35-.93,4.61-2.19,10.92,2.82,14.3,5.01,3.39,10.4-.14,14.32-2.72,1.49-.98,3.95-2.59,4.95-2.69,1.95,1.2,4.52,.66,5.81-1.25,.5-.74,.74-1.57,.74-2.4,0-1.38-.66-2.73-1.89-3.56-5.01-3.39-10.4,.14-14.32,2.72-1.38,.9-3.59,2.35-4.71,2.64-.15-1.14,.37-3.74,.69-5.35,.92-4.61,2.19-10.92-2.83-14.31-5.01-3.39-10.39,.15-14.32,2.73-1.38,.91-3.58,2.35-4.7,2.64-.14-1.15,.37-3.73,.69-5.35Z"/><path class="cls-4" d="M229.91,28.47c1.16,4.57,2.74,10.82,8.94,12.03,6.2,1.2,10.01-4,12.8-7.81,1.1-1.5,3.37-4.61,4.22-4.44,2.33,.45,4.59-1.07,5.04-3.4,.06-.28,.08-.55,.08-.82,0-2.01-1.42-3.81-3.47-4.21-6.2-1.21-10.01,4-12.79,7.81-1.1,1.49-3.37,4.61-4.22,4.44-.85-.16-1.8-3.91-2.25-5.7-1.16-4.57-2.74-10.82-8.94-12.03-6.2-1.2-10.01,4-12.79,7.81-1.09,1.5-3.37,4.61-4.22,4.44-.85-.16-1.8-3.9-2.25-5.7-1.15-4.57-2.74-10.82-8.93-12.03-2.33-.45-4.59,1.07-5.04,3.4-.45,2.33,1.07,4.58,3.4,5.03,.85,.16,1.79,3.91,2.25,5.7,1.15,4.57,2.74,10.82,8.94,12.03,6.2,1.2,10.01-4,12.79-7.81,1.09-1.5,3.37-4.61,4.22-4.44,.85,.16,1.8,3.9,2.25,5.7Z"/><path class="cls-4" d="M359.54,24.26c7.34-5.12,5.06-15.01,3.05-23.72-.04-.18-.08-.36-.13-.54h-8.81c.19,.83,.37,1.66,.56,2.47,1.4,6.07,2.99,12.94,.41,14.75-2.58,1.8-8.49-2.07-13.7-5.47-7.49-4.9-15.97-10.44-23.3-5.33-1.95,1.36-2.42,4.04-1.07,5.98,1.36,1.95,4.03,2.42,5.98,1.07,2.57-1.8,8.48,2.06,13.69,5.47,7.49,4.9,15.98,10.45,23.32,5.33Z"/><path class="cls-4" d="M227.26,105.84c2.23,5.91,3.55,9.94,1.68,11.87-1.65,1.7-1.61,4.42,.09,6.07,1.7,1.66,4.42,1.61,6.07-.09,5.81-5.99,2.7-14.25,.19-20.89-2.23-5.91-3.55-9.94-1.68-11.87,1.88-1.93,5.94-.74,11.92,1.31,6.71,2.3,15.06,5.15,20.87-.84,5.8-5.99,2.69-14.24,.19-20.87-2.23-5.91-3.56-9.93-1.68-11.86,1.86-1.93,5.92-.73,11.9,1.32,6.71,2.3,15.05,5.16,20.86-.83,.81-.83,1.21-1.91,1.21-2.99s-.44-2.24-1.31-3.09c-1.7-1.65-4.42-1.6-6.07,.1-1.87,1.93-5.92,.73-11.9-1.32-6.7-2.3-15.05-5.16-20.85,.83-5.81,5.99-2.69,14.25-.19,20.88,2.24,5.91,3.56,9.93,1.69,11.86-1.88,1.94-5.94,.74-11.92-1.3-6.7-2.3-15.05-5.15-20.86,.84-5.8,5.99-2.69,14.25-.19,20.88Z"/><path class="cls-4" d="M61.52,297.89c.2,.4,.08,.85-1.01,2.86-1.36,2.48-3.42,6.21-1.22,10.75,2.2,4.53,6.41,5.23,9.19,5.69,2.26,.37,2.68,.56,2.88,.97,.2,.41,.09,.85-1.02,2.86-1.36,2.47-3.41,6.22-1.22,10.75,2.2,4.53,6.41,5.23,9.19,5.69,2.26,.37,2.68,.56,2.88,.97,.21,.41,.09,.86-1.02,2.86-.37,.67-.79,1.45-1.16,2.3h9.64c1.11-2.35,1.98-5.38,.27-8.91-2.2-4.54-6.41-5.23-9.2-5.7-2.26-.37-2.68-.56-2.87-.97-.2-.41-.09-.85,1.02-2.86,1.36-2.47,3.42-6.22,1.22-10.75-2.2-4.53-6.41-5.23-9.19-5.69-2.26-.37-2.68-.56-2.88-.97-.2-.4-.08-.85,1.02-2.86,1.36-2.47,3.42-6.21,1.22-10.75-1.04-2.13-3.61-3.02-5.74-1.99-2.13,1.03-3.03,3.6-1.99,5.74Z"/><path class="cls-4" d="M699.91,338.46c-1.75,2.38-4.43,4.03-7.5,4.4-.64-1.33-.58-2.94,.3-4.25,1.33-1.97,4-2.48,5.97-1.15,.46,.31,.87,.64,1.23,1Z"/><path class="cls-4" d="M209.71,87.21c.97-.85,1.46-2.04,1.46-3.23,0-1.01-.35-2.02-1.07-2.83-.98-1.11-.89-2.29-.07-5.75,.88-3.7,2.08-8.78-1.97-13.41-4.07-4.62-9.26-4.08-13.05-3.68-3.53,.37-4.71,.31-5.69-.81-.98-1.12-.9-2.29-.07-5.75,.88-3.71,2.08-8.79-1.98-13.41-4.07-4.63-9.26-4.08-13.05-3.68-3.53,.37-4.71,.31-5.69-.81-.99-1.12-.89-2.3-.07-5.76,.88-3.71,2.08-8.78-1.98-13.41-4.07-4.63-9.26-4.08-13.05-3.68-3.54,.37-4.71,.31-5.7-.81-1.57-1.78-4.28-1.96-6.06-.39-1.78,1.57-1.96,4.28-.4,6.06,4.07,4.63,9.26,4.08,13.05,3.68,3.54-.37,4.72-.31,5.7,.81,.98,1.12,.89,2.3,.07,5.76-.88,3.71-2.09,8.78,1.98,13.41,4.06,4.62,9.25,4.08,13.05,3.68,3.54-.37,4.71-.31,5.7,.81,.98,1.11,.89,2.29,.07,5.75-.88,3.71-2.09,8.79,1.98,13.41,4.07,4.63,9.26,4.08,13.05,3.68,3.53-.37,4.71-.31,5.69,.81,.98,1.11,.89,2.29,.07,5.75-.88,3.71-2.1,8.78,1.97,13.41,1.57,1.78,4.28,1.96,6.06,.39Z"/><path class="cls-4" d="M437.5,44.17c-2.37,.19-4.16,2.26-3.93,4.63,.19,2.3,2.16,4.04,4.45,3.94,.9,.62,2.41,3.62,3.23,5.26,2.21,4.43,5.25,10.5,11.43,9.99,6.18-.5,8.19-6.98,9.67-11.71,.51-1.64,1.41-4.54,2.17-5.54,.91,.86,2.28,3.58,3.05,5.11,2.22,4.43,5.26,10.49,11.44,9.99,6.18-.51,8.19-6.98,9.67-11.71,.54-1.75,1.54-4.97,2.34-5.72,2.16-.26,3.77-2.1,3.77-4.26,0-.12,0-.23-.01-.35-.19-2.36-2.27-4.12-4.63-3.93-6.18,.5-8.2,6.98-9.67,11.71-.51,1.64-1.42,4.54-2.18,5.54-.92-.86-2.28-3.58-3.05-5.11-2.22-4.43-5.26-10.49-11.44-9.99-6.18,.51-8.19,6.98-9.66,11.71-.51,1.63-1.41,4.53-2.18,5.53-.91-.87-2.27-3.58-3.03-5.11-2.21-4.43-5.25-10.5-11.43-9.99Z"/><path class="cls-4" d="M90.64,276.68c.78,.7,1.93,3.32,2.64,4.92,1.91,4.32,4.51,10.23,10.51,10.04,5.99-.2,8.2-6.27,9.82-10.71,.53-1.45,1.36-3.72,2.05-4.75,.76,.97,1.74,3.19,2.36,4.6,1.91,4.32,4.52,10.23,10.51,10.03,5.99-.2,8.21-6.27,9.83-10.7,.6-1.64,1.58-4.34,2.32-5.08,2.19-.21,3.88-2.06,3.88-4.27,0-.05,0-.1,0-.14-.08-2.37-2.06-4.23-4.43-4.15-5.99,.2-8.21,6.27-9.83,10.7-.53,1.45-1.36,3.73-2.05,4.75-.76-.97-1.73-3.19-2.36-4.6-1.91-4.32-4.53-10.23-10.52-10.03-5.99,.2-8.21,6.27-9.82,10.7-.53,1.45-1.36,3.72-2.05,4.74-.76-.98-1.73-3.19-2.35-4.6-1.9-4.32-4.51-10.23-10.5-10.04-2.37,.08-4.27,1.99-4.15,4.43,.07,2.28,1.91,4.08,4.15,4.15Z"/><path class="cls-4" d="M617.65,333.95c-2.26-.74-4.68,.49-5.42,2.74-.88,2.67-.54,4.96,.23,6.9h10.06c-.16-.23-.32-.45-.48-.65-1.63-2.2-1.91-2.79-1.66-3.56,.74-2.26-.49-4.68-2.74-5.42Z"/><path class="cls-4" d="M54.41,221.61c2.02,.97,6.22,2.99,6.55,4.1-.47,1.06-4.9,2.51-7.03,3.21-5.56,1.83-12.48,4.11-12.91,10.82-.48,6.73,6.13,9.86,11.4,12.4,2.02,.97,6.22,2.99,6.55,4.09-.48,1.05-4.9,2.51-7.03,3.21-5.56,1.83-12.48,4.1-12.91,10.81-.15,2.4,1.64,4.41,4,4.57,2.36,.15,4.41-1.64,4.56-4.01,.48-1.05,4.9-2.51,7.02-3.2,5.56-1.83,12.48-4.1,12.92-10.81,.49-6.65-6.13-9.86-11.4-12.39-2.02-.97-6.22-2.99-6.55-4.1,.47-1.05,4.9-2.51,7.03-3.21,5.56-1.83,12.47-4.11,12.91-10.82,.01-.21,.02-.42,.02-.63,0-6.28-6.32-9.32-11.42-11.77-2.02-.97-6.23-2.99-6.55-4.1,.15-2.38-1.64-4.41-4-4.57-2.37-.15-4.41,1.64-4.56,4.01-.48,6.74,6.12,9.87,11.4,12.4Z"/></g><path class="cls-2" d="M702.03,10.98V331.97c0,2.43-.79,4.67-2.12,6.49-1.75,2.38-4.43,4.03-7.5,4.4-.44,.06-.9,.09-1.36,.09H10.98C4.92,342.95,0,338.04,0,331.97V10.98C0,7.26,1.86,3.96,4.7,1.98,6.48,.73,8.64,0,10.98,0H691.05c2.4,0,4.63,.77,6.44,2.09,1.44,1.04,2.62,2.43,3.41,4.04,.72,1.46,1.13,3.11,1.13,4.85Z"/></svg>