<?xml version="1.0" encoding="UTF-8"?><svg id="Capa_2" xmlns="http://www.w3.org/2000/svg" viewBox="0 0 17.15 16.29"><defs><style>.cls-1{fill:#b751f7;fill-rule:evenodd;}</style></defs><g id="Capa_5_copia_2"><g><g><path class="cls-1" d="M14.41,8.24c0,.98-.26,1.94-.74,2.77-.36,.62-.84,1.17-1.41,1.62-.19,.14-.46,.08-.57-.12l-.28-.49c-.1-.17-.07-.38,.09-.5,.41-.33,.76-.73,1.01-1.17,.36-.62,.56-1.35,.56-2.1s-.2-1.47-.56-2.1c-.27-.47-.64-.89-1.07-1.23-.15-.12-.19-.34-.09-.51l.28-.48c.12-.21,.4-.26,.59-.12,.6,.45,1.1,1.02,1.47,1.66,.48,.83,.74,1.79,.74,2.78Z"/><path class="cls-1" d="M17.15,8.24c0,1.48-.4,2.9-1.11,4.14-.6,1.03-1.42,1.94-2.42,2.64-.18,.12-.43,.06-.54-.12l-.31-.52c-.1-.17-.05-.38,.11-.5,.82-.58,1.48-1.33,1.98-2.17,.6-1.03,.93-2.23,.93-3.47s-.33-2.43-.93-3.47c-.51-.88-1.21-1.65-2.06-2.24-.16-.11-.22-.33-.12-.5l.3-.52c.11-.19,.35-.25,.53-.13,1.05,.71,1.91,1.64,2.52,2.71,.71,1.24,1.11,2.67,1.11,4.14Z"/></g><path class="cls-1" d="M10.95,8.24c-.12,1.17-.86,2.14-1.74,2.32l-.07,5.03v.03c0,.2-.09,.39-.26,.52,0,.01-.03,.02-.04,.03-.01,0-.02,.01-.04,.02-.26,.15-.58,.11-.8-.08-.02-.01-.04-.03-.06-.06L3.2,11.65l-.42,.02-1.75-.05c-.57-.01-1.02-.48-1.02-1.05V5.68c0-.51,.41-.93,.92-.94l1.54-.03,.74,.02L8.08,.2s0,0,0,0c.12-.12,.29-.19,.48-.19,.36,0,.66,.28,.68,.63V5.95c.97,.24,1.82,1.12,1.7,2.29Z"/></g></g></svg>