<svg xmlns="http://www.w3.org/2000/svg" viewBox="0 0 31.02 30.43"><defs><style>.cls-1{fill:#b751f7;}</style></defs><g id="Capa_2" data-name="Capa 2"><g id="Capa_2-2" data-name="Capa 2"><path class="cls-1" d="M31,4.16V26.27a4.16,4.16,0,0,1-4.16,4.16H12.63a4.16,4.16,0,0,1-4.16-4.16V22.65l3.07.66v2.85a1.21,1.21,0,0,0,1.2,1.2h14a1.21,1.21,0,0,0,1.2-1.2V4.38a1.21,1.21,0,0,0-1.2-1.21h-14a1.21,1.21,0,0,0-1.2,1.21v8.21l-3.07-.22V9.63c-6.13,2.85-4.7,4.27-1.31,5a6,6,0,0,0,1.31.21l3.07.33a11.78,11.78,0,0,0,2,.11c2.19.11,3.83.11,3.83.11V12c0-.55.65-.44.87-.22l6.35,4.38L27.08,18a.65.65,0,0,1,0,.87l-2.52,1.76L21.5,22.76,18.32,25a.84.84,0,0,1-.43.22c-.11,0-.44,0-.44-.33V22.11c-1.64-.33-3.18-.55-4.6-.88a4.68,4.68,0,0,0-1.2-.22c-1.1-.22-2.19-.54-3.07-.76s-1.42-.44-2.08-.66C-9.26,14,8.58,7.44,8.58,7.44V4.16A4.16,4.16,0,0,1,12.74,0H27A4.13,4.13,0,0,1,31,4.16Z"/></g></g></svg>