<svg xmlns="http://www.w3.org/2000/svg" xmlns:xlink="http://www.w3.org/1999/xlink" viewBox="0 0 52.84 53.26"><defs><style>.cls-1{fill:#fff;stroke:#d497fa;stroke-miterlimit:10;filter:url(#filter);}.cls-2{fill:#b751f7;}</style><filter id="filter" x="0" y="0" width="52.84" height="53.26" filterUnits="userSpaceOnUse"><feOffset dy="4" input="SourceAlpha"/><feGaussianBlur result="blur"/><feFlood flood-color="#5c297c"/><feComposite operator="in" in2="blur"/><feComposite in="SourceGraphic"/></filter></defs><g id="Capa_2" data-name="Capa 2"><g id="Capa_2-2" data-name="Capa 2"><rect class="cls-1" x="0.5" y="0.5" width="51.84" height="48.26" rx="12"/><path class="cls-2" d="M39.44,13.67V35.78a4.16,4.16,0,0,1-4.16,4.16H21.06a4.16,4.16,0,0,1-4.16-4.16V32.17l3.06.66v2.84a1.21,1.21,0,0,0,1.2,1.2h14a1.21,1.21,0,0,0,1.21-1.2V13.89a1.22,1.22,0,0,0-1.21-1.2h-14a1.22,1.22,0,0,0-1.2,1.2V22.1l-3.06-.22V19.15c-6.13,2.84-4.71,4.26-1.32,5a5.52,5.52,0,0,0,1.32.22l3.06.33a11.84,11.84,0,0,0,2,.11c2.19.11,3.83.11,3.83.11v-3.4c0-.54.66-.43.88-.22L33,25.71l2.52,1.75a.67.67,0,0,1,0,.88L33,30.09l-3.06,2.19-3.17,2.19a.83.83,0,0,1-.44.22c-.11,0-.44,0-.44-.33V31.62c-1.64-.33-3.17-.55-4.6-.87a4.53,4.53,0,0,0-1.2-.22C19,30.31,17.88,30,17,29.76s-1.43-.44-2.08-.66C-.83,23.52,17,17,17,17V13.67a4.15,4.15,0,0,1,4.15-4.16H35.39a4.13,4.13,0,0,1,4,4.16Z"/></g></g></svg>