<?xml version="1.0" encoding="UTF-8"?><svg id="Capa_1" xmlns="http://www.w3.org/2000/svg" viewBox="0 0 702.04 342.96"><defs><style>.cls-1{fill:#009bdc;}.cls-2{opacity:.08;}.cls-3{fill:none;}.cls-4{fill:#1a1a1a;}</style></defs><rect class="cls-1" y="0" width="702.04" height="342.96" rx="10.99" ry="10.99"/><g class="cls-2"><path class="cls-4" d="M37.29,341.8c.02,.41,.12,.79,.24,1.15h47.32c1.14-.77,1.88-2.07,1.88-3.54,0-.08,0-.15,0-.23-.12-2.36-2.14-4.18-4.51-4.05l-40.88,2.16c-2.36,.12-4.18,2.13-4.05,4.51Z"/><path class="cls-4" d="M546.46,333.97c0-1.38-.67-2.74-1.91-3.57-1.97-1.31-4.63-.78-5.94,1.19l-7.58,11.36h10.3l4.41-6.61c.49-.73,.72-1.56,.72-2.37Z"/><path class="cls-4" d="M506.14,284.75c-2.33,.45-3.85,2.69-3.4,5.02l8.3,43.16c.45,2.32,2.69,3.85,5.02,3.4,2.05-.39,3.48-2.19,3.48-4.21,0-.27-.02-.54-.08-.81l-8.3-43.16c-.45-2.32-2.69-3.85-5.02-3.4Z"/><path class="cls-4" d="M155.4,12.45c2.37,0,4.29-1.92,4.29-4.29V0h-8.57V8.16c0,2.37,1.92,4.29,4.29,4.29Z"/><path class="cls-4" d="M215.07,337.45c1.16-.84,1.78-2.15,1.78-3.48,0-.87-.26-1.75-.81-2.51l-24.77-34.3c-1.39-1.92-4.07-2.35-5.99-.97-1.92,1.39-2.35,4.07-.97,5.99l24.77,34.3c1.39,1.92,4.07,2.35,5.99,.97Z"/><path class="cls-4" d="M532.65,232.51c-2.37,0-4.29,1.92-4.29,4.29v40.01c0,2.37,1.92,4.29,4.29,4.29s4.29-1.92,4.29-4.29v-40.01c0-2.37-1.92-4.29-4.29-4.29Z"/><path class="cls-4" d="M122.96,332.52l31.79-26.48c1.02-.85,1.54-2.07,1.54-3.3,0-.97-.33-1.94-.99-2.74-1.51-1.82-4.22-2.07-6.04-.55l-31.79,26.48c-1.82,1.52-2.07,4.22-.55,6.04,1.51,1.82,4.22,2.07,6.04,.55Z"/><path class="cls-4" d="M5.04,246.22c-2.16,.96-3.14,3.5-2.18,5.66,.96,2.16,3.5,3.14,5.66,2.18l34.3-15.24c1.6-.71,2.55-2.28,2.55-3.92,0-.58-.12-1.17-.37-1.74-.96-2.16-3.5-3.14-5.66-2.18l-34.3,15.24Z"/><path class="cls-4" d="M25.97,303.36c0,1.42-.71,2.81-1.99,3.63-2,1.27-4.65,.68-5.92-1.32L0,277.24v-16l25.3,39.83c.45,.71,.67,1.51,.67,2.29Z"/><path class="cls-4" d="M54.26,213.35c1.96,1.32,4.63,.81,5.95-1.15l29.92-44.22c.5-.74,.74-1.57,.74-2.4,0-1.38-.66-2.73-1.88-3.56-1.96-1.32-4.63-.81-5.95,1.15l-29.92,44.22c-1.33,1.96-.82,4.63,1.15,5.95Z"/><path class="cls-4" d="M226.93,19.94c1.95-.49,3.25-2.23,3.25-4.15,0-.34-.04-.7-.13-1.04L226.37,0h-8.84l4.21,16.82c.58,2.3,2.9,3.69,5.2,3.12Z"/><path class="cls-4" d="M398.84,35.37c.29,2.35,2.44,4.02,4.79,3.72l45.73-5.72c2.17-.27,3.75-2.12,3.75-4.25,0-.18-.01-.36-.03-.54-.29-2.35-2.44-4.02-4.79-3.72l-45.73,5.72c-2.35,.29-4.02,2.44-3.72,4.79Z"/><path class="cls-4" d="M351.05,66.29c1.89,1.43,4.57,1.06,6.01-.82L402.27,5.92c.59-.78,.87-1.69,.87-2.59,0-1.26-.56-2.49-1.61-3.33h-5.36c-.27,.22-.52,.45-.74,.74l-45.21,59.54c-1.43,1.89-1.07,4.58,.82,6.01Z"/><path class="cls-4" d="M329.26,212.03v-32.39c0-2.37-1.92-4.29-4.29-4.29s-4.29,1.92-4.29,4.29v32.39c0,2.37,1.92,4.29,4.29,4.29s4.29-1.92,4.29-4.29Z"/><path class="cls-4" d="M268.29,212.03c0-2.37-1.92-4.29-4.29-4.29h-51.44c-2.37,0-4.29,1.92-4.29,4.29s1.92,4.29,4.29,4.29h51.44c2.37,0,4.29-1.92,4.29-4.29Z"/><path class="cls-4" d="M361.19,286.12c1.65-.69,2.64-2.28,2.64-3.96,0-.55-.11-1.11-.33-1.65-.91-2.18-3.42-3.22-5.61-2.31l-35.31,14.7c-2.19,.91-3.22,3.42-2.31,5.61,.91,2.18,3.42,3.22,5.61,2.31l35.31-14.7Z"/><path class="cls-4" d="M343.64,5.11c.32-.62,.47-1.29,.47-1.94,0-1.2-.51-2.36-1.42-3.17h-18.56l13.75,6.99c2.11,1.07,4.69,.23,5.76-1.88Z"/><path class="cls-4" d="M191.23,18.82c1.83-.58,2.99-2.27,2.99-4.09,0-.43-.06-.86-.2-1.3L189.77,0h-8.99l5.07,16.03c.71,2.26,3.12,3.51,5.38,2.79Z"/><path class="cls-4" d="M462.91,11.06c1.13-.84,1.72-2.13,1.72-3.44,0-.89-.28-1.79-.85-2.56L460,0h-10.7l7.62,10.19c1.42,1.89,4.1,2.28,6,.87Z"/><path class="cls-4" d="M130.64,16.66c.21-.52,.31-1.06,.31-1.59,0-1.7-1.02-3.31-2.7-3.98L100.51,0h-23.1l47.65,19.05c2.2,.88,4.69-.19,5.57-2.39Z"/><path class="cls-4" d="M60.77,12.4c2.12-.32,3.65-2.15,3.65-4.23,0-.21-.01-.43-.05-.65L63.23,0h-8.67l1.33,8.8c.35,2.34,2.54,3.95,4.88,3.6Z"/><path class="cls-4" d="M36.69,.8v.17c-.1,2.37-2.09,4.21-4.45,4.12L2.56,3.94C4.57,1.53,7.6,0,10.98,0h25.63c.05,.26,.08,.53,.08,.8Z"/><path class="cls-4" d="M663.91,323.62l26.48,2.76c2.36,.25,4.46-1.47,4.71-3.82,.01-.15,.02-.3,.02-.45,0-2.17-1.64-4.03-3.84-4.26l-26.48-2.76c-2.36-.25-4.46,1.46-4.71,3.82-.23,2.37,1.46,4.46,3.82,4.71Z"/><path class="cls-4" d="M565.91,270.14c-2,1.26-2.61,3.91-1.34,5.91l31.95,50.7c1.26,2,3.91,2.6,5.91,1.34,1.29-.81,2-2.21,2-3.63,0-.78-.21-1.57-.66-2.28l-31.95-50.7c-1.26-2-3.91-2.6-5.91-1.34Z"/><path class="cls-4" d="M702.03,282.53v9.08l-34.59,12.11c-2.24,.78-4.68-.39-5.47-2.63-.78-2.23,.4-4.68,2.63-5.46l37.43-13.1Z"/><path class="cls-4" d="M391.16,227.77c-2.36,.16-4.1,2.17-3.99,4.57l3.33,48.91c.16,2.36,2.21,4.15,4.57,3.99,2.26-.15,4-2.04,4-4.27,0-.1,0-.2,0-.29l-3.33-48.91c-.16-2.36-2.21-4.15-4.57-3.99Z"/><path class="cls-4" d="M651.73,256.75c0-1.65-.96-3.22-2.56-3.92-2.17-.96-4.7,.03-5.65,2.19l-22.04,50.03c-.96,2.17,.03,4.7,2.19,5.65,2.17,.96,4.7-.03,5.65-2.19l22.04-50.03c.25-.56,.37-1.15,.37-1.73Z"/><path class="cls-4" d="M55.97,250.87c-.52,2.31,.93,4.6,3.24,5.12l62.08,13.99c2.31,.52,4.6-.93,5.12-3.24,.07-.32,.1-.63,.1-.95,0-1.96-1.35-3.73-3.35-4.18l-62.08-13.99c-2.31-.52-4.6,.93-5.12,3.24Z"/><path class="cls-4" d="M702.03,66.84v9.06l-27.25,9.36c-2.24,.77-4.68-.42-5.45-2.66-.77-2.24,.43-4.68,2.67-5.45l30.03-10.31Z"/><path class="cls-4" d="M595.85,48.68c0-1.39-.67-2.75-1.92-3.58-1.97-1.31-4.63-.77-5.94,1.21l-27.25,41.12c-1.31,1.97-.77,4.63,1.2,5.94,1.97,1.31,4.63,.77,5.94-1.21l27.25-41.12c.48-.73,.71-1.55,.71-2.36Z"/><path class="cls-4" d="M633.94,218.63c.09,2.37,2.08,4.21,4.45,4.12l56.35-2.17c2.31-.09,4.12-1.99,4.12-4.28,0-.06,0-.11,0-.17-.09-2.37-2.08-4.21-4.45-4.12l-56.35,2.17c-2.36,.09-4.18,2.08-4.12,4.45Z"/><path class="cls-4" d="M551.87,192.89c-1.82,1.52-2.06,4.22-.55,6.04l34.62,41.57c1.52,1.82,4.22,2.07,6.04,.55,1.02-.85,1.54-2.07,1.54-3.3,0-.97-.33-1.94-.99-2.74l-34.62-41.57c-1.52-1.82-4.22-2.07-6.04-.55Z"/><path class="cls-4" d="M440.92,279.55l32.3,2.39c2.36,.17,4.42-1.6,4.59-3.96,0-.11,.01-.22,.01-.32,0-2.23-1.72-4.1-3.97-4.27l-32.3-2.39c-2.36-.17-4.42,1.6-4.59,3.96-.16,2.38,1.6,4.42,3.96,4.59Z"/><path class="cls-4" d="M425.7,239.17l64.78,3.81c2.36,.14,4.39-1.66,4.53-4.03,0-.09,0-.17,0-.26,0-2.25-1.76-4.14-4.04-4.28l-64.78-3.81c-2.36-.14-4.39,1.66-4.53,4.03-.16,2.39,1.67,4.39,4.03,4.53Z"/><path class="cls-4" d="M430.69,318.15c-2.21,.86-3.31,3.33-2.45,5.54l7.44,19.27h9.19l-8.63-22.35c-.85-2.21-3.33-3.31-5.54-2.46Z"/><path class="cls-4" d="M267.8,272.58c.21-.53,.31-1.07,.31-1.61,0-1.69-1.01-3.3-2.68-3.97-2.19-.89-4.69,.17-5.58,2.36l-14.53,35.81c-.89,2.2,.17,4.69,2.36,5.58,2.19,.89,4.69-.17,5.58-2.36l14.53-35.81Z"/><path class="cls-4" d="M55.85,299.67c0,2.37,1.92,4.29,4.29,4.29h19.05c2.37,0,4.29-1.92,4.29-4.29s-1.92-4.29-4.29-4.29h-19.05c-2.37,0-4.29,1.92-4.29,4.29Z"/><path class="cls-4" d="M235.16,255.35c0-2.12-1.57-3.96-3.73-4.25l-34.36-4.53c-2.35-.31-4.5,1.34-4.81,3.69-.29,2.34,1.34,4.5,3.69,4.81l34.36,4.53c2.35,.31,4.5-1.34,4.81-3.69,.03-.19,.04-.38,.04-.57Z"/><path class="cls-4" d="M136.33,248.19c-1.07,2.11-.23,4.69,1.88,5.76l30.01,15.24c2.11,1.07,4.69,.23,5.76-1.88,.32-.62,.47-1.29,.47-1.94,0-1.56-.86-3.07-2.34-3.83l-30.01-15.24c-2.11-1.07-4.69-.23-5.76,1.88Z"/><path class="cls-4" d="M322.87,262.96c.76-.82,1.14-1.87,1.14-2.91,0-1.15-.47-2.31-1.38-3.15l-23.79-21.93c-1.74-1.6-4.45-1.5-6.06,.25-1.61,1.74-1.5,4.45,.25,6.06l23.79,21.93c1.74,1.6,4.45,1.5,6.06-.25Z"/><path class="cls-4" d="M462.15,338.26h28.58c2.37,0,4.29-1.92,4.29-4.29s-1.92-4.29-4.29-4.29h-28.58c-2.37,0-4.29,1.92-4.29,4.29s1.92,4.29,4.29,4.29Z"/><path class="cls-4" d="M323.76,342.96h9.2l.27-.69c.2-.51,.3-1.04,.3-1.56,0-1.71-1.04-3.33-2.73-3.99-2.21-.86-4.69,.23-5.55,2.43l-1.49,3.81Z"/><path class="cls-4" d="M383.56,313.49c0-1.62-.92-3.16-2.48-3.89-2.15-1-4.7-.07-5.7,2.08l-9.53,20.48c-1,2.15-.07,4.7,2.08,5.7,2.15,1,4.7,.07,5.7-2.08l9.53-20.48c.27-.59,.4-1.2,.4-1.8Z"/><path class="cls-4" d="M158.01,342.96h10.44l-3.29-3c-1.75-1.6-4.46-1.47-6.05,.28-.71,.77-1.06,1.74-1.1,2.72Z"/><path class="cls-4" d="M312.11,316.82c0-.64-.15-1.3-.45-1.91-1.06-2.12-3.63-2.98-5.75-1.92l-34.3,17.15c-2.12,1.06-2.98,3.63-1.92,5.75,1.06,2.12,3.63,2.98,5.75,1.92l34.3-17.15c1.5-.75,2.37-2.26,2.37-3.84Z"/><path class="cls-4" d="M702.03,259.92v9.24l-37.6-15.04c-2.2-.88-3.26-3.38-2.39-5.57,.88-2.2,3.37-3.27,5.57-2.39l34.42,13.76Z"/><path class="cls-4" d="M641.26,197.79c.32-.63,.47-1.29,.47-1.95,0-1.56-.85-3.06-2.34-3.82l-47.63-24.36c-2.11-1.08-4.69-.24-5.77,1.87-1.08,2.11-.24,4.69,1.86,5.77l47.63,24.36c2.11,1.08,4.69,.24,5.77-1.87Z"/><path class="cls-4" d="M669.93,173.24l23.82-52.81c.26-.57,.38-1.17,.38-1.76,0-1.64-.94-3.2-2.53-3.91-2.16-.97-4.7-.01-5.67,2.15l-23.82,52.81c-.98,2.16-.01,4.7,2.15,5.67,2.16,.97,4.7,.01,5.67-2.15Z"/><path class="cls-4" d="M636.54,89.2c-2.28,.64-3.59,3.01-2.95,5.29l12.18,42.92c.65,2.28,3.02,3.6,5.3,2.95,1.89-.54,3.12-2.26,3.12-4.12,0-.39-.05-.78-.16-1.17l-12.18-42.92c-.65-2.28-3.02-3.6-5.3-2.95Z"/><path class="cls-4" d="M617.65,59.17l10.48-28.58c.18-.49,.26-.98,.26-1.48,0-1.75-1.08-3.39-2.81-4.02-2.22-.81-4.69,.33-5.5,2.55l-10.48,28.58c-.81,2.22,.33,4.69,2.55,5.5,2.22,.81,4.69-.33,5.5-2.55Z"/><path class="cls-4" d="M509.39,0h-6.93c-.94,1.32-1.11,3.11-.26,4.61l32.03,56.57c1.17,2.06,3.78,2.79,5.84,1.62,1.39-.79,2.18-2.24,2.18-3.73,0-.71-.18-1.44-.56-2.11L509.66,.38c-.08-.14-.18-.26-.27-.38Z"/><path class="cls-4" d="M11.07,212.03c0,2.37-1.92,4.29-4.29,4.29H0v-8.58H6.78c2.37,0,4.29,1.92,4.29,4.29Z"/><path class="cls-4" d="M296.41,179.23c.5-.74,.74-1.57,.74-2.4,0-1.37-.66-2.73-1.88-3.55l-49.18-33.28c-1.96-1.33-4.63-.81-5.95,1.15-1.33,1.96-.81,4.63,1.15,5.95l49.18,33.28c1.96,1.33,4.63,.81,5.95-1.15Z"/><path class="cls-4" d="M3.45,178.86c0,.76-.2,1.54-.63,2.23-.65,1.06-1.68,1.74-2.82,1.97v-8.72l1.4,.86c1.32,.81,2.05,2.22,2.05,3.66Z"/><path class="cls-4" d="M566.42,0h-8.21c.53,1.85,2.26,3.18,4.27,3.1,1.9-.07,3.44-1.37,3.94-3.1Z"/><path class="cls-4" d="M156.81,224.25c1.43,1.89,4.11,2.27,6,.84l39.83-30.05c1.12-.84,1.7-2.13,1.7-3.43,0-.9-.28-1.8-.87-2.58-1.43-1.89-4.11-2.27-6-.84l-39.83,30.05c-1.89,1.43-2.26,4.11-.84,6Z"/><path class="cls-4" d="M641.73,333.97c0-.93-.3-1.87-.92-2.65-1.47-1.86-4.16-2.18-6.02-.71l-15.65,12.35h13.84l7.12-5.62c1.07-.84,1.63-2.1,1.63-3.37Z"/><path class="cls-4" d="M650.52,0l20.43,19.86c1.7,1.65,4.41,1.61,6.06-.09,.81-.83,1.21-1.91,1.21-2.99s-.43-2.23-1.3-3.07L662.82,0h-12.3Z"/><path class="cls-4" d="M353.36,122.77c1.86-.56,3.05-2.26,3.05-4.1,0-.41-.06-.83-.18-1.24-.68-2.27-3.07-3.55-5.34-2.87l-44.3,13.34c-2.27,.68-3.56,3.08-2.87,5.34,.68,2.27,3.07,3.55,5.34,2.87l44.3-13.34Z"/><path class="cls-4" d="M189.1,72.67c0-.23-.02-.46-.06-.69-.38-2.34-2.58-3.93-4.92-3.55l-37.54,6.06c-2.34,.38-3.93,2.58-3.55,4.92,.38,2.34,2.58,3.93,4.92,3.55l37.54-6.07c2.11-.34,3.6-2.16,3.6-4.23Z"/><path class="cls-4" d="M438.18,114.09l34.3,34.02c1.68,1.67,4.39,1.66,6.06-.02,.83-.84,1.24-1.93,1.24-3.02s-.42-2.2-1.27-3.04l-34.3-34.03c-1.68-1.67-4.4-1.66-6.06,.03-1.66,1.68-1.66,4.39,.02,6.06Z"/><path class="cls-4" d="M404.61,80.62c0-1.44-.72-2.85-2.04-3.65-2.02-1.24-4.66-.61-5.9,1.4l-18.36,29.84c-1.24,2.02-.61,4.66,1.4,5.9,2.02,1.24,4.66,.61,5.9-1.4l18.36-29.84c.43-.7,.64-1.48,.64-2.24Z"/><path class="cls-4" d="M208.59,88.47c-.89,2.2,.16,4.7,2.35,5.59l51.44,20.96c2.19,.89,4.7-.16,5.59-2.35,.22-.53,.32-1.08,.32-1.62,0-1.69-1.01-3.3-2.67-3.97l-51.44-20.96c-2.19-.89-4.7,.16-5.59,2.35Z"/><path class="cls-4" d="M519.5,206.45c.23-.54,.34-1.11,.34-1.67,0-1.67-.98-3.26-2.62-3.95l-52.49-22.16c-2.18-.92-4.7,.1-5.62,2.28-.92,2.18,.1,4.7,2.28,5.62l52.49,22.15c2.18,.92,4.7-.1,5.62-2.28Z"/><path class="cls-4" d="M392.7,183.84c2.32,.48,4.59-1.02,5.06-3.34l10.48-50.97c.06-.29,.09-.58,.09-.87,0-1.99-1.4-3.78-3.42-4.2-2.32-.48-4.59,1.02-5.06,3.34l-10.48,50.97c-.47,2.32,1.02,4.58,3.34,5.06Z"/><path class="cls-4" d="M370.97,205.7c0-.43-.07-.87-.2-1.31l-18.27-57.14c-.72-2.26-3.14-3.5-5.39-2.78-2.25,.72-3.49,3.13-2.78,5.39l18.27,57.14c.72,2.26,3.14,3.5,5.39,2.78,1.82-.58,2.98-2.27,2.98-4.08Z"/><path class="cls-4" d="M121,215.82c2.09,1.11,4.69,.31,5.79-1.78l17.15-32.39c.34-.64,.5-1.32,.5-2,0-1.54-.83-3.02-2.28-3.79-2.09-1.11-4.69-.31-5.79,1.78l-17.15,32.39c-1.11,2.09-.31,4.69,1.78,5.79Z"/><path class="cls-4" d="M45.37,179.64c0-1.06-.39-2.12-1.17-2.94-1.62-1.72-4.34-1.8-6.06-.17l-17.15,16.2c-1.72,1.62-1.8,4.34-.17,6.06,1.62,1.72,4.34,1.8,6.06,.17l17.15-16.2c.89-.84,1.34-1.98,1.34-3.12Z"/><path class="cls-4" d="M326.9,104.26c.6-.78,.89-1.7,.89-2.61,0-1.28-.58-2.55-1.67-3.4l-29.52-22.75c-1.88-1.45-4.57-1.1-6.01,.78-1.45,1.87-1.1,4.57,.78,6.01l29.52,22.75c1.88,1.45,4.57,1.1,6.01-.78Z"/><path class="cls-4" d="M216.54,129.99c0-.16,0-.33-.03-.49-.27-2.35-2.39-4.04-4.75-3.77l-45.74,5.23c-2.35,.27-4.03,2.39-3.77,4.75,.27,2.35,2.39,4.04,4.75,3.77l45.74-5.23c2.19-.25,3.8-2.1,3.8-4.25Z"/><path class="cls-4" d="M324.97,30.55h-34.3c-2.37,0-4.29,1.92-4.29,4.29s1.92,4.29,4.29,4.29h34.3c2.37,0,4.29-1.92,4.29-4.29s-1.92-4.29-4.29-4.29Z"/><path class="cls-4" d="M78.59,39.16c-2.35,.33-3.98,2.51-3.65,4.84,.33,2.34,2.5,3.98,4.84,3.65l60.97-8.57c2.14-.3,3.69-2.14,3.69-4.24,0-.2-.01-.4-.04-.6-.33-2.34-2.5-3.98-4.84-3.65l-60.97,8.57Z"/><path class="cls-4" d="M244.79,26.09l-4.53,37.22c-.29,2.35,1.39,4.49,3.74,4.77,2.35,.29,4.49-1.39,4.77-3.74l4.53-37.22c.02-.18,.03-.35,.03-.52,0-2.14-1.59-3.99-3.77-4.25-2.35-.29-4.49,1.39-4.77,3.74Z"/><path class="cls-4" d="M8.29,92.1L41.64,56.88c.79-.83,1.18-1.89,1.18-2.95,0-1.13-.45-2.27-1.34-3.11-1.72-1.63-4.43-1.56-6.06,.16L2.07,86.2c-1.63,1.72-1.56,4.43,.16,6.06,1.72,1.63,4.43,1.55,6.06-.16Z"/><path class="cls-4" d="M109.94,142.2c2.08-.36,3.55-2.17,3.55-4.22,0-.24-.02-.49-.06-.74l-10.55-60.88c-.4-2.33-2.62-3.9-4.96-3.49-2.33,.4-3.89,2.63-3.49,4.95l10.55,60.88c.4,2.33,2.62,3.9,4.96,3.49Z"/><path class="cls-4" d="M609.2,135.62c2.18-.26,3.78-2.11,3.78-4.25,0-.17,0-.34-.03-.51-.28-2.35-2.41-4.03-4.76-3.75l-40.55,4.82c-2.35,.28-4.02,2.41-3.75,4.76,.28,2.35,2.41,4.03,4.76,3.75l40.55-4.82Z"/><path class="cls-4" d="M432.95,154.52c0-1.75-1.07-3.38-2.8-4.02-2.22-.82-4.69,.32-5.51,2.54l-15.33,41.54c-.83,2.23,.32,4.69,2.54,5.51,2.22,.82,4.69-.32,5.51-2.54l15.33-41.54c.18-.49,.27-.99,.27-1.48Z"/><path class="cls-4" d="M526.69,162.96l19.05-28.58c.49-.73,.72-1.56,.72-2.37,0-1.38-.67-2.74-1.91-3.57-1.97-1.31-4.63-.78-5.94,1.19l-19.05,28.58c-1.31,1.97-.78,4.63,1.19,5.94,1.97,1.31,4.63,.78,5.94-1.19Z"/><path class="cls-4" d="M478.51,53.41c0-1.51-.8-2.98-2.22-3.76-2.07-1.14-4.68-.39-5.82,1.69l-17.55,31.9c-1.14,2.08-.38,4.68,1.69,5.82,2.07,1.14,4.68,.38,5.82-1.69l17.55-31.9c.36-.66,.53-1.36,.53-2.06Z"/><path class="cls-4" d="M512.74,82.87c0-1.93-1.32-3.69-3.28-4.16-2.3-.56-4.62,.85-5.18,3.15l-13.41,55.2c-.55,2.3,.85,4.62,3.15,5.18,2.3,.56,4.62-.85,5.18-3.15l13.41-55.2c.08-.34,.12-.68,.12-1.02Z"/><path class="cls-4" d="M66.28,131.03c0-1.83-1.18-3.53-3.03-4.1l-44.81-13.78c-2.26-.7-4.66,.57-5.36,2.84-.7,2.26,.57,4.66,2.84,5.36l44.81,13.78c2.26,.7,4.66-.57,5.36-2.84,.13-.42,.19-.84,.19-1.26Z"/></g><path class="cls-3" d="M702.03,10.99V331.97c0,6.07-4.92,10.99-10.98,10.99H10.98C4.92,342.96,0,338.04,0,331.97V10.99C0,8.31,.96,5.85,2.56,3.94,4.57,1.53,7.6,0,10.98,0H691.05c6.06,0,10.98,4.92,10.98,10.99Z"/></svg>