<?xml version="1.0" encoding="UTF-8"?><svg id="Capa_2" xmlns="http://www.w3.org/2000/svg" viewBox="0 0 29.79 28.3"><defs><style>.cls-1{fill:#009bdc;fill-rule:evenodd;}</style></defs><g id="Capa_5_copia_2"><g><g><path class="cls-1" d="M25.03,14.32c0,1.71-.46,3.36-1.29,4.81-.62,1.08-1.45,2.04-2.45,2.81-.32,.25-.79,.13-1-.22l-.49-.85c-.17-.29-.11-.67,.15-.87,.72-.57,1.31-1.26,1.76-2.04,.62-1.08,.97-2.34,.97-3.64s-.35-2.56-.97-3.64c-.48-.82-1.1-1.54-1.86-2.13-.27-.21-.33-.59-.16-.88l.48-.84c.21-.37,.69-.46,1.03-.2,1.05,.79,1.91,1.77,2.55,2.88,.83,1.45,1.29,3.1,1.29,4.82Z"/><path class="cls-1" d="M29.79,14.32c0,2.57-.69,5.04-1.93,7.2-1.04,1.79-2.47,3.37-4.21,4.59-.31,.22-.74,.11-.93-.22l-.53-.91c-.17-.3-.08-.67,.2-.86,1.42-1,2.58-2.3,3.43-3.77,1.04-1.8,1.61-3.87,1.61-6.02s-.57-4.22-1.61-6.02c-.88-1.53-2.1-2.87-3.58-3.89-.28-.2-.38-.57-.21-.87l.52-.91c.19-.33,.62-.44,.93-.23,1.82,1.23,3.31,2.85,4.39,4.71,1.24,2.15,1.93,4.63,1.93,7.2Z"/></g><path class="cls-1" d="M19.02,14.32c-.21,2.03-1.5,3.72-3.03,4.03l-.13,8.74v.05c0,.35-.16,.69-.46,.9-.02,.03-.04,.03-.06,.05-.03,.02-.04,.03-.07,.03-.45,.27-1.01,.2-1.39-.14-.03-.03-.07-.06-.1-.1l-8.23-7.66-.74,.03-3.04-.08c-.99-.03-1.78-.83-1.78-1.82V9.86c0-.88,.71-1.61,1.6-1.63l2.67-.06,1.29,.04L14.04,.35s0,0,0,0c.22-.21,.51-.34,.83-.34,.63,0,1.14,.49,1.18,1.1V10.34c1.69,.42,3.16,1.95,2.96,3.98Z"/></g></g></svg>