<?xml version="1.0" encoding="UTF-8"?><svg xmlns="http://www.w3.org/2000/svg" viewBox="0 0 702.101 343.592"><defs><style>.d{opacity:.08;}.e{fill:none;}.f{fill:#b751f7;}.g{fill:#1a1a1a;}</style></defs><g id="a"/><g id="b"><g id="c"><g><rect class="f" x=".065" y="0" width="702.037" height="342.957" rx="10.987" ry="10.987"/><g class="d"><path class="g" d="M129.329,307.874c-1.048-2.129-3.62-3.007-5.749-1.961-2.125,1.048-3.005,3.62-1.961,5.749,1.514,3.083,.235,5.723-2.155,10.122-2.617,4.81-5.868,10.793-2.323,18,.753,1.532,1.655,2.774,2.651,3.809h24.64c-3.24-1.993-6.987-2.604-10.256-3.13-4.944-.794-7.814-1.393-9.324-4.466-1.51-3.078-.235-5.714,2.159-10.111,2.614-4.809,5.861-10.793,2.319-18.011Z"/><path class="g" d="M297.091,184.058c-2.371-.127-4.392,1.691-4.519,4.06-.433,8.698,8.441,12.872,16.3,16.538,5.13,2.394,11.547,5.352,11.356,8.297-.157,2.925-6.815,5.206-12.169,7.039-8.21,2.809-17.512,5.993-17.978,14.715-.41,8.797,8.448,12.868,16.307,16.529,5.13,2.39,11.431,5.339,11.356,8.282-.153,2.919-6.815,5.196-12.169,7.024-8.21,2.803-17.508,5.98-17.97,14.691-.119,2.362,1.693,4.39,4.06,4.517,2.367,.125,4.388-1.692,4.515-4.062,.157-2.914,6.815-5.188,12.169-7.017,8.21-2.804,17.508-5.98,17.978-14.695,.425-8.804-8.448-12.868-16.307-16.529-5.13-2.39-11.584-5.333-11.356-8.284,.153-2.93,6.819-5.212,12.177-7.046,8.202-2.807,17.5-5.989,17.97-14.708,.008-.218,.015-.434,.015-.647,0-8.279-8.657-12.318-16.322-15.891-5.13-2.394-11.494-5.348-11.356-8.295,.134-2.356-1.685-4.392-4.056-4.519Z"/><path class="g" d="M210.201,299.698c.336,2.207-4.534,5.108-8.418,7.415-6.055,3.598-13.578,8.081-12.542,15.936,1.048,7.867,9.492,10.219,16.277,12.109,4.354,1.212,9.771,2.72,10.073,4.964,.127,1.051-.88,2.252-2.382,3.469h10.458c.466-1.398,.656-2.919,.44-4.603-1.051-7.864-9.5-10.217-16.285-12.106-4.351-1.213-9.768-2.722-10.066-4.968-.306-2.276,4.534-5.112,8.418-7.417,6.051-3.598,13.578-8.045,12.541-15.934-.313-2.351-2.475-4.004-4.824-3.691-2.349,.311-4.011,2.472-3.691,4.824Z"/><path class="g" d="M423.724,313.118c-2.252-.375-2.677-.561-2.874-.969-.201-.403-.086-.852,1.018-2.856,1.364-2.473,3.423-6.211,1.223-10.748-1.037-2.134-3.605-3.024-5.741-1.989-2.133,1.035-3.02,3.602-1.987,5.74,.201,.403,.086,.852-1.018,2.856-1.361,2.473-3.423,6.213-1.223,10.746,2.2,4.534,6.413,5.233,9.198,5.695,2.255,.375,2.677,.561,2.874,.967,.197,.407,.089,.85-1.018,2.863-1.361,2.472-3.419,6.215-1.219,10.749,2.196,4.532,6.405,5.233,9.194,5.695,2.255,.374,2.677,.563,2.878,.973,.089,.19,.112,.395,0,.753h8.664c.071-1.389-.157-2.893-.94-4.502-2.196-4.535-6.409-5.234-9.194-5.699-2.259-.375-2.677-.561-2.878-.967-.194-.406-.082-.85,1.022-2.863,1.357-2.473,3.415-6.217,1.219-10.748-2.196-4.534-6.409-5.233-9.198-5.695Z"/><path class="g" d="M379.638,242.418c3.996-4.539,1.174-10.322-.887-14.542-.716-1.471-1.861-3.816-2.021-4.97,1.167,.011,3.635,.852,5.186,1.379,4.451,1.512,10.543,3.585,14.54-.951,1.473-1.67,2.021-3.512,2.021-5.382,0-3.204-1.603-6.493-2.908-9.158-.768-1.584-2.036-4.181-2.036-5.216v-.028c1.435-1.78,1.227-4.392-.503-5.917-1.778-1.57-4.493-1.398-6.062,.38-4.001,4.535-1.174,10.322,.883,14.543,.716,1.473,1.864,3.82,2.021,4.974-1.167-.011-3.639-.852-5.189-1.379-4.452-1.512-10.544-3.585-14.54,.951-3.993,4.535-1.171,10.318,.887,14.538,.72,1.469,1.864,3.812,2.021,4.968-1.163-.015-3.631-.856-5.175-1.384-4.451-1.515-10.543-3.59-14.532,.941-1.573,1.78-1.402,4.495,.38,6.06,1.73,1.527,4.343,1.406,5.928-.239,1.007-.145,3.773,.796,5.451,1.368,4.451,1.516,10.543,3.592,14.536-.94Z"/><path class="g" d="M245.068,278.979c-.261-2.358-2.386-4.056-4.742-3.795-2.364,.263-4.079,2.397-3.796,4.742,1.022,9.229,10.707,12.208,19.253,14.835,6.316,1.942,12.843,3.95,13.246,7.574,.429,3.594-5.522,7.02-11.255,10.301-7.759,4.442-16.568,9.466-15.524,18.701,.723,6.504,5.749,9.896,11.647,12.256h23.622c-3.758-2.638-8.795-4.194-13.492-5.639-6.312-1.941-12.84-3.946-13.239-7.566-.373-3.601,5.522-7.015,11.252-10.297,7.762-4.444,16.568-9.505,15.528-18.704-1.025-9.229-10.711-12.206-19.256-14.834-6.316-1.942-12.84-3.95-13.242-7.572Z"/><path class="g" d="M385.39,334.46c-4.414-1.907-9.421-4.069-9.447-6.578-.023-2.371-1.968-4.275-4.34-4.25-2.356,.024-4.25,1.942-4.25,4.293v.047c.082,8.092,8.15,11.576,14.629,14.376,.936,.403,1.894,.819,2.826,1.245h13.817c-2.602-4.539-8.366-7.029-13.235-9.132Z"/><path class="g" d="M312.928,339.508c-1.428,.906-2.121,2.511-1.954,4.084h9.037c-.216-.925-.578-1.845-1.156-2.761-1.275-2.002-3.93-2.595-5.928-1.324Z"/><path class="g" d="M409.84,159.031c-.477-2.05,.552-3.474,3.199-6.472,2.375-2.684,5.484-6.2,5.484-11.173-.004-.932-.108-1.916-.354-2.956-1.543-6.577-6.942-8.769-10.879-10.365-3.709-1.506-5.268-2.323-5.749-4.373-.485-2.062,.548-3.482,3.199-6.48,2.819-3.187,6.673-7.557,5.126-14.133-1.547-6.577-6.938-8.769-10.882-10.364-3.706-1.506-5.264-2.327-5.749-4.377-.481-2.069,.552-3.482,3.203-6.484,2.815-3.187,6.67-7.553,5.126-14.133-1.547-6.584-6.942-8.776-10.882-10.372-3.71-1.506-5.268-2.327-5.753-4.385-.541-2.304-2.852-3.739-5.16-3.198-2.308,.544-3.751,2.852-3.199,5.167,1.543,6.58,6.942,8.772,10.879,10.372,3.71,1.506,5.268,2.326,5.749,4.38,.489,2.062-.548,3.486-3.199,6.484-2.815,3.184-6.67,7.553-5.123,14.133,1.543,6.581,6.942,8.773,10.879,10.368,3.709,1.506,5.268,2.323,5.749,4.377,.485,2.05-.552,3.479-3.199,6.476-2.819,3.188-6.673,7.565-5.13,14.134,1.551,6.576,6.942,8.768,10.883,10.364,3.709,1.506,5.268,2.323,5.749,4.377,.485,2.047-.548,3.474-3.202,6.472-2.811,3.184-6.674,7.549-5.123,14.126,.541,2.308,2.856,3.739,5.16,3.199,2.312-.544,3.743-2.863,3.199-5.164Z"/><path class="g" d="M371.35,161.488c1.95,1.204,4.519,.66,5.812-1.253,.496-.738,.735-1.573,.735-2.401,0-1.38-.66-2.733-1.886-3.56-5.018-3.393-10.398,.142-14.324,2.721-1.379,.903-3.586,2.353-4.709,2.64-.149-1.145,.369-3.736,.694-5.35,.925-4.608,2.188-10.916-2.826-14.305-5.014-3.385-10.39,.149-14.32,2.725-1.376,.906-3.579,2.352-4.698,2.643-.138-1.148,.373-3.728,.697-5.346,.928-4.601,2.2-10.909-2.815-14.298-1.965-1.327-4.634-.809-5.961,1.152-1.294,1.92-.839,4.504,1.003,5.861,.283,.969-.299,3.847-.649,5.592-.928,4.608-2.192,10.916,2.818,14.301,5.011,3.385,10.394-.145,14.32-2.725,1.376-.906,3.583-2.352,4.701-2.643,.157,1.141-.369,3.736-.694,5.354-.928,4.608-2.188,10.916,2.826,14.301,5.015,3.389,10.394-.142,14.324-2.722,1.491-.977,3.944-2.591,4.951-2.688Z"/><path class="g" d="M139.194,110.56c-5.555,2.803-5.271,9.242-5.07,13.947,.078,1.819,.224,5.216-.358,5.898-2.118,1.074-2.968,3.654-1.898,5.771,1.07,2.118,3.65,2.968,5.767,1.902,5.555-2.804,5.276-9.242,5.071-13.948-.075-1.823-.228-5.216,.35-5.905,.91-.063,3.557,2.073,4.974,3.217,3.661,2.957,8.679,7.002,14.23,4.198,5.551-2.804,5.268-9.242,5.067-13.944-.082-1.823-.228-5.212,.343-5.898,.91-.06,3.545,2.073,4.966,3.218,3.657,2.956,8.672,7.005,14.219,4.205,1.499-.757,2.364-2.27,2.364-3.844,0-.649-.145-1.305-.459-1.924-1.07-2.118-3.65-2.968-5.764-1.902-.91,.06-3.545-2.073-4.966-3.217-3.657-2.957-8.672-7.005-14.223-4.206-5.551,2.804-5.272,9.246-5.063,13.943,.075,1.823,.231,5.216-.35,5.902-.906,.063-3.549-2.073-4.966-3.214-3.665-2.96-8.679-7.005-14.234-4.201Z"/><path class="g" d="M151.035,233.942c.794,3.734,1.886,8.847,7.546,11.284,5.667,2.438,10.133-.285,13.392-2.274,3.042-1.858,4.138-2.31,5.518-1.717,2.177,.938,4.705-.067,5.641-2.246,.239-.554,.354-1.13,.354-1.696,0-1.663-.977-3.247-2.602-3.946-5.663-2.438-10.126,.285-13.384,2.274-3.05,1.858-4.142,2.31-5.522,1.717-1.376-.593-1.801-1.697-2.546-5.186-.794-3.736-1.886-8.849-7.549-11.285-5.663-2.438-10.126,.287-13.384,2.276-3.046,1.858-4.135,2.31-5.51,1.719-1.376-.593-1.801-1.696-2.546-5.186-.794-3.734-1.887-8.847-7.546-11.284-5.663-2.438-10.126,.287-13.384,2.276-3.042,1.859-4.138,2.31-5.51,1.719-1.376-.591-1.797-1.694-2.543-5.18-.791-3.734-1.879-8.847-7.542-11.285-2.181-.938-4.705,.067-5.641,2.246-.94,2.177,.067,4.705,2.244,5.643,1.372,.593,1.797,1.696,2.539,5.184,.794,3.732,1.883,8.845,7.542,11.281,5.667,2.438,10.129-.287,13.388-2.276,3.042-1.859,4.135-2.31,5.507-1.719,1.379,.593,1.804,1.696,2.546,5.186,.794,3.734,1.886,8.847,7.549,11.283,5.663,2.438,10.126-.287,13.384-2.276,3.042-1.858,4.138-2.31,5.51-1.717,1.38,.591,1.805,1.697,2.55,5.186Z"/><path class="g" d="M286.175,89.559c-4.675,2.74-5.081,7.389-5.346,10.469-.242,2.751-.432,3.392-1.137,3.803-2.047,1.2-2.729,3.833-1.532,5.879,1.201,2.047,3.833,2.733,5.876,1.532,4.675-2.744,5.081-7.393,5.346-10.469,.239-2.751,.433-3.393,1.137-3.803,.705-.414,1.353-.268,3.87,.869,2.815,1.271,7.072,3.195,11.747,.451,4.679-2.737,5.082-7.39,5.346-10.469,.239-2.744,.433-3.385,1.133-3.795,.701-.41,1.35-.268,3.862,.872,2.819,1.267,7.073,3.191,11.752,.451,4.679-2.74,5.078-7.393,5.346-10.468,.235-2.748,.425-3.389,1.126-3.799,.701-.41,1.35-.261,3.862,.873,2.819,1.275,7.068,3.198,11.747,.459,1.365-.802,2.125-2.233,2.125-3.71,0-.738-.19-1.484-.589-2.166-1.197-2.047-3.829-2.733-5.876-1.536-.705,.414-1.353,.265-3.866-.872-2.815-1.272-7.068-3.195-11.747-.459-4.679,2.744-5.078,7.397-5.342,10.473-.239,2.748-.425,3.385-1.126,3.795-.708,.414-1.357,.265-3.873-.869-2.815-1.275-7.069-3.195-11.748-.455-4.675,2.74-5.078,7.389-5.342,10.468-.235,2.744-.429,3.386-1.13,3.796-.708,.418-1.357,.268-3.87-.865-2.819-1.275-7.073-3.199-11.752-.455Z"/><path class="g" d="M217.941,193.533c-2.319,.077-4.153,1.984-4.153,4.291v.142c.074,2.278,1.909,4.082,4.153,4.153,.783,.695,1.939,3.318,2.643,4.918,1.905,4.319,4.515,10.232,10.502,10.036,5.995-.2,8.21-6.271,9.828-10.706,.529-1.452,1.357-3.725,2.05-4.746,.753,.973,1.734,3.188,2.36,4.605,1.905,4.315,4.519,10.226,10.51,10.031,5.995-.2,8.21-6.271,9.827-10.704,.604-1.642,1.584-4.338,2.319-5.082,2.192-.21,3.877-2.056,3.877-4.272v-.144c-.078-2.369-2.065-4.23-4.437-4.151-5.991,.197-8.21,6.269-9.827,10.702-.53,1.454-1.361,3.726-2.05,4.75-.76-.975-1.737-3.188-2.364-4.603-1.909-4.317-4.519-10.232-10.514-10.033-5.991,.197-8.206,6.271-9.824,10.704-.53,1.45-1.353,3.717-2.047,4.742-.753-.979-1.73-3.186-2.352-4.597-1.905-4.317-4.511-10.23-10.502-10.037Z"/><path class="g" d="M227.072,149.024c1.994,3.609,4.724,8.552,11.27,9.29,6.547,.735,10.305-3.482,13.049-6.561,2.572-2.886,3.728-3.955,5.674-3.736,1.946,.216,2.841,1.517,4.705,4.906,1.998,3.609,4.727,8.553,11.274,9.291,6.539,.735,10.297-3.482,13.045-6.561,2.572-2.886,3.732-3.956,5.678-3.736,1.942,.216,2.833,1.517,4.697,4.902,1.991,3.613,4.72,8.557,11.267,9.295,2.356,.265,4.481-1.432,4.75-3.788,.015-.164,.022-.328,.022-.484,0-2.159-1.618-4.019-3.814-4.265-1.942-.216-2.833-1.521-4.701-4.906-1.991-3.609-4.72-8.556-11.263-9.291-6.543-.738-10.305,3.482-13.048,6.562-2.576,2.885-3.732,3.956-5.678,3.736-1.946-.216-2.833-1.521-4.705-4.906-1.995-3.609-4.724-8.556-11.267-9.29-6.547-.738-10.305,3.482-13.049,6.561-2.572,2.886-3.728,3.955-5.674,3.736-1.954-.216-2.841-1.521-4.713-4.906-1.995-3.613-4.727-8.556-11.274-9.295-6.547-.735-10.305,3.478-13.049,6.558-2.58,2.889-3.736,3.959-5.682,3.739-2.36-.265-4.485,1.432-4.75,3.788-.246,2.368,1.432,4.485,3.788,4.75,6.547,.735,10.305-3.478,13.052-6.558,2.576-2.889,3.732-3.959,5.678-3.739,1.954,.22,2.845,1.518,4.716,4.91Z"/><path class="g" d="M184.197,177.558c-2.196-4.534-6.409-5.233-9.198-5.695-2.252-.375-2.677-.561-2.874-.969-.201-.403-.086-.852,1.018-2.856,1.364-2.475,3.423-6.211,1.223-10.748-1.037-2.136-3.605-3.024-5.741-1.987-2.133,1.033-3.02,3.601-1.987,5.738,.201,.403,.086,.854-1.018,2.856-1.364,2.475-3.423,6.211-1.223,10.746,2.2,4.534,6.413,5.233,9.198,5.695,2.255,.375,2.677,.561,2.874,.967,.201,.405,.089,.85-1.018,2.863-1.361,2.472-3.419,6.215-1.219,10.749,2.196,4.532,6.405,5.233,9.194,5.695,2.255,.374,2.677,.563,2.878,.973,.201,.412,.082,.861-1.022,2.861-1.361,2.478-3.415,6.219-1.216,10.754,2.2,4.532,6.409,5.233,9.198,5.697,2.255,.375,2.681,.563,2.878,.973,1.037,2.134,3.605,3.024,5.738,1.989,1.532-.744,2.423-2.274,2.423-3.868,0-.628-.142-1.267-.433-1.871-2.199-4.532-6.413-5.233-9.201-5.697-2.252-.375-2.677-.563-2.878-.971-.194-.414-.078-.867,1.022-2.867,1.357-2.473,3.415-6.217,1.215-10.748-2.196-4.535-6.409-5.234-9.194-5.699-2.259-.375-2.677-.561-2.878-.967-.201-.405-.086-.85,1.022-2.863,1.361-2.473,3.415-6.219,1.219-10.748Z"/><path class="g" d="M345.424,284.401c-5.708,1.368-7.617,6.137-8.881,9.291-1.178,2.942-1.7,3.84-2.904,4.129-1.204,.289-2.076-.274-4.462-2.362-2.557-2.239-6.42-5.622-12.124-4.252-2.308,.554-3.739,2.869-3.176,5.179,.552,2.306,2.871,3.726,5.182,3.173,1.201-.289,2.077,.276,4.459,2.362,2.557,2.241,6.42,5.624,12.124,4.254,5.708-1.368,7.617-6.137,8.88-9.291,1.178-2.942,1.7-3.842,2.904-4.131,1.208-.289,2.084,.274,4.47,2.364,2.557,2.237,6.42,5.62,12.124,4.25,5.711-1.368,7.62-6.137,8.88-9.291,1.178-2.942,1.704-3.84,2.908-4.131,1.208-.289,2.084,.274,4.47,2.362,2.558,2.239,6.424,5.62,12.128,4.25,5.712-1.368,7.624-6.137,8.888-9.292,1.178-2.942,1.704-3.84,2.908-4.131,1.972-.471,3.296-2.231,3.296-4.172,0-.332-.037-.669-.119-1.004-.552-2.308-2.871-3.728-5.175-3.177-5.712,1.37-7.62,6.137-8.884,9.291-1.182,2.943-1.704,3.844-2.916,4.135-1.204,.289-2.084-.274-4.47-2.362-2.557-2.239-6.42-5.62-12.128-4.25-5.708,1.368-7.617,6.135-8.877,9.289-1.178,2.942-1.707,3.842-2.912,4.131-1.204,.289-2.08-.274-4.466-2.362-2.554-2.237-6.42-5.62-12.128-4.25Z"/><path class="g" d="M560.266,192.907c.179-.487,.261-.986,.261-1.476,0-1.75-1.077-3.397-2.819-4.032-5.92-2.17-10.338,.876-13.563,3.098-2.897,1.995-4.138,2.692-5.741,2.107-1.596-.585-2.095-1.922-3.02-5.313-1.029-3.78-2.438-8.957-8.359-11.127-5.917-2.166-10.334,.88-13.556,3.104-3.087,2.129-4.213,2.664-5.734,2.107-1.596-.585-2.095-1.922-3.02-5.313-1.025-3.78-2.435-8.955-8.351-11.121-5.92-2.166-10.335,.876-13.563,3.102-3.087,2.129-4.213,2.664-5.727,2.107-1.517-.554-2.032-1.689-3.012-5.309-1.029-3.78-2.435-8.955-8.351-11.125-2.23-.813-4.694,.328-5.51,2.557-.813,2.226,.328,4.694,2.557,5.51,1.514,.552,2.028,1.692,3.013,5.309,1.029,3.78,2.431,8.959,8.347,11.123,5.917,2.168,10.338-.878,13.56-3.102,2.893-1.993,4.138-2.692,5.734-2.107,1.596,.583,2.096,1.92,3.016,5.309,1.029,3.781,2.435,8.959,8.355,11.125,5.92,2.168,10.335-.876,13.563-3.1,2.889-1.995,4.131-2.694,5.727-2.11,1.603,.587,2.103,1.924,3.024,5.315,1.025,3.782,2.435,8.959,8.355,11.127,5.92,2.166,10.342-.878,13.563-3.1,2.897-1.995,4.142-2.694,5.741-2.109,2.23,.817,4.694-.328,5.51-2.556Z"/><path class="g" d="M668.686,135.11c-2.368-.097-4.366,1.749-4.463,4.12-.291,5.928,5.63,8.616,9.91,10.54,1.387,.626,3.549,1.599,4.522,2.356-1.033,.671-3.262,1.469-4.694,1.983-4.425,1.581-10.484,3.743-10.722,9.716-.25,5.919,5.63,8.61,9.913,10.536,1.383,.623,3.538,1.592,4.515,2.345-1.033,.673-3.258,1.467-4.69,1.976-4.422,1.577-10.484,3.738-10.722,9.706v.175c0,2.293,1.812,4.194,4.123,4.287,2.27,.092,4.202-1.601,4.44-3.829,.753-.72,3.419-1.668,5.044-2.25,4.429-1.577,10.488-3.738,10.726-9.708,.004-.118,.008-.235,.008-.35,0-5.725-5.723-8.297-9.921-10.186-1.387-.623-3.545-1.596-4.519-2.349,1.029-.675,3.262-1.473,4.694-1.983,4.425-1.581,10.48-3.747,10.719-9.716,.007-.115,.007-.235,.007-.35,0-5.723-5.719-8.303-9.917-10.189-1.577-.712-4.161-1.875-4.854-2.654-.052-2.241-1.845-4.086-4.12-4.176Z"/><path class="g" d="M702.097,70.902v30.07c-4.37-4.6-3.84-10.37-3.46-14.68,.41-4.67,.39-6.74-1.6-8.44-2-1.69-4.05-1.39-8.6-.23-4.51,1.15-10.7,2.72-16.27-2.02-5.58-4.75-5.02-11.11-4.6-15.75,.41-4.67,.38-6.75-1.61-8.45-2-1.7-4.05-1.4-8.59-.24-4.52,1.15-10.71,2.73-16.29-2.02-5.58-4.75-5.01-11.11-4.59-15.75,.42-4.67,.38-6.75-1.61-8.45-2-1.7-4.05-1.4-8.61-.25-4.52,1.16-10.7,2.73-16.28-2.02-1.81-1.53-2.03-4.25-.49-6.05,1.54-1.81,4.25-2.03,6.06-.49,2,1.7,4.05,1.4,8.6,.24,4.52-1.15,10.71-2.72,16.28,2.02,5.58,4.75,5.01,11.11,4.6,15.76-.42,4.67-.39,6.75,1.61,8.45s4.05,1.4,8.6,.24c4.52-1.15,10.7-2.73,16.28,2.02,5.57,4.75,5.01,11.11,4.59,15.75-.41,4.68-.38,6.75,1.61,8.45,2,1.7,4.05,1.39,8.6,.23,4.37-1.12,10.33-2.63,15.77,1.61Z"/><path class="g" d="M35.798,63.802v.08c0,2.34-1.87,4.25-4.21,4.3-6.44,.13-9.71-4.3-12.09-7.53-2.19-2.97-3.19-4.08-5-4.04-1.82,.03-2.78,1.18-4.85,4.23-1.98,2.92-4.6,6.78-9.58,7.77v-9.39c.72-.67,1.47-1.71,2.48-3.21,2.25-3.32,5.34-7.87,11.78-7.99,6.43-.13,9.7,4.3,12.08,7.53,2.19,2.96,3.18,4.08,5.01,4.04,2.37-.04,4.33,1.84,4.38,4.21Z"/><path class="g" d="M619.19,92.158c.928-4.604,2.2-10.912-2.815-14.298-1.965-1.327-4.634-.813-5.961,1.152-1.294,1.92-.839,4.5,1.003,5.857,.283,.973-.298,3.847-.649,5.592-.928,4.608-2.192,10.92,2.818,14.301,5.011,3.389,10.394-.142,14.32-2.722,1.376-.91,3.583-2.356,4.701-2.647,.149,1.148-.369,3.736-.694,5.354-.925,4.608-2.188,10.92,2.826,14.301,5.014,3.393,10.394-.142,14.324-2.722,1.491-.977,3.944-2.587,4.951-2.684,1.95,1.2,4.519,.66,5.812-1.253,.496-.738,.734-1.574,.734-2.401,0-1.379-.66-2.737-1.886-3.564-5.018-3.389-10.398,.142-14.324,2.721-1.379,.906-3.586,2.356-4.709,2.643-.149-1.141,.369-3.736,.694-5.35,.928-4.608,2.188-10.916-2.826-14.309-5.014-3.385-10.39,.149-14.32,2.729-1.376,.902-3.579,2.349-4.698,2.64-.134-1.152,.373-3.728,.697-5.343Z"/><path class="g" d="M529.747,263.421c-3.057,5.022-6.852,11.274-2.819,16.667,1.424,1.9,4.112,2.286,6.01,.865,1.902-1.421,2.289-4.109,.865-6.014-.321-1.098,2.11-5.126,3.281-7.056,2.11-3.461,4.571-7.509,4.571-11.458,0-1.775-.5-3.533-1.752-5.207-4.041-5.4-11.11-3.521-16.784-2.011-2.185,.581-6.733,1.789-7.71,1.139-.35-1.111,2.102-5.13,3.277-7.061,3.05-5.026,6.841-11.28,2.808-16.675-4.041-5.399-11.11-3.523-16.788-2.015-2.188,.58-6.737,1.787-7.706,1.141-1.421-1.9-4.112-2.287-6.01-.867-1.902,1.42-2.289,4.11-.869,6.012,4.038,5.4,11.106,3.525,16.788,2.017,2.185-.582,6.733-1.79,7.71-1.135,.35,1.111-2.103,5.13-3.273,7.063-3.05,5.022-6.849,11.276-2.808,16.673,4.038,5.401,11.106,3.521,16.788,2.012,2.185-.582,6.726-1.79,7.703-1.145,.324,1.133-2.107,5.126-3.281,7.055Z"/><path class="g" d="M596.575,269.981c.533-6.273-5.022-9.505-9.101-11.867-1.458-.844-4.847-2.808-4.847-3.641v-.026c.074-.82,3.818-2.175,5.421-2.755,4.429-1.603,10.491-3.799,11.05-10.07,.574-6.269-5.026-9.499-9.101-11.857-1.458-.844-4.85-2.808-4.85-3.637v-.024c.075-.819,3.822-2.175,5.421-2.755,4.429-1.601,10.495-3.797,11.054-10.066,.011-.131,.018-.259,.018-.388,0-2.199-1.685-4.073-3.914-4.272-2.364-.211-4.452,1.534-4.661,3.896-.074,.819-3.818,2.175-5.421,2.755-4.429,1.601-10.491,3.797-11.05,10.068-.552,6.261,5.026,9.5,9.097,11.857,1.461,.843,4.854,2.806,4.854,3.637,0,.009-.004,.017-.004,.026-.071,.819-3.822,2.174-5.417,2.753-4.429,1.603-10.499,3.799-11.054,10.07-.555,6.256,5.022,9.501,9.101,11.863,1.454,.843,4.847,2.808,4.847,3.642v.026c-.216,2.362,1.536,4.45,3.896,4.66,2.364,.21,4.448-1.534,4.66-3.896Z"/><path class="g" d="M436.664,191.127c-1.033-2.133-3.605-3.024-5.738-1.989-2.136,1.035-3.027,3.603-1.991,5.74,1.364,2.806,.16,5.253-2.088,9.337-2.386,4.341-5.663,10.286-2.289,17.237,3.37,6.944,10.066,8.055,14.95,8.866,4.597,.764,7.262,1.333,8.627,4.146,1.364,2.809,.164,5.259-2.084,9.347-2.39,4.34-5.663,10.288-2.286,17.233,3.367,6.948,10.059,8.061,14.947,8.872,4.597,.764,7.266,1.333,8.631,4.149,1.372,2.822,.164,5.266-2.08,9.35-2.386,4.343-5.659,10.29-2.289,17.243,3.37,6.947,10.066,8.062,14.95,8.875,4.601,.766,7.27,1.337,8.642,4.155,1.036,2.134,3.601,3.024,5.738,1.989,1.532-.744,2.42-2.274,2.42-3.868,0-.628-.138-1.267-.433-1.871-3.37-6.949-10.066-8.064-14.954-8.877-4.597-.766-7.266-1.337-8.634-4.151-1.361-2.82-.16-5.27,2.084-9.356,2.39-4.341,5.656-10.29,2.285-17.237-3.37-6.951-10.062-8.063-14.954-8.875-4.593-.762-7.262-1.331-8.627-4.144-1.361-2.817-.164-5.262,2.088-9.346,2.386-4.343,5.652-10.292,2.286-17.236-3.367-6.947-10.063-8.058-14.947-8.869-4.6-.764-7.266-1.333-8.631-4.144-1.368-2.815-.16-5.26,2.084-9.345,2.39-4.338,5.659-10.281,2.293-17.23Z"/><path class="g" d="M510.718,320.243c-5.846,2.878-5.928,9.35-5.987,14.078-.034,2.779-.075,5.93-1.193,6.48-1.119,.552-3.646-1.337-5.868-3.005-3.784-2.832-8.967-6.713-14.816-3.834-4.138,2.039-5.387,5.883-5.786,9.632h8.657c.171-.958,.447-1.689,.924-1.926,.88-.433,2.625,.639,4.407,1.926h20.916c1.26-2.923,1.312-6.351,1.35-9.164,.037-2.779,.074-5.93,1.193-6.48,1.118-.55,3.642,1.338,5.868,3.005,3.78,2.835,8.962,6.716,14.808,3.838,1.521-.748,2.401-2.27,2.401-3.857,0-.636-.142-1.283-.444-1.892-1.048-2.129-3.62-3.005-5.749-1.957-1.122,.55-3.642-1.338-5.868-3.005-3.784-2.835-8.962-6.716-14.812-3.838Z"/><path class="g" d="M702.097,290.352v8.69c-.42,.42-.76,1.26-1.37,3.11-.96,2.94-2.41,7.38-7.59,8.99-5.18,1.61-8.89-1.23-11.35-3.11-2.19-1.68-2.79-1.96-3.58-1.72-.78,.24-1.11,.82-1.96,3.45-.96,2.94-2.41,7.38-7.59,8.99-5.18,1.61-8.89-1.23-11.35-3.11-2.19-1.68-2.79-1.97-3.58-1.73-.77,.24-1.1,.82-1.96,3.45-.95,2.94-2.4,7.38-7.58,8.99s-8.89-1.23-11.34-3.11c-2.2-1.68-2.8-1.97-3.58-1.73-2.26,.7-4.67-.56-5.37-2.83-.7-2.26,.56-4.67,2.83-5.37,5.18-1.61,8.89,1.23,11.34,3.11,2.19,1.68,2.79,1.97,3.57,1.73,.78-.25,1.11-.83,1.97-3.45,.95-2.94,2.4-7.38,7.58-8.99s8.89,1.23,11.35,3.11c2.19,1.67,2.79,1.97,3.57,1.72,.79-.24,1.11-.82,1.97-3.45,.96-2.93,2.41-7.38,7.58-8.98,5.19-1.61,8.9,1.22,11.35,3.1,2.2,1.68,2.8,1.97,3.58,1.73,.78-.24,1.12-.82,1.97-3.45,.96-2.94,2.41-7.38,7.59-8.99,.65-.2,1.32-.24,1.95-.15Z"/><path class="g" d="M22.713,160.992c-8.489,4.28-8.049,14.443-7.654,23.402,.358,8.21,.343,13.701-2.945,15.359-2.114,1.072-2.967,3.654-1.894,5.771,1.066,2.116,3.654,2.966,5.771,1.897,8.482-4.283,8.038-14.443,7.651-23.4-.358-8.2-.35-13.705,2.945-15.362,3.289-1.665,7.725,1.592,14.111,6.748,6.983,5.633,14.894,12.018,23.38,7.732,8.482-4.284,8.042-14.428,7.651-23.404-.365-8.198-.35-13.701,2.938-15.356,3.273-1.655,7.703,1.599,14.085,6.755,6.98,5.637,14.883,12.027,23.361,7.747,1.499-.761,2.364-2.27,2.364-3.84,0-.649-.149-1.312-.462-1.931-1.07-2.118-3.654-2.968-5.771-1.902-3.281,1.659-7.71-1.595-14.093-6.755-6.975-5.637-14.883-12.023-23.361-7.743-8.478,4.283-8.038,14.432-7.643,23.402,.358,8.2,.343,13.699-2.942,15.358-3.292,1.663-7.721-1.594-14.111-6.748-6.979-5.635-14.894-12.018-23.38-7.73Z"/><path class="g" d="M95.777,105.602c0,1.92-1.29,3.66-3.23,4.16-6.58,1.67-11.04-2.12-14.3-4.89-3.07-2.62-4.53-3.64-6.59-3.11-2.08,.53-2.87,2.12-4.32,5.89-1.54,3.99-3.64,9.45-10.22,11.13-6.58,1.68-11.04-2.12-14.3-4.89-3.07-2.62-4.53-3.63-6.6-3.1-2.08,.52-2.87,2.11-4.32,5.89-1.54,3.99-3.63,9.45-10.22,11.12-6.58,1.68-11.04-2.11-14.3-4.88-3.08-2.62-4.54-3.64-6.61-3.11-.25,.07-.49,.15-.7,.24v-8.84c5.81-.85,9.86,2.59,12.88,5.16,3.08,2.62,4.54,3.64,6.62,3.11,2.06-.53,2.86-2.12,4.31-5.89,1.53-3.99,3.63-9.46,10.22-11.13,6.57-1.67,11.03,2.12,14.29,4.89,3.08,2.62,4.54,3.64,6.62,3.11,2.06-.53,2.86-2.12,4.31-5.89,1.53-3.99,3.63-9.46,10.21-11.14,6.59-1.67,11.04,2.13,14.29,4.9,3.08,2.62,4.54,3.63,6.61,3.11,2.3-.59,4.64,.8,5.22,3.1,.09,.36,.13,.71,.13,1.06Z"/><path class="g" d="M474.614,4.314c2.23-1.104,3.654-2.643,4.63-4.314h-32.615c-.693,1.827-1.01,3.676-1.245,5.19-.537,3.392-.88,4.474-2.147,5.1-1.264,.626-2.334,.25-5.361-1.379-3.11-1.674-7.814-4.206-13.247-1.51-5.439,2.695-6.267,7.974-6.819,11.464-.533,3.393-.88,4.474-2.147,5.1-2.121,1.055-2.99,3.635-1.939,5.757,1.055,2.125,3.631,2.993,5.756,1.939,5.436-2.692,6.267-7.971,6.815-11.461,.537-3.393,.88-4.474,2.147-5.104,1.267-.63,2.338-.25,5.361,1.379,3.113,1.674,7.814,4.206,13.25,1.51,5.436-2.695,6.263-7.971,6.815-11.46,.53-3.393,.876-4.474,2.14-5.1,1.267-.626,2.334-.25,5.361,1.38,3.109,1.674,7.811,4.205,13.242,1.51Z"/><path class="g" d="M286.667,10.67c-.909,2.185,.119,4.705,2.312,5.622,2.185,.91,4.701-.119,5.615-2.312,2.386-5.689-1.156-10.424-4.109-13.981h-10.745c1.059,1.812,2.416,3.434,3.601,4.85,2.252,2.688,3.818,4.668,3.326,5.82Z"/><path class="g" d="M687.931,2.017c.559-.809,1.033-1.469,1.465-2.017h-10.737c-.798,.817-1.521,1.185-2.491,1.197-2.356,.026-4.243,1.946-4.243,4.291v.056c.03,2.371,1.976,4.269,4.347,4.243,6.342-.078,9.417-4.522,11.658-7.77Z"/><path class="g" d="M525.869,9.522c-.582-3.012-.623-3.944,.179-4.776,.798-.831,1.73-.828,4.764-.377,3.281,.489,8.247,1.227,12.228-2.93,.451-.47,.831-.954,1.163-1.439h-25.348c-2.804,3.873-1.987,8.187-1.421,11.147,.581,3.009,.626,3.944-.171,4.772-1.644,1.711-1.588,4.437,.127,6.073,1.711,1.644,4.429,1.585,6.069-.13,3.989-4.153,3.042-9.078,2.409-12.341Z"/><path class="g" d="M604.728,122.718c-3.225-5.738-10.241-4.832-15.882-4.101-2.241,.291-6.413,.835-7.285,.213-1.163-2.069-3.781-2.8-5.846-1.637-2.069,1.156-2.807,3.776-1.64,5.846,3.225,5.741,10.242,4.832,15.879,4.101,2.241-.291,6.416-.835,7.274-.268v.06c0,1.178-2.565,4.377-3.956,6.114-3.553,4.437-7.982,9.962-4.754,15.696,3.225,5.741,10.242,4.828,15.879,4.094,2.241-.291,6.416-.835,7.266-.276,0,.019,.004,.037,.004,.06,0,1.174-2.569,4.373-3.959,6.107-3.56,4.429-7.99,9.941-4.764,15.688,1.163,2.068,3.791,2.832,5.857,1.67,2.066-1.159,2.811-3.745,1.648-5.818v-.058c0-1.174,2.565-4.373,3.959-6.107,2.692-3.352,5.879-7.326,5.879-11.546,0-1.361-.332-2.748-1.115-4.142-3.229-5.741-10.245-4.828-15.882-4.094-2.244,.291-6.413,.831-7.27,.268-.105-1.066,2.543-4.407,3.956-6.174,3.553-4.433,7.982-9.955,4.753-15.696Z"/><path class="g" d="M700.967,6.132c-1.38-1.28-2.47-2.75-3.41-4.04,1.44,1.04,2.62,2.43,3.41,4.04Z"/><path class="g" d="M628.992,200.625c-2.133,1.035-3.02,3.603-1.987,5.74,.201,.403,.086,.852-1.018,2.856-1.361,2.476-3.423,6.213-1.223,10.747,2.2,4.534,6.413,5.233,9.198,5.695,2.255,.375,2.677,.561,2.874,.967,.197,.404,.089,.85-1.018,2.863-1.361,2.472-3.419,6.215-1.219,10.748,2.196,4.532,6.405,5.233,9.194,5.695,2.255,.375,2.677,.563,2.878,.973,.201,.408,.082,.861-1.022,2.861-1.357,2.479-3.415,6.219-1.216,10.754,2.2,4.532,6.409,5.233,9.198,5.697,2.255,.375,2.681,.563,2.878,.973,1.037,2.134,3.605,3.024,5.738,1.989,1.532-.744,2.423-2.274,2.423-3.868,0-.628-.142-1.267-.433-1.871-2.199-4.532-6.413-5.233-9.201-5.697-2.252-.375-2.677-.563-2.878-.971-.194-.414-.082-.865,1.021-2.867,1.357-2.475,3.415-6.215,1.216-10.748-2.196-4.535-6.409-5.234-9.194-5.699-2.259-.375-2.677-.561-2.878-.967-.194-.407-.082-.85,1.022-2.863,1.357-2.474,3.415-6.221,1.219-10.749-2.196-4.534-6.409-5.233-9.198-5.695-2.252-.375-2.677-.561-2.874-.969-.201-.402-.086-.852,1.018-2.856,1.364-2.474,3.423-6.211,1.223-10.748-1.037-2.134-3.605-3.024-5.741-1.989Z"/><path class="g" d="M699.697,234.842c-4.9-.64-11.61-1.5-13.16-7.49-1.56-6,3.88-10.02,7.85-12.95,1.47-1.09,4.15-3.07,4.6-4.06-.47-2.23,.88-4.47,3.11-5.05v14.02c-.88,.72-1.77,1.38-2.6,1.99-1.36,1.01-3.78,2.8-4.48,3.84,1.12,.58,4.1,.96,5.78,1.18,.42,.05,.85,.11,1.3,.17v8.68c-.88-.14-1.74-.25-2.4-.33Z"/><path class="g" d="M702.097,250.062c-.19,.2-.35,.38-.46,.55,.13,.07,.28,.13,.46,.2v8.84c-3.92-.81-7.8-2.46-8.94-6.83-1.55-6,3.88-10.02,7.85-12.96,.32-.23,.69-.51,1.09-.81v11.01Z"/><path class="g" d="M573.18,315.891c-1.82-1.445-5.197-4.135-5.35-5.204,.731-.876,5.029-1.279,7.341-1.495,5.73-.535,12.863-1.203,14.757-7.567,.119-.41,.179-.826,.179-1.234,0-1.851-1.201-3.568-3.065-4.122-2.27-.677-4.653,.602-5.331,2.874-.731,.878-5.026,1.279-7.337,1.495-5.73,.537-12.863,1.203-14.757,7.568-1.905,6.362,3.713,10.823,8.217,14.408,1.812,1.445,5.197,4.135,5.346,5.208-.731,.88-5.033,1.286-7.348,1.503-5.73,.541-12.859,1.212-14.753,7.577-.749,2.506-.325,4.711,.727,6.689h11.584c-1.797-1.463-3.982-3.35-4.094-4.211,.723-.88,5.029-1.285,7.341-1.503,5.73-.539,12.862-1.21,14.756-7.579,1.905-6.364-3.709-10.823-8.213-14.408Z"/><path class="g" d="M21.037,18.432c-2.85,5.44-9.5,4.76-14.36,4.27-1.89-.18-4.99-.5-5.99-.09-.18,.3-.38,.57-.62,.81V14.012c2.5-.35,5.18-.08,7.47,.15,1.74,.17,4.49,.45,5.71,.18-.47-1.14-2.27-3.26-3.4-4.59-1.86-2.18-4.12-4.84-5.08-7.77C6.548,.732,8.707,.002,11.048,.002h2.14c.65,1.19,2.19,3,3.2,4.19,3.16,3.71,7.49,8.8,4.65,14.24Z"/><path class="g" d="M23.397,339.762c-1.05,1.19-1.93,2.22-2.63,3.19-.16,.22-.31,.43-.45,.64H10.907c.06-.22,.13-.43,.2-.64,1.19-3.58,3.69-6.41,5.86-8.88,3.21-3.63,4.99-5.85,4.24-9.05-.76-3.2-3.33-4.39-7.83-6.22-4.97-2.01-11.15-4.52-12.96-12.21-.17-.72-.29-1.43-.35-2.11-.09-.96-.09-1.87,0-2.74,.51-5.06,3.77-8.75,6.51-11.86,3.22-3.64,5-5.84,4.25-9.06-.76-3.21-3.34-4.4-7.83-6.23-.94-.38-1.93-.78-2.93-1.23v-10c1.33,1.26,3.38,2.15,6.16,3.28,4.97,2.01,11.15,4.52,12.96,12.21,1.8,7.7-2.61,12.7-6.17,16.72-3.21,3.63-4.99,5.85-4.24,9.05,.76,3.21,3.34,4.4,7.83,6.22,4.97,2.02,11.15,4.53,12.96,12.21,1.8,7.69-2.62,12.69-6.17,16.71Z"/><path class="g" d="M170.876,293.413c-3.863-.899-9.153-2.127-13.921,2.102-4.765,4.232-4.168,9.636-3.736,13.573,.395,3.585,.417,5.04-.903,6.209-1.767,1.573-1.935,4.289-.358,6.064,1.573,1.773,4.287,1.935,6.062,.36,4.764-4.228,4.175-9.626,3.736-13.571-.388-3.579-.418-5.042,.902-6.211,1.32-1.171,2.77-.973,6.275-.16,3.866,.898,9.153,2.127,13.917-2.103,4.764-4.228,4.168-9.63,3.736-13.569-.395-3.577-.418-5.037,.895-6.206,1.32-1.169,2.766-.971,6.271-.157,3.863,.898,9.157,2.129,13.921-2.099,4.761-4.232,4.168-9.628,3.728-13.573-.395-3.573-.418-5.033,.898-6.202,1.316-1.169,2.763-.969,6.264-.155,3.866,.898,9.153,2.131,13.917-2.097,.954-.85,1.439-2.028,1.439-3.214,0-1.014-.358-2.032-1.081-2.85-1.573-1.773-4.291-1.935-6.062-.36-1.316,1.169-2.762,.969-6.263,.155-3.862-.899-9.156-2.131-13.917,2.097-4.761,4.226-4.164,9.624-3.732,13.569,.395,3.577,.417,5.037-.895,6.206-1.32,1.169-2.766,.971-6.271,.157-3.862-.899-9.156-2.129-13.921,2.099-4.757,4.232-4.161,9.628-3.728,13.569,.395,3.577,.417,5.037-.903,6.206-1.316,1.171-2.766,.973-6.271,.16Z"/><path class="g" d="M528.941,133.299c.433-.813,3.404-2.188,4.999-2.93,4.206-1.946,9.943-4.6,9.943-10.528,0-.082,0-.171-.003-.257-.168-6.11-6.152-8.489-10.521-10.226-1.525-.604-4.276-1.7-5.026-2.483,.705-.828,3.393-2.073,4.88-2.762,4.206-1.95,9.943-4.604,9.943-10.539,0-.082-.004-.172-.004-.253-.171-6.114-6.151-8.493-10.521-10.23-1.633-.652-4.679-1.864-5.108-2.491-.067-2.371-2.043-4.235-4.414-4.172-2.33,.063-4.175,1.972-4.175,4.291v.119c.171,6.114,6.151,8.493,10.521,10.23,1.529,.608,4.28,1.704,5.029,2.491-.704,.828-3.393,2.073-4.88,2.759-4.206,1.954-9.943,4.608-9.943,10.536,0,.089,.004,.175,.004,.261,.168,6.111,6.151,8.493,10.521,10.23,1.521,.604,4.269,1.693,5.026,2.483-.716,.82-3.393,2.062-4.881,2.751-4.205,1.946-9.943,4.601-9.943,10.528,0,.086,0,.172,.004,.261,.063,2.371,2.025,4.325,4.392,4.257,2.371-.063,4.187-1.965,4.157-4.325Z"/><path class="g" d="M581.897,73.491c4.817-1.156,11.416-2.736,12.325-8.873,.898-6.103-4.944-9.559-9.216-12.065-1.48-.865-4.109-2.408-4.903-3.374,1.04-.697,4.004-1.409,5.671-1.808,4.817-1.159,11.412-2.744,12.322-8.881,.063-.433,.093-.85,.093-1.253,0-5.361-5.335-8.489-9.306-10.819-1.588-.925-4.488-2.628-5.04-3.571,.246-2.274-1.357-4.366-3.642-4.705-2.345-.35-4.53,1.267-4.88,3.616-.895,6.133,4.944,9.567,9.216,12.072,1.48,.865,4.108,2.409,4.899,3.378-1.037,.697-4.001,1.409-5.667,1.812-4.817,1.156-11.416,2.74-12.325,8.877-.895,6.133,4.944,9.563,9.22,12.068,1.476,.865,4.098,2.401,4.895,3.37-1.044,.694-3.997,1.402-5.663,1.801-4.817,1.152-11.412,2.733-12.322,8.87-.354,2.349,1.267,4.526,3.616,4.876,2.289,.339,4.422-1.193,4.85-3.445,.809-.738,4.075-1.521,5.857-1.946Z"/><path class="g" d="M25.506,0h-4.265C22.635,.097,24.089,.135,25.506,0Z"/><path class="g" d="M85.299,14.6c2.957,8.724,13.049,9.5,21.959,10.186,6.561,.507,13.343,1.029,14.48,4.377,1.133,3.389-3.922,7.911-8.821,12.303-6.647,5.965-14.175,12.721-11.214,21.449,2.96,8.728,13.053,9.511,21.959,10.197,6.561,.507,13.343,1.033,14.48,4.392,.764,2.244,3.203,3.449,5.451,2.684,1.789-.604,2.915-2.274,2.915-4.064,0-.459-.074-.925-.231-1.38-2.96-8.728-13.049-9.507-21.952-10.197-6.565-.507-13.347-1.033-14.492-4.395-1.137-3.367,3.926-7.9,8.821-12.296,6.648-5.962,14.175-12.721,11.218-21.452-2.96-8.72-13.056-9.5-21.959-10.182-6.562-.503-13.343-1.025-14.48-4.38C92.33,8.598,97.032,4.254,101.77,0h-12.258c-3.706,4.272-6.1,9.041-4.213,14.6Z"/><path class="g" d="M55.66,20.595c.201,.403,.082,.85-1.022,2.856-1.361,2.475-3.415,6.211-1.223,10.744,2.2,4.534,6.413,5.234,9.201,5.697,2.252,.373,2.677,.559,2.871,.969,.201,.403,.089,.85-1.014,2.863-1.365,2.468-3.419,6.211-1.223,10.745,2.199,4.534,6.409,5.234,9.194,5.697,2.259,.373,2.677,.563,2.878,.973,.201,.414,.082,.861-1.018,2.86-1.361,2.479-3.419,6.219-1.219,10.756,2.2,4.53,6.413,5.231,9.201,5.696,2.252,.377,2.677,.563,2.878,.973,1.037,2.133,3.601,3.024,5.738,1.991,1.532-.746,2.42-2.274,2.42-3.87,0-.626-.138-1.267-.433-1.871-2.199-4.534-6.409-5.234-9.198-5.697-2.255-.373-2.68-.563-2.878-.969-.197-.41-.082-.865,1.018-2.871,1.361-2.472,3.419-6.211,1.219-10.745-2.196-4.537-6.409-5.234-9.198-5.701-2.255-.376-2.677-.563-2.874-.965-.198-.41-.086-.85,1.018-2.863,1.361-2.475,3.423-6.219,1.223-10.752-2.2-4.534-6.413-5.231-9.201-5.693-2.252-.376-2.677-.563-2.871-.969-.202-.403-.082-.854,1.014-2.856,1.364-2.472,3.423-6.215,1.223-10.748-1.037-2.133-3.602-3.024-5.738-1.991-2.136,1.037-3.024,3.605-1.987,5.741Z"/><path class="g" d="M442.983,108.379c.928-4.601,2.2-10.909-2.811-14.298-1.968-1.327-4.638-.809-5.965,1.152-1.29,1.92-.835,4.504,1.007,5.861,.279,.969-.298,3.847-.649,5.592-.932,4.608-2.192,10.916,2.815,14.301,5.015,3.385,10.394-.145,14.32-2.725,1.379-.906,3.583-2.352,4.705-2.643,.149,1.141-.373,3.736-.694,5.354-.932,4.608-2.192,10.916,2.822,14.301,5.015,3.389,10.398-.142,14.324-2.722,1.492-.977,3.948-2.591,4.955-2.688,1.946,1.204,4.519,.66,5.809-1.253,.499-.738,.738-1.573,.738-2.401,0-1.38-.664-2.733-1.89-3.56-5.015-3.393-10.398,.142-14.324,2.721-1.38,.903-3.587,2.353-4.709,2.64-.149-1.141,.373-3.736,.693-5.35,.925-4.608,2.192-10.916-2.826-14.305-5.011-3.385-10.391,.149-14.316,2.725-1.38,.906-3.579,2.352-4.698,2.643-.142-1.148,.373-3.728,.693-5.346Z"/><path class="g" d="M229.976,28.465c1.156,4.567,2.737,10.823,8.94,12.031,6.204,1.201,10.014-4.004,12.795-7.807,1.096-1.499,3.37-4.612,4.22-4.444,2.33,.447,4.585-1.07,5.037-3.4,.056-.276,.078-.552,.078-.824,0-2.013-1.424-3.814-3.475-4.209-6.204-1.208-10.014,4.004-12.795,7.807-1.096,1.491-3.37,4.608-4.22,4.444-.85-.164-1.797-3.907-2.252-5.704-1.156-4.571-2.74-10.823-8.94-12.027-6.204-1.204-10.01,4.004-12.792,7.807-1.092,1.499-3.37,4.612-4.217,4.444-.85-.164-1.797-3.904-2.252-5.701-1.152-4.567-2.736-10.823-8.933-12.031-2.334-.447-4.586,1.07-5.04,3.4-.455,2.334,1.07,4.582,3.4,5.033,.85,.164,1.793,3.907,2.248,5.704,1.152,4.567,2.737,10.819,8.936,12.027,6.204,1.204,10.01-4.004,12.792-7.807,1.092-1.499,3.37-4.612,4.217-4.444,.85,.164,1.797,3.9,2.252,5.701Z"/><path class="g" d="M359.606,24.26c7.337-5.119,5.059-15.006,3.05-23.723-.045-.179-.082-.358-.127-.537h-8.806c.186,.828,.373,1.655,.559,2.468,1.402,6.069,2.99,12.944,.41,14.749-2.58,1.797-8.493-2.066-13.705-5.473-7.486-4.895-15.972-10.443-23.302-5.328-1.946,1.357-2.423,4.038-1.066,5.98,1.357,1.946,4.034,2.423,5.98,1.066,2.573-1.797,8.478,2.062,13.69,5.469,7.486,4.899,15.979,10.446,23.316,5.328Z"/><path class="g" d="M227.325,105.844c2.23,5.913,3.553,9.939,1.677,11.871-1.652,1.7-1.61,4.422,.094,6.069,1.703,1.655,4.422,1.611,6.073-.089,5.812-5.995,2.695-14.249,.194-20.885-2.23-5.913-3.546-9.939-1.678-11.867,1.875-1.935,5.935-.738,11.915,1.309,6.707,2.296,15.058,5.152,20.867-.843,5.805-5.988,2.692-14.238,.186-20.871-2.229-5.913-3.557-9.932-1.677-11.863,1.864-1.931,5.92-.731,11.897,1.32,6.707,2.297,15.051,5.16,20.856-.828,.809-.835,1.212-1.912,1.212-2.99,0-1.122-.44-2.244-1.309-3.087-1.704-1.648-4.422-1.603-6.073,.097-1.868,1.931-5.924,.731-11.901-1.32-6.703-2.296-15.051-5.16-20.852,.828-5.809,5.995-2.688,14.246-.19,20.878,2.237,5.913,3.557,9.932,1.685,11.856-1.879,1.939-5.939,.742-11.923-1.305-6.703-2.297-15.054-5.153-20.863,.843-5.801,5.987-2.692,14.245-.19,20.878Z"/><path class="g" d="M61.58,297.886c.201,.401,.082,.854-1.014,2.856-1.364,2.475-3.423,6.213-1.223,10.746,2.196,4.534,6.409,5.233,9.194,5.695,2.255,.375,2.677,.561,2.878,.967,.198,.407,.086,.85-1.022,2.863-1.357,2.472-3.415,6.217-1.219,10.749,2.196,4.532,6.409,5.233,9.194,5.695,2.255,.375,2.681,.563,2.878,.973,.205,.412,.086,.859-1.018,2.862-.373,.675-.786,1.448-1.159,2.3h9.637c1.111-2.345,1.98-5.382,.268-8.91-2.199-4.535-6.413-5.234-9.197-5.699-2.256-.375-2.677-.561-2.875-.967-.201-.406-.089-.85,1.018-2.863,1.361-2.473,3.419-6.219,1.219-10.748-2.196-4.534-6.409-5.233-9.194-5.695-2.256-.375-2.677-.561-2.878-.969-.202-.401-.082-.854,1.021-2.856,1.365-2.473,3.423-6.213,1.223-10.748-1.036-2.134-3.609-3.024-5.741-1.989-2.133,1.035-3.027,3.604-1.991,5.74Z"/><path class="g" d="M699.977,338.462c-1.75,2.38-4.43,4.03-7.5,4.4-.64-1.33-.58-2.94,.3-4.25,1.33-1.97,4-2.48,5.97-1.15,.46,.31,.87,.64,1.23,1Z"/><path class="g" d="M209.776,87.214c.969-.85,1.461-2.036,1.461-3.229,0-1.006-.35-2.017-1.066-2.833-.984-1.115-.894-2.293-.071-5.753,.88-3.702,2.084-8.78-1.972-13.407-4.068-4.623-9.257-4.079-13.049-3.676-3.534,.373-4.709,.313-5.693-.809-.984-1.119-.899-2.293-.071-5.753,.88-3.706,2.084-8.787-1.976-13.407-4.068-4.627-9.261-4.078-13.049-3.683-3.534,.373-4.713,.313-5.693-.806-.988-1.122-.895-2.3-.075-5.756,.88-3.706,2.084-8.784-1.979-13.414-4.067-4.627-9.261-4.079-13.049-3.684-3.538,.373-4.713,.313-5.697-.809-1.566-1.782-4.28-1.957-6.062-.391-1.782,1.566-1.957,4.276-.395,6.062,4.068,4.627,9.261,4.079,13.049,3.684,3.538-.373,4.716-.313,5.704,.813,.985,1.122,.895,2.296,.075,5.756-.884,3.71-2.088,8.784,1.976,13.41,4.064,4.623,9.254,4.075,13.045,3.68,3.538-.373,4.713-.313,5.697,.809,.981,1.115,.891,2.289,.071,5.749-.88,3.71-2.088,8.788,1.976,13.41,4.067,4.627,9.261,4.079,13.048,3.68,3.534-.373,4.713-.31,5.693,.805,.981,1.115,.891,2.293,.071,5.753-.884,3.706-2.095,8.78,1.968,13.407,1.566,1.782,4.28,1.957,6.062,.391Z"/><path class="g" d="M437.567,44.172c-2.367,.19-4.164,2.255-3.933,4.627,.187,2.304,2.162,4.038,4.451,3.941,.903,.622,2.409,3.624,3.229,5.264,2.215,4.429,5.249,10.499,11.427,9.991,6.182-.499,8.195-6.979,9.667-11.707,.507-1.64,1.409-4.545,2.174-5.54,.913,.857,2.278,3.579,3.046,5.115,2.218,4.429,5.257,10.491,11.438,9.992,6.182-.507,8.195-6.979,9.671-11.71,.544-1.752,1.543-4.966,2.341-5.719,2.155-.265,3.773-2.099,3.773-4.258,0-.115-.008-.235-.015-.354-.194-2.364-2.267-4.123-4.63-3.93-6.182,.499-8.198,6.979-9.671,11.707-.511,1.64-1.417,4.545-2.177,5.54-.917-.857-2.282-3.579-3.05-5.115-2.218-4.429-5.257-10.495-11.438-9.992-6.182,.507-8.195,6.983-9.664,11.714-.511,1.633-1.413,4.534-2.177,5.533-.91-.865-2.267-3.579-3.035-5.108-2.215-4.429-5.249-10.499-11.427-9.992Z"/><path class="g" d="M90.705,276.677c.779,.695,1.935,3.318,2.64,4.918,1.905,4.319,4.515,10.232,10.506,10.036,5.988-.2,8.202-6.271,9.82-10.706,.53-1.452,1.361-3.725,2.05-4.746,.76,.973,1.737,3.188,2.364,4.605,1.909,4.315,4.519,10.226,10.51,10.031,5.991-.2,8.21-6.271,9.831-10.704,.596-1.642,1.581-4.338,2.315-5.082,2.188-.21,3.881-2.056,3.881-4.272,0-.047,0-.095-.004-.144-.078-2.369-2.062-4.23-4.433-4.151-5.995,.197-8.21,6.269-9.831,10.702-.53,1.454-1.361,3.726-2.054,4.75-.757-.975-1.734-3.187-2.356-4.602-1.909-4.317-4.526-10.232-10.517-10.033-5.991,.197-8.206,6.271-9.824,10.704-.53,1.45-1.357,3.717-2.047,4.742-.757-.979-1.73-3.186-2.352-4.597-1.902-4.317-4.511-10.23-10.499-10.037-2.371,.079-4.265,1.986-4.153,4.433,.074,2.278,1.909,4.082,4.153,4.153Z"/><path class="g" d="M617.714,333.953c-2.255-.74-4.679,.486-5.421,2.74-.884,2.673-.541,4.962,.235,6.899h10.059c-.16-.226-.325-.447-.477-.654-1.626-2.2-1.909-2.792-1.655-3.564,.738-2.257-.489-4.679-2.74-5.421Z"/><path class="g" d="M54.474,221.611c2.017,.971,6.219,2.992,6.55,4.105-.473,1.055-4.902,2.513-7.028,3.214-5.562,1.831-12.482,4.11-12.914,10.821-.481,6.733,6.129,9.865,11.405,12.396,2.017,.969,6.219,2.986,6.554,4.092-.477,1.055-4.903,2.509-7.031,3.208-5.559,1.827-12.478,4.101-12.911,10.806-.145,2.397,1.64,4.412,4.004,4.565,2.364,.155,4.407-1.639,4.563-4.006,.477-1.053,4.899-2.507,7.024-3.204,5.562-1.827,12.482-4.101,12.918-10.812,.488-6.651-6.129-9.857-11.405-12.392-2.017-.97-6.219-2.987-6.554-4.101,.47-1.053,4.902-2.513,7.031-3.214,5.563-1.831,12.475-4.108,12.915-10.817,.015-.214,.018-.423,.018-.63,0-6.28-6.316-9.317-11.419-11.772-2.021-.971-6.226-2.992-6.554-4.101,.149-2.38-1.637-4.412-4.004-4.565-2.367-.155-4.411,1.639-4.563,4.006-.485,6.739,6.122,9.867,11.401,12.402Z"/></g><path class="e" d="M702.097,10.982V331.972c0,2.43-.79,4.67-2.12,6.49-1.75,2.38-4.43,4.03-7.5,4.4-.44,.06-.9,.09-1.36,.09H11.048c-6.06,0-10.98-4.91-10.98-10.98V10.982C.068,7.262,1.928,3.962,4.767,1.982,6.548,.732,8.707,.002,11.048,.002H691.118c2.4,0,4.63,.77,6.44,2.09,1.44,1.04,2.62,2.43,3.41,4.04,.72,1.46,1.13,3.11,1.13,4.85Z"/></g></g></g></svg>