<?xml version="1.0" encoding="UTF-8"?><svg id="Capa_2" xmlns="http://www.w3.org/2000/svg" viewBox="0 0 17.55 28.11"><defs><style>.cls-1{fill:#b751f7;}</style></defs><g id="Capa_5_copia_2"><g><path class="cls-1" d="M8.78,0C5.75,0,3.32,2.4,3.25,5.43V14.56c0,3.05,2.47,5.52,5.52,5.52s5.52-2.47,5.52-5.52V5.43C14.23,2.4,11.8,0,8.78,0h0Z"/><path class="cls-1" d="M16.57,9.94c-.55,0-.98,.42-.98,.98v3.67c0,3.77-3.05,6.82-6.82,6.82S1.95,18.36,1.95,14.59v-3.67c0-.55-.42-.98-.98-.98S0,10.37,0,10.92v3.67c-.03,4.48,3.35,8.29,7.8,8.81v2.76h-3.22c-.55,0-.98,.42-.98,.98s.42,.98,.98,.98H12.97c.55,0,.98-.42,.98-.98s-.42-.98-.98-.98h-3.22v-2.76c4.45-.52,7.83-4.32,7.8-8.81v-3.67c0-.55-.42-.98-.98-.98h0Z"/></g></g></svg>