<?xml version="1.0" encoding="UTF-8"?><svg xmlns="http://www.w3.org/2000/svg" viewBox="0 0 702.681 343.853"><defs><style>.d{opacity:.08;}.e{fill:none;}.f{fill:#1a1a1a;}.g{fill:#df3629;}</style></defs><g id="a"/><g id="b"><g id="c"><g><rect class="g" x=".644" y=".895" width="702.037" height="342.957" rx="10.987" ry="10.987"/><g class="d"><path class="f" d="M260.327,29.043l-1.49,8.57c-7.6-1.28-15.63-15.12-26.27-36.72h9.73c6.46,12.87,14.22,27.03,18.03,28.15Z"/><path class="f" d="M372.445,115.612c-1.394-.879-1.511-1.668-1.511-2.34h-8.704c0,4.046,1.923,7.397,5.561,9.697,14.144,8.938,55.336-.501,66.427-5.769l-3.74-7.861c-12.195,5.795-48.453,12.329-58.033,6.273Z"/><path class="f" d="M293.337,1.663c-2.27,6.72-2.71,14.37-.08,21.03l-8.09,3.21c-3.21-8.11-3.06-16.99-.74-25.01h9.18c-.09,.26-.18,.51-.27,.77Z"/><path class="f" d="M515.016,137.065c-6.169-10.485-13.849-23.533-29.394-20.319l1.76,8.523c8.987-1.857,13.506,4.95,20.135,16.21,5.247,8.912,10.672,18.127,20.513,20.509l2.047-8.462c-6.259-1.513-10.536-8.773-15.062-16.461Z"/><path class="f" d="M452.661,72.277c-2.063,.416-22.734,2.692-43.557,3.141-38.51,.831-41.967-5.206-42.095-5.464-.132-.266,.208-2.095,4.22-5.649l-5.772-6.513c-6.626,5.876-8.697,11.327-6.158,16.197,9.49,18.197,94.526,6.96,95.342,6.764l-1.979-8.475Z"/><path class="f" d="M273.31,72.192l.861,8.658c15.712-1.562,27.57,1.255,35.246,8.377,13.184,12.234,12.633,35.15,12.255,50.308l-.06,2.658,8.704,.181,.06-2.625c.061-2.612,.136-5.514,.136-8.609,0-15.523-1.783-35.865-15.175-48.292-9.584-8.893-23.724-12.478-42.027-10.655Z"/><path class="f" d="M557.897,26.723l-8.69,.31c-.33-9.64,1-18.39,3.91-26.14h9.35c-3.37,7.35-4.9,15.98-4.57,25.83Z"/><path class="f" d="M473.865,174.481c12.161,11.324,38.37,26.282,56.926,18.214l-3.475-7.982c-12.501,5.436-34.4-4.384-47.52-16.601l-5.931,6.369Z"/><path class="f" d="M478.085,132.183c-27.751,4.397-65.487,22.591-86.91,37.475l4.972,7.147c20.913-14.533,57.791-31.982,83.299-36.024l-1.36-8.598Z"/><path class="f" d="M405.266,226.398c8.556,1.696,17.408,3.449,26.92,8.674l4.186-7.631c-10.687-5.871-20.637-7.843-29.417-9.58-15.863-3.139-26.346-5.215-32.288-28.306l-8.432,2.169c7.31,28.397,22.719,31.448,39.031,34.675Z"/><path class="f" d="M491.783,70.439c5.697-8.269,9.452-13.732,20.385-13.422l.242-8.7c-15.655-.446-21.828,8.519-27.797,17.188-2.871,4.173-5.84,8.487-10.056,12.302l5.833,6.456c4.979-4.497,8.387-9.454,11.394-13.825Z"/><path class="f" d="M603.007,16.023l-8.64,1.08c-.79-6.39-.7-11.72,.1-16.21h8.91c-.99,3.91-1.16,8.84-.37,15.13Z"/><path class="f" d="M181.051,128.484c9.769-23.429,30.524-37.069,50.591-50.259l-4.775-7.276c-21.17,13.911-43.058,28.295-53.855,54.187l8.039,3.347Z"/><path class="f" d="M268.879,299.335c12.984-2.873,23.932-12.784,34.513-22.37,9.403-8.517,19.131-17.323,29.549-20.243l-2.35-8.379c-12.391,3.472-22.889,12.976-33.044,22.171-10.192,9.229-19.818,17.948-30.551,20.321l1.882,8.5Z"/><path class="f" d="M321.854,231.159l4.352-7.54c-12.414-7.163-9.883-23.435-7.446-39.167,1.061-6.845,2.074-13.315,1.885-19.093l-8.704,.272c.155,4.99-.786,11.054-1.783,17.485-2.622,16.886-5.878,37.896,11.696,48.043Z"/><path class="f" d="M149.454,79.226c-13.509,11.08-27.479,22.536-36.16,37.683l7.556,4.329c7.884-13.761,20.63-24.213,34.12-35.28,11.069-9.078,22.515-18.466,31.325-30.007l-6.921-5.281c-8.194,10.736-19.24,19.795-29.92,28.556Z"/><path class="f" d="M328.382,61.02c-.091-12.147,2.675-27.326,16.244-30.709,16.732-4.171,42.447,10.808,52.914,30.821l7.714-4.035c-12.319-23.55-42.22-40.344-62.733-35.231-8.613,2.146-23.059,10.107-22.844,39.211l8.704-.056Z"/><path class="f" d="M438.977,46.513c0,1.86-.13,3.7-.39,5.49l-8.62-1.26c1.48-10.04-2.41-21.83-10.94-33.18-4.81-6.39-10.68-12.1-16.93-16.67h13.6c3.71,3.48,7.19,7.31,10.29,11.44,8.49,11.3,12.99,23.23,12.99,34.18Z"/><path class="f" d="M461.767,4.163l-8.55,1.59c-.27-1.41-.47-3.05-.63-4.86h8.72c.13,1.19,.28,2.29,.46,3.27Z"/><path class="f" d="M130.237,.893c-3.81,1.56-7.37,1.69-10.62,.36-.27-.11-.53-.23-.78-.36h11.4Z"/><path class="f" d="M234.37,57.608l1.375-8.594c-26.217-4.195-32.722-13.56-42.567-27.734-4.405-6.339-9.399-13.524-16.882-21.28l-6.264,6.044c7,7.253,11.783,14.133,15.999,20.2,10.313,14.854,18.465,26.584,48.34,31.364Z"/><path class="f" d="M359.087,145.643l-8.22-2.849c-6.811,19.65-6.554,32.194-6.203,49.55,.064,3.126,.128,6.413,.159,9.934l8.704-.068c-.03-3.56-.098-6.883-.159-10.041-.344-17.07-.578-28.344,5.719-46.526Z"/><path class="f" d="M226.074,237.488l-1.375-8.594c-13.188,2.117-20.271-4.022-29.24-11.796-9.822-8.511-20.955-18.155-41.823-17.268l.371,8.696c17.411-.742,26.319,6.977,35.748,15.149,9.406,8.149,19.126,16.573,36.319,13.813Z"/><path class="f" d="M19.829,283.929c30.014,3.71,55.491-23.86,66.461-51.044l-8.069-3.256c-8.152,20.196-30.142,49.022-57.327,45.665l-1.065,8.636Z"/><path class="f" d="M123.169,322.715l7.147-4.971c-25.001-35.9-29.568-36.179-57.818-27.562-2.686,.822-5.625,1.719-8.866,2.66l2.433,8.356c3.275-.952,6.248-1.859,8.976-2.69,24.827-7.574,25.794-7.869,48.128,24.207Z"/><path class="f" d="M666.083,98.27l.597-8.681c-6.195-.427-10.679-4.325-15.424-8.454-6.89-5.988-15.458-13.441-29.352-6.581l3.853,7.805c8.311-4.106,12.505-.99,19.788,5.345,5.357,4.66,11.431,9.943,20.54,10.566Z"/><path class="f" d="M49.352,70.738l3.914-7.775c-4.643-2.337-9.255-5.797-14.133-9.459C28.016,45.155,15.413,35.696,0,39.409l2.04,8.462c11.424-2.754,21.355,4.702,31.869,12.591,4.971,3.733,10.109,7.589,15.443,10.276Z"/><rect class="f" x="84.19" y="205.629" width="42.552" height="8.704"/><path class="f" d="M5.307,259.543l-4.66,.79v-15.47c2.16,4.42,3.75,9.31,4.66,14.68Z"/><path class="f" d="M556.926,220.796c19.591,19.588,31.786,15.976,50.247,10.508,6.082-1.8,12.976-3.842,21.34-5.444l-1.632-8.549c-8.791,1.683-15.904,3.789-22.179,5.646-17.642,5.225-25.692,7.61-41.627-8.319l-6.15,6.158Z"/><path class="f" d="M702.677,321.123v8.75l-4.15-5.34c1.21-.95,2.6-2.1,4.15-3.41Z"/><path class="f" d="M107.809,145.359l-8.553,1.587c5.674,30.669,42.564,26.95,69.499,24.236,5.87-.591,11.412-1.15,16.187-1.339l-.347-8.696c-5.032,.198-10.706,.771-16.713,1.375-31.642,3.191-56.16,3.952-60.073-17.162Z"/><path class="f" d="M247.078,286.191c3.604-19.907,32.647-45.319,52.114-57.004l-4.48-7.464c-20.207,12.13-51.845,38.895-56.201,62.916l8.568,1.553Z"/><path class="f" d="M102.323,260.581c18.632,5.396,36.848,9.752,54.799,3.821l-2.735-8.266c-15.58,5.149-32.375,1.086-49.647-3.916l-2.418,8.36Z"/><path class="f" d="M279.642,187.008l7.54-4.344c-5.991-10.406-18.258-15.706-30.116-20.83-14.322-6.19-27.85-12.036-29.285-25.806l-8.658,.907c1.968,18.832,19.244,26.3,34.49,32.887,11.042,4.773,21.473,9.282,26.028,17.186Z"/><path class="f" d="M597.861,35.499c-25.809,4.987-64.742,39.931-79.846,57.531l6.603,5.666c17.264-20.112,54.108-50.636,74.89-54.652l-1.647-8.545Z"/><path class="f" d="M109.427,30.223l-7.92,3.62c-5.07-11.08-10.59-21.4-17-32.95h9.94c5.53,10.06,10.41,19.37,14.98,29.33Z"/><path class="f" d="M464.44,245.132l-7.457,4.48c1.405,2.346,4.7,7.839,55.091,13.936,25.11,3.039,52.015,4.862,59.967,4.065l-.869-8.662c-16.354,1.643-99.819-7.28-106.932-14.093,.004,.002,.094,.089,.2,.274Z"/><path class="f" d="M282.702,328.391c7.669,1.271,15.715-1.164,23.278-7.044,10.136-7.884,17.581-20.623,18.518-31.699l-8.674-.733c-.725,8.528-7.11,19.28-15.19,25.562-3.899,3.032-9.931,6.418-16.512,5.327l-1.42,8.587Z"/><path class="f" d="M597.865,272.132l-8.032,3.355c8.115,19.432,26.622,28.677,40.006,30.686,10.642,1.598,19.769-.782,24.415-6.371l-6.694-5.564c-2.603,3.13-9.052,4.437-16.426,3.33-11.148-1.675-26.55-9.34-33.27-25.435Z"/><path class="f" d="M513.727,.893c-5.46,24.82-21.14,35.4-50.42,35.49l-.03-8.7c24.64-.08,37-7.27,41.7-26.79h8.75Z"/><path class="f" d="M205.717,343.853h-33.61l.01-.24c5.45,.31,11.36,.22,17.06,.13,5.45-.08,11.06-.17,16.54,.11Z"/><path class="f" d="M285.663,140.936l7.102-5.04c-6.762-9.52-15.58-10.908-22.659-12.021-9.353-1.473-16.108-2.535-19.153-20.981l-8.583,1.413c4.061,24.654,15.92,26.52,26.384,28.167,6.585,1.035,12.274,1.93,16.909,8.462Z"/><path class="f" d="M702.677,258.903v9.61c-2.5,1.73-4.16,4.37-6.31,7.76-1.94,3.07-4.15,6.55-7.43,10.14l-6.42-5.87c2.76-3.03,4.66-6.02,6.49-8.92,3.34-5.27,6.55-10.34,13.67-12.72Z"/><path class="f" d="M602.221,98.043c-7.133-3.294-13.872-6.403-18.443-9.611l-5.002,7.125c5.213,3.657,12.296,6.926,19.795,10.389,11.05,5.102,23.573,10.884,27.305,17.261l7.51-4.398c-5.111-8.734-18.36-14.85-31.166-20.766Z"/><path class="f" d="M689.222,244.989l-3.128-8.122-3.309,1.269c-20.811,7.971-44.403,17.003-58.634,37.02l7.095,5.044c12.708-17.873,34.033-26.038,54.652-33.935l3.324-1.275Z"/><path class="f" d="M702.677,162.933c-.52,3.72-.44,7.84,0,12.06v37.82l-1.6-.7c-.06,.14-.08,.23-.08,.23,.32-1.64-1.21-7.98-2.45-13.08-4.04-16.59-10.15-41.67,3.56-54.37l.57,.62v17.42Z"/><path class="f" d="M9.928,326.448c19.818,3.528,34.895,3.528,53.787-.008l-1.602-8.553c-17.997,3.366-31.725,3.362-50.659-.008l-1.526,8.568Z"/><path class="f" d="M158.279,296.576l-1.178,8.624c25.137,3.421,46.617-4.877,63.832-24.666l-6.565-5.712c-15.387,17.682-33.732,24.797-56.088,21.754Z"/><path class="f" d="M109.457,343.853h-21.31l-1.08-4.65c9.26-2.17,16.51,.5,22.39,4.65Z"/><path class="f" d="M266.597,343.853h-13.43c-13.01-9.71-28.74-16.23-41.03-15.41l-.58-8.69c17.09-1.13,39.25,9.45,55.04,24.1Z"/><path class="f" d="M.837,80.503c-.06,.03-.13,.06-.19,.09v-.52l.19,.43Z"/><path class="f" d="M550.787,343.853h-13.13c-.31-.29-.61-.58-.91-.87-5.48-5.28-10.65-10.26-18.68-12.8l2.63-8.3c9.97,3.15,16.13,9.09,22.08,14.83,2.62,2.52,5.18,4.97,8.01,7.14Z"/><path class="f" d="M34.387,238.983l-8.71,.02c-.03-16.06-10.92-26.77-25.03-35.14v-9.97c18.08,9.83,33.69,23.16,33.74,45.09Z"/><path class="f" d="M702.677,94.553v9.26c-3.1-1.01-6.24-2.39-9.4-4.15l4.23-7.6c1.74,.97,3.47,1.8,5.17,2.49Z"/><path class="f" d="M136.987,231.702c7.676-1.026,20.377,4.401,30.207,12.901,7.011,6.063,11.228,12.663,11.288,17.651l8.704-.102c-.121-10.341-9.01-19.559-14.299-24.132-9.917-8.577-25.22-16.525-37.048-14.946l1.148,8.628Z"/><path class="f" d="M427.388,265.207l-2.984,8.175c10.476,3.82,20.46,4.854,29.262,5.769,15.798,1.636,28.272,2.93,38.922,18.401l7.17-4.934c-12.924-18.783-28.601-20.407-45.193-22.126-8.711-.903-17.717-1.836-27.177-5.285Z"/><path class="f" d="M618.487,184.61l2.947,8.19c27.963-10.045,31.657-5.859,49.42,14.259l6.528-5.761c-19.274-21.826-26.898-28.184-58.895-16.688Z"/><path class="f" d="M519.511,222.625c-12.138-9.463-25.9-20.192-34.46-9.573l6.77,5.463c3.192-3.953,13.811,4.323,22.341,10.974,8.659,6.751,16.837,13.127,24.143,13.836l.839-8.662c-4.786-.465-12.674-6.613-19.633-12.038Z"/><path class="f" d="M436.345,176.618l-.265,8.7c6.071,.185,12.327,11.718,17.359,20.985,3.543,6.526,6.891,12.688,10.653,16.433l6.135-6.169c-2.856-2.846-5.909-8.467-9.138-14.416-6.724-12.387-13.679-25.196-24.744-25.534Z"/><path class="f" d="M684.277,306.743c-.28,21.75-7.39,28.45-16.38,36.92-.07,.06-.13,.12-.2,.19h-12.4c2.36-2.51,4.6-4.62,6.63-6.53,8.36-7.88,13.41-12.63,13.64-30.69l8.71,.11Z"/><path class="f" d="M357.583,227.77l-5.213,6.974c17.506,13.074,27.706,27.03,39.522,43.187,1.33,1.817,2.682,3.668,4.065,5.55l7.011-5.16c-1.383-1.875-2.728-3.717-4.05-5.527-12.229-16.724-22.787-31.166-41.336-45.023Z"/><path class="f" d="M492.357,343.483l-.77,.37h-8.77c-11.26-21.68-24.2-30.31-51.19-34.81l1.43-8.58c31.34,5.23,46.3,16.08,59.3,43.02Z"/><path class="f" d="M318.237,343.853h-9.63c-1.04-2.41-1.84-4.82-2.37-7.21l8.5-1.88c.66,2.96,1.86,6,3.5,9.09Z"/><path class="f" d="M254.187,229.241l4.292-7.574c-14.401-8.154-35.45-37.507-42.575-55.818l-8.114,3.158c6.917,17.763,28.427,50.058,46.398,60.234Z"/><path class="f" d="M370.657,343.853h-11.77c-5.42-5.39-11.22-9.2-17.72-9.61l.54-8.69c11.68,.73,20.91,8.79,28.95,18.3Z"/><path class="f" d="M346.409,276.495l-6.075,6.234c3.324,3.241,7.011,8.247,10.91,13.549,9.539,12.967,20.35,27.662,34.464,29.166,6.947,.742,13.845-1.868,20.506-7.756l-5.765-6.52c-4.817,4.261-9.339,6.101-13.815,5.621-10.302-1.097-19.909-14.152-28.378-25.67-4.118-5.597-8.009-10.884-11.847-14.624Z"/><path class="f" d="M572.43,305.534c-7.771-4.658-13.91-8.334-14.869-17.906l-8.658,.865c1.39,13.925,10.774,19.546,19.054,24.506,5.38,3.222,10.457,6.263,13.43,11.36l7.518-4.39c-4.106-7.025-10.676-10.963-16.475-14.435Z"/><path class="f" d="M86.113,88.716c-1.47,5.446-.759,10.566,2.108,15.232l7.412-4.563c-1.605-2.61-1.96-5.278-1.118-8.394,3.071-11.346,20.925-25.804,53.066-42.972,3.672-1.96,4.564-2.444,5.244-3.045l-5.742-6.535c.06-.057,.144-.132,.268-.215-.397,.265-2.16,1.209-3.868,2.119-22.216,11.865-52.34,29.791-57.368,48.373Z"/><path class="f" d="M83.597,42.713l-6.55,5.72C61.557,30.663,56.487,16.503,55.107,.893h8.71c1.35,14.02,6.05,26.06,19.78,41.82Z"/><path class="f" d="M55.396,135.212c9.905,13.479,19.274,26.217,16.781,39.133l8.553,1.639c.385-2.008,.563-3.989,.563-5.95,0-14.287-9.58-27.322-18.881-39.979-7.106-9.669-14.457-19.669-16.52-29.3l-8.507,1.821c2.452,11.46,10.366,22.224,18.012,32.636Z"/><path class="f" d="M37.407,198.204l4.594-7.393c-29.485-18.313-29.346-30.707-28.975-60.664,.038-3.472,.083-7.151,.083-11.072H4.405c0,3.883-.045,7.529-.083,10.97-.362,30.463-.567,47.257,33.085,68.16Z"/><path class="f" d="M16.957,20.033l-8.66,.79c-.61-6.57-.28-13.21,.91-19.66,.78-.18,1.59-.27,2.42-.27h6.51c-1.34,6.24-1.77,12.73-1.18,19.14Z"/><path class="f" d="M594.748,144.135c0-5.347-.397-10.759-1.466-16.225l-8.538,1.67c2.365,12.129,1.065,23.992-.31,36.559-.797,7.28-1.624,14.807-1.708,22.517l8.704,.098c.079-7.285,.88-14.597,1.655-21.669,.824-7.504,1.662-15.16,1.662-22.95Z"/><path class="f" d="M544.807,96.392c10.17,14.805,8.492,32.077,6.721,50.364-1.428,14.711-2.905,29.92,2.493,43.55l8.092-3.204c-4.628-11.679-3.309-25.197-1.923-39.504,1.851-19.038,3.755-38.718-8.205-56.133l-7.177,4.926Z"/><path class="f" d="M684.59,117.921c-23.35,23.226-32.273,30.532-64.516,29.684l-.227,8.7c36.066,.948,47.139-8.596,70.878-32.21l-6.135-6.173Z"/><path class="f" d="M657.761,45.559c-12.769-4.103-25.968-8.345-27.713-18.156l-8.568,1.526c2.663,14.967,19.107,20.252,33.614,24.914,8.685,2.792,17.665,5.678,21.571,10.088l6.513-5.769c-5.485-6.199-15.168-9.31-25.416-12.604Z"/><path class="f" d="M702.677,23.623v12.49c-7.3-7.15-12.29-13.26-16.11-17.96-11.03-13.53-12.72-15.61-41.94-5.23l-2.91-8.2c4.31-1.53,8.15-2.81,11.59-3.83h28.42c3.84,2.5,7.27,6.46,11.59,11.76,2.61,3.21,5.59,6.86,9.36,10.97Z"/></g><path class="e" d="M702.677,11.883V332.863c0,6.07-4.92,10.99-10.98,10.99H11.627c-6.06,0-10.98-4.92-10.98-10.99V11.883C.647,6.643,4.307,2.263,9.207,1.163c.78-.18,1.59-.27,2.42-.27H691.697c6.06,0,10.98,4.92,10.98,10.99Z"/></g></g></g></svg>