<?xml version="1.0" encoding="UTF-8"?><svg id="Layer_2" xmlns="http://www.w3.org/2000/svg" viewBox="0 0 186.31 269.18"><defs><style>.cls-1{fill:#f3999c;}.cls-2{fill:#fff;}.cls-3{fill:#751d0e;}.cls-4{fill:#f9e9a7;}.cls-5{fill:#301919;}.cls-6{fill:#f6ff39;}.cls-7{fill:#752912;}.cls-8{fill:#ffc19f;}.cls-9{fill:#564545;}.cls-10{fill:#541000;opacity:.21;}.cls-11{opacity:.39;}.cls-12{fill:#f4b18c;}.cls-13{fill:#968080;}.cls-14{fill:#1b6168;}.cls-15{fill:#a8a0a0;}.cls-16{fill:#dd6554;}.cls-17{fill:#e5b428;}.cls-18{fill:#f95006;}.cls-19{opacity:.34;}.cls-20{fill:#d2dae5;}.cls-21{fill:#594545;}.cls-22{fill:#2d8f91;}.cls-23{fill:#fac7a8;}.cls-24{fill:#682110;}.cls-25{fill:#64210e;opacity:.19;}.cls-26{fill:#d63030;}.cls-27{fill:#352323;}.cls-28{opacity:.12;}.cls-29{fill:#6d261d;opacity:.2;}.cls-30{fill:#e3986a;}.cls-31{fill:#f7f7f7;}.cls-32{fill:#e0d4d3;}.cls-33{fill:#19555b;}.cls-34{fill:#a02e07;}.cls-35{fill:#7e331c;}.cls-36{fill:#fcfeff;}.cls-37{fill:#84220f;}.cls-38{fill:#c97256;}.cls-39{fill:#bca4a4;}.cls-40{opacity:.37;}</style></defs><g id="Capa_2"><g><path class="cls-2" d="M41.41,192.45l-1.3-9.12c-.03-.21-.14-.4-.31-.53-.17-.13-.39-.18-.6-.15l-12.2,1.95c-.43,.07-.72,.47-.66,.9l1.69,11.87c-1.2-.27-2.77,0-4.24,.82-2.43,1.36-3.69,3.74-2.81,5.3,.88,1.57,3.56,1.73,5.99,.37,2.41-1.35,3.67-3.69,2.84-5.26l-1.79-12.55,10.63-1.7,.95,6.66c-1.21-.29-2.81-.04-4.31,.81-2.43,1.36-3.69,3.74-2.81,5.3,.88,1.57,3.56,1.73,5.99,.37,2.3-1.29,3.55-3.48,2.94-5.04Z"/><path class="cls-2" d="M53.1,6.83c-1.75-4.17-5.48-3.49-7.85-6.2-.22-.42-.69-.68-1.19-.62-.64,.08-1.09,.67-1.01,1.31l1.81,13.93c-1.77-.44-4.12-.08-6.33,1.13-3.62,1.97-5.52,5.45-4.25,7.78,1.27,2.33,5.23,2.62,8.84,.65,3.51-1.91,5.41-5.26,4.35-7.58v-.04l-1.11-8.53c2.1,1.18,3.04,0,6.09,1.82,.16,.1,.37-.11,.3-.27-1.38-3.16-3.79-1.93-6.78-4.57l-.14-1.06c2.75,1.72,4.63,.51,6.89,2.54,.17,.15,.46-.1,.38-.3Z"/><path class="cls-2" d="M176.55,60.36c-2.76-4.28-5.67-2.96-8.5-5.48-.27-.44-.78-.64-1.24-.47-.52,.2-.76,.82-.54,1.39l4.79,12.31c-1.58-.05-3.45,.73-5.02,2.26-2.56,2.49-3.33,6.03-1.72,7.9,1.61,1.87,4.98,1.36,7.54-1.13,2.48-2.42,3.27-5.85,1.85-7.75l-3.92-10.1c1.66,.53,3.34-.08,6.54,1.47,.2,.1,.35-.19,.23-.39Z"/><g><path class="cls-28" d="M186.31,254.42c0,2.69-15.1,4.87-33.73,4.87s-33.73-2.18-33.73-4.87,15.1-4.87,33.73-4.87,33.73,2.18,33.73,4.87Z"/><polygon class="cls-6" points="169.23 186.88 132.05 186.88 120.58 193.65 178.66 193.65 169.23 186.88"/><rect class="cls-17" x="120.58" y="193.65" width="58.08" height="62.99"/><g><g><path class="cls-32" d="M167.97,204.38c-.71,0-1.42,.27-1.97,.81l-36.83,36.83c-1.09,1.09-1.09,2.85,0,3.93,1.08,1.09,2.85,1.09,3.93,0l36.83-36.83c1.09-1.09,1.09-2.85,0-3.93-.54-.54-1.25-.81-1.97-.81Z"/><path class="cls-31" d="M129.67,243.99c0-.77,.62-1.39,1.39-1.39s1.39,.62,1.39,1.39-.62,1.39-1.39,1.39-1.39-.62-1.39-1.39Z"/><path class="cls-32" d="M167.97,246.77c-.71,0-1.42-.27-1.97-.81l-36.83-36.83c-1.09-1.09-1.09-2.85,0-3.93,1.08-1.09,2.85-1.09,3.93,0l36.83,36.83c1.09,1.09,1.09,2.85,0,3.93-.54,.54-1.25,.81-1.97,.81Z"/><path class="cls-31" d="M169.43,243.99c0-.77-.62-1.39-1.39-1.39s-1.39,.62-1.39,1.39,.62,1.39,1.39,1.39,1.39-.62,1.39-1.39Z"/><path class="cls-31" d="M129.67,207.16c0,.77,.62,1.39,1.39,1.39s1.39-.62,1.39-1.39-.62-1.39-1.39-1.39-1.39,.62-1.39,1.39Z"/><path class="cls-31" d="M169.43,207.16c0,.77-.62,1.39-1.39,1.39s-1.39-.62-1.39-1.39,.62-1.39,1.39-1.39,1.39,.62,1.39,1.39Z"/></g><path class="cls-32" d="M173.25,225.92c0,13.05-10.58,23.63-23.63,23.63s-23.63-10.58-23.63-23.63,10.58-23.63,23.63-23.63,23.63,10.58,23.63,23.63Z"/><path class="cls-9" d="M171.16,225.92c0,11.9-9.65,21.54-21.54,21.54s-21.54-9.65-21.54-21.54,9.65-21.54,21.54-21.54,21.54,9.65,21.54,21.54Z"/><path class="cls-13" d="M157.78,225.92c0,4.51-3.66,8.17-8.17,8.17s-8.17-3.66-8.17-8.17,3.66-8.17,8.17-8.17,8.17,3.66,8.17,8.17Z"/><path class="cls-39" d="M156.05,225.92c0,3.55-2.88,6.43-6.43,6.43s-6.43-2.88-6.43-6.43,2.88-6.43,6.43-6.43,6.43,2.88,6.43,6.43Z"/><path class="cls-32" d="M164.49,239.87c.34-1.47,.63-3,.86-4.57,1.42-.24,2.75-.53,4.04-.83,.11-.26,.21-.53,.31-.79-1.34,.33-2.74,.63-4.24,.89,.21-1.58,.37-3.21,.47-4.88,1.72-.12,3.37-.26,4.95-.42,.04-.24,.08-.48,.11-.72-1.54,.16-3.2,.31-5.03,.44,.05-1.01,.07-2.04,.07-3.07s-.03-2.06-.07-3.07c1.83,.13,3.49,.28,5.03,.44-.03-.24-.07-.48-.11-.72-1.58-.16-3.23-.3-4.95-.42-.09-1.67-.25-3.3-.47-4.88,1.5,.26,2.9,.57,4.24,.89-.1-.26-.2-.53-.31-.79-1.28-.31-2.62-.59-4.04-.83-.23-1.58-.52-3.1-.86-4.57,.68,.17,1.34,.37,1.99,.57-.25-.32-.52-.62-.79-.93-.46-.13-.91-.27-1.38-.38-.12-.47-.25-.92-.38-1.38-.3-.27-.61-.54-.93-.79,.2,.65,.39,1.31,.57,1.99-1.47-.34-3-.63-4.57-.86-.24-1.42-.53-2.75-.83-4.04-.26-.11-.53-.21-.79-.31,.33,1.34,.63,2.74,.9,4.24-1.58-.21-3.21-.37-4.88-.46-.12-1.72-.26-3.37-.42-4.95-.24-.04-.48-.08-.72-.11,.16,1.54,.31,3.2,.44,5.03-1.01-.05-2.04-.07-3.07-.07s-2.06,.03-3.07,.07c.13-1.83,.28-3.49,.44-5.03-.24,.03-.48,.07-.72,.11-.16,1.58-.3,3.23-.42,4.95-1.67,.09-3.3,.25-4.88,.46,.26-1.5,.57-2.9,.89-4.24-.26,.1-.53,.2-.79,.31-.3,1.28-.59,2.62-.83,4.04-1.58,.23-3.1,.52-4.57,.86,.17-.68,.37-1.34,.57-1.99-.32,.25-.62,.52-.93,.79-.13,.46-.27,.91-.38,1.38-.47,.12-.92,.25-1.38,.38-.27,.3-.54,.61-.79,.93,.65-.2,1.31-.39,1.99-.57-.34,1.47-.63,3-.86,4.57-1.42,.24-2.75,.53-4.04,.83-.11,.26-.21,.53-.31,.79,1.34-.33,2.74-.63,4.24-.89-.21,1.58-.37,3.21-.47,4.88-1.72,.12-3.37,.26-4.95,.42-.04,.24-.08,.48-.11,.72,1.54-.16,3.2-.31,5.03-.44-.05,1.01-.07,2.04-.07,3.07s.03,2.06,.07,3.07c-1.83-.13-3.49-.28-5.03-.44,.03,.24,.07,.48,.11,.72,1.58,.16,3.23,.3,4.95,.42,.09,1.67,.25,3.3,.47,4.88-1.5-.26-2.9-.57-4.24-.89,.1,.26,.2,.53,.31,.79,1.28,.3,2.62,.59,4.04,.83,.23,1.58,.52,3.1,.86,4.57-.68-.17-1.34-.37-1.99-.57,.25,.32,.52,.62,.79,.93,.46,.13,.91,.27,1.38,.38,.12,.47,.25,.92,.38,1.38,.3,.27,.61,.54,.93,.79-.2-.65-.39-1.31-.57-1.99,1.47,.34,3,.63,4.57,.86,.24,1.42,.53,2.75,.83,4.04,.26,.11,.53,.21,.79,.31-.33-1.34-.63-2.74-.89-4.24,1.58,.21,3.21,.37,4.88,.46,.12,1.72,.26,3.37,.42,4.95,.24,.04,.48,.08,.72,.11-.16-1.54-.31-3.2-.44-5.02,1.01,.05,2.04,.07,3.07,.07s2.06-.03,3.07-.07c-.13,1.83-.28,3.49-.44,5.02,.24-.03,.48-.07,.72-.11,.16-1.58,.3-3.23,.42-4.95,1.67-.09,3.3-.25,4.88-.46-.26,1.5-.57,2.9-.9,4.24,.26-.1,.53-.2,.79-.31,.3-1.28,.59-2.62,.83-4.04,1.58-.23,3.1-.52,4.57-.86-.17,.68-.37,1.34-.57,1.99,.32-.25,.62-.52,.93-.79,.13-.46,.27-.91,.38-1.38,.47-.12,.92-.25,1.38-.38,.27-.3,.54-.61,.79-.93-.65,.2-1.31,.39-1.99,.57Zm-19.14-10.38c-1.95-.03-3.82-.08-5.6-.15-.04-1.12-.06-2.26-.06-3.42s.02-2.3,.06-3.42c1.78-.07,3.64-.12,5.6-.15-.02,1.23-.02,5.91,0,7.14Zm-5.57-7.67c.07-1.85,.19-3.65,.35-5.38,1.74-.16,3.54-.28,5.38-.35-.07,1.89-.12,3.76-.15,5.58-1.82,.03-3.7,.08-5.58,.15Zm-4.29-10.03c1.49-.35,3.04-.65,4.64-.89-.25,1.56-.47,3.2-.64,4.9-1.7,.17-3.34,.38-4.9,.64,.24-1.6,.54-3.15,.89-4.64Zm-.99,5.37c1.57-.26,3.22-.47,4.93-.65-.16,1.72-.27,3.5-.34,5.34-1.7,.07-3.4,.16-5.07,.27,.1-1.69,.26-3.35,.48-4.95Zm-.59,8.77c0-1.05,.03-2.09,.07-3.12,1.6-.11,3.28-.2,5.08-.28-.03,1.11-.05,2.25-.05,3.39s.02,2.28,.05,3.39c-1.8-.07-3.48-.17-5.08-.28-.05-1.03-.07-2.06-.07-3.12Zm.11,3.81c1.66,.11,3.37,.2,5.07,.27,.07,1.83,.19,3.62,.34,5.34-1.71-.18-3.36-.39-4.93-.65-.22-1.6-.38-3.26-.48-4.95Zm1.47,10.32c-.35-1.49-.65-3.04-.89-4.64,1.56,.25,3.2,.47,4.9,.64,.17,1.7,.39,3.34,.64,4.9-1.6-.24-3.15-.54-4.64-.89Zm4.29-10.03c1.89,.07,3.76,.12,5.58,.15,.03,1.82,.08,3.7,.15,5.58-1.85-.07-3.65-.19-5.38-.35-.16-1.74-.28-3.54-.35-5.38Zm1.08,11.02c-.26-1.57-.47-3.22-.65-4.93,1.72,.16,3.5,.28,5.34,.34,.07,1.7,.16,3.4,.27,5.07-1.7-.1-3.35-.26-4.95-.48Zm4.69-25.67c-1.83,.07-3.62,.19-5.34,.35,.18-1.71,.39-3.36,.65-4.93,1.61-.22,3.26-.38,4.95-.48-.11,1.66-.2,3.36-.27,5.07Zm.96-5.11c1.03-.05,2.07-.07,3.12-.07s2.09,.03,3.12,.07c.11,1.6,.2,3.28,.28,5.08-1.11-.04-2.25-.05-3.39-.05s-2.28,.02-3.39,.05c.07-1.8,.17-3.48,.28-5.08Zm-.3,5.78c1.12-.04,2.26-.06,3.42-.06s2.29,.02,3.42,.06c.07,1.78,.12,3.64,.15,5.6-1.23-.02-5.91-.02-7.14,0,.03-1.95,.08-3.82,.15-5.6Zm6.54,25.52c-1.03,.05-2.06,.07-3.12,.07s-2.09-.03-3.12-.07c-.11-1.6-.2-3.28-.28-5.08,1.11,.04,2.25,.05,3.39,.05s2.28-.02,3.39-.05c-.07,1.8-.17,3.48-.28,5.08Zm.3-5.78c-1.12,.04-2.26,.06-3.42,.06s-2.29-.02-3.42-.06c-.07-1.78-.12-3.64-.15-5.6,1.23,.02,5.91,.02,7.14,0-.03,1.95-.08,3.82-.15,5.6Zm.16-6.29c-1.16,.01-6,.01-7.16,0-.01-1.16-.01-6,0-7.16,1.16-.02,6-.02,7.16,0,.02,1.16,.02,6,0,7.16Zm11.55,5.19c-1.57,.26-3.22,.47-4.93,.65,.16-1.72,.27-3.5,.34-5.34,1.7-.07,3.4-.16,5.07-.27-.1,1.7-.26,3.35-.48,4.95Zm.59-8.77c0,1.05-.03,2.09-.07,3.12-1.6,.11-3.28,.2-5.08,.28,.03-1.11,.05-2.25,.05-3.39s-.02-2.28-.05-3.39c1.8,.07,3.48,.17,5.08,.28,.05,1.03,.07,2.06,.07,3.12Zm-.11-3.81c-1.66-.11-3.36-.2-5.07-.27-.07-1.83-.19-3.62-.34-5.34,1.71,.17,3.36,.39,4.93,.65,.22,1.6,.38,3.26,.48,4.95Zm-1.47-10.32c.35,1.49,.65,3.04,.89,4.64-1.56-.25-3.2-.47-4.9-.64-.17-1.7-.39-3.34-.64-4.9,1.6,.24,3.15,.54,4.64,.89Zm-9.86,10.57c1.95,.03,3.82,.08,5.6,.15,.04,1.12,.06,2.26,.06,3.42s-.02,2.29-.06,3.42c-1.78,.07-3.64,.12-5.6,.15,.02-1.23,.02-5.91,0-7.14Zm5.57-.54c-1.89-.07-3.76-.12-5.58-.15-.03-1.82-.08-3.7-.15-5.58,1.85,.07,3.65,.19,5.38,.35,.16,1.74,.28,3.54,.35,5.38Zm-1.07-11.02c.26,1.57,.47,3.22,.65,4.93-1.72-.16-3.5-.28-5.34-.35-.07-1.7-.16-3.4-.27-5.07,1.7,.1,3.35,.26,4.95,.48Zm0,30.26c-1.61,.22-3.26,.38-4.95,.48,.11-1.66,.2-3.36,.27-5.07,1.83-.07,3.62-.19,5.34-.34-.18,1.71-.39,3.36-.65,4.93Zm-4.66-5.29c.07-1.89,.12-3.76,.15-5.58,1.82-.03,3.7-.08,5.58-.15-.07,1.85-.19,3.65-.35,5.38-1.74,.16-3.54,.28-5.38,.35Zm10.03,4.29c-1.49,.35-3.04,.65-4.64,.89,.25-1.56,.47-3.2,.64-4.9,1.7-.17,3.34-.38,4.9-.64-.24,1.6-.54,3.15-.89,4.64Z"/></g><circle class="cls-26" cx="126.44" cy="198.74" r="2.11"/></g><g><g><path class="cls-23" d="M16.69,131.23c-.62-.38,5.79-8.38,6.43-8.03,11.56,6.27,19.77,10.53,33.24,13.98-3.62,5.98-6.17,10.5-14.22,9.09-3.89-.68-15.66-8.96-25.45-15.03Z"/><g><path class="cls-23" d="M25.11,114.67c2.17,6.13,2.21,8.84,1.1,12.24-1.49,4.58-6.02,6.29-10.33,5.78-2.36-.28-6.1-2.1-11.45-7.63,.39-4.14,6.33-10.82,13.04-13.44,2.62,3.71,5.77,2.55,7.63,3.05Z"/><path class="cls-29" d="M20.34,125.55c-3.1,4.26-8.83,2.76-12.01-1.19,.87-.6,4.08-8.93,7.39-10.57,3.84-.46,4.09,3.97,5.23,3.4-2.01,1.81-2.67,5.1-.61,8.37Z"/><g><path class="cls-5" d="M.92,135.78c-.9-.67-1.19-1.82-.66-2.62l9.51-14.16,4.66,3.46-10.81,13.19c-.35,.42-.89,.62-1.45,.59-.42-.02-.86-.18-1.24-.46Z"/><path class="cls-27" d="M2.34,133.77c-1.88-1.4-2.34-4-1.05-5.9l23.12-33.95,9.72,7.22-25.83,31.93c-.83,1.03-2.05,1.57-3.29,1.58-.92,0-1.86-.28-2.67-.87Z"/><path class="cls-15" d="M42.5,101.46c-4.73,6.37-13.05,8.19-18.59,4.07-5.54-4.12-6.2-12.61-1.47-18.97,4.73-6.37,13.06-8.19,18.6-4.08,5.54,4.12,6.19,12.62,1.46,18.98Z"/><path class="cls-11" d="M33.4,107.44c-.83-.45-1.72-.97-2.63-1.54-2.04,.81-4,.99-5.6,.43-.43-.24-.86-.5-1.26-.8-.41-.3-.78-.63-1.13-.98-1-1.37-1.39-3.3-1.2-5.49-.81-.71-1.56-1.41-2.23-2.07-.01-.12-.01-.24-.02-.36,.66,.66,1.42,1.38,2.28,2.13,.15-1.33,.51-2.76,1.06-4.21-1.11-1.04-2.06-2.03-2.76-2.9,.03-.09,.06-.19,.09-.28,.66,.83,1.58,1.82,2.76,2.93,.35-.88,.77-1.77,1.27-2.66-1.21-1.16-2.18-2.24-2.81-3.13,.04-.08,.08-.15,.13-.23,.58,.83,1.53,1.91,2.8,3.14,.47-.82,1-1.63,1.59-2.43,.18-.24,.37-.47,.56-.7-1.58-.87-2.88-1.45-3.84-1.73,.05-.07,.11-.13,.16-.2,1.03,.31,2.36,.93,3.84,1.74,.92-1.12,1.89-2.12,2.9-2.99-1.82-.63-3.5-.9-4.89-.8,.09-.09,.19-.16,.29-.25,1.4-.05,3.05,.24,4.82,.86,1.31-1.09,2.67-1.95,4-2.56-2.06-.55-4.12-.65-6.01-.3,.25-.14,.49-.26,.74-.38,1.8-.21,3.72-.04,5.63,.51,2.14-.9,4.2-1.11,5.88-.52,.43,.24,.84,.49,1.24,.79,.4,.3,.77,.62,1.11,.96,1.05,1.43,1.45,3.46,1.2,5.78,1.08,1.67,1.79,3.46,2.11,5.25-.04,.27-.09,.55-.15,.82-.21-1.91-.89-3.86-2.02-5.67-.2,1.45-.63,3-1.29,4.57,1.1,1.52,1.86,3.01,2.21,4.36-.05,.11-.1,.23-.15,.34-.3-1.36-1.05-2.89-2.17-4.45-.54,1.22-1.21,2.44-2.02,3.64,1.2,1.18,2.17,2.27,2.77,3.17-.05,.07-.09,.15-.15,.21-.55-.84-1.48-1.92-2.77-3.18-.17,.25-.33,.49-.51,.73-.59,.8-1.22,1.54-1.86,2.22,1.55,.86,2.85,1.46,3.81,1.78-.06,.06-.12,.13-.18,.19-1.04-.35-2.35-.97-3.81-1.79-.71,.73-1.44,1.39-2.18,1.98,1.41,.81,2.62,1.41,3.6,1.8-.08,.06-.16,.12-.24,.17-1.03-.42-2.25-1.05-3.57-1.81-1.23,.95-2.49,1.71-3.72,2.23,.97,.61,1.87,1.13,2.7,1.57-.12,.03-.24,.06-.35,.08Zm3.54-6.16c-1.24-.71-2.58-1.55-3.93-2.46-.64,.76-1.27,1.47-1.88,2.13,1.3,.89,2.51,1.66,3.62,2.31,.75-.59,1.48-1.25,2.19-1.98Zm-6.03-.48c.61-.65,1.24-1.36,1.88-2.13-.83-.57-1.67-1.16-2.49-1.77-.82-.61-1.63-1.24-2.41-1.87-.55,.84-1.05,1.64-1.49,2.41,.7,.56,1.44,1.13,2.23,1.72,.78,.58,1.55,1.13,2.29,1.64Zm-2.44-1.43c-.75-.55-1.48-1.12-2.2-1.7-.74,1.29-1.33,2.47-1.75,3.51,.54,.42,1.08,.84,1.67,1.28,.58,.43,1.15,.84,1.7,1.23,.86-.71,1.83-1.61,2.85-2.69-.76-.52-1.52-1.06-2.26-1.62Zm4.48-.89c.67-.81,1.35-1.67,2.05-2.6,.27-.37,.53-.73,.79-1.09-.78-.63-1.6-1.27-2.48-1.92-.88-.66-1.73-1.26-2.56-1.82-.27,.35-.54,.7-.81,1.07-.69,.93-1.32,1.83-1.9,2.71,.76,.61,1.57,1.24,2.43,1.88s1.69,1.23,2.5,1.78Zm.98-11.2c-.97,1.04-1.99,2.22-3.03,3.56,.86,.58,1.72,1.19,2.56,1.81,.84,.63,1.67,1.27,2.48,1.93,.98-1.39,1.82-2.7,2.54-3.93-.68-.61-1.41-1.22-2.19-1.79-.78-.58-1.56-1.1-2.35-1.58Zm2.5,1.37c.77,.57,1.49,1.16,2.16,1.77,.89-1.54,1.56-2.93,2.01-4.09-.47-.44-.97-.88-1.5-1.27-.54-.4-1.09-.75-1.65-1.07-.99,.77-2.12,1.81-3.34,3.11,.78,.47,1.55,.99,2.32,1.56Zm3.1,9.43c-.99-.96-2.19-2.02-3.55-3.13-.25,.36-.51,.72-.78,1.08-.68,.91-1.36,1.78-2.04,2.59,1.43,.97,2.76,1.8,3.95,2.48,.66-.69,1.29-1.44,1.89-2.25,.19-.25,.36-.51,.53-.77Zm2.18-3.89c-.84-1.13-1.86-2.26-3.05-3.36-.73,1.24-1.57,2.56-2.53,3.91,1.29,1.06,2.5,2.13,3.55,3.14,.82-1.22,1.5-2.46,2.04-3.69Zm1.38-4.91c-.64-.97-1.4-1.89-2.28-2.75-.47,1.2-1.15,2.58-2.02,4.08,1.18,1.08,2.2,2.21,3.03,3.33,.67-1.61,1.1-3.19,1.27-4.66Zm-1.59-6.22c.15,.71-.06,1.83-.58,3.22,.84,.81,1.59,1.67,2.21,2.58,.19-2.41-.33-4.48-1.63-5.8Zm-.54-.48c-.53-.39-1.71,.06-3.29,1.25,.54,.32,1.07,.65,1.59,1.04,.52,.38,.99,.8,1.45,1.22,.68-1.85,.78-3.11,.25-3.51Zm-6.64-.27c1.05,.33,2.09,.8,3.1,1.37,1.18-.9,2.19-1.43,2.92-1.49-1.64-.86-3.77-.77-6.02,.12Zm-4.49,2.71c1.31,.48,2.68,1.13,4.06,1.94,1.19-1.26,2.31-2.32,3.32-3.11-1.07-.6-2.18-1.06-3.29-1.39-1.36,.58-2.75,1.45-4.09,2.56Zm-3.16,3.19c1.27,.71,2.64,1.56,4.03,2.49,1.02-1.31,2.04-2.49,3.02-3.55-1.39-.82-2.78-1.48-4.1-1.95-1.02,.87-2.02,1.88-2.95,3.01Zm-2.34,3.38c.99,.94,2.17,1.98,3.51,3.07,.59-.88,1.22-1.78,1.9-2.7,.27-.36,.54-.71,.81-1.06-1.46-.99-2.82-1.82-4.03-2.5-.19,.24-.39,.48-.58,.73-.6,.81-1.13,1.63-1.61,2.46Zm-1.38,2.88c.94,.88,2.03,1.82,3.26,2.81,.45-.78,.95-1.59,1.5-2.41-1.27-1.03-2.45-2.07-3.49-3.06-.5,.89-.92,1.78-1.26,2.67Zm-1.12,4.48c.76,.66,1.59,1.34,2.48,2.05,.44-1.05,1.04-2.23,1.77-3.5-1.15-.93-2.25-1.87-3.22-2.78-.55,1.47-.9,2.9-1.03,4.23Zm1.61,5.98c-.17-.79,.12-2.08,.77-3.69-.84-.66-1.64-1.33-2.41-1.99-.17,2.36,.36,4.38,1.64,5.68Zm4.25-1.09c-.55-.39-1.1-.78-1.65-1.19-.54-.4-1.08-.82-1.61-1.24-.85,2.12-1.02,3.58-.44,4,.57,.43,1.92-.15,3.7-1.58Zm2.83,1.89c-.86-.54-1.73-1.12-2.6-1.73-1.35,1.09-2.5,1.73-3.31,1.8,1.61,.85,3.7,.77,5.91-.07Zm4.04-2.31c-1.15-.67-2.37-1.45-3.59-2.28-1,1.06-1.96,1.97-2.84,2.7,.93,.65,1.83,1.25,2.68,1.79,1.24-.51,2.51-1.25,3.75-2.2Z"/><path class="cls-21" d="M29.59,96.91c-3.9-2.98-7.23-6.43-8.84-9.23-.29-.5-.11-1.13,.38-1.42,.5-.29,1.13-.12,1.42,.38,3.01,5.24,12.77,13.05,19.87,14.69,.56,.13,.91,.69,.78,1.25-.13,.56-.69,.91-1.25,.78-3.91-.91-8.43-3.44-12.37-6.45Z"/></g><path class="cls-23" d="M15.99,119.73c.66-.86,.24-2.35-.91-3.74,1.32,.69,2.59,.85,3.27,.19,1.04-1.03,.33-3.47-1.59-5.45-1.92-1.99-4.33-2.76-5.38-1.74-.96,.95-.38,3.09,1.22,4.98-1.9-1.09-3.81-1.29-4.57-.31-.73,.95-.1,2.66,1.34,4.17-2.08-.84-4.09-.76-4.76,.39-.59,1.02,.04,2.52,1.43,3.79-1.27,.17-2.25,.67-2.5,1.51-.41,1.4,1.29,3.05,3.8,3.7,2.51,.65,4.87,.04,5.28-1.36,.18-.61-.1-1.26-.62-1.86,.6-.14,1.11-.38,1.37-.83,.51-.88,.06-2.11-.95-3.24,1.54,.61,2.95,.61,3.57-.2Z"/><path class="cls-10" d="M13.96,116.01c.24,1.77,1.65,4.23,4.57,3.81,2.71-.38,5.83-2.59,5.58-4.36-.24-1.77-2.84-3.04-5.8-2.84-2.96,.21-4.6,1.61-4.36,3.39Z"/><path class="cls-23" d="M13.96,116.01c.23,1.69,2.95,2.88,6.08,2.66,3.13-.22,5.47-1.76,5.24-3.45-.23-1.69-2.95-2.88-6.08-2.66-3.13,.22-5.47,1.76-5.24,3.45Z"/></g></g><path class="cls-18" d="M40.11,129.91c3.11,3.68,8.9,11.39,12.44,14.44,3.36-1.76,9.93-5.32,10.53-5.68,5.02-8.1,9.07-24,9.18-24.46-8.87-1.6-10.66-2.44-13.7-.27-3.98,3.19-11.7,10.14-18.45,15.98Z"/><g><path class="cls-8" d="M153.36,101.32c1.22-.58,4.87,9.11,3.69,9.78-16.93,9.61-37.97,21.35-44.69,23.18l-6.6-13.46c11.63-5.06,30.59-11.34,47.6-19.5Z"/><g><path class="cls-8" d="M169.62,100.72c6.34-.91,11.61-.65,12.8,1.74-3.35,.96-17.98,4.34-26.92,5.85-1.09,.18-2.5-5.44-1.18-6.53,1.38-3.5,8.19-4.19,14.37-9.74,1.77-1.59,1.98,.37,1.69,1.43-.52,1.9-2.62,3.1-4.64,6.01-1.43,2.05,2.1,1.49,3.88,1.24Z"/><path class="cls-8" d="M183.15,107.29c-3.84,.43-9.57,1.09-20.47,2.58-3.23,.44-3.75-4.48-2.49-4.68,6.53-1.04,21.41-3.17,22.96,2.1Z"/><path class="cls-8" d="M181.96,110.15c-3.81,.61-13.79-.26-24.48,.99-5.39,.63-11.37-9.59-2.74-12,4.61-1.29,10.37,3.23,12.86,5.87,6.34,.71,13.52,2.12,14.36,5.14Z"/></g><path class="cls-18" d="M129.72,130.4c-2.32-4.22-7-14.37-9.86-18.05-3.64,1.07-18.43,4.23-19.09,4.47-.14,9.12-3.23,24.07-4.63,24.09,6.64-.09,9.66,.06,11.63-.37,4.53-2.35,14.19-5.74,21.95-10.13Z"/></g><path class="cls-28" d="M40.47,265.29c0,2.15,21.59,3.89,48.23,3.89s48.23-1.74,48.23-3.89-21.59-3.89-48.23-3.89-48.23,1.74-48.23,3.89Z"/><path class="cls-8" d="M82.82,249.32c-.02,1.51-13.47,3.01-13.62,1.5-1.45-14.63-7.95-54.65-8.85-60.44l20.81,1.21c-.25,14.44,1.81,47.27,1.67,57.73Z"/><path class="cls-8" d="M96.13,248.76c.18,1.5,13.8,1.46,13.8-.05-.09-14.7-.43-54.22-.14-60.08l-20.05,2.57c1.77,14.33,5.16,47.17,6.4,57.56Z"/><path class="cls-14" d="M56.31,163.07l55.4,1.58c1.04,12.8,2.31,31.16,3.47,47.19-4.83,1.44-20.52,2.33-24.89,1.75-1.54-7.93-3-17.71-3.88-21.14-.67-2.61-3.45-2.65-3.49,.19-.08,6.83,.03,15.21,.19,20.78-5.3,.55-20.25,.72-24.84,0-.36-5.52-1.44-33.35-1.97-50.35Z"/><path class="cls-40" d="M112.39,176.34c-12.03-1.85-43.98-4.38-55.78-4.2,.08,2.45,.16,5.01,.25,7.63,16.17,3.96,37.37,4.17,55.79,.17-.09-1.23-.18-2.42-.26-3.6Z"/><path class="cls-4" d="M84.8,257.41c-.02,.43-16.75,1.09-16.8,.58-.33-4.15-.93-9.88-1.13-12.5l17.86-.46c-.15,4.74,.17,9.65,.07,12.38Z"/><g><path class="cls-22" d="M63.17,252.58c.25-.93,.76-2.12,1.16-3.2,.3-.8,8.13-.74,8.17,1.19,0,.49,0,.93-.04,1.32,1.34,0,2.79-.03,4.33-.09,3.34-.15,6.33-.45,8.43-.8,.16,3.04-.06,8.32,.09,11.7,0,0-34.91,6.83-40.46,1.81-1.56-1.42,7.16-7.84,18.32-11.92Z"/><path class="cls-33" d="M85.26,260.57c0,.75,.02,1.48,.05,2.12,0,0-34.91,6.83-40.46,1.81-.22-.2-.23-.5-.07-.88,9.66,2.01,31.8-1.52,40.48-3.05Z"/><path class="cls-20" d="M60.73,253.59c-.27,.05-.53-.1-.59-.37-.06-.26,.1-.53,.37-.59,2.03-.46,4.4,.46,5.77,2.25,.16,.21,.12,.52-.09,.69-.08,.06-.18,.1-.28,.1-.15,0-.31-.06-.41-.19-1.15-1.5-3.11-2.28-4.78-1.89Zm-2.68,1.26c-.27,.05-.51-.16-.55-.43-.03-.27,.16-.51,.43-.55,2.14-.27,4.26,.52,5.82,2.14,.19,.19,.18,.5-.01,.69-.09,.09-.2,.13-.32,.14-.14,0-.27-.04-.37-.15-1.84-1.92-3.92-1.98-4.99-1.85Zm-2.95,.42c1.93-.35,4.41,.52,6.06,2.1,.2,.19,.2,.5,.01,.69-.09,.09-.21,.14-.33,.15-.13,0-.26-.04-.36-.14-1.44-1.38-3.59-2.16-5.21-1.84-.27,.05-.52-.13-.57-.39s.13-.52,.39-.57Z"/></g><path class="cls-4" d="M95.17,257.87c.04,.42,16.11,.23,16.15-.28,.35-4.06,.84-10.41,1.1-12.6l-17.85,.51c.41,4.72,.35,9.65,.61,12.37Z"/><g><path class="cls-22" d="M116.14,252.58c-.25-.93-.76-2.12-1.16-3.2-.3-.8-8.13-.74-8.17,1.19,0,.49,0,.93,.04,1.32-1.34,0-2.79-.03-4.33-.09-3.34-.15-6.33-.45-8.43-.8-.16,3.04,.06,8.32-.09,11.7,0,0,34.91,6.83,40.46,1.81,1.56-1.42-7.16-7.84-18.32-11.92Z"/><path class="cls-33" d="M94.05,260.57c0,.75-.02,1.48-.05,2.12,0,0,34.91,6.83,40.46,1.81,.22-.2,.23-.5,.07-.88-9.66,2.01-31.8-1.52-40.48-3.05Z"/><path class="cls-20" d="M113.8,255.48c-.1,.13-.26,.2-.41,.19-.1,0-.19-.04-.28-.1-.21-.16-.25-.47-.09-.69,1.37-1.79,3.75-2.71,5.77-2.25,.26,.06,.43,.32,.37,.59-.06,.26-.32,.42-.59,.37-1.67-.39-3.63,.4-4.78,1.89Zm2.46,1.21c-.1,.11-.24,.16-.37,.15-.11,0-.23-.05-.32-.14-.2-.19-.2-.5-.01-.69,1.56-1.62,3.68-2.41,5.82-2.14,.27,.03,.46,.28,.43,.55s-.28,.48-.55,.43c-1.08-.13-3.15-.07-4.99,1.85Zm8.34-.86c-.05,.27-.29,.45-.57,.39-1.62-.32-3.77,.46-5.21,1.84-.1,.1-.23,.14-.36,.14-.12,0-.24-.06-.33-.15-.19-.2-.18-.5,.01-.69,1.65-1.58,4.14-2.45,6.06-2.1,.27,.05,.44,.3,.39,.57Z"/></g><path class="cls-18" d="M114.57,177.38c-14.85,8.31-46.04,6.81-61.06-2.12,0,0,7.33-51.34,9.88-62.65,12.3,1.23,34.25,2.95,46.1,4.68,1.3,14.54,3.66,38.63,5.09,60.09Z"/><path class="cls-34" d="M72.29,115.69c.03-.73,.21-1.43,.45-2.11,7.56,.13,18.86,.93,26.85,2.26,.03,.32,.14,.63,.13,.96-.23,5.68-6.56,10.04-14.13,9.73-7.58-.31-13.53-5.16-13.3-10.84Z"/><path class="cls-23" d="M77.18,100.36l-.89,16.02c-.19,3.45,4.03,6.48,9.43,6.78,5.4,.3,9.94-2.25,10.13-5.69l.89-16.02-19.56-1.09Z"/><path class="cls-25" d="M73.6,113.69c.92,0,1.84,.01,2.83,.03l.35-6.34c5.25-2.07,19.95-5.94,19.95-5.94l-.62,10.79c-7.15,6.83-21.28,8.19-22.51,1.45Z"/><g class="cls-19"><path class="cls-2" d="M80.11,136.25l-3.07,4.78c-.27,.42-.74,.69-1.24,.7l-5.67,.18c-1.27,.04-1.94,1.52-1.14,2.5l3.59,4.39c.32,.39,.43,.91,.29,1.4l-1.58,5.45c-.35,1.22,.85,2.32,2.03,1.86l5.29-2.06c.47-.18,1-.12,1.42,.16l4.7,3.19c1.05,.71,2.47-.09,2.39-1.36l-.33-5.66c-.03-.5,.19-.99,.59-1.3l4.48-3.48c1-.78,.68-2.37-.55-2.69l-5.49-1.44c-.49-.13-.88-.49-1.05-.96l-1.93-5.34c-.43-1.2-2.05-1.38-2.73-.31Z"/></g><g><path class="cls-12" d="M45.63,80.12c.92,8.27,7.69,14.2,13.4,14.08,5.7-.12,7.66-6.59,7.71-14.45,.05-7.86-4.54-14.15-10.25-14.01-7.8,.2-11.72,6.61-10.86,14.38Z"/><path class="cls-37" d="M138.33,58.5c-.75,30.92-29.91,46.12-54.48,42.89-24.57-3.23-39.65-26.87-33.25-56.23,3.55-16.3,19.58-28.31,43.03-25.06,24.96,3.46,45.28,14.44,44.7,38.41Z"/><path class="cls-23" d="M123.91,50.59c1.58,5.25-7.6,48.81-13.45,54.23-6.2,5.75-22.5,10.29-34.11,7.56-7.23-1.7-20.38-8.71-23.58-16.36-3.79-9.05-.59-46.95,1.58-51.37,7.34-14.93,21-13.67,38.78-11.33,16.63,2.19,26.67,3.65,30.78,17.27Z"/><path class="cls-23" d="M131.57,93.24c-3.37,8.17-12.34,12.36-18.42,10.68-6.08-1.68-1.88-26.75,9.59-27.41,9.55-.55,12,9.05,8.83,16.73Z"/><path class="cls-30" d="M124.73,91.95c-.97,3.51-5.4,5.99-8.29,4.59-1.13-.55,2.55-12.76,4.44-12.5,3.19,.43,4.82,4.4,3.85,7.91Z"/><g><path class="cls-3" d="M94.5,92.12c-.18-3.33-5.98-3.28-13.54-4.27-.4-.05-1.94-.24-2.33-.29-7.57-.88-11.91-2.25-12.67,.99-1.38,5.86,4.16,13.77,11.84,14.75l.13,.02c8.27,1.03,16.9-4.8,16.56-11.21Z"/><path class="cls-16" d="M86.41,102.12c-1.85-2.21-4.55-3.67-7.55-4.04-2.97-.37-5.86,.35-8.17,1.99,1.27,1.1,2.74,2.03,4.35,2.62,.87,.32,1.81,.55,2.76,.67l.13,.02c2.05,.25,4.12,.08,6.07-.42,.05-.01,.1-.03,.15-.04,.78-.21,1.53-.49,2.26-.8Z"/><path class="cls-2" d="M90.03,89.07l.05-.14s-8.45-1.19-11.43-1.53c-2.84-.33-9.12-1.01-9.12-1.01v.15c.28,2.42,4.46,4.73,9.75,5.38,5.28,.65,9.9-.57,10.75-2.85Z"/></g><path class="cls-1" d="M110.3,94.37c-.17,1.79-2.79,3.01-5.86,2.73-3.07-.29-5.43-1.97-5.26-3.76,.17-1.79,2.79-3.01,5.86-2.72,3.07,.29,5.43,1.97,5.26,3.76Z"/><path class="cls-1" d="M62.78,87.76c-.3,1.57-2.46,2.47-4.82,2.01-2.35-.46-4.02-2.1-3.71-3.67,.31-1.57,2.46-2.47,4.82-2.01,2.35,.46,4.02,2.1,3.71,3.67Z"/><path class="cls-38" d="M83.25,84.58c-.2-.03-.35-.19-.36-.39-.05-1.45-1.05-2.51-2.55-2.71-1.51-.2-2.78,.58-3.16,1.95-.06,.22-.29,.35-.51,.29-.22-.06-.35-.29-.28-.51,.49-1.75,2.16-2.79,4.06-2.54,1.89,.25,3.2,1.65,3.26,3.5,0,.23-.17,.42-.4,.43h-.07Z"/><path class="cls-7" d="M113.8,64.18c-.29-.06-.56-.23-.75-.48-2.43-3.29-7.96-5.22-12.86-4.47-.68,.11-1.32-.36-1.43-1.05-.1-.68,.37-1.33,1.05-1.43,5.85-.89,12.27,1.41,15.26,5.47,.41,.56,.29,1.34-.27,1.76-.3,.22-.66,.29-1,.22Z"/><path class="cls-7" d="M55.52,56.02c-.31-.03-.6-.19-.79-.46-.36-.5-.25-1.2,.25-1.57,3.65-2.65,9.74-2.87,14.48-.54,.56,.28,.78,.95,.51,1.5-.28,.56-.95,.79-1.5,.51-3.97-1.96-9.21-1.82-12.17,.34-.23,.17-.51,.24-.77,.21Z"/><g><path class="cls-36" d="M71.15,81.21s-10.96,2.55-14.02-4.49c-3.72-8.57,4.55-13.84,9.18-11.97,4.28,1.73,7.67,6.83,4.84,16.46Z"/><path class="cls-35" d="M57.77,66.51c2.33-2.62,5.05-3.18,7.82-2.46,2.83,.73,5.4,3.54,5.87,6.14-1.15-3.02-3.67-4.41-5.27-5.05-2.55-1.03-6.21-.09-8.17,2.53-1.74,2.33-2.15,6.13-.78,9.28-1.82-2.26-1.9-7.71,.53-10.44Z"/><path class="cls-24" d="M69.79,72.2c.56,2.98-1.07,6.05-3.63,6.86-2.56,.81-5.09-.94-5.64-3.92-.56-2.98,1.07-6.05,3.63-6.86,2.56-.81,5.09,.94,5.64,3.92Z"/><path class="cls-2" d="M69.54,71.27c.15,.83-.3,1.68-1.01,1.9-.71,.23-1.41-.26-1.57-1.09-.15-.83,.3-1.68,1.01-1.9,.71-.23,1.41,.26,1.57,1.09Z"/></g><g><path class="cls-36" d="M89.76,83.82s11.81,5.64,17.41-.22c6.82-7.14-1.1-14.61-6.96-14.16-5.42,.41-10.83,4.32-10.45,14.38Z"/><path class="cls-35" d="M109.48,73.62c-1.89-3.19-4.85-4.52-8.23-4.65-3.46-.13-7.25,1.82-8.57,4.18,2.22-2.56,5.53-3.16,7.55-3.31,3.23-.25,7.15,1.73,8.61,4.82,1.3,2.75,.64,6.51-1.87,9.13,2.76-1.64,4.47-6.85,2.5-10.17Z"/><path class="cls-24" d="M105.56,77.07c.74,3-1.09,6.04-4.1,6.78-3,.74-6.04-1.09-6.78-4.1-.74-3,1.09-6.04,4.1-6.78,3-.74,6.04,1.09,6.78,4.1Z"/><path class="cls-2" d="M105.23,76.13c.21,.83-.3,1.68-1.14,1.88-.83,.21-1.68-.3-1.88-1.14-.21-.83,.3-1.68,1.14-1.88,.83-.21,1.68,.3,1.88,1.14Z"/></g><path class="cls-37" d="M129.21,58.94c3.04-.36,2.36-1.36,5.33-2.04-10.89-3.92-5.4-20.37-19.33-28.5-23.02-11.42-41.61-8.34-48.25-5.25-12.23,5.69-18.48,17.02-20.31,27.21-2.5,9.15-1.72,12.37-6.74,14.03,5.03,2.01,5.3,1,7.06-1.36-.24,7.64-1.42,10.97-5.41,13.09,6.22,2.32,9.18-1.78,10.16-7.8,1.17-7.17,1.31-20.96,2.58-23.42,.73-1.43,9.29-8.89,11.52-8.74,4.88,.32,8.57,17.9,25.82,19.27-6.59-4.44-9.86-10.15-12.95-18.14,1.27,.94,2.53,2.06,3.76,3.39,12.91,13.99,25.64,18.41,37.89,18.52-3.21,12.72-6.58,28.94,7.07,30.85-1.22-1.87-3.89-10.92,.44-17.29,1.55,1.18,.83-5.27,1.35-13.8Z"/></g></g></g></g></svg>