<?xml version="1.0" encoding="UTF-8"?><svg id="Capa_2" xmlns="http://www.w3.org/2000/svg" viewBox="0 0 190.73 207.04"><defs><style>.cls-1{fill:#7cc9d6;}</style></defs><g id="Capa_5_copia_2"><g><path class="cls-1" d="M72.19,20.14c-1.62,0-3.18,.08-4.65,.22,.53-1.54,.82-3.2,.82-4.91,0-8.53-7.07-15.45-15.79-15.45s-15.79,6.92-15.79,15.45c0,.65,.04,1.29,.12,1.91-.17-.02-.35-.03-.52-.03-1.6,0-3,.87-3.71,2.16-1.07-1.84-3.38-2.86-5.76-2.36-2.91,.61-4.81,3.27-4.25,5.94,.07,.35,.19,.69,.34,1-7.64,.5-13.14,1.86-13.14,3.44,0,1.98,8.63,3.56,19.25,3.52,.5,0,1,0,1.49-.01,2.34,2.8,8.13,4.77,14.89,4.75,2.1,0,4.11-.21,5.95-.56,1.84,1.81,4.84,2.98,8.23,2.97,5.58-.02,10.1-3.23,10.08-7.18,0-.17-.01-.33-.03-.49,.82,.04,1.65,.05,2.5,.05,9.13-.03,16.53-2.38,16.52-5.26,0-2.88-7.42-5.19-16.55-5.16Z"/><path class="cls-1" d="M100.46,93.16c-.08-.96-2.06-1.6-4.66-1.6,.18-.57,.28-1.18,.28-1.81,0-3.3-2.67-5.97-5.97-5.97-2.68,0-4.94,1.76-5.7,4.19-.27-.03-.54-.04-.82-.04-3.3,0-5.97,1.84-5.97,4.1s2.67,4.1,5.97,4.1c.3,0,.6-.02,.89-.05-.01,.08-.02,.15-.02,.23,0,1.13,1.5,2.04,3.36,2.04s3.36-.91,3.36-2.04c0-.23-.07-.46-.18-.67,.06,0,.12-.02,.18-.03,1,.16,2.21,.2,3.5,.09,3.28-.28,5.87-1.42,5.77-2.55Z"/><path class="cls-1" d="M185.99,35.5c-.11-1.3-2.81-2.18-6.36-2.19,.25-.78,.38-1.61,.38-2.47,0-4.5-3.65-8.15-8.15-8.15-3.65,0-6.74,2.4-7.78,5.71-.37-.03-.74-.05-1.12-.05-4.5,0-8.15,2.51-8.15,5.6s3.65,5.6,8.15,5.6c.41,0,.81-.02,1.21-.06-.02,.1-.03,.21-.03,.32,0,1.54,2.05,2.79,4.59,2.79s4.59-1.25,4.59-2.79c0-.32-.09-.62-.25-.91,.08-.01,.17-.03,.25-.04,1.36,.22,3.01,.27,4.78,.12,4.48-.38,8.01-1.94,7.88-3.48Z"/><path class="cls-1" d="M174.44,126.82c.89-1.57,1.64-3.29,2.2-5.12,3.39-11.08-1.12-22.28-10.08-25.03-8.96-2.74-18.97,4.02-22.36,15.09-.53,1.75-.85,3.49-1.01,5.21-4.83-4.25-11.03-5.13-14.02-1.91-2.78,3-1.81,8.51,2.05,12.89h-.03c-3.5-.2-6.46,1.94-6.62,4.78-.16,2.84,2.54,5.3,6.04,5.5,.94,.05,1.84-.07,2.66-.32,2.67,2.54,10.35,4.37,19.41,4.37,11.27,0,20.4-2.84,20.42-6.34,.52,0,1.05,0,1.58,0,9.13,0,16.06-.65,16.06-3.67s-7.27-5.42-16.28-5.47Z"/><path class="cls-1" d="M20.71,130.22c.37-.65,.68-1.36,.91-2.12,1.41-4.6-.47-9.25-4.19-10.39-3.72-1.14-7.88,1.67-9.28,6.27-.22,.72-.35,1.45-.42,2.16-2.01-1.76-4.58-2.13-5.82-.79-1.15,1.24-.76,3.53,.84,5.35-1.45-.08-2.69,.81-2.75,1.99-.07,1.18,1.06,2.2,2.51,2.28,.39,.02,.76-.03,1.1-.13,1.11,1.05,4.3,1.82,8.06,1.82,4.68,0,8.47-1.18,8.48-2.63,.22,0,.44,0,.66,0,3.79,0,6.66-.27,6.66-1.53s-3.02-2.25-6.76-2.27Z"/><path class="cls-1" d="M135.9,198.81c.47-.84,.87-1.75,1.17-2.72,1.8-5.89-.6-11.85-5.36-13.31-4.76-1.46-10.09,2.14-11.89,8.03-.28,.93-.45,1.86-.53,2.77-2.57-2.26-5.87-2.73-7.46-1.02-1.48,1.59-.97,4.52,1.08,6.85-1.86-.1-3.44,1.03-3.53,2.54-.09,1.51,1.35,2.82,3.21,2.92,.5,.03,.98-.04,1.41-.17,1.42,1.35,5.5,2.33,10.32,2.33,5.99,0,10.85-1.51,10.86-3.37,.28,0,.56,0,.84,0,4.85,0,8.54-.35,8.54-1.95s-3.87-2.88-8.66-2.91Z"/></g></g></svg>