<?xml version="1.0" encoding="UTF-8"?><svg xmlns="http://www.w3.org/2000/svg" xmlns:xlink="http://www.w3.org/1999/xlink" viewBox="0 0 52.836 53.265"><defs><style>.f{fill:#fff;filter:url(#d);stroke:#ec867f;stroke-miterlimit:10;}.g{fill:#df3629;}</style><filter id="d" filterUnits="userSpaceOnUse"><feOffset dx="0" dy="4"/><feGaussianBlur result="e" stdDeviation="0"/><feFlood flood-color="#701b15" flood-opacity="1"/><feComposite in2="e" operator="in"/><feComposite in="SourceGraphic"/></filter></defs><g id="a"/><g id="b"><g id="c"><g><rect class="f" x=".5" y=".5" width="51.836" height="48.265" rx="12" ry="12"/><path class="g" d="M39.442,13.673v22.108c0,2.298-1.861,4.159-4.159,4.159h-14.228c-2.298,0-4.159-1.861-4.159-4.159v-3.612l3.064,.657v2.845c0,.657,.547,1.204,1.203,1.204h14.009c.657,0,1.204-.547,1.204-1.204V13.892c0-.657-.547-1.204-1.203-1.204h-14.009c-.657,0-1.204,.547-1.204,1.204v8.209l-3.064-.219v-2.736c-6.129,2.846-4.706,4.268-1.313,5.034,.438,.109,.876,.219,1.313,.219,.985,.109,2.079,.219,3.064,.328,.657,.109,1.313,.109,1.97,.109,2.189,.109,3.831,.109,3.831,.109v-3.393c0-.547,.657-.438,.876-.219l6.348,4.378,2.517,1.751c.219,.219,.219,.547,0,.876l-2.517,1.751-3.064,2.189-3.174,2.189c-.109,.109-.328,.219-.438,.219s-.438,0-.438-.328v-2.736c-1.642-.328-3.174-.547-4.597-.876-.438-.109-.766-.219-1.204-.219-1.094-.219-2.189-.547-3.064-.766-.766-.219-1.423-.438-2.079-.657-15.76-5.582,2.079-12.149,2.079-12.149v-3.283c0-2.298,1.86-4.159,4.158-4.159h14.228c2.189,0,4.05,1.86,4.05,4.159h0Z"/></g></g></g></svg>