<svg xmlns="http://www.w3.org/2000/svg" viewBox="0 0 17.55 28.11"><defs><style>.cls-1{fill:#fe4b90;}</style></defs><g id="Capa_2" data-name="Capa 2"><g id="Capa_2-2" data-name="Capa 2"><path class="cls-1" d="M8.78,0A5.52,5.52,0,0,0,3.25,5.43v9.13a5.53,5.53,0,0,0,11.05,0V5.43A5.52,5.52,0,0,0,8.78,0Z"/><path class="cls-1" d="M16.57,9.94a1,1,0,0,0-1,1v3.67A6.83,6.83,0,1,1,2,14.59V10.92a1,1,0,0,0-1-1,1,1,0,0,0-1,1v3.67A8.83,8.83,0,0,0,7.8,23.4v2.76H4.58a1,1,0,0,0,0,1.95H13a1,1,0,0,0,0-1.95H9.75V23.4a8.83,8.83,0,0,0,7.8-8.81V10.92a1,1,0,0,0-1-1Z"/></g></g></svg>