<svg xmlns="http://www.w3.org/2000/svg" xmlns:xlink="http://www.w3.org/1999/xlink" viewBox="0 0 47.87 53.26"><defs><style>.cls-1{fill:#fff;stroke:#fe93bc;stroke-miterlimit:10;filter:url(#filter);}.cls-2{fill:#fe4b90;}</style><filter id="filter" x="0" y="0" width="47.87" height="53.26" filterUnits="userSpaceOnUse"><feOffset dy="4" input="SourceAlpha"/><feGaussianBlur result="blur"/><feFlood flood-color="#7f2648"/><feComposite operator="in" in2="blur"/><feComposite in="SourceGraphic"/></filter></defs><g id="Capa_2" data-name="Capa 2"><g id="Capa_2-2" data-name="Capa 2"><rect class="cls-1" x="0.5" y="0.5" width="46.87" height="48.26" rx="12"/><path class="cls-2" d="M23.93,10.58A5.51,5.51,0,0,0,18.41,16v9.14a5.53,5.53,0,0,0,11.05,0V16a5.52,5.52,0,0,0-5.53-5.42Z"/><path class="cls-2" d="M31.73,20.52a1,1,0,0,0-1,1v3.67a6.83,6.83,0,0,1-13.65,0V21.5a1,1,0,1,0-1.95,0v3.67A8.84,8.84,0,0,0,23,34v2.76H19.74a1,1,0,0,0,0,1.95h8.38a1,1,0,1,0,0-1.95H24.91V34a8.84,8.84,0,0,0,7.8-8.81V21.5a1,1,0,0,0-1-1Z"/></g></g></svg>