<svg xmlns="http://www.w3.org/2000/svg" xmlns:xlink="http://www.w3.org/1999/xlink" viewBox="0 0 47.87 53.26"><defs><style>.cls-1{fill:#fff;stroke:#fe93bc;stroke-miterlimit:10;filter:url(#filter);}.cls-2{fill:#fe4b90;fill-rule:evenodd;}</style><filter id="filter" x="0" y="0" width="47.87" height="53.26" filterUnits="userSpaceOnUse"><feOffset dy="4" input="SourceAlpha"/><feGaussianBlur result="blur"/><feFlood flood-color="#7f2648"/><feComposite operator="in" in2="blur"/><feComposite in="SourceGraphic"/></filter></defs><g id="Capa_2" data-name="Capa 2"><g id="Capa_2-2" data-name="Capa 2"><rect class="cls-1" x="0.5" y="0.5" width="46.87" height="48.26" rx="12"/><path class="cls-2" d="M34.07,24.8a9.7,9.7,0,0,1-3.75,7.62.69.69,0,0,1-1-.21l-.49-.85a.69.69,0,0,1,.15-.88,7,7,0,0,0,1.76-2,7.31,7.31,0,0,0,0-7.28A7.46,7.46,0,0,0,28.87,19a.7.7,0,0,1-.16-.88l.48-.84a.7.7,0,0,1,1-.21,9.67,9.67,0,0,1,3.85,7.7Z"/><path class="cls-2" d="M38.83,24.8a14.41,14.41,0,0,1-6.14,11.78.65.65,0,0,1-.93-.21l-.54-.91a.66.66,0,0,1,.2-.87,12,12,0,0,0-.14-19.7.64.64,0,0,1-.21-.86l.51-.91a.66.66,0,0,1,.93-.23,14.28,14.28,0,0,1,4.38,4.71A14.43,14.43,0,0,1,38.83,24.8Z"/><path class="cls-2" d="M28.06,24.8c-.21,2-1.5,3.72-3,4l-.13,8.75v.05a1.13,1.13,0,0,1-.46.9.13.13,0,0,1-.06,0l-.07,0a1.17,1.17,0,0,1-1.39-.14.55.55,0,0,1-.1-.11l-8.23-7.65-.74,0-3-.08A1.82,1.82,0,0,1,9,28.84v-8.5a1.64,1.64,0,0,1,1.59-1.63l2.67-.06,1.3.05,8.48-7.87h0a1.18,1.18,0,0,1,2,.76v9.24A3.77,3.77,0,0,1,28.06,24.8Z"/></g></g></svg>