<?xml version="1.0" encoding="UTF-8"?>
<svg id="Capa_2" data-name="Capa 2" xmlns="http://www.w3.org/2000/svg" viewBox="0 0 702.74 342.96">
  <defs>
    <style>
      .cls-1 {
        opacity: .08;
      }

      .cls-2 {
        fill: none;
      }

      .cls-3 {
        fill: #1a1a1a;
      }

      .cls-4 {
        fill: #fe4b90;
      }
    </style>
  </defs>
  <g id="Capa_2-2" data-name="Capa 2">
    <g>
      <rect class="cls-4" x=".7" width="702.04" height="342.96" rx="10.99" ry="10.99"/>
      <g class="cls-1">
        <rect class="cls-3" x="279.87" y="320.94" width="94.41" height="8.57" transform="translate(-33.69 37.83) rotate(-6.3)"/>
        <polygon class="cls-3" points="409.46 327.82 409.79 342.96 418.36 342.96 418.03 327.63 409.46 327.82"/>
        <polygon class="cls-3" points="359.51 342.01 359.53 342.96 360.63 342.96 359.51 342.01"/>
        <polygon class="cls-3" points="229.83 316.59 246.05 342.96 247.18 342.96 253.67 338.97 237.14 312.1 229.83 316.59"/>
        <polygon class="cls-3" points="637.06 328.48 655.74 316.33 625.09 307.86 622.8 316.13 635.1 319.53 616.41 331.67 637.89 337.61 629.65 342.96 645.39 342.96 658.54 334.42 637.06 328.48"/>
        <polygon class="cls-3" points="508.07 167.07 514.27 172.99 527.82 158.83 530.23 187.86 550.36 166.81 552.76 195.84 572.89 174.8 574.5 194.32 583.04 193.62 579.87 155.1 559.73 176.14 557.34 147.12 537.2 168.17 534.8 139.14 508.07 167.07"/>
        <rect class="cls-3" x="581.17" y="28.08" width="8.57" height="76.74" transform="translate(58.08 329.23) rotate(-32.96)"/>
        <polygon class="cls-3" points="405.84 237.55 416.65 297.18 448.22 257.03 455.64 297.93 464.08 296.4 453.25 236.76 421.68 276.91 414.27 236.02 405.84 237.55"/>
        <polygon class="cls-3" points="384.65 342.96 399.48 342.96 384.37 330.16 384.65 342.96"/>
        <polygon class="cls-3" points="491.82 342.96 512.87 342.96 509.44 335.18 491.82 342.96"/>
        <rect class="cls-3" x="213.94" y="62.36" width="26.67" height="8.57"/>
        <polygon class="cls-3" points="447.06 105.03 482.19 74.14 445.24 69.51 466.06 51.21 460.4 44.77 425.27 75.65 462.23 80.28 441.4 98.59 447.06 105.03"/>
        <rect class="cls-3" x="353.73" y="75.46" width="54.13" height="8.57" transform="translate(9 194.35) rotate(-28.96)"/>
        <polygon class="cls-3" points="402.17 168 370.14 157.3 383.37 188.37 360.37 180.68 357.65 188.81 398.72 202.54 385.49 171.47 417.52 182.17 404.29 151.1 436.32 161.8 419.37 121.96 411.48 125.32 420.98 147.64 388.94 136.93 402.17 168"/>
        <polygon class="cls-3" points="577.44 342.96 589.35 335.86 584.96 328.5 560.69 342.96 577.44 342.96"/>
        <path class="cls-3" d="M26.07,4.84L.7,15.9v-4.92c0-1.78,.42-3.47,1.18-4.95L15.72,0h8.24l2.11,4.84Z"/>
        <rect class="cls-3" x="449.44" y="190.56" width="8.57" height="31.2" transform="translate(-6.08 398.37) rotate(-47.12)"/>
        <polygon class="cls-3" points="345.22 271.31 336.09 288.28 326.15 261.26 312.51 286.61 302.58 259.58 288.95 284.93 282.31 266.86 274.26 269.82 287.47 305.78 301.11 280.43 311.04 307.45 324.68 282.09 334.61 309.11 352.77 275.38 345.22 271.31"/>
        <rect class="cls-3" x="444.87" y="316.72" width="49.79" height="8.57" transform="translate(-81.82 181.43) rotate(-20.15)"/>
        <polygon class="cls-3" points="175.48 100.82 177.88 129.84 198.01 108.8 199.62 128.33 208.16 127.63 204.99 89.1 184.86 110.15 182.46 81.13 162.32 102.17 159.92 73.15 133.2 101.07 139.39 107 152.95 92.83 155.35 121.87 175.48 100.82"/>
        <polygon class="cls-3" points="160.2 272.35 156.64 288.09 165.01 289.98 172.76 255.64 150.27 268.03 155.91 242.99 133.42 255.37 139.07 230.33 108.23 247.3 112.37 254.81 126.52 247.02 120.87 272.07 143.36 259.69 137.71 284.73 160.2 272.35"/>
        <polygon class="cls-3" points="275.2 80.86 286.77 70.57 286.81 95.58 305.49 78.97 305.53 103.97 324.21 87.37 324.23 102.84 332.81 102.83 332.77 68.3 314.08 84.91 314.04 59.91 295.35 76.52 295.31 51.52 269.5 74.44 275.2 80.86"/>
        <polygon class="cls-3" points="368.15 0 353.78 0 357.29 6.17 368.15 0"/>
        <polygon class="cls-3" points="687.13 175.35 679.52 179.29 686.14 192.08 662.94 186.23 673.94 207.46 650.74 201.61 661.75 222.85 647.8 219.32 645.7 227.64 678.13 235.83 667.12 214.59 690.31 220.44 679.32 199.2 702.51 205.05 687.13 175.35"/>
        <polygon class="cls-3" points="32.98 311.71 19.29 297.1 48.83 296.28 28.62 274.72 58.16 273.89 31.44 245.37 25.18 251.23 38.88 265.85 9.33 266.68 29.54 288.24 0 289.06 26.73 317.58 32.98 311.71"/>
        <polygon class="cls-3" points="157.31 341.83 157.28 342.96 197.24 342.96 180.23 322.59 208.74 323.43 208.99 314.86 161.44 313.47 185.83 342.67 157.31 341.83"/>
        <polygon class="cls-3" points="657.12 26.85 676.53 5.37 638.06 4.98 637.97 13.55 657.4 13.75 637.99 35.24 666.93 35.52 647.52 57 676.47 57.28 663.44 71.69 669.8 77.43 695.61 48.89 666.66 48.61 686.07 27.13 657.12 26.85"/>
        <polygon class="cls-3" points="309.43 7.83 317.67 10.18 320.58 0 311.66 0 309.43 7.83"/>
        <rect class="cls-3" x="591.59" y="1.91" width="8.57" height="51.93" transform="translate(84.14 334.41) rotate(-33.6)"/>
        <polygon class="cls-3" points="60.39 120.84 46 157.48 38.01 154.34 45.44 135.44 17.42 145.7 28.33 117.92 .7 128.04 .31 128.18 .7 127.19 11.21 100.4 .7 104.24 .7 95.11 26.15 85.8 15.25 113.58 43.27 103.32 32.37 131.1 60.39 120.84"/>
        <polygon class="cls-3" points="391.51 16.05 394.9 0 385.28 0 376.42 5.04 377.49 0 368.72 0 364.1 21.91 383.88 10.66 379.18 32.93 398.96 21.67 396.23 34.62 404.62 36.39 411.29 4.8 391.51 16.05"/>
        <rect class="cls-3" x="187.27" y="6.49" width="8.57" height="36.4" transform="translate(29.13 129.21) rotate(-40.1)"/>
        <polygon class="cls-3" points="222.76 21.44 225.1 29.69 268.09 17.49 240.75 0 224.84 0 247.42 14.44 222.76 21.44"/>
        <rect class="cls-3" x="302.88" y="128.24" width="8.58" height="37.26" transform="translate(80.16 400.62) rotate(-73.74)"/>
        <rect class="cls-3" x="131.13" y="-5.43" width="8.57" height="59.84" transform="translate(44.4 127.71) rotate(-58.84)"/>
        <polygon class="cls-3" points="436.02 0 491.55 21.11 494.59 13.1 460.14 0 436.02 0"/>
        <rect class="cls-3" x="44.17" y="17.66" width="8.57" height="32.48" transform="translate(2.13 70.65) rotate(-73.4)"/>
        <rect class="cls-3" x="637.4" y="247.35" width="8.57" height="27.28" transform="translate(135.72 734.14) rotate(-65.21)"/>
        <rect class="cls-3" x="601.41" y="181.04" width="64.68" height="8.57" transform="translate(135.64 618.77) rotate(-57.33)"/>
        <polygon class="cls-3" points="702.73 246.15 702.73 266.18 697.16 264.49 702.73 246.15"/>
        <polygon class="cls-3" points="702.73 126.12 702.73 136.49 679.48 120.66 684.3 113.57 702.73 126.12"/>
        <rect class="cls-3" x="608.86" y="134.78" width="25.97" height="8.57" transform="translate(105.28 512.16) rotate(-48.44)"/>
        <rect class="cls-3" x="593.49" y="245.14" width="8.57" height="31.7" transform="translate(-31.21 433.68) rotate(-38.94)"/>
        <polygon class="cls-3" points="512.59 266.19 532.39 238.35 488.95 243 489.87 251.53 514.36 248.91 494.57 276.75 528.53 273.1 508.73 300.94 542.69 297.3 528.41 317.36 535.39 322.33 560.72 286.74 526.76 290.38 546.56 262.55 512.59 266.19"/>
        <polygon class="cls-3" points="126.58 342.96 125.58 339.47 113.44 342.96 126.58 342.96"/>
        <polygon class="cls-3" points="702.73 287.13 686.7 296.64 702.73 301.79 702.73 315.75 681.53 328.31 677.15 320.94 697.24 309.02 665.94 298.98 702.42 277.35 702.73 277.87 702.73 287.13"/>
        <rect class="cls-3" x="227.86" y="121.42" width="30.17" height="8.57" transform="translate(101.17 359.65) rotate(-86.14)"/>
        <polygon class="cls-3" points="519.23 5.25 523.7 12.56 544.28 0 527.82 0 519.23 5.25"/>
        <rect class="cls-3" x="637.4" y="61.52" width="8.58" height="35.03" transform="translate(132.19 477.05) rotate(-45.02)"/>
        <rect class="cls-3" x="251.22" y="227.17" width="28.32" height="8.57" transform="translate(-62.39 102.74) rotate(-19.65)"/>
        <rect class="cls-3" x="157.6" y="201.87" width="31.99" height="8.57" transform="translate(-39.96 370.57) rotate(-87.49)"/>
        <rect class="cls-3" x="281.59" y="199.01" width="74.28" height="8.57" transform="translate(-19.81 371.56) rotate(-58.96)"/>
        <rect class="cls-3" x="227" y="245.05" width="8.57" height="31.88" transform="translate(-90.56 126.74) rotate(-25.81)"/>
        <rect class="cls-3" x="188.31" y="240.3" width="31.56" height="8.57" transform="translate(-90.82 365.03) rotate(-72.37)"/>
        <rect class="cls-3" x="134.97" y="154.62" width="8.57" height="27.48" transform="translate(-75.7 129.24) rotate(-40.09)"/>
        <polygon class="cls-3" points="220.07 200.38 225.39 186.86 236.3 208.3 245.11 185.92 256.01 207.36 264.82 184.98 271.4 197.92 279.04 194.04 263.82 164.11 255.01 186.48 244.11 165.06 235.3 187.43 224.39 166 212.09 197.24 220.07 200.38"/>
        <rect class="cls-3" x="178.22" y="126.42" width="8.57" height="44.32" transform="translate(-30.1 249.47) rotate(-64.54)"/>
        <rect class="cls-3" x="82.55" y="129.28" width="45.57" height="8.57" transform="translate(-61.89 102.41) rotate(-41.19)"/>
        <rect class="cls-3" x="79.82" y="277.86" width="8.58" height="29.74" transform="translate(-159.37 109.75) rotate(-37.04)"/>
        <rect class="cls-3" x="50.56" y="197.31" width="8.57" height="47.33" transform="translate(-149.51 120.59) rotate(-49.9)"/>
        <polygon class="cls-3" points="105.74 79.43 90.45 95.39 96.64 101.32 125.11 71.6 93.5 70.37 108.79 54.4 102.6 48.47 74.13 78.2 105.74 79.43"/>
        <polygon class="cls-3" points="64.45 203.66 65.08 212.21 109.75 208.88 84.46 184.3 110.13 182.38 109.49 173.83 64.83 177.17 90.11 201.75 64.45 203.66"/>
        <rect class="cls-3" x="340.55" y="34.26" width="8.58" height="30.89" transform="translate(256.97 386.85) rotate(-83.6)"/>
        <polygon class="cls-3" points="26.07 174.17 22.65 182.04 .7 172.5 .7 163.15 26.07 174.17"/>
        <rect class="cls-3" x="352.45" y="105.23" width="58.32" height="8.57" transform="translate(14.43 260.52) rotate(-38.37)"/>
        <rect class="cls-3" x="442.18" y="140.73" width="64.69" height="8.57" transform="translate(82.93 449.75) rotate(-54.88)"/>
        <rect class="cls-3" x="524.57" y="169.28" width="8.57" height="76.38" transform="translate(147.74 628.76) rotate(-69.29)"/>
        <polygon class="cls-3" points="542.65 88.61 559.55 69.03 533.69 69.37 550.58 49.79 515.19 50.25 515.31 58.82 531.65 58.61 514.75 78.2 540.61 77.86 523.71 97.44 549.57 97.09 538.9 109.46 545.39 115.06 568.51 88.27 542.65 88.61"/>
        <rect class="cls-3" x="356.54" y="197.29" width="8.57" height="70.79" transform="translate(-64.74 289.47) rotate(-40.42)"/>
      </g>
      <path class="cls-2" d="M702.73,10.98V331.97c0,6.07-4.92,10.98-10.98,10.98H11.68c-6.06,0-10.98-4.91-10.98-10.98V10.98c0-1.78,.42-3.47,1.18-4.95C3.69,2.45,7.4,0,11.68,0H691.75c6.06,0,10.98,4.92,10.98,10.98Z"/>
    </g>
  </g>
</svg>