<?xml version="1.0" encoding="UTF-8"?><svg xmlns="http://www.w3.org/2000/svg" xmlns:xlink="http://www.w3.org/1999/xlink" viewBox="0 0 47.865 53.265"><defs><style>
.f{fill:#fe4b90;}.g{fill:#fff;filter:url(#d);stroke:#fe4b90;stroke-miterlimit:10;}</style><filter id="d" filterUnits="userSpaceOnUse"><feOffset dx="0" dy="4"/><feGaussianBlur result="e" stdDeviation="0"/><feFlood flood-color="#fe4b90" flood-opacity="1"/><feComposite in2="e" operator="in"/><feComposite in="SourceGraphic"/></filter></defs><g id="a"/><g id="b"><g id="c"><g><rect class="g" x=".5" y=".5" width="46.865" height="48.265" rx="12" ry="12"/><g><path class="f" d="M23.933,10.577c-3.022,0-5.46,2.405-5.525,5.427v9.132c0,3.055,2.47,5.525,5.525,5.525,3.055,0,5.525-2.47,5.525-5.525v-9.132c-.065-3.022-2.502-5.427-5.525-5.427h0Z"/><path class="f" d="M31.733,20.521c-.552,0-.975,.423-.975,.975v3.672c0,3.77-3.055,6.824-6.824,6.824-3.77,0-6.824-3.055-6.824-6.824v-3.672c0-.552-.423-.975-.975-.975-.552,0-.975,.423-.975,.975v3.672c-.032,4.485,3.347,8.287,7.799,8.807v2.762h-3.217c-.552,0-.975,.423-.975,.975,0,.552,.423,.975,.975,.975h8.384c.552,0,.975-.423,.975-.975s-.423-.975-.975-.975h-3.217v-2.762c4.452-.52,7.832-4.322,7.799-8.807v-3.672c0-.552-.423-.975-.975-.975h0Z"/></g></g></g></g></svg>